<svg xmlns="http://www.w3.org/2000/svg" viewBox="0 0 163.03 193.35"><defs><style>.cls-1{fill:#bcbbbb;}.cls-2{fill:#f58131;}.cls-3{fill:#ffd074;}</style></defs><title>largo-project-logo</title><g id="Layer_1" data-name="Layer 1"><path class="cls-1" d="M41,22.83c-1.8-1-1.8-2.74,0-3.78L72.65.78a7.28,7.28,0,0,1,6.56,0L110.83,19c1.8,1,1.8,2.74,0,3.78L79.21,41.09a7.27,7.27,0,0,1-6.55,0Z"/><path class="cls-2" d="M137.19,86.95c0-2.08-1.48-2.93-3.28-1.89l-4.71,2.72a7.27,7.27,0,0,0-3.28,5.68v5.43c0,2.08,1.48,2.93,3.28,1.89l4.71-2.72a7.27,7.27,0,0,0,3.28-5.68Z"/><path class="cls-3" d="M49.63,56.87V45.1a7.27,7.27,0,0,0-3.28-5.68L25.17,27.2c-1.8-1-3.28-.19-3.28,1.89V40.86a7.27,7.27,0,0,0,3.28,5.68l3.36,1.94L46.35,58.76C48.16,59.8,49.63,59,49.63,56.87Z"/><path class="cls-2" d="M68.56,63.84,49.63,52.91v4c0,2.08-1.47,2.93-3.28,1.89L28.53,48.47V87a7.27,7.27,0,0,0,3.28,5.68l36.75,21.22c1.81,1,3.28.19,3.28-1.89V69.52A7.26,7.26,0,0,0,68.56,63.84ZM60.77,95.42c0,2.08-1.47,2.92-3.26,1.86L46.66,90.86a7.37,7.37,0,0,1-3.26-5.71V73.38c0-2.08,1.47-2.92,3.26-1.86l10.86,6.41a7.37,7.37,0,0,1,3.26,5.71Z"/><path class="cls-3" d="M57.51,77.94,46.66,71.52c-1.79-1.06-3.26-.22-3.26,1.86V85.15a7.37,7.37,0,0,0,3.26,5.71l10.86,6.42c1.79,1.06,3.26.22,3.26-1.86V83.65A7.37,7.37,0,0,0,57.51,77.94Z"/><path class="cls-1" d="M110.39,73.65l-10.74,6.2a7.27,7.27,0,0,0-3.28,5.68v12.4c0,2.08,1.48,2.93,3.28,1.89l10.74-6.2a7.27,7.27,0,0,0,3.28-5.68V75.54C113.67,73.46,112.2,72.61,110.39,73.65Z"/><path class="cls-3" d="M129.31,28c0-2.08-1.47-2.93-3.28-1.89L89.28,47.3A7.27,7.27,0,0,0,86,53V95.42c0,2.08,1.47,2.93,3.28,1.89l7.1-4.1V85.53a7.27,7.27,0,0,1,3.28-5.68l10.74-6.2c1.8-1,3.28-.19,3.28,1.89v7.68L126,76.09a7.27,7.27,0,0,0,3.28-5.68Zm-7.82,22.09a7.24,7.24,0,0,1-3.29,5.67l-19.29,11c-1.81,1-3.29.18-3.29-1.9V58.45a7.24,7.24,0,0,1,3.28-5.66l19.29-11c1.81-1,3.29-.18,3.29,1.91Z"/><path class="cls-2" d="M118.21,41.74l-19.29,11a7.24,7.24,0,0,0-3.28,5.66v6.42c0,2.08,1.48,2.94,3.29,1.9l19.29-11a7.24,7.24,0,0,0,3.29-5.67V43.65C121.49,41.56,120,40.71,118.21,41.74Z"/><path class="cls-2" d="M7.75,137.8v20.86h8.6v6.87H0V137.8Z"/><path class="cls-2" d="M45.57,165.53,44.44,161h-8l-1.12,4.54h-7.8L36,137.8h9.08l8.48,27.73Zm-5.1-20.05L38,154.92h4.86Z"/><path class="cls-2" d="M78.6,137.8c2.73,0,5.14.4,6.87,1.57,1.93,1.25,3.13,3.25,3.13,6.79,0,3.7-1.49,6.55-4.94,7.59,3.38.52,4.46,3.62,5,11.77H80.61c-.76-7.11-1.25-8.52-3.22-8.52H74.14v8.52H66.39V137.8Zm-4.46,12.74h2.57c2.57,0,3.9-.52,3.9-3.66a2.84,2.84,0,0,0-.64-2,2.9,2.9,0,0,0-1.93-.44h-3.9Z"/><path class="cls-2" d="M124.13,149.34V164a25.18,25.18,0,0,1-9.77,1.93c-4.74,0-7.63-1.13-9.64-3.09-2.77-2.69-3.26-6.51-3.26-10.85,0-5.14.68-9.08,3.5-11.69,1.93-1.81,4.82-2.89,9.36-2.89,3.9,0,7.27.8,9.61,2.89l-4.46,5.38a8.68,8.68,0,0,0-5.5-1.57c-1.85,0-2.85.4-3.41,1.12-.73.89-1,2.41-1,6.23,0,4.82.28,6.23,1,7.19.64.76,1.69,1.09,3.46,1.09a12.54,12.54,0,0,0,3.17-.36v-4h-4v-6.07Z"/><path class="cls-2" d="M159.45,163.16c-1.93,1.85-4.82,3-9.12,3s-7.15-1.13-9-3c-2.45-2.37-3.25-6.11-3.25-11.17s.84-9.16,3.58-11.77c1.89-1.81,4.78-3,9.16-3s7.11,1.13,9,3c2.41,2.41,3.26,6.15,3.26,11.29S162.23,160.51,159.45,163.16Zm-5.86-18.32a4.59,4.59,0,0,0-6.23.28c-.8,1.08-1.09,3-1.09,6.51,0,3.74.24,5.83,1.17,6.87a3.8,3.8,0,0,0,3,1.08,3.87,3.87,0,0,0,3.26-1.33c.88-1.17,1.13-3,1.13-6.55C154.79,147.85,154.51,145.88,153.59,144.84Z"/><path class="cls-2" d="M35.78,179a4.26,4.26,0,0,1,2.9.78,4.09,4.09,0,0,1,1.14,3.29,4.16,4.16,0,0,1-1.18,3.39,4.13,4.13,0,0,1-2.68.75H32.52v5.88h-1V179Zm-3.27,7.33H36a2.8,2.8,0,0,0,2.06-.63,3.57,3.57,0,0,0,.76-2.61,3.51,3.51,0,0,0-.72-2.55,3,3,0,0,0-2.27-.65H32.52Z"/><path class="cls-2" d="M50.92,179a4.83,4.83,0,0,1,2.9.73A3.18,3.18,0,0,1,55,182.46a3.59,3.59,0,0,1-3.14,3.84c1.86.49,2.51,2.92,3.45,6.78H54.23c-1.24-4.66-1.78-6.37-4.1-6.37H47.75v6.37h-1V179Zm-3.16,6.82h1.88c2.55,0,4.29-.78,4.29-3.27a2.66,2.66,0,0,0-.74-2.06,3.39,3.39,0,0,0-2.27-.61H47.75Z"/><path class="cls-2" d="M70.81,191.9a5.23,5.23,0,0,1-4,1.45,5.07,5.07,0,0,1-4-1.43c-1.09-1.18-1.45-3.06-1.45-5.68s.41-4.76,1.65-6.07a5.24,5.24,0,0,1,4-1.45,5.08,5.08,0,0,1,4,1.43c1.08,1.18,1.45,3,1.45,5.68S72.05,190.59,70.81,191.9Zm-.63-11.15A4.05,4.05,0,0,0,67,179.6a4.16,4.16,0,0,0-3.23,1.18c-.92,1-1.37,2.55-1.37,5.43,0,2.49.35,4.14,1.25,5.13a4,4,0,0,0,3.12,1.12A4.18,4.18,0,0,0,70,191.28c.92-1,1.37-2.57,1.37-5.43C71.4,183.34,71.08,181.73,70.17,180.75Z"/><path class="cls-2" d="M84,179v10.35c0,1.7-.33,3.92-3.47,3.92a3.79,3.79,0,0,1-2.68-.88l.55-.67a3.22,3.22,0,0,0,2.1.69c2.27,0,2.47-1.57,2.47-3.08V179Z"/><path class="cls-2" d="M98.87,179v.88h-6v5.55h5.53v.88H92.89v5.9h6.06v.88H91.88V179Z"/><path class="cls-2" d="M115,191.08a5.44,5.44,0,0,1-4.61,2.25,4.55,4.55,0,0,1-3.37-1.21c-1.33-1.33-1.67-3.41-1.67-6.06,0-2.37.29-4.55,1.59-5.92a5,5,0,0,1,3.82-1.39,5.09,5.09,0,0,1,4,1.59l-.59.65a4.51,4.51,0,0,0-3.43-1.35,3.91,3.91,0,0,0-3.15,1.16c-.67.78-1.2,2.16-1.2,5.25s.59,4.6,1.33,5.39a3.49,3.49,0,0,0,2.67,1,4.88,4.88,0,0,0,4-2Z"/><path class="cls-2" d="M131.2,179v.9h-4.78v13.19h-1V179.89h-4.78V179Z"/></g></svg>