<svg xmlns="http://www.w3.org/2000/svg" viewBox="0 0 611.91 176.83"><defs><style>.cls-1{fill:#fff;}</style></defs><title>largo-horizontal-white</title><g id="Layer_1" data-name="Layer 1"><path class="cls-1" d="M253.45,56.41v48.15H273.3v15.86H235.54v-64Z"/><path class="cls-1" d="M340.74,120.42l-2.6-10.48H319.69l-2.6,10.48h-18l19.58-64h21l19.57,64ZM329,74.13l-5.66,21.8h11.22Z"/><path class="cls-1" d="M417,56.41c6.31,0,11.87.93,15.86,3.62,4.45,2.88,7.23,7.51,7.23,15.68,0,8.53-3.43,15.12-11.41,17.53,7.79,1.21,10.3,8.35,11.6,27.18H421.64c-1.76-16.42-2.88-19.67-7.42-19.67H406.7v19.67H388.8v-64ZM406.7,85.82h5.94c5.94,0,9-1.2,9-8.44a6.55,6.55,0,0,0-1.49-4.73c-.84-.74-2.23-1-4.45-1h-9Z"/><path class="cls-1" d="M522.11,83V116.9a58.17,58.17,0,0,1-22.54,4.45c-10.95,0-17.62-2.6-22.26-7.14-6.4-6.21-7.52-15-7.52-25,0-11.88,1.57-21,8.07-27,4.45-4.17,11.13-6.68,21.61-6.68,9,0,16.79,1.86,22.17,6.68l-10.3,12.43C508.1,72,503.65,71,498.64,71c-4.27,0-6.59.93-7.88,2.6-1.67,2-2.23,5.57-2.23,14.38,0,11.13.65,14.38,2.41,16.61,1.49,1.76,3.9,2.51,8,2.51a29,29,0,0,0,7.33-.83V97h-9.18V83Z"/><path class="cls-1" d="M603.65,114.95c-4.45,4.27-11.13,6.87-21.05,6.87s-16.52-2.6-20.88-7c-5.66-5.47-7.51-14.1-7.51-25.79,0-12,1.95-21.15,8.25-27.18,4.36-4.17,11-6.86,21.15-6.86,9.92,0,16.42,2.6,20.78,6.86,5.57,5.57,7.52,14.19,7.52,26.07S610.05,108.83,603.65,114.95Zm-13.54-42.3c-1.39-1.58-3.71-2.51-6.87-2.51-3.34,0-5.94,1-7.51,3.15-1.85,2.5-2.51,6.86-2.51,15,0,8.63.56,13.45,2.69,15.87,1.48,1.67,3.8,2.5,6.86,2.5,3.52,0,6-1.12,7.51-3.06,2-2.69,2.6-6.86,2.6-15.12C592.89,79.6,592.24,75.06,590.11,72.65Z"/><path class="cls-1" d="M27.08,35.32c-2.79-1.61-2.79-4.25,0-5.85L76,1.21a11.24,11.24,0,0,1,10.14,0l48.93,28.25c2.79,1.61,2.79,4.25,0,5.86L86.16,63.57a11.26,11.26,0,0,1-10.14,0Z"/><path class="cls-1" d="M175.87,134.52c0-3.22-2.28-4.54-5.07-2.93l-7.28,4.2a11.25,11.25,0,0,0-5.07,8.78V153c0,3.22,2.28,4.54,5.07,2.93l7.28-4.2a11.25,11.25,0,0,0,5.07-8.78Z"/><path class="cls-1" d="M137,116.88a1.84,1.84,0,0,0-.24-1.1h-.07a2.12,2.12,0,0,0-1,.35L119,125.72a8.85,8.85,0,0,0-3.81,6.61v19.19a1.84,1.84,0,0,0,.24,1.1h.07a2.12,2.12,0,0,0,1-.35l16.62-9.59a8.85,8.85,0,0,0,3.82-6.61Z"/><path class="cls-1" d="M163.67,43.29c0-3.22-2.28-4.54-5.07-2.93L101.74,73.18A11.25,11.25,0,0,0,96.67,82v65.66c0,3.22,2.28,4.54,5.07,2.93l8.47-4.89V132.33a13.8,13.8,0,0,1,6.33-11l16.62-9.6a7,7,0,0,1,3.51-1c3.14,0,5.33,2.52,5.33,6.13v10.44l16.61-9.59a11.24,11.24,0,0,0,5.07-8.78ZM151.58,77.46a11.2,11.2,0,0,1-5.08,8.76l-29.85,17.08c-2.8,1.6-5.08.27-5.08-2.95V90.43a11.19,11.19,0,0,1,5.08-8.76L146.5,64.58c2.79-1.6,5.08-.27,5.08,2.95Z"/><path class="cls-1" d="M34.07,63.17,1.31,44.26a2.11,2.11,0,0,0-1-.35H.22A2,2,0,0,0,0,45V63.22a8.85,8.85,0,0,0,3.81,6.61L36.58,88.74a2.12,2.12,0,0,0,1,.35h.08A2,2,0,0,0,37.88,88V69.78A8.85,8.85,0,0,0,34.07,63.17Z"/><path class="cls-1" d="M69.69,98.78,42.91,83.31V88c0,3.61-2.19,6.13-5.33,6.13a7,7,0,0,1-3.51-1L7.75,77.9v56.64a11.25,11.25,0,0,0,5.07,8.78l56.86,32.83c2.79,1.61,5.07.29,5.07-2.93V107.56A11.25,11.25,0,0,0,69.69,98.78Zm-17.1,51.73-16.8-9.93a11.4,11.4,0,0,1-5-8.83V113.54c0-3.22,2.27-4.52,5-2.88l16.8,9.92a11.4,11.4,0,0,1,5,8.83v18.21C57.63,150.85,55.37,152.15,52.59,150.51Z"/></g></svg>