<svg id="Layer_1" data-name="Layer 1" xmlns="http://www.w3.org/2000/svg" viewBox="0 0 216 216"><defs><style>.cls-1{fill:#00aeef;}.cls-2{fill:#ee2d78;}</style></defs><title>Largo-site-icons</title><path class="cls-1" d="M24.17,103.67l.91.44c.05-.11.14-.21.12-.27a3,3,0,0,1,.68-3.37,8.27,8.27,0,0,1,1.3-1,3.83,3.83,0,0,1,1.07-.23,3.59,3.59,0,0,0,1.23-.3,36.61,36.61,0,0,0,6.31-5.58c1-1.11,2.25-2,3.33-3.11.74-.73,1.4-1.54,2.09-2.32l3.66-4.13c.07-.07.12-.17.2-.22,1.62-.88,2.48-2.54,3.78-3.76,2.19-2.06,4.2-4.31,6.25-6.51a13.11,13.11,0,0,0,1.25-1.83c.22-.33.37-.71.61-1q2.56-3.4,5.16-6.78c.31-.41.73-.74,1.08-1.12a13.83,13.83,0,0,0,1-1.12,39.31,39.31,0,0,1,5.36-6,46.5,46.5,0,0,0,4-4.71c1.92-2.24,3.86-4.48,5.85-6.66a11.88,11.88,0,0,1,3.13-2.22,41.16,41.16,0,0,1,6.63-2.66c2.41-.84,4.86-1.62,7.57-1.13a17,17,0,0,0,4.71-.34,22.37,22.37,0,0,1,4.47.29c.33.1.68.13,1,.21a30.73,30.73,0,0,1,6.23,2.33c.7.34,1.35.76,2.05,1.09a2.78,2.78,0,0,0,.87.14c.29,0,.67-.07.84.08,1.3,1.17,3.06,1.35,4.54,2.15a34.44,34.44,0,0,0,4.84,1.88,10.52,10.52,0,0,1,3.09,1.73,11.42,11.42,0,0,0,2.61,1.57c2.4,1,4.36,2.72,6.49,4.15a6.41,6.41,0,0,0,1.54.9,7,7,0,0,1,3.35,2.56,2.11,2.11,0,0,0,.69.56c1.56.76,2.91,1.88,4.62,2.44a7.88,7.88,0,0,1,3.23,2.08c1.57,1.71,3.58,2.56,5.55,3.58a29,29,0,0,1,4.07,2.44c.76.57,1.09,1.63,2,2.12a20.38,20.38,0,0,1,2.41,1.39c1.41,1,3,1.71,4.24,3.05a23.66,23.66,0,0,0,3.4,2.66c.39.3.84.53,1.2.86a36,36,0,0,0,6.33,4.29,16.12,16.12,0,0,1,4.15,3.35,3,3,0,0,0,1,.91,10,10,0,0,1,3.44,2.73c1.07,1.16,2.43,2.21,2.75,3.93,0,.1.08.2.07.29-.22,1.62.21,3.2.25,4.8a.28.28,0,0,1,0,.15c-1.32,2,0,3.87.06,5.81,0,.29,0,.57,0,.86s-.15.85,0,1.15a5.87,5.87,0,0,1,.67,2.68c0,.28.45.56.75.91-1.15,1.08-.23,2.39-.24,3.63,0,1.67.21,3.34.33,5,.1,1.48.21,3,.3,4.45a17.66,17.66,0,0,1-.15,4.71,7.66,7.66,0,0,0,.1,1.91c.1,1.81.07,3.64.33,5.42.46,3.11.14,6.23.22,9.34a10.86,10.86,0,0,1-.61,3.59,10.82,10.82,0,0,0-.25,3.29c0,2.48,0,5,.09,7.45a6.1,6.1,0,0,0,.21,1.46,86.81,86.81,0,0,1,2.09,12.07,8.26,8.26,0,0,1-.06,3.67c-.73,2-1.15,4.41-3.89,5.1a20.92,20.92,0,0,0-2.52-1.6,3.68,3.68,0,0,0-1.88-.18c-1.56.17-3.1.74-4.68.18-3,.44-6.1.32-8.9,1.75a13.77,13.77,0,0,1-2,1,15.65,15.65,0,0,1-2.71.58c-1.46.19-2.94.24-4.39.47a22.32,22.32,0,0,1-5.64.13,15.28,15.28,0,0,0-3.94.27,19.27,19.27,0,0,1-4,.28c-1.38-.07-2.72.42-4.11.14-.68-.13-1.22.56-2.1.38a10,10,0,0,0-3.18.35,4.76,4.76,0,0,1-.59.06c-2,0-3.92-.06-5.88.05s-4,.48-6,.58-4.28.44-6.44-.15a6.6,6.6,0,0,0-2.48.17c-1,.13-1.92.43-2.89.49a71.27,71.27,0,0,1-8.19.42,16.15,16.15,0,0,0-5.46.57,25.83,25.83,0,0,1-4.27.66,2,2,0,0,1-.71,0,23.11,23.11,0,0,0-6.4-.3c-3.15.14-6.31.3-9.46.4-2.19.07-4.4,0-6.59.1a27.45,27.45,0,0,0-4.85.76,16.72,16.72,0,0,1-4.86.13,4.75,4.75,0,0,0-1.12.06,12.51,12.51,0,0,1-2.45.53,13.74,13.74,0,0,0-3.65.66,9.1,9.1,0,0,1-2.2.32,28,28,0,0,0-5.85.95,15.65,15.65,0,0,1-4.41.36,17.64,17.64,0,0,0-6.08.8,8.58,8.58,0,0,1-2.79.24,28,28,0,0,1-3.07-.54,9.31,9.31,0,0,0-2.17-.17,4.11,4.11,0,0,1-2.5-1,45.46,45.46,0,0,1-3.76-3.58A3.64,3.64,0,0,1,26.9,186c-.4-1-.78-1.93-1.16-2.9a2.9,2.9,0,0,1-.2-.69c-.16-1.27-.29-2.54-.44-3.82a1.52,1.52,0,0,0-.19-.71c-.85-1.13-.73-2.44-.78-3.73,0-.94-.19-1.88-.18-2.82,0-1.39.17-2.78.17-4.17,0-1.88-.15-3.77-.13-5.65s.17-3.63.26-5.45a39.76,39.76,0,0,0,.17-4.46,51.41,51.41,0,0,1,.13-7.38,36.58,36.58,0,0,0,.2-7.53,49.63,49.63,0,0,1-.22-6.93c0-3.23-.06-6.46-.07-9.69,0-.59.19-1.17.22-1.76,0-1.09,0-2.18,0-3.27,0-.29-.23-.67-.11-.86.7-1.12.14-2.2.07-3.32a9.28,9.28,0,0,1,.2-4.22c.2-.51.63-1.55-.48-2C24.25,104.62,24.27,104.17,24.17,103.67Zm105.51,30.88c-.24-.16-.45-.42-.6-.38a6,6,0,0,0-1.23.5c-.79.39-1.58,1.14-2.35,1.13a6.31,6.31,0,0,0-3.45,1.1c-.91.55-1.92.39-2.86.63-1.57.4-3.1.92-4.67,1.33a4,4,0,0,1-1.18-.1c-.73,0-1.47-.13-2.2-.11a28.65,28.65,0,0,1-3,.15c-1.57-.13-3.12-.51-4.69-.66a13.2,13.2,0,0,1-3.47-.62c-1.29-.48-2.65-.75-4-1.17-1.68-.53-3.35-1.11-5-1.7-.56-.2-1.06-.53-1.61-.75-1.33-.53-2.66-1-4-1.54-.55-.21-1.09-.48-1.66-.64-1.19-.33-2.4-.58-3.59-.9a9,9,0,0,1-2-.69c-.78-.43-1.28.45-2,.28a2,2,0,0,0-2.06.92,7.79,7.79,0,0,1-2.82,2.26,19.6,19.6,0,0,0-2.24,1.68c-.32.24-.66.44-1,.69q-2.35,1.9-4.68,3.82a1,1,0,0,0-.23.38,4,4,0,0,1-2.45,2,15.57,15.57,0,0,0-2.6,1.39c-1.24.78-2.17,2-3.6,2.54-1,.37-2,.72-2.41,1.91,0,.12-.23.18-.34.28-1.18,1-2.39,2.07-3.54,3.15a17.31,17.31,0,0,1-4.06,3.25,4.69,4.69,0,0,0-2.13,1.72,8.11,8.11,0,0,1-5.84,4.31,3.78,3.78,0,0,0-1.09.46,8.3,8.3,0,0,0-1.67,1.16c-.63.65-1.55,1.38-1.61,2.14A63.53,63.53,0,0,0,31.73,175a6.09,6.09,0,0,0,.8,3.25.86.86,0,0,1,.08.71c-.53,1.3.38,2.26.81,3.29a2.23,2.23,0,0,0,1.47,1.15c1,.31,2,.34,3,.64,2.8.9,5.53-.06,8.29,0a20.3,20.3,0,0,0,3.22-.4c2.61-.36,5.2-.86,7.82-1.07a44.17,44.17,0,0,0,6.33-1,12.41,12.41,0,0,1,3.67-.38,6,6,0,0,0,2.17,0c.86-.24,1.74-.39,2.62-.55a9,9,0,0,1,2.73-.42c1.92.27,3.79-.24,5.7-.2a58,58,0,0,0,7.66-.7c1.46-.17,2.91-.44,4.54-.69.44.07,1.1.21,1.76.27s1.24,0,1.86,0c1.92,0,3.86,0,5.76-.16,3.3-.35,6.61-.44,9.91-.9,2.52-.36,5.08-.64,7.64-.76.6,0,1-.92,1.54-.4s1.19-.08,1.81,0a20.76,20.76,0,0,0,5.76-.15c1-.17,2-.51,3.06-.58,1.73-.12,3.46-.07,5.19-.11,1.1,0,2.2-.05,3.28-.18,2.4-.27,4.78-.64,7.18-.9,1.31-.14,2.64-.09,3.95-.22,2.32-.24,4.63-.59,6.95-.82,2.69-.27,5.4-.41,8.09-.69a9.69,9.69,0,0,1,3-.23,1.09,1.09,0,0,0,.73-.1c1.47-.92,3.14-.83,4.83-1,.21,1.09,1.18.9,1.9.94,1.46.06,2.92-.1,4.39-.08,2.12,0,4.24.13,6.37.18.62,0,1.24-.06,1.89-.09a4.45,4.45,0,0,0,0-.77c-.5-2.22-1-4.44-1.53-6.66-.32-1.4-.63-2.8-1-4.19a3.47,3.47,0,0,0-1.19-2.31c-.2-.13-.55-.12-.65-.29a9,9,0,0,0-3.87-3.09,29.06,29.06,0,0,1-3-1.87c-1.22-.83-2.38-1.74-3.59-2.59a4.32,4.32,0,0,0-.81-.33,12.64,12.64,0,0,1-4.9-3,9.28,9.28,0,0,0-2.23-1.93,14.92,14.92,0,0,0-2.66-.89c-.31-.11-.72-.22-.87-.46-1-1.68-3.07-2.16-4.25-3.65a1,1,0,0,0-.53-.26c-2-.5-3.59-1.89-5.32-2.88-2.25-1.29-4.13-3.24-6.17-4.89a12.41,12.41,0,0,1-1.51-1.14,24.42,24.42,0,0,1-1.78-2.35,2.28,2.28,0,0,0-3.75,0,2.28,2.28,0,0,1-1,.86c-.75.35-.7-.67-1.26-.43a4.07,4.07,0,0,1-1.18.75,4.63,4.63,0,0,0-3,2.34c-.27-.09-.59-.29-.67-.22C131.79,133.32,130.31,133.31,129.69,134.55ZM175.51,90.8c-.23-.64-.27-1.26-.6-1.55-1.09-1-2.27-1.89-3.45-2.77-1.57-1.17-3.29-2.15-4.73-3.46a92.47,92.47,0,0,0-10.25-7.63c-.48-.33-.93-.7-1.38-1.07-.88-.72-1.71-1.5-2.62-2.19-2.2-1.66-4.66-3-6.64-4.93a4.93,4.93,0,0,0-1.69-1.14,19.86,19.86,0,0,1-4.78-2.56c-1.13-.81-2.37-1.46-3.5-2.27C134,59.88,131.8,59,130,57.41a7.61,7.61,0,0,0-2-1c-.17-.08-.39,0-.54-.13-1.12-.75-2.38-1.26-3.53-2a37.33,37.33,0,0,0-4.76-2c-.66-.28-1.23-.75-1.9-1-1.33-.55-2.71-1-4-1.53-1.49-.64-2.94-1.39-4.41-2.07s-2.69-1.86-4.45-1.82a2.41,2.41,0,0,1-.82-.32,7,7,0,0,0-2.18-.84,22.8,22.8,0,0,0-7.22.56A21.22,21.22,0,0,0,90,47.11a17.92,17.92,0,0,0-4.85,4.26A17.7,17.7,0,0,1,83,53.16a7.59,7.59,0,0,0-1.06,1,49.17,49.17,0,0,1-3.79,4.72,82.63,82.63,0,0,0-5.45,6.47c-.48.56-1,1.12-1.44,1.68s-.87,1-1.3,1.57-.68.83-1,1.23c-.86,1-1.71,1.94-2.62,2.86s-2.11,1.92-3.13,2.93c-1.37,1.37-2.72,2.76-4,4.18-.93,1-1.76,2.11-2.66,3.15-.71.81-1.45,1.59-2.19,2.37-.41.43-.91.79-1.28,1.25-1.29,1.61-2.53,3.27-3.82,4.88a3,3,0,0,1-1.1,1c-.87.33-1.27,1.07-1.81,1.7Q45.14,95.42,44,96.7c-.36.4-.81.76-.44,1.52,2.12-.11,4.26-.23,6.4-.32s4.16-.17,6.23-.22c1.92,0,3.84,0,5.75-.09,2.91-.21,5.8-.58,8.7-.88.89-.09,1.78-.23,2.68-.29,3.3-.24,6.6-.2,9.89-.64,2.34-.31,4.74-.24,7.11-.36,1.49-.07,3-.14,4.46-.29a3.92,3.92,0,0,0,1.14-.47c.48.16,1,.53,1.34.4a10.29,10.29,0,0,1,2.86-.17,32.16,32.16,0,0,1,4.22-.31c2.68.11,5.33-.7,8-.29a2.15,2.15,0,0,0,.45,0c1.51-.1,3-.21,4.55-.28,2.46-.11,4.93-.16,7.39-.31,2.82-.17,5.64-.42,8.46-.62.64,0,1.3,0,1.94,0a49.19,49.19,0,0,1,6-.37c1.37,0,2.73-.29,4.1-.3,2.12,0,4.26.24,6.25-.78a.92.92,0,0,1,.44,0c1.22.06,2.44.15,3.66.19,1.48,0,3,.12,4.44,0,1.13-.07,2.22-.67,3.39-.17.2.09.49,0,.74,0,1-.08,2-.2,3.06-.24,2.38-.11,4.76-.19,7.13-.3C174.6,91,174.89,90.89,175.51,90.8ZM32.11,153.5c.57-.44,1.09-.9,1.67-1.28,2.31-1.51,4.74-2.85,6.41-5.15.08-.11.24-.25.34-.23,1.06.1,1.55-.75,2.24-1.27a17,17,0,0,0,3.92-3.34,3.82,3.82,0,0,1,.61-.82c1.51-1.19,3-2.35,4.57-3.52L55.64,135c1.07-.81,2.16-1.59,3.2-2.44,1.37-1.11,2.73-2.24,4.05-3.41a11.91,11.91,0,0,0,3-3.06A15.29,15.29,0,0,1,67,124.46a2,2,0,0,0-1.74-1.16c-.33-.07-.75,0-1-.19-1.8-1.55-4-2.31-6.12-3.24a32.7,32.7,0,0,0-7.76-2.66,3.7,3.7,0,0,1-1.94-1.13,9.1,9.1,0,0,0-1.29-.94,7.89,7.89,0,0,1-1.37-.76,3.54,3.54,0,0,0-2.84-1,7.35,7.35,0,0,1-5.45-1.87c-.74-.58-1.46-1.19-2.22-1.73s-2.18-.22-2.34.65a13.4,13.4,0,0,0-.32,3.26,54.33,54.33,0,0,1-.35,6.57c-.06,1.27-.13,2.55-.13,3.82,0,2.67.08,5.33.1,8a30,30,0,0,1-.05,3.05,21.81,21.81,0,0,0,0,6.08s0,.09,0,.14c-.12,1.82-.34,3.64-.34,5.47C31.82,149,32,151.23,32.11,153.5Zm117.83-28.27c.9.7,1.55,1.21,2.2,1.71s1.5,1.11,2.24,1.68a11.25,11.25,0,0,0,1.39,1.12c2,1.06,4,2.05,5.94,3.08a11.75,11.75,0,0,1,1.94,1.06,25.91,25.91,0,0,0,5.76,3.61,8.36,8.36,0,0,1,2.77,1.7,8.66,8.66,0,0,0,2.22,1.49c1.92,1,3.9,1.86,5.82,2.84s4,2.11,6,3.15c.07,0,.19,0,.29,0,.8-.6.27-1.39.26-2.08-.06-2.9-.16-5.8-.28-8.7-.07-1.58-.28-3.16-.32-4.75-.09-3.16,0-6.32-.18-9.48a33.18,33.18,0,0,0-.95-8.25,3.29,3.29,0,0,1-.06-.89c0-1,0-2,0-2.94s-.55-1.29-1.48-1.16a9.23,9.23,0,0,0-1.18.19c-.42.12-1.07.22-1.17.5-.19.53-.5.61-.94.77-1.06.4-2.08.9-3.1,1.39a11.93,11.93,0,0,1-2.9,1.39,5.37,5.37,0,0,0-1.6.79,10.83,10.83,0,0,1-2,1.23c-2.12.67-3.81,2.18-5.92,2.89a2.69,2.69,0,0,0-1.65,1.77.9.9,0,0,1-1.39.58c-1.15-.78-2.22-.1-3.27.13a5,5,0,0,0-1.89,1.24,2.41,2.41,0,0,1-1.27.6,9.13,9.13,0,0,0-2.57,1c-.22.12-.15.72-.36.94s-.68.28-1,.46S150.6,124.77,149.93,125.23ZM195.38,168l-.06-.34-1,.26.23.85Zm-2-1.13,1.34-.46C194,165.76,193.57,165.64,193.38,166.85ZM55.64,186.6l.23,0,.1-1.32-.8.54Z"/><path class="cls-2" d="M112.93,76a19.38,19.38,0,0,0,3.15-3.24A4.43,4.43,0,0,1,118,71.21a1,1,0,0,0,.54-.48,2.57,2.57,0,0,1,2.25-1.49,2.41,2.41,0,0,0,.72-.21,6.86,6.86,0,0,1,2.78-.61c1.06,0,2.12-.21,3.17-.19a13,13,0,0,1,4.42.67c1.37.53,2.94.8,3.93,2s2.34,2.3,2.73,4c.26,1.13.73,2.21,1.09,3.32a2.47,2.47,0,0,1,0,.53c0,.41-.07.85.3,1.19a.81.81,0,0,1,.12.52,21.29,21.29,0,0,0,0,2.75,19.53,19.53,0,0,1-.37,4.32,3.56,3.56,0,0,1-.25.83c-.26.76-.5,1.53-.8,2.27a2.4,2.4,0,0,1-.68,1.08,2.32,2.32,0,0,0-.84,1.09,3.76,3.76,0,0,1-1.4,1.92c-.19.12-.27.41-.41.62a3.4,3.4,0,0,1-.72,1,5.07,5.07,0,0,0-1.52,1.83A8.52,8.52,0,0,1,132,99.46c-.64.7-1.24,1.45-1.94,2.09a15.09,15.09,0,0,1-2.64,2.11,15.78,15.78,0,0,0-3.11,2.38c-.82.79-1.63,1.6-2.46,2.38a15.86,15.86,0,0,0-2.18,2,9.29,9.29,0,0,1-2.65,2c-1.37.95-2.92,1.64-4,3.05a35.34,35.34,0,0,1-3.31,3.32,3.46,3.46,0,0,1-3.87.77,1.51,1.51,0,0,1-.75-.7c-.23-.44-.39-.85-1-.93-.15,0-.29-.28-.4-.45a6,6,0,0,0-.42-.77,26,26,0,0,1-2.54-4,1.1,1.1,0,0,0-.22-.23c-.54-.49-1.21-.84-1.56-1.55a1.35,1.35,0,0,0-.75-.61A1.57,1.57,0,0,1,97,109.06a.65.65,0,0,0-.36-.39A2.38,2.38,0,0,1,95.22,107a7.72,7.72,0,0,0-.75-1.34c-.48-.86-.91-1.75-1.42-2.6a5.48,5.48,0,0,0-1-1.37,12.41,12.41,0,0,1-2.5-3c-.46-.75-1.08-1.39-1.61-2.09a21.66,21.66,0,0,1-1.24-1.79q-.76-1.26-1.42-2.58c-.6-1.21-1.16-2.44-1.74-3.67a8.54,8.54,0,0,1-.87-3.95,14.66,14.66,0,0,1,.32-2.72,51.27,51.27,0,0,0,1.21-5.37,8.45,8.45,0,0,1,1.08-2.95,35.56,35.56,0,0,1,2.38-3.7,12,12,0,0,1,1.53-1.56c.41-.39.87-.74,1.29-1.11a13.53,13.53,0,0,1,3.45-2.31,8.11,8.11,0,0,1,4.27-.79c1.29.18,2.59.34,3.88.54a1.86,1.86,0,0,1,.58.28,15.82,15.82,0,0,0,2.05,1,7.42,7.42,0,0,1,1.83,1.51l1.05.92a9.26,9.26,0,0,1,1.13,1c.87,1.07,2,1.9,2.63,3.19.28.62.49,1.28.77,1.9S112.61,75.45,112.93,76Zm5.44,1.84a6.92,6.92,0,0,0-.7.72A38,38,0,0,0,115,83.12a4.45,4.45,0,0,0-.57,1.63c-.15,1.48-1.14,2.5-2.34,2.42-1.83-.13-3.44-.75-4.23-2.61-.24-.57-.48-1.15-.68-1.74-.49-1.42-.94-2.85-1.42-4.27a20,20,0,0,1-.73-2.06,6.37,6.37,0,0,0-3-3.77,8.46,8.46,0,0,1-2-1.81,2.24,2.24,0,0,0-.86-.63,7.92,7.92,0,0,0-1.75-.59,2.67,2.67,0,0,0-1.52.07,9.37,9.37,0,0,0-4.51,4c-.63,1.2-1.26,2.4-1.77,3.65A8.35,8.35,0,0,0,89,80.14,11.2,11.2,0,0,1,88.5,83a3,3,0,0,0,0,2c.16.41.24.85.39,1.26a15.18,15.18,0,0,0,1.17,2.92,10,10,0,0,1,1.56,3.46,1.49,1.49,0,0,0,.39.66c.42.46.86.91,1.32,1.33a2.67,2.67,0,0,1,1,1.64,1.51,1.51,0,0,0,.47.81,23.14,23.14,0,0,1,1.8,1.46c.29.32.7.61.82,1a5.7,5.7,0,0,0,1.85,2.74c.52.44,1.19.94,1.34,1.53.24.93,1,1,1.57,1.34s1.35.48,1.74,1.32c.28.61.85,1.15.89,1.84.07,1.22,1.4,1.58,1.66,2.63.59.15.73.6.88,1.13a.91.91,0,0,0,1.56.28c.3-.3.67-.53,1-.83.52-.55,1-1.15,1.52-1.71a6.72,6.72,0,0,1,.93-.86c.4-.3.87-.51,1.27-.8.76-.55,1.47-1.17,2.19-1.76a35.17,35.17,0,0,0,3.65-3.13,6.08,6.08,0,0,1,.84-1,22.63,22.63,0,0,0,3.76-3.39,48.48,48.48,0,0,0,3.83-3.9,15.07,15.07,0,0,0,1.41-1.69c1-1.81,2.47-3.32,3.14-5.3a12.86,12.86,0,0,0,.9-3.36,25.27,25.27,0,0,0-.43-4.15c0-.36-.17-.72-.19-1.08a7.79,7.79,0,0,0-2-5,2.34,2.34,0,0,0-1-.61c-1-.31-2-.5-2.94-.84-1.33-.48-2.57.07-3.83.25a3.13,3.13,0,0,0-2.34,1.66,1.33,1.33,0,0,1-.68.54c-.86.31-1.08,1.16-1.57,1.78C118.27,77.4,118.37,77.73,118.37,77.87Z"/></svg>