<svg id="Layer_1" data-name="Layer 1" xmlns="http://www.w3.org/2000/svg" viewBox="0 0 216 216"><defs><style>.cls-1{fill:#ee2d78;}.cls-2{fill:#8dc63f;}</style></defs><title>Largo-site-icons</title><path class="cls-1" d="M113.12,151.08a7.58,7.58,0,0,1-1-.2c-.13,0-.18-.39-.24-.61s.07-.18,0-.23c-.35-.52,0-1.25-.5-1.71,0,0,0-.12,0-.19,0-.78.32-1.59-.2-2.34,0-.07,0-.32.14-.4a2,2,0,0,0,.59-.89c.4-1,.45-1.28-.27-2,.09-.12.27-.25.27-.37a13.37,13.37,0,0,1-.12-3.83c.17-.77.24-1.57.37-2.35s.55-1.26.27-2a2.23,2.23,0,0,1-.07-.72c0-.61.37-1.12.47-1.66a11.77,11.77,0,0,0-.07-2.55c0-.58-.15-1.16.4-1.62.16-.13.27-.63.2-.68-.53-.38-.37-.92-.43-1.41,0-.21-.2-.52-.11-.61a3.9,3.9,0,0,1,1-.83,2.48,2.48,0,0,1,2.2,0c.28-.27.5-.68.78-.73a1.94,1.94,0,0,0,1.65-1.49.87.87,0,0,1,.25-.33c.65-.63,1.61-1,1.84-2a.2.2,0,0,1,.13-.13,2.33,2.33,0,0,0,1.61-1.3c.34-.52,1.26-.55,1.16-1.48a3.14,3.14,0,0,1,.34-1.35c.17-.45.47-.86.63-1.32a1.29,1.29,0,0,0,0-.94.89.89,0,0,1,0-1,1.9,1.9,0,0,0,.15-1.46,2,2,0,0,1,0-.46c0-.57.09-1.15.06-1.72s-.28-.88-.2-1.28a1.06,1.06,0,0,0-.39-1.06,1.22,1.22,0,0,1-.33-1c.22-.46-.06-.72-.19-1a6.5,6.5,0,0,0-.73-1.54c-.7-.92-1.49-1.79-2.25-2.66a5,5,0,0,0-.62-.53l-.85-.68a4.3,4.3,0,0,0-.84-.68,2.6,2.6,0,0,1-1.25-.88c-.12-.17-.41-.24-.63-.33s-.42,0-.53-.15c-.32-.32-1-.21-1-.92-.53-.15-.53-.66-.67-1.05-.06-.15,0-.44,0-.49-.55-.38-.18-.64.09-.92-.63-.43-.66-.57-.3-1.3a1.06,1.06,0,0,0,.16-.41c0-.56.44-.63.79-.65a66.58,66.58,0,0,1-.36-7.81c-.26-.06-.53-.16-.84-.25l.5-.59c-.11-.42-.26-.88-.35-1.34s-.13-.95-.2-1.5l.88.2L114,79c0-.31.14-.56.07-.74-.23-.63-.05-1.32-.42-1.95a1.07,1.07,0,0,1,.13-1.36c.08-.08.25-.18.23-.23-.1-.4-.26-.78-.37-1.17a7.68,7.68,0,0,1-.4-1.59c-.07-1.18.19-2.39-.28-3.55a1.23,1.23,0,0,1,.06-.61,2.64,2.64,0,0,0,.14-.48c0-.39-.06-.77-.09-1.16L113,64.9c.78-.66.78-.66,0-2.17l.66-.4-.82-.74c.25-.36-.05-1,.53-1.22a.91.91,0,0,1-.07-.21c0-.44,0-.88,0-1.27a11.64,11.64,0,0,1-.16-1.45,2.87,2.87,0,0,1,.27-.82,3.69,3.69,0,0,1,.16-.59c0-.15,0-.37.1-.46.43-.42.4-.81-.31-1.19,1-.29,1.44-1.37,2.54-1.39a.76.76,0,0,0,.48-.28,17.73,17.73,0,0,1,1.22-1.49,11.15,11.15,0,0,1,1.46-1c.29-.45.53-.9.84-1.3A14.57,14.57,0,0,0,121,47.71a27.25,27.25,0,0,0,1.27-2.44,5.17,5.17,0,0,0,.67-1.68.86.86,0,0,1,.44-.81c.54-.35.46-.92.44-1.47a1,1,0,0,1,.23-.5c.08-.13.32-.27.3-.34-.28-.8-.62-1.57-.91-2.37-.19-.52-.31-1.06-.45-1.54l.88-.41c-1.07-.34-1.11-1-.94-1.72,0-.19-.1-.43-.18-.72.27-.21.4-.74,0-.86a1.14,1.14,0,0,1-.9-1.05.91.91,0,0,0-.21-.37c-.54-.68-1.09-1.34-1.62-2a5.1,5.1,0,0,1-.42-.67c-.31-.55-.6-1.11-.92-1.65-.05-.09-.26-.08-.4-.13-.48-.17-1.18,0-1.25-.82,0-.06-.14-.12-.22-.17l-1-.6c-.11-.07-.22-.15-.33-.21l-1-.53c-.66,0-1.54,0-2.4,0s-1.56-.17-2.34-.22a2.06,2.06,0,0,0-.61.14,3.35,3.35,0,0,1-.91.22,21,21,0,0,1-2.09-.24,1.53,1.53,0,0,0-1.22.24,2.29,2.29,0,0,1-1.17.39,3.79,3.79,0,0,0-2.16,1.1,7.9,7.9,0,0,1-.84.71c-.64.36-1.35.62-2,1-.37.22-.61.79-1,.87-.71.14-.8.6-.92,1.14,0,.13-.23.27-.39.33a4.17,4.17,0,0,1-.67.16c-.05.25,0,.48-.13.56a6.65,6.65,0,0,0-1.4,1.8c-.3.52-.7,1-1,1.52a9.93,9.93,0,0,0-.53,1.36,2.32,2.32,0,0,0-.25.81,7,7,0,0,1-.63,2.94c-.11.27-.42.6-.34.77A15.73,15.73,0,0,1,91.8,42a6.33,6.33,0,0,1,.08,2.79,1.2,1.2,0,0,0,0,.69c.12.3.48.72,0,1,.25.58.86,1,.41,1.72.28.36.55.69.79,1s.33.62.54.91c.48.68,1,1.33,1.47,2,.09.12.09.31.19.4.36.35.76.68,1.13,1s.6.43.61.67a.64.64,0,0,0,.77.62,2.89,2.89,0,0,1,1.62.39,23.68,23.68,0,0,0,2.65,1s-.15.13-.14.17c.1.31.26.61.35.93s.35.73.17,1.22a4.51,4.51,0,0,0-.15,1.66c0,.27.3.51.36.78.19,1,.32,2,.48,3,.06.37.18.73.2,1.11a14.94,14.94,0,0,0,.09,2.14,3.55,3.55,0,0,1-.09,2.39c0,.07.08.2.12.3.12.31.26.61.36.93.34,1.06-.5,2.26.37,3.26,0,0,0,0,0,.1l-.28.11a7.76,7.76,0,0,0,.32,1.3,4,4,0,0,1,.23,2,6.27,6.27,0,0,0,.05,2,1.88,1.88,0,0,1,.09,1.28c0,.05,0,.13,0,.19,0,.38.19.86,0,1.11a1.13,1.13,0,0,1-.38.3c.82,2.54.53,5.08.39,7.61.25,0,.52,0,.59.18s-.1.7-.09,1.05c0,.93.11,1.86.16,2.79q0,.85.07,1.71a.7.7,0,0,1-.1.33c-.5-.07-.4.46-.66.64s-.28.3-.44.41-.62.37-.93.55a3.57,3.57,0,0,1-.4.22,6.67,6.67,0,0,0-1.24.53c-.44.31-.74.89-1.21,1.09s-.81.73-1.13,1.16c-.1.13-.15.34-.27.4a1.91,1.91,0,0,0-1.17,1.25,9.5,9.5,0,0,1-1.49,2.25,2,2,0,0,0-.13.37l-1.11,2.66s.16.24.13.4c-.15.66-.38,1.3-.55,2a6.43,6.43,0,0,0-.48,2.23,6.89,6.89,0,0,1,0,1.35,4.22,4.22,0,0,0,1,3.08,12.21,12.21,0,0,0,1.58,1.31c.13.11.28.3.27.43a.73.73,0,0,0,.48.86,5.4,5.4,0,0,1,1.21.73c.67.56,1.26,1.2,1.93,1.76a4.6,4.6,0,0,0,1.27.81c.83.32,1.74.47,2.14,1.43,0,0,.09.07.15.07,1.09.1,1,1,1.09,1.71a8.54,8.54,0,0,1-.18,2,18,18,0,0,1-.29,2.74,10.8,10.8,0,0,0,0,2.09c0,.74-.15,1.48-.21,2.22-.07.89-.12,1.78-.19,2.67,0,.24,0,.48-.07.72-.06.61-.12,1.21-.2,1.82a8.34,8.34,0,0,0-.22,1.17c0,.65.15,1.29.16,1.94,0,.43-.27.91-.15,1.29a15.4,15.4,0,0,1,.18,2.68,16.47,16.47,0,0,1-.11,3,.94.94,0,0,0,.09.33l-.3.51-.11,0a64.56,64.56,0,0,1-.37,7.79.76.76,0,0,1,.41,0c.21.1.53.3.54.47a7.44,7.44,0,0,1-.19,1.41,3.08,3.08,0,0,0-.14.64,6.53,6.53,0,0,1,.15,1.66,4.66,4.66,0,0,0,.06,2.72c.13.35,0,.63-.49.66s-.94.19-1.41.23-1.14.52-1.69.09-.89-.09-1.32.13-.65.31-1,.47a5.17,5.17,0,0,0-1.17.66c-.68.63-1.29,1.35-1.94,2-.46.48-1,.84-1.16,1.62-.06.43-.47.81-.72,1.2s-.59.84-.85,1.29c-.13.22-.1.61-.27.72-.7.44-.65,1.28-1.09,1.85,0,.05.06.2,0,.28-.18.55,0,1.24-.7,1.62.69.26.46.69.2,1.09a4.83,4.83,0,0,0-.46,1.79c-.05.24-.09.48-.14.71s-.15.25-.12.31c.41.66.43,1.5.78,2.12a15,15,0,0,1,.75,2.18c.24.63.3,1.27.9,1.7.13.09.1.4.14.6s0,.22,0,.28c.4.53.79,1.07,1.23,1.57.23.26.55.6.83.6a2.2,2.2,0,0,1,1.52.84,4.46,4.46,0,0,0,1.55,1.09c.41.14.93.16,1.2.43s.41.48.78.47.59,0,.89,0c.92,0,1.75.7,2.72.36.09,0,.22.1.33.12.53.09,1.19.39,1.57.19a3.72,3.72,0,0,1,1.74-.32,3.39,3.39,0,0,0,.38,0c.6-.11,1.19-.23,1.79-.33.26,0,.68.05.76-.08.32-.53.81-.39,1.25-.46.16,0,.41-.06.44-.15.25-.68,1.06-.54,1.49-1.1s1.39-.76,2-1.42a7.86,7.86,0,0,1,1.51-1.16c.32-.23.67-.42,1.06-.67.13,0,.46.14.61,0,.34-.24.84-.62.82-.91-.06-.77.42-1,.88-1.42a2.47,2.47,0,0,0,.7-.71,5.76,5.76,0,0,0,1-3.25c0-.27.25-.64.14-.82a.86.86,0,0,1,.22-1.13c-.16-.29-.47-.62-.4-.75.39-.74-.19-1.49.07-2.21a1.34,1.34,0,0,0,0-.76c-.15-.54-.38-1.07-.56-1.6a2.26,2.26,0,0,1,0-.56c0-.13,0-.31,0-.4a19.09,19.09,0,0,0-2.05-2.4,21.84,21.84,0,0,0-2.74-1.83c-.89-.57-1.8-1.09-2.68-1.67a3.12,3.12,0,0,1-.78-.84,3.28,3.28,0,0,1-.3-.79,10.88,10.88,0,0,1-.47-1.42c-.07-.33.09-.7,0-1-.15-.9-.39-1.78-.53-2.68a.92.92,0,0,1,.33-.65,7.45,7.45,0,0,1,.94-.65l-.6-.81.5-.1A15.6,15.6,0,0,1,113.12,151.08ZM104.58,48.6c-.74-.23-1.38-.8-2.24-.62a.67.67,0,0,1-.36-.07,3.72,3.72,0,0,1-2.07-1.43l.25-.23-.18,0-.16-.66s0,0,0-.06c-.16-.7-.31-1.41-.46-2.11a.91.91,0,0,1,0-.31,9.26,9.26,0,0,1,.44-2.58,11.09,11.09,0,0,0,.32-1.95c.14-.25.29-.5.42-.76a6.73,6.73,0,0,0,.57-1.23,4.67,4.67,0,0,1,1.34-1.85,8,8,0,0,0,.68-1.1.5.5,0,0,1,.2-.19,15.71,15.71,0,0,0,2.66-1.2,10.67,10.67,0,0,1,1.67-.69c.31-.15.75,0,1.13,0,1-.07,2.08.09,3-.61a1.8,1.8,0,0,1,.95-.49c.52,0,1.19-.17,1.42.69l-.18.27.08.11c.47.66,1.22,1.28,1.32,2s.87,1,.83,1.73.58,1.31.32,2,.28,1,.29,1.53,0,1.07-.05,1.61a3,3,0,0,0,0,.57c.13.76-.71,1-.87,1.61a4.25,4.25,0,0,1-1.91,2.3,4.8,4.8,0,0,0-.81,1s0,.12-.09.15c-.57.47-1.14.94-1.74,1.38a1.54,1.54,0,0,1-.69.18,3.08,3.08,0,0,0-.88.35,9.91,9.91,0,0,1-2.63.82c-.49.07-1,.42-1.48.24S105,48.72,104.58,48.6Zm-.44,66c-.12-.16-.11-.42-.2-.62-.16-.38-.35-.74-.5-1.12a2.94,2.94,0,0,1-.26-.89,8.68,8.68,0,0,1,.16-3.75,4.29,4.29,0,0,1,1.73-2,13.25,13.25,0,0,1,1.47-1.13,14.61,14.61,0,0,1,2.61-1c1.12-.31,2.28-.5,3.43-.74.39-.08.79-.09,1.17-.19.71-.18.88.51,1.31.77a1.19,1.19,0,0,1,.59,1.09c0,.09.15.17.22.25a1.76,1.76,0,0,1,.6,1.23,1.45,1.45,0,0,0,.18.6,2.91,2.91,0,0,1,.17,2.3,1.08,1.08,0,0,0-.08.72c.29.56-.26.77-.47.83-.71.21-.54.55-.29,1a3.16,3.16,0,0,1,.15.34l-.6.37.15.1c-.31.46-.62.91-.92,1.37a3.68,3.68,0,0,1-2.43,1.46c-.32.08-.56.46-.86.67a.6.6,0,0,1-.46.13c-1-.42-1.87.2-2.8.19a1.07,1.07,0,0,1-.74-.25c-.35-.43-.63-.8-1.28-.6-.16.05-.45-.36-.64-.33C104.82,115.51,104.49,115,104.15,114.57Zm7.72,62.66a2.1,2.1,0,0,1,.47,1.94,1,1,0,0,1,.44,1.54.48.48,0,0,0,0,.43c.62.77-.11,1.41-.18,2.11a4.58,4.58,0,0,1-.26.9c0,.12-.06.28-.15.33-.59.35-.89,1.13-1.73,1.11-.19,0-.37.33-.59.44a31.39,31.39,0,0,1-3.24,1.52,6.88,6.88,0,0,1-2.28.3,4.73,4.73,0,0,1-2.71-.63c-.47-.31-.88-.73-1.34-1.05a4.89,4.89,0,0,0-1.47-.82c-.46-.11-.39-.38-.46-.65l-.25-1,.19-.05v-.09l-.56-.09a14,14,0,0,1-.5-2.11c0-.32.33-.67.51-1a1.73,1.73,0,0,1,.76-2.78c.37-1,.75-1.91,1.81-2.29-.52-.43,0-.58.21-.65a27.77,27.77,0,0,1,3-1.18,11.18,11.18,0,0,1,1.46-.29,19.4,19.4,0,0,1,2.52,0,1.47,1.47,0,0,1,1.39.95,6.51,6.51,0,0,0,1.07,1.22A20.73,20.73,0,0,1,111.87,177.23Z"/><path class="cls-2" d="M130.07,31.4c-.55.63-1,1.11-1.42,1.63a1.45,1.45,0,0,1-1.58.44,7.11,7.11,0,0,1-1.17-.79c-.07,0-.11-.16-.18-.17-1.59-.23-1.35-1.64-1.72-2.66.46-.45-.34-1.2.4-1.63.13-.08,0-.59,0-.89s.08-.62.26-.73a3,3,0,0,0,.89-1c.18-.26.39-.68.85-.26.09.08.35,0,.52-.06,1.23-.35,2.44-.77,3.69-1s2.56-.45,3.85-.65c.13,0,.33,0,.39.05A18.63,18.63,0,0,1,136,25.3c.4.68-.15,1.24-.44,1.71a6.41,6.41,0,0,1-3.13,2.54,12.08,12.08,0,0,0-2.2,1.44C130.12,31.1,130.09,31.36,130.07,31.4Z"/><path class="cls-2" d="M130,42.75a5.24,5.24,0,0,1-3.24-1.33A5.39,5.39,0,0,1,125.38,40a3.23,3.23,0,0,1-.33-1.43,9.5,9.5,0,0,0,.06-1.34,1,1,0,0,1,.61-1.15,5.53,5.53,0,0,1,2.7-.7c.72,0,1.43-.25,2.16-.34s1.63-.16,2.45-.23c.64-.05,1.29,0,1.92-.14a2,2,0,0,1,2.06.95c.6.75.37,1.6.54,2.4.09.45-1,1.38-1.46,1.52-1.13.34-2.21.81-3.35,1.11-.66.17-.87.66-1.22,1.12S130.68,42.91,130,42.75Z"/><path class="cls-2" d="M131.91,47.92c.19.23.43.54.71.83a1.28,1.28,0,0,1,.27,1.69c-.06.11-.2.27-.17.31.45.58-.16,1-.24,1.46,0,.06-.09.12-.16.15-.53.22-1.09.4-1.6.66a2.23,2.23,0,0,0-.7.64c-.46.6-.76,1.36-1.53,1.62a1.67,1.67,0,0,1-1.17-.07,16.89,16.89,0,0,1-1.39-1,3,3,0,0,0-1-.4,1.18,1.18,0,0,1-1-1,3.69,3.69,0,0,0-.76-1.12c-.45-.59-.95-1.14-1.37-1.75a.64.64,0,0,1,.16-.6,1.37,1.37,0,0,0,.62-1.07,1.65,1.65,0,0,1,1.12-1.44c.63-.21,1.24-.47,1.87-.67a.43.43,0,0,1,.38.13c.51.72,1.42.33,2,.72,0,0,.21-.14.17-.11Z"/><path class="cls-2" d="M121,26.08A2.35,2.35,0,0,1,119.64,25c-.59-.75-.22-1.61-.05-2.4a7.76,7.76,0,0,1,1-2.88,2.26,2.26,0,0,0,.29-1c.06-.55.63-.71.81-1.19a5.26,5.26,0,0,1,.77-1.49,6.78,6.78,0,0,0,1.06-2.31c.12-.37.75-.6,1.18-.85s.88-.09,1.32.26a4,4,0,0,1,1.28,2.28,8,8,0,0,1,.27,1.49,12.72,12.72,0,0,1,0,1.49c0,.25-.05.5-.06.75,0,.8-.8,1-1.2,1.52-.54.68-1.14,1.3-1.68,2s-1.16,1.45-1.67,2.22A2.69,2.69,0,0,1,121.37,26,3.73,3.73,0,0,1,121,26.08Z"/><path class="cls-2" d="M115.52,58s0-.14,0-.17c.71-.55.52-1.42.75-2.14s.67-1.18,1.16-1a2.56,2.56,0,0,0,1.94-.11c.2-.08.57.26.85.43.11.07.21.28.3.27.65-.09,1,.42,1.52.66s1.12.49,1.65.78c.71.39,1.57.69,1.84,1.54a8.45,8.45,0,0,1,.08,1.6c.1.87-.87,1.24-.92,2,0,.07-.26.16-.4.17a2.12,2.12,0,0,1-.67-.06c-.72-.19-1.07.28-1.51.7a5.25,5.25,0,0,1-1.15.58c-.56.3-.75-.2-1.09-.43a6.51,6.51,0,0,0-1-.37,1.68,1.68,0,0,1-.76-.5c-.45-.75-.84-1.54-1.22-2.33A5.74,5.74,0,0,0,115.52,58Z"/><path class="cls-2" d="M79.72,47.9l-.3-.14a5.66,5.66,0,0,0,0-1c-.13-.81.08-1.41.64-1.66,0-.43-.09-1,.61-1,.22,0,.44,0,.65,0a18,18,0,0,0,2.81-.69,18.72,18.72,0,0,0,2.48-.93.61.61,0,0,1,.24-.06A2.51,2.51,0,0,1,89,44a2.37,2.37,0,0,1,0,1.65c-.56,1.2-1.1,2.41-2.62,2.77a2.58,2.58,0,0,0-1.37,1c-.21.3-.27.76-.53,1.11a2.07,2.07,0,0,1-2.24.74,8,8,0,0,0-.77-.26,3.28,3.28,0,0,1-2-2.44A2.26,2.26,0,0,1,79.72,47.9Z"/><path class="cls-2" d="M88.08,33.43a14.11,14.11,0,0,0-2-.16c-.64,0-1.33.44-1.9.3s-.68.34-1,.47a1.88,1.88,0,0,1-2.32-.66c-.25-.36-.55-.69-.81-1a3.78,3.78,0,0,1-.59-2,1.79,1.79,0,0,0-.16-.6,1,1,0,0,1,.52-1.34,1.42,1.42,0,0,0,.63-.31c.7-.88,1.62-.7,2.54-.59a18.87,18.87,0,0,1,2.69.29c1.17.31,2.47.18,3.5,1,1.3,1,1.68,1.07,1,2.84,0,0,0,.08,0,.12-.1.37-.09.93-.33,1.08A8.47,8.47,0,0,1,88.08,33.43Z"/><path class="cls-2" d="M115.18,21.57a1.85,1.85,0,0,1-1.8-.67,1.44,1.44,0,0,1-.3-.59,11,11,0,0,1,.43-6.45c.25-.68.13-1.49.36-2.19a3.35,3.35,0,0,1,1.6-1.88.53.53,0,0,1,.25,0,4.28,4.28,0,0,1,2.53,1.9c.23.64.55,1.26.74,1.91a9.67,9.67,0,0,1,.38,2.08,2.79,2.79,0,0,1-.35,1.15c-.3.7-.61,1.41-1,2.08a12.13,12.13,0,0,1-.91,1.27c-.07.1-.18.18-.21.29-.33,1.11-.32,1.11-1.45,1.11Z"/><path class="cls-2" d="M79.16,35.44c1,.06,1.8.13,2.63.17.34,0,.68-.05,1,0a3.45,3.45,0,0,0,1.77-.34c.74-.34,2.33.39,2.82,1.09l.23.3c.22.3.66.64.62.91a2.85,2.85,0,0,1-.79,2c-.16.13-.29.31-.44.45a2.3,2.3,0,0,1-.68.53c-.54.18-1.11.25-1.66.4a2.5,2.5,0,0,0-1.62,1.39c-.16.33-.32.46-.66.41-.15,0-.37-.05-.43,0-.43.52-.82.2-1.23,0s-.8-.37-1.17-.6a2.77,2.77,0,0,1-1.27-3,4.81,4.81,0,0,0,.11-1.47,1.78,1.78,0,0,1,.52-1.54C79.11,35.93,79.12,35.59,79.16,35.44Z"/><path class="cls-2" d="M86.5,61.1a6.67,6.67,0,0,1-1.55-.78c-.29-.25-.33-.79-.48-1.21,0-.12,0-.29-.1-.35-.65-.46-.14-1.17-.38-1.72,0,0,.07-.1.1-.16a9,9,0,0,0,.76-1.59,7.44,7.44,0,0,1,1.77-2.7,2.37,2.37,0,0,0,.59-.88c.14-.69.77-.67,1.18-1a1.69,1.69,0,0,1,1.74.37,13.31,13.31,0,0,1,1.16,1.7,3.7,3.7,0,0,1-.63,4.32,8.87,8.87,0,0,0-1.26,1.07,13.6,13.6,0,0,0-.92,1.52A2.64,2.64,0,0,1,86.5,61.1Z"/><path class="cls-2" d="M88.42,17a5.38,5.38,0,0,1-.32-.78c-.12-.49-.19-1-.29-1.49a6.9,6.9,0,0,1-.2-.73,2.82,2.82,0,0,1,1.31-2A1.75,1.75,0,0,1,90.59,12,6.26,6.26,0,0,1,92,13a24.91,24.91,0,0,1,2.11,2.37,7.27,7.27,0,0,1,1.29,2.23,3,3,0,0,0,.92,1.5.47.47,0,0,1,.1.34,4.06,4.06,0,0,0-.09.87,1.52,1.52,0,0,1-.8,1.53,2.14,2.14,0,0,1-1.48.06A5.21,5.21,0,0,1,91.5,20a10.13,10.13,0,0,0-1.31-1c-.08-.06-.13-.16-.21-.22-.4-.32-.83-.61-1.21-.94a5,5,0,0,1-.55-.66Z"/><path class="cls-2" d="M95.45,14.51c-.19-1-.37-2-.58-3a.76.76,0,0,1,.27-.85c.32-.26.55-.63.88-.86a1.57,1.57,0,0,1,1.57-.06,3.79,3.79,0,0,1,2.13,3c0,.06,0,.13,0,.19.34,1.14.74,2.27,1,3.42a3.22,3.22,0,0,1,.09,1.73c-.11.35.1.78,0,1.22a1.52,1.52,0,0,1-1.83,1.1c-1.2-.16-1.64-1-2.21-1.89a12.74,12.74,0,0,1-1.25-3,9,9,0,0,1-.2-.94Z"/><path class="cls-2" d="M103.24,18.94c-.14-.64-.27-1.19-.38-1.75-.07-.32-.11-.65-.18-1a3.7,3.7,0,0,0-.17-.53c-.22-.58-.47-1.15-.67-1.74a1.08,1.08,0,0,1,0-.69c.34-.83-.06-1.65,0-2.47,0-.17.11-.44.22-.47.45-.12.4-.36.23-.67s-.09-.54.3-.51a13.76,13.76,0,0,1,1.41.22,2.77,2.77,0,0,1,1.14.32,5.19,5.19,0,0,1,1.21,1.38,9.84,9.84,0,0,1,.55,1.58,9.2,9.2,0,0,1,.13,2.95,12.83,12.83,0,0,1-.15,2.28,11.7,11.7,0,0,1-.39,1.66c-.15.53-1.38.72-1.91.3-.23-.18-.44-.4-.69-.56A5.31,5.31,0,0,0,103.24,18.94Z"/><path class="cls-2" d="M88.16,26.58a10.15,10.15,0,0,1-1.75-.27,9.31,9.31,0,0,1-1.72-.86c-.32-.18-.59-.44-.91-.62a2,2,0,0,1-1-2.29,8,8,0,0,0-.14-1.72c0-.19,0-.44.06-.55A13.35,13.35,0,0,1,83.93,19a.69.69,0,0,1,.58-.11,2.31,2.31,0,0,1,.91.52c.56.6,1.46.83,1.81,1.66,0,.11.22.18.34.26.43.27.86.54,1.29.79s.67.3,1,.5a2.25,2.25,0,0,1,1,2.2c0,.31,0,.61-.28.82A3.33,3.33,0,0,1,88.16,26.58Z"/><path class="cls-2" d="M94,67.12a2.42,2.42,0,0,1-2.54-1.6,8.75,8.75,0,0,1,.11-2.36,9.41,9.41,0,0,1,.27-1.3,2.9,2.9,0,0,1,.22-.57c.41-.85.8-1.72,1.27-2.54A1,1,0,0,1,95,58.52a5.09,5.09,0,0,1,1.24,1.57,6.59,6.59,0,0,1,.27,2.12,3.23,3.23,0,0,1-.39,2.19c-.43.6-.68,1.33-1.12,1.92A4.23,4.23,0,0,1,94,67.12Z"/><path class="cls-1" d="M104.26,82.43a1.43,1.43,0,0,1-.69.19c-.63,0-1.24.35-1.87,0-.12-.06-.42,0-.45,0-.2.53-.66.29-.89.2-.52-.2-1,.54-1.48,0-.28.48-.74.22-1.13.28a15.53,15.53,0,0,1-2.15.41c-1.24,0-2.38.74-3.69.39-.35-.09-.86.15-1.33,0-.13-.05-.38.25-.59.28-.47.07-1,0-1.43.1a17,17,0,0,1-1.88.34,11.66,11.66,0,0,1-1.9-.24l0,.19c-.11,0-.22.11-.32.1a5.59,5.59,0,0,0-.73-.13c-.64,0-1.29.09-1.93.14s-1.33-.12-1.8.15a3.86,3.86,0,0,1-1.4.4,9.25,9.25,0,0,0-1.14.07,3.12,3.12,0,0,1-2.19,0l.48-.71H74.36l.71.77c-.13.11-.24.27-.39.32s-.25-.1-.35-.18,0-.16,0-.24a.79.79,0,0,0-.23.15,2.41,2.41,0,0,0-.19.36c-.27-.1-.49-.26-.69-.24a15.94,15.94,0,0,1-1.8.32,1.74,1.74,0,0,1-1.48-.38c-.27-.28-.62-.82-1.31-.46-.25.13-.85-.23-1.18-.5s.27-1.43.38-1.49c-.15-.34-.42-.66-.4-1,0-.64.63-1.24.12-1.93,0,0,0-.07,0-.11a10.23,10.23,0,0,0,.1-1.23,2.5,2.5,0,0,1,1.42-2.15c.68-.31,1.59-.22,2-1.11a1.4,1.4,0,0,1,.46-.47c.57-.45,1.18-.86,1.74-1.33a6.14,6.14,0,0,0,2.16-2.48c.23-.69,1.19-1,.92-2-.13-.47.28-1.09.46-1.64.11-.34.27-.66.45-1.1l.55-.05c-.31-.15-.6-.2-.68-.35a1.27,1.27,0,0,1,.22-1.45c.5-.49.13-1,0-1.22-.35-.71-.95-1.29-1.37-2-.26-.42-.67-1.07-.52-1.37a.57.57,0,0,0-.28-.84c-.79-.42-1.69-.68-2.07-1.62,0-.06-.14-.08-.21-.11A13,13,0,0,1,71,56.71a4.08,4.08,0,0,0-1.3-.86,5.9,5.9,0,0,0-1.49-.27,3,3,0,0,0-2,.5s-.11,0-.15,0-.21-.19-.32-.2a13.06,13.06,0,0,0-2,0c-.32,0-.6.2-.9,0,0,0-.12,0-.17.09s-.18.25-.3.28c-.55.13-1.1.22-1.43.27-.3.37-.43.68-.67.81a9.71,9.71,0,0,0-2.07,1.6,10.7,10.7,0,0,0-1.56,1.9c-.5.78-1.15,1.45-1.67,2.23a11.67,11.67,0,0,0-.9,2.31,2.53,2.53,0,0,0-.3,1.28c.21,1.13-.27,2.21-.11,3.35a9.1,9.1,0,0,0,.17,1.09c.07.26.33.45.49.69s.29.5.44.75a2.05,2.05,0,0,1,.31.55c.21,1,1.08,1.57,1.71,2.27.45.51,1.26.69,1.74,1.19s.64.86,1.2,1c.19.05.39.08.59.12a1.44,1.44,0,0,1,.41.12,1,1,0,0,1,0,1.56,7.83,7.83,0,0,1,.16,1.42,1.54,1.54,0,0,0,0,.58,4.74,4.74,0,0,1,0,1.6,11.56,11.56,0,0,1-.37,1.51c.83.55-.35,1.57.5,2.12,0,0,0,.08,0,.12a4.1,4.1,0,0,0,.1.5,8.59,8.59,0,0,1,.44,1.46,3.44,3.44,0,0,0,2.17,2.69,5.06,5.06,0,0,0,1.83.37c1.05.1,2,.63,3.13.44.09,0,.25,0,.29.07.43.71,1.13.3,1.7.43.19,0,.4,0,.59.05a12.78,12.78,0,0,0,2,.48c1.07.07,2.14,0,3.22,0s1.89.17,2.84.24a9.09,9.09,0,0,0,1.15,0,8.34,8.34,0,0,0,.92-.12c.48-.08,1.08,0,1.42-.3A.74.74,0,0,1,84,93s.11,0,.19,0L84,92.68l2.92-.41a6.25,6.25,0,0,0,2.1-.33,3.38,3.38,0,0,1,1.35-.41,23.93,23.93,0,0,1,2.72.11c.25,0,.47.21.72.28a2.07,2.07,0,0,0,.74.08c.17,0,.32-.2.49-.25.93-.26,1.85-.55,2.8-.75,1.24-.26,2.5-.44,3.75-.67.1,0,.18-.11.28-.12.81-.11,1.5-1.07,2.45-.29a.74.74,0,0,0,.35.12C104.79,87.51,105.07,85,104.26,82.43ZM64.87,72.88,63,73a2.89,2.89,0,0,1-2.77-1.87,2.42,2.42,0,0,1-.11-1.24c.1-.51-.34-.9-.19-1.39s.24-.76.34-1.15a4,4,0,0,0,0-.43c.13-.86.83-1.36,1.28-2a13.84,13.84,0,0,1,.82-1.45,3.36,3.36,0,0,1,1.69-1.36c.57-.13,1.13-.27,1.7-.38,1-.19,1.94-.37,2.91-.54a1.11,1.11,0,0,1,.63.05c.76.37,1.5.76,2.23,1.19.18.11.42.44.37.56-.19.47.09.73.29,1.07a1.2,1.2,0,0,1,.12.66,11.44,11.44,0,0,0-.19,2.08,1.55,1.55,0,0,1-.34,1A7.85,7.85,0,0,1,71,69.15a4.38,4.38,0,0,1-1.38,1.34,2.35,2.35,0,0,0-1.34,1,.45.45,0,0,1-.3.21,6.29,6.29,0,0,0-2.35,1A2.28,2.28,0,0,1,64.87,72.88Z"/><path class="cls-1" d="M115,90.62c1.45,0,2.9,0,4.35,0a2,2,0,0,0,.43-.15,4.87,4.87,0,0,1,.66-.15c.35,0,.7-.06,1-.1.16,0,.32-.1.48-.1,1.08,0,2.16,0,3.24,0a9.91,9.91,0,0,0,1.42-.21c1.15-.21,2.29-.45,3.44-.65.49-.09,1-.14,1.5-.19.31,0,.62,0,.93,0,.55,0,1.1,0,1.65,0s.82-.11,1.24-.15a7.41,7.41,0,0,0,1.46-.13,2.5,2.5,0,0,1,2,.07,1.48,1.48,0,0,0,.64,0c.54,0,1.08,0,1.61,0,.7,0,1.41.42,2.1-.1.1-.07.29,0,.44,0a9.29,9.29,0,0,0,2.77-.26,20.35,20.35,0,0,0,2-.73c.72-.32,1.39-.75,2.11-1.08.5-.22,1.06-.3,1.56-.52a4.81,4.81,0,0,0,2.5-1.93,7.33,7.33,0,0,0,.53-1.19c.3-.88-.19-1.72-.16-2.6,0-.29.15-.74,0-.86-.55-.47,0-.41.2-.54l-.67-1.21.64-.75-.2-3.14.15,0-.5-.43s0-.06,0-.07a2.78,2.78,0,0,0,.08-1.36,1.79,1.79,0,0,1-.2-.68.89.89,0,0,1,.16-.61c.37-.37.2-1.18,1-1.2a2.35,2.35,0,0,0,2-.72s0,0,.06,0l2.07-1a.21.21,0,0,0,.09-.08c.48-.89,1.46-1.1,2.23-1.54s1.6-.82,1.88-1.78c.08-.27.61-.11.48-.59,0-.15.15-.42.31-.56a2.77,2.77,0,0,0,.87-1.86c.12-.2.28-.42.24-.6a.86.86,0,0,1,.65-1.19c0-.11-.05-.2-.11-.24-.93-.69-.9-1.78-1.18-2.75A6,6,0,0,0,164.4,55c-.38-.56-1.08-1-1.16-1.63-.12-.81-.72-.85-1.16-1.1a24.65,24.65,0,0,0-2.27-1.05c.16-.86-.06-1.1-.8-1-.1,0-.27.08-.29,0-.36-.52-.51.08-.66.12-.87-.48-1.68-.93-2.5-1.35a.52.52,0,0,0-.49,0c-.74.91-1.69.13-2.53.3-.67.14-1.49-.26-2.12-.05a14,14,0,0,1-2.91.46,3.21,3.21,0,0,0-2.35.95c-.06.08-.16.18-.25.19-1.19.06-1.44,1.5-2.52,1.72,0,0,0,.12,0,.16-.32.4-.22,1-.7,1.37a1.37,1.37,0,0,0-.54,1,8.51,8.51,0,0,1-.71,2.6,1.27,1.27,0,0,0-.19,1,8,8,0,0,1,.19,1.62c0,.37,0,.73,0,1.1l-.2.06L145,68l.11-.12-.19.73,2.11.62-.57.46a4.9,4.9,0,0,1,.57,1.09A7.45,7.45,0,0,1,147,72c0,.25.23.61.12.73-.54.65-.1,1.39-.18,2.07-.14,1.22,0,1.38-.79,2,.11.09.3.17.31.27a10.78,10.78,0,0,1,.1,1.74c0,.51-.54,1-.53,1.38a1,1,0,0,1-.86,1c-.69.08-1.36.63-2.12.21a.84.84,0,0,0-.65.13c-.75.43-1.74-.09-2.41.62,0,0-.12,0-.18,0a1.83,1.83,0,0,0-.57-.08c-.59.1-1.17.32-1.76.36-.88.06-1.76,0-2.65,0a2,2,0,0,0-.31.06,5.13,5.13,0,0,1-.58.09c-.27,0-.55,0-.88,0a1.08,1.08,0,0,0-1.22-.35c-.41.08-.88-.09-1.36,0s-.71-.1-1.05-.06a4.34,4.34,0,0,1-2.34-.23c-.46-.22-.91-.49-1.21.2a.31.31,0,0,1-.26.11q-.91-.09-1.82-.21c-.24,0-.61-.22-.68-.14-.54.65-1.21.5-1.88.39,0,0-.1.09-.16.1l-2.35.33s-.07-.05-.11-.06a5.72,5.72,0,0,0-.84-.05c-.6,0-1.2.11-1.8.17a6.71,6.71,0,0,1-1.16.1,1.94,1.94,0,0,1-.28-.06,66.58,66.58,0,0,0,.36,7.81ZM147.83,60a18.94,18.94,0,0,0,.25-1.95c.06-.66.55-1,1-1.3l.57-.45a8.16,8.16,0,0,1,1.08-.84c.61-.34,1.27-.59,1.91-.88a1.15,1.15,0,0,1,.53-.15.93.93,0,0,0,1.1-.64,14.76,14.76,0,0,1,1.67.77,8.55,8.55,0,0,1,1.12,1c-.42.53.33.93.16,1.44,0,.09.06.23.13.33a1.37,1.37,0,0,1-.33,1.94l.41.08c-.37.74-.62,1.56-1.6,1.65a4.07,4.07,0,0,0-.53.39,6.24,6.24,0,0,0-.38.52,2,2,0,0,1-1.74.62,1.42,1.42,0,0,0-.68.3,6.28,6.28,0,0,1-1.9.43c-.11,0-.26-.12-.36-.08-.74.25-1-.35-1.35-.76s-.52-.95-.85-1.38A1.15,1.15,0,0,1,147.83,60Z"/><path class="cls-1" d="M177.53,125.43c-.06-.46-.6-.85-.84-1.32-.38-.73-.62-1.54-1.06-2.23a6.89,6.89,0,0,0-1.47-1.6c-.51-.41-1.13-.67-1.26-1.42,0-.11-.3-.18-.45-.27a8.68,8.68,0,0,1-.77-.48,8.24,8.24,0,0,0-.95-.77c-.45-.24-1-.37-1.44-.57-.08,0-.09-.2-.1-.23-.35-.06-.8,0-1-.2a2,2,0,0,0-1.58-.54c-1,.09-1.64-.68-2.55-.68-.26,0-.51-.25-.76-.39s-.34-.25-.56.07c-.09.13-.66-.07-1-.12a6.13,6.13,0,0,0-1.23-.17c-.4,0-.78.28-1.18.3a2.49,2.49,0,0,1-1.25-.22.86.86,0,0,0-1.13.11,3.9,3.9,0,0,1-1.35.75c-.67.2-1.4.11-2,.63a11.68,11.68,0,0,1-1.81,1.34c-1,.6-1.65,1.72-2.8,2.15a.22.22,0,0,0-.11.15c-.09.61-.61.92-.93,1.37a7.13,7.13,0,0,0-.8,1.23,7,7,0,0,1-.81,1.07,9.73,9.73,0,0,0-1.23,2.7c-.52,1.8-.11,3.59,0,5.36a8.4,8.4,0,0,0,1.13,3,21.62,21.62,0,0,0,1.77,2.92,17.73,17.73,0,0,0,1.87,2.1A20.58,20.58,0,0,0,151.6,141c.25.2.62.27.84.49a4.56,4.56,0,0,0,2.2,1.09c.64.17,1.29.87,1,1.27a5,5,0,0,0-.51,1.67,4.11,4.11,0,0,0-.38,1.89,2.37,2.37,0,0,1-.28,1.71,5.71,5.71,0,0,0-.41.88c-.33,1.12-.64,2.26-.95,3.39a1.65,1.65,0,0,1-1.81,1.39c-.86-.05-1.72-.22-2.58-.32s-2-.25-3-.3a48,48,0,0,1-5.09-.23c-1.48-.24-3-.18-4.5-.3a20.09,20.09,0,0,1-2-.3c-.8-.14-1.58-.33-2.38-.45-.59-.09-1.27.06-1.76-.19a5.66,5.66,0,0,0-2.42-.46c-.95-.06-1.9-.07-2.85-.14-.28,0-.6-.3-.81-.22a2.93,2.93,0,0,1-1.81,0,1.7,1.7,0,0,0-.42-.11c-.85,0-1.7.14-2.55.1-1,0-2-.22-3.05-.34l-2.33-.28-.64-.09a15.6,15.6,0,0,0-.51,8.81,5.61,5.61,0,0,1,1.76-.22,7,7,0,0,0,2.52.22s.08,0,.12,0c1,0,2.1.12,3.14.05,1.57-.1,3.12-.36,4.69-.45a2.33,2.33,0,0,1,1.49.15,2.49,2.49,0,0,0,1,.12c1,0,1.91,0,2.86.06.57,0,1.14.08,1.71.14.21,0,.4.12.61.13,1,.05,2,.06,2.94.14,1.39.11,2.77.28,4.15.41.59.05,1.19,0,1.79.07,1,.07,2.05.21,3.08.25a12.45,12.45,0,0,1,2-.06,19.89,19.89,0,0,1,3.12,1c.64.26,1.17.52,1.87,0a3.44,3.44,0,0,1,3.09-.08,2.76,2.76,0,0,0,1.91.08,5.89,5.89,0,0,1,1.71-.21,2.2,2.2,0,0,0,1.7-.46c.27-.27.76-.3,1.15-.45a5,5,0,0,0,.63-.27c.35-.19.68-.54,1-.57.69-.06.89-.37.91-.95a6.53,6.53,0,0,0,.8-1.07c.07-.1.1-.27.19-.31.71-.33.38-1,.44-1.47,0-.34,0-.7,0-1s.22-.65-.11-1c-.07-.07,0-.34.1-.64a1.05,1.05,0,0,1-.24-.33c-.15-.38-.16-.88-.41-1.17-.73-.84-.19-1.91-.62-2.78a.23.23,0,0,1,0-.13c.1-.56.18-1.11.31-1.66,0-.12.2-.2.32-.31s-.11-.14-.12-.23a8.5,8.5,0,0,1,.26-3.26,1.82,1.82,0,0,1,.49-.81,5.5,5.5,0,0,1,1.2-.62c.55-.24,1.16-.34,1.53-.9a1.12,1.12,0,0,1,.58-.48,8.45,8.45,0,0,0,2.23-1,10.26,10.26,0,0,0,1.91-1.81,22,22,0,0,0,1.68-2,4.14,4.14,0,0,0,1.42-2.88c0-.2.29-.42.46-.62s.22-.05.22-.08c0-.71.61-1,.88-1.49-.12-.29-.36-.56-.31-.78a5.27,5.27,0,0,1,.58-1.84C178.08,127.38,177.65,126.39,177.53,125.43Zm-8.31,2.67a10.82,10.82,0,0,0-.77,1.78,5.52,5.52,0,0,1-.26.49,10.42,10.42,0,0,1-.73,1.3c-.48.63-1,1.21-1.54,1.8-.36.41-.76.79-1.11,1.21a4.06,4.06,0,0,1-2.53,1.75c-.75.06-1.3.64-2,.54-1-.16-2.1.38-3.08-.32a2.21,2.21,0,0,0-1-.23,1.15,1.15,0,0,1-1-.79c0-.11-.07-.32-.13-.34-.79-.15-.81-.93-1.2-1.4l-1.64-2,.4-1.54a8.42,8.42,0,0,1,0-1c0-.24.2-.49.18-.72a1.42,1.42,0,0,1,.49-1.27,7.6,7.6,0,0,0,1-1.87c.08-.15.14-.35.27-.42,1.15-.62,1.71-1.75,2.48-2.71a3.18,3.18,0,0,1,1.43-.79c.43-.15.93-.08,1.37-.2a1,1,0,0,0,.51-.48,1.93,1.93,0,0,1,1.57-1,8.77,8.77,0,0,1,3.87.37,4.52,4.52,0,0,1,2,1.49s0,.09.06.11c1.13.46,1,1.51,1.22,2.44s.4,1.61.53,2.43A1.82,1.82,0,0,1,169.23,128.1Z"/><path class="cls-1" d="M101.17,151.43c-.82.17-1.58.68-2.48.39,0,0-.11.08-.18.1a5,5,0,0,1-1,.37c-.7.1-1.4.09-2.1.17a7.63,7.63,0,0,0-1,.25l.05.1c-1.74.34-3.5.72-5.27,1a16.5,16.5,0,0,1-2.46,0,1.67,1.67,0,0,1-1.55.53,5.51,5.51,0,0,0-1.45.16l-.82.14c-.12,0-.25,0-.38,0-.87.16-1.73.32-2.6.49-1,.21-2,.42-3.06.67a12.48,12.48,0,0,1-2.65.29,37.12,37.12,0,0,0-4.3.69c-1.69.25-3.4.43-5.1.65-.63.08-1.25.26-1.88.32-1,.08-1.94.05-2.91.14a19.91,19.91,0,0,1-3.27.38,35.44,35.44,0,0,1-4.68-.86.93.93,0,0,1-.54-.61,11.1,11.1,0,0,1-.34-2.28,22.07,22.07,0,0,1,.21-3c.09-.7.3-1.37,1.28-1.19a.92.92,0,0,0,.55-.2c.27-.17.52-.39.79-.57.74-.49,1.52-.93,2.23-1.46s1.33-1.16,2-1.72a3.69,3.69,0,0,0,1-1.21c.45-.86,1-1.65,1.55-2.48a11.6,11.6,0,0,0,.85-1.59c.32-.77.54-1.58.83-2.36s.63-1.42,0-2.14c0,0,0-.18.05-.28a3.45,3.45,0,0,0,0-.57c0-.46-.09-.92-.13-1.39-.09-.82-.15-1.64-.27-2.45a3.07,3.07,0,0,0-.37-.83c-.44-.87-.85-1.77-1.34-2.61-.24-.41-.91-.55-.74-1.23,0,0-.16-.11-.24-.17-.78-.55-1.79-.9-1.95-2a.27.27,0,0,0-.12-.15c-.91-.65-1.2-1.87-2.26-2.4a5.1,5.1,0,0,1-1.36-.87,6.56,6.56,0,0,0-2.09-1.81,14,14,0,0,0-2.51-.83c-.92-.17-1.91,0-2.81-.22a4.21,4.21,0,0,0-2.07-.2,9.54,9.54,0,0,0-2,.47c-1,.49-1.92,1.14-2.88,1.71a7,7,0,0,0-.91.48c-.31.26-.51.66-.83.9a36.41,36.41,0,0,0-3,2.2,13.48,13.48,0,0,0-2.57,4.06,3.24,3.24,0,0,0-.36.7,19.23,19.23,0,0,1-1,3.77,4.57,4.57,0,0,0-.19,1.42c0,.18.13.38.09.55a14.38,14.38,0,0,0-.07,2.1,4.51,4.51,0,0,0,.32,1.49c.3,1.16.61,2.31.91,3.47a9.46,9.46,0,0,0,.53,2,16.48,16.48,0,0,0,1.5,2.16,11.36,11.36,0,0,0,1.65,2.07,13.53,13.53,0,0,0,2.51,1.44,11.46,11.46,0,0,0,1.56.64c.7.24,1.42.42,2.13.66.21.07.37.32.57.34.56.05,1.14,0,1.7.05a1.13,1.13,0,0,1,.57.3c.55.46.4,1.17.52,1.76a22.81,22.81,0,0,1,.12,2.34,10.87,10.87,0,0,0,.75,3c.22.56.43,1.12.66,1.67a13.77,13.77,0,0,0,.93,2,5.44,5.44,0,0,0,3.32,2.3,15.62,15.62,0,0,0,4.46.39,14,14,0,0,1,3.46.14,11.3,11.3,0,0,0,2.7,0c1.08,0,2.14-.26,3.22-.35,1.29-.12,2.58-.15,3.86-.29.71-.08,1.4-.33,2.11-.46s1.3-.2,2-.27c1.26-.13,2.52-.22,3.78-.37,1-.11,1.89-.35,2.84-.39a4.63,4.63,0,0,0,3.18-.85c.09-.08.28-.07.42-.07,1,0,2,0,3-.16a25.29,25.29,0,0,1,3.7-.66A3.65,3.65,0,0,0,91,161a19,19,0,0,1,3-.62,14.11,14.11,0,0,1,2.27-.28,25,25,0,0,0,2.56-.55c.29-.06.61,0,.9,0,1.14-.25,2.26-.54,3.4-.8l.16,0a64.56,64.56,0,0,0,.37-7.79C102.88,151.09,102,151.25,101.17,151.43ZM50,141.92c-.14,0-.34.35-.55.45a21.54,21.54,0,0,1-2.08,1,7.23,7.23,0,0,1-1.69.41,14.39,14.39,0,0,1-2.75.15,10.4,10.4,0,0,1-2.52-.6c-.29-.1-.5-.5-.68-.8-.38-.62-.71-1.28-1.06-1.91-.22-.39-.46-.78-.67-1.17-.11-.21-.19-.44-.28-.66l.19-.08a8.61,8.61,0,0,1-.41-.93,2.6,2.6,0,0,1-.2-1.06c.11-.8.32-1.59.49-2.38a1.13,1.13,0,0,1,.11-.35,10.74,10.74,0,0,0,1.06-1.75,2.44,2.44,0,0,1,1.34-1.29,2.93,2.93,0,0,0,1.23-1.56c.11-.24.42-.4.64-.59.55-.48,1.08-1,1.66-1.43.19-.15.5-.12.75-.2a15.21,15.21,0,0,0,1.71-.6,7.17,7.17,0,0,1,3.46-.34,2.15,2.15,0,0,1,1.08.42,7.35,7.35,0,0,1,2.19,2c.31.5.81.87,1.16,1.35a6.08,6.08,0,0,1,.9,2.45c.2,1-.17,1.9.12,2.83,0,.15-.19.37-.26.58a6.87,6.87,0,0,1-1.29,2.36,13.1,13.1,0,0,0-1.3,2.36c0,.09-.12.24-.17.24C51.16,140.63,51.07,142.19,50,141.92Z"/><path class="cls-2" d="M150.78,97.48c1.39-.12,2.4,1.29,2.5,2.53a12.85,12.85,0,0,1,0,3,8.64,8.64,0,0,0,.21,2.46,4.4,4.4,0,0,0,.38,1,.45.45,0,0,0,.08.1c-.55.33,0,.92-.31,1.33a.62.62,0,0,0-.08.53c.35.53-.07.94-.21,1.35a2.22,2.22,0,0,1-2.15,1.09,6.36,6.36,0,0,1-2.33-1.09c-.19-.15-.16-.51-.24-.65-.28-.51,0-1-.11-1.45s-.34-1-.43-1.46a11.79,11.79,0,0,1-.11-1.45,11.71,11.71,0,0,1-.12-2.16c.13-1.07-.18-2.14,0-3.16a2.94,2.94,0,0,1,1.19-1.57A4.63,4.63,0,0,1,150.78,97.48Z"/><path class="cls-2" d="M148,111.67c-.05.14-.17.29-.15.41a1.23,1.23,0,0,1-.79,1.46,5.89,5.89,0,0,1-2.4.2,2.45,2.45,0,0,1-1.38-1,3.91,3.91,0,0,0-1.71-1.44c-.16-.05-.13-.55-.3-.73-.82-.88-.8-2.21-1.69-3.06-.3-.28-.3-.85-.54-1.21-.51-.73-.18-1.53-.28-2.29a2,2,0,0,1,2.49-2l.06-.31a4.28,4.28,0,0,1,1.37.48,6.25,6.25,0,0,1,1.09,1.4,1.42,1.42,0,0,1,.33.75c0,1,.71,1.56,1,2.35s.95,1.45,1.28,2.23a4.08,4.08,0,0,0,1.14,1.86c.22.17.22.63.31,1Z"/><path class="cls-2" d="M132.09,123a1.24,1.24,0,0,0-.94-1.12c-.13-.7-.25-1.34-.36-2a1.94,1.94,0,0,1-.08-.66,2.25,2.25,0,0,1,.33-.92c.55-.74,1.27-.78,2.22-.43a13.5,13.5,0,0,0,2.11.41,3.27,3.27,0,0,1,.66.19,2.37,2.37,0,0,0,1.35.37,6,6,0,0,1,1.67.22.61.61,0,0,1,.35.13,4.47,4.47,0,0,0,2.43,1,2.09,2.09,0,0,1,1.45,1.55,1.08,1.08,0,0,1-.35.82A3.12,3.12,0,0,1,141,123.7a20.8,20.8,0,0,1-4.29,0c-1.09-.15-2.21-.11-3.32-.16a.61.61,0,0,1-.22-.06Z"/><path class="cls-2" d="M180.46,102.2c.19.21.28.39.44.48a2.57,2.57,0,0,1,1.18,2.31,5.34,5.34,0,0,1-.24,1.56c0,.19-.27.34-.42.5s-.2.12-.23.21c-.54,1.48-1.69,2.55-2.57,3.8-.2.29-.66.41-1,.61-.1.06-.26.17-.25.23.1.55-.31.76-.65,1s-.75.57-1.13.86l.15.17a4.78,4.78,0,0,1-1.14-.26,3.17,3.17,0,0,1-1.18-.87,1.25,1.25,0,0,1-.09-1.35.85.85,0,0,0,0-.5c-.1-.68,0-.74.58-1.15.17-.11.22-.4.33-.6.32-.6.68-1.18,1-1.79a22.44,22.44,0,0,1,1.77-2.52c.31-.5.7-1,1.05-1.44a.57.57,0,0,1,.18-.18Z"/><path class="cls-2" d="M168.37,111.68a6.88,6.88,0,0,0-1.48,0c-.47.1-.61-.14-.84-.41a2.7,2.7,0,0,0-.58-.38,3.62,3.62,0,0,0-.23-1.14c-.58-1.12.09-2,.41-3s.85-2.16,1.31-3.22c.28-.66.59-1.32.91-2a11.78,11.78,0,0,1,.61-1.14,1.35,1.35,0,0,1,2-.33,7.6,7.6,0,0,1,1.79,1.72,1,1,0,0,1,.08,1.17.25.25,0,0,0,0,.12,2.57,2.57,0,0,1-.75,1.52,5.8,5.8,0,0,0-.55,2.07c-.08.32-.11.78-.33.9-.75.44-.45,1.27-.79,1.86s-.3,1.33-1.16,1.49C168.64,111,168.56,111.33,168.37,111.68Z"/><path class="cls-2" d="M157.59,109.08a1.82,1.82,0,0,1-1.84-1.76,2.05,2.05,0,0,1,.45-1,3,3,0,0,0,.37-2c0-.08,0-.22,0-.25-.79-.47-.29-1.33-.58-1.95s.12-1.09.48-1.55a1.1,1.1,0,0,0,.26-1,1.58,1.58,0,0,1,.42-1.06c.64-.8,1.27-1.75,2.49-1.6a5.33,5.33,0,0,1,2,.64,1.65,1.65,0,0,1,.66,1.19c0,.4-.34.83-.53,1.24,0,.06-.11.09-.12.14-.11.63-.18,1.27-.31,1.89s-.33,1.09-.41,1.64-.57.89-.83,1.35a5.93,5.93,0,0,0-.7,2.32C159.27,108.5,158.73,109.15,157.59,109.08Z"/><path class="cls-2" d="M138.39,126a11.53,11.53,0,0,0,2.07.77,1.85,1.85,0,0,1,1.43,1.21,1.57,1.57,0,0,1-.48,1.28,5,5,0,0,1-1.53.87c-.62.27-1.28.44-1.9.7-1,.44-2,.93-3,1.38a1.22,1.22,0,0,1-1.48-.46c-.37-.5-.78-1-1.18-1.46-.06-.07-.16-.13-.19-.21-.18-.41-.33-.83-.53-1.23a1.05,1.05,0,0,1,.31-1.17c.16-.1.23-.33.35-.49a10.07,10.07,0,0,1,.7-1,.67.67,0,0,1,.52-.14,5.37,5.37,0,0,0,3.09-.11c.12-.06.31.06.46.06Z"/><path class="cls-2" d="M179.23,117.05c.24-.43.39-.75.6-1a7.61,7.61,0,0,1,.74-.89,1.14,1.14,0,0,1,.54-.38c1.34-.2,2.7-.33,4-.54a15.44,15.44,0,0,1,4.38-.24,1.82,1.82,0,0,1,1.46.84.73.73,0,0,1,0,1,3.14,3.14,0,0,1-2.08,1.24c-.39,0-.75.44-1.15.61-.65.28-1.33.5-2,.77a3.91,3.91,0,0,0-1.38.67,2.22,2.22,0,0,1-3.21.22,2.81,2.81,0,0,1-1.19-1.41,1.23,1.23,0,0,0-.25-.35C179.58,117.41,179.43,117.27,179.23,117.05Z"/><path class="cls-2" d="M181.47,124a22.85,22.85,0,0,1,1.88-2.13,2.37,2.37,0,0,1,1.31-.3c.93-.07,1.87-.08,2.81-.13.5,0,1-.06,1.51-.13s.92.1.75-.65c0-.1.39-.41.6-.41a2,2,0,0,1,1,.27,2.61,2.61,0,0,1,.91.82,6,6,0,0,1,.81,1.83c.06.27-.35.78-.66.94a16.07,16.07,0,0,1-3,1.27,3.86,3.86,0,0,1-2.35.34c-.28-.09-.69.13-1,.29a3.67,3.67,0,0,1-2.69.25c-.55-.16-.95-.88-1.38-1.38a3.43,3.43,0,0,1-.37-.7Z"/><path class="cls-2" d="M180.51,150c-.62-.11-1.25-.21-1.87-.34a2.08,2.08,0,0,1-.56-.23l-2.14-1.19s-.09,0-.1-.08c-.2-.82-1-.76-1.54-1.09a6.48,6.48,0,0,1-1.81-1.43,7.39,7.39,0,0,1-.92-2.08,1.38,1.38,0,0,1,.89-1.6,6.23,6.23,0,0,1,2.36-.1,1.91,1.91,0,0,1,1,.42c.47.35.88.77,1.32,1.16.06.06.12.16.18.17.71.1.74.81,1.11,1.22.68.75,1.33,1.53,2,2.27.1.11.34.11.43.22a2.44,2.44,0,0,1,.37.64,5.06,5.06,0,0,1,.16.6c.05.18.21.5.16.53C181.18,149.28,181.19,150,180.51,150Z"/><path class="cls-2" d="M178.2,136a5.29,5.29,0,0,1,3.7,1.38,15,15,0,0,0,2,1.1,19.46,19.46,0,0,1,2.35,1.42,2.14,2.14,0,0,1,.86,1.34c0,.3-.66.79-1.1.91a4.64,4.64,0,0,1-1.85,0c-1-.15-2-.41-2.93-.6a5,5,0,0,1-1.24-.15,6.66,6.66,0,0,1-1.92-1.29,6.91,6.91,0,0,1-1-1.88,8.59,8.59,0,0,1-.38-1.1.79.79,0,0,1,.66-1.1A7,7,0,0,1,178.2,136Z"/><path class="cls-2" d="M135.56,109.21c.7,0,1.46-.13,1.92.61a10.8,10.8,0,0,1,.5,1,.89.89,0,0,0,.13.26c1,.93,2.08,1.79,3,2.8.59.66,1.53,1,1.72,2a.49.49,0,0,1,0,.3,1.45,1.45,0,0,1-1.88.68c-.55-.15-1.11-.26-1.67-.4a1.83,1.83,0,0,1-.75-.26,4.5,4.5,0,0,0-1.66-.71,4.4,4.4,0,0,1-3.13-3.43,3.08,3.08,0,0,1,.34-2.38A1.56,1.56,0,0,1,135.56,109.21Z"/><path class="cls-2" d="M140.24,141.47l.16-.06c.67-.39,1.37-.74,2-1.19a10.85,10.85,0,0,0,1.19-1.17c.08-.08.2-.21.27-.19.76.15,1.51.32,2.27.49a4.85,4.85,0,0,0,.68.14c.56,0,1.05,1.05.81,1.6a11.09,11.09,0,0,1-1.44,2,4,4,0,0,1-1.47,1,10.34,10.34,0,0,0-2.1,1.25c-.63.6-1.22.25-1.75.14a2.31,2.31,0,0,1-1.61-1.26.84.84,0,0,1-.11-.38,7.61,7.61,0,0,1,.17-1.5c.06-.21.39-.34.61-.5a3.1,3.1,0,0,1,.41-.2Z"/><path class="cls-2" d="M180.64,131.12c.13-.77.39-.93,1.14-1a11.68,11.68,0,0,1,4,.59,1.49,1.49,0,0,0,.37.06,5.19,5.19,0,0,1,3.47,1.31,4.4,4.4,0,0,0,1.27.71c.39.14.66.36.51.71a1.85,1.85,0,0,1-.76.83,5.76,5.76,0,0,1-1.28.41,1.38,1.38,0,0,1-.4,0c-.55,0-1.1,0-1.64-.05-1-.09-2-.22-3-.32a5.37,5.37,0,0,0-.95-.05,1.15,1.15,0,0,1-1.1-.47,3.21,3.21,0,0,0-.87-.68,1.31,1.31,0,0,1-.67-1.15A6.22,6.22,0,0,0,180.64,131.12Z"/><path class="cls-2" d="M137.06,134.58l-.19-.16c.32-.13.68-.27,1-.44a4.35,4.35,0,0,1,2.17-.44c1.55.06,1.34.5,1.72,1.72.12.38-.75,1.48-1.1,1.68a6.19,6.19,0,0,0-1.32,1.06,4.91,4.91,0,0,1-2.72,1.59,2.29,2.29,0,0,1-1.27-.25,15.24,15.24,0,0,1-1.94-1.13c-.15-.1-.18-.39-.23-.6a4.35,4.35,0,0,1-.09-.75c0-.82.34-1.17,1.14-1.23a2.51,2.51,0,0,0,2.21-.92C136.55,134.6,136.84,134.62,137.06,134.58Z"/><path class="cls-2" d="M17.63,141.3c-1.68-.15-3.35-1.62-3.19-3a11.1,11.1,0,0,1,.82-2.52c.29-.77,1.06-.47,1.6-.6,1.34-.32,2.7-.55,4.06-.77.48-.08,1,0,1.48,0,.85-.08,1.69-.21,2.53-.33a1.06,1.06,0,0,1,1.28.86.9.9,0,0,0,.15.33,1,1,0,0,1-.34,1.59c-.21.12-.48.23-.58.43a2.69,2.69,0,0,1-2.29,1.37c-.17,0-.32.19-.49.26L19,140.39a2.9,2.9,0,0,0-.47.3Z"/><path class="cls-2" d="M27.06,114.28a3.87,3.87,0,0,0,.16-.77A3.11,3.11,0,0,1,28,111.3a1.2,1.2,0,0,1,1.53-.26.63.63,0,0,0,.42.09,1.48,1.48,0,0,1,1.41.63,32.62,32.62,0,0,1,3.35,3.7c.42.59,1,1,1.37,1.63a3,3,0,0,1,.26,2c-.2,2-2.45,2.28-3.61,1.63a8.27,8.27,0,0,1-1.14-1c-.75-.63-1.54-1.22-2.24-1.9a11.14,11.14,0,0,1-1.08-1.45c-.11-.15-.26-.27-.36-.42s-.29-.47-.43-.71-.36-.67-.55-1Z"/><path class="cls-2" d="M28.93,141.91c-.16.31-.37.75-.61,1.17-.13.25-.33.46-.45.71a1.73,1.73,0,0,1-1.19,1c-.4.13-.68.58-1.06.82a2.06,2.06,0,0,1-.94.3c-.79,0-1.07.73-1.56,1.15-.1.09-.1.3-.21.38-.34.26-.83.26-1,.88-.05.23-.92.46-1.35.38a14.12,14.12,0,0,1-2.39-.83.77.77,0,0,1-.45-1.11,6,6,0,0,1,1-1.65,20.46,20.46,0,0,1,2.4-2.16c.93-.7,1.95-1.28,2.91-1.94.58-.4,1.13-.84,1.69-1.27a1.89,1.89,0,0,1,1.92.05A2.4,2.4,0,0,1,28.93,141.91Z"/><path class="cls-2" d="M40.65,107a4.33,4.33,0,0,0,.73,2.6s.07.07.07.1c-.06,1,.55,1.78.76,2.68a6,6,0,0,1,0,1.88c0,.18-.32.32-.48.5a6.08,6.08,0,0,1-.4.52,3,3,0,0,1-.82.62,2.15,2.15,0,0,1-2.33-.62,2.49,2.49,0,0,1-.3-.42l-.75-1c-.06-.09-.16-.21-.14-.3.21-.87-.37-1.5-.67-2.21a2.75,2.75,0,0,1-.27-2,5.43,5.43,0,0,0,0-1c.05-.68.12-1.35.23-2,.2-1.24.8-1.58,2-1.26a12.55,12.55,0,0,1,1.27.16A2.11,2.11,0,0,1,40.65,107Z"/><path class="cls-2" d="M24.63,131.53a2.42,2.42,0,0,1-.71.37c-.7.1-1.41.13-2.12.17-.32,0-.65,0-1,0a3.5,3.5,0,0,1-2.7-1,3.57,3.57,0,0,1-1.29-4.1c.11-.47.31-.81.88-.43a.55.55,0,0,0,.5,0c1-.76,1.87.12,2.81.13.56,0,1.12.26,1.69.32,1.13.12,2.27.15,3.4.28a1.86,1.86,0,0,1,1.62,1.87,2.11,2.11,0,0,1,0,.75c-.12.32-.27.76-.53.88-.79.37-1.64.62-2.46.91Z"/><path class="cls-2" d="M72.57,118.52c1.51-.2,2.08,1.28,1.56,2.72a3.1,3.1,0,0,1-1.29,1.87.36.36,0,0,0-.16.19c-.19.66-.82.61-1.3.8-.06,0-.15,0-.19,0-.77.64-1.83.65-2.59,1.46A8.59,8.59,0,0,1,66,126.91c-.24.11-.51.15-.75.27a.78.78,0,0,1-1.13-.37,1.93,1.93,0,0,1,0-2.2A14.79,14.79,0,0,1,67.4,121a26.08,26.08,0,0,1,4-2.2A4.33,4.33,0,0,1,72.57,118.52Z"/><path class="cls-2" d="M65.12,142.13c1.12.63,2.26,1.23,3.37,1.89.56.33,1,.79,1.59,1.15a7.17,7.17,0,0,0,1.16.6,2.49,2.49,0,0,1,1.51,1.7c.24.82,0,1.16-.66,1.65a4.87,4.87,0,0,1-2.76.65,5.24,5.24,0,0,1-2.64-.9c-.64-.32-1.29-.61-1.94-.91-.06,0-.13,0-.17-.06a5.76,5.76,0,0,1-2.18-3.49,2.17,2.17,0,0,1,1.49-2.12,3,3,0,0,1,.39,0l.81-.07Z"/><path class="cls-2" d="M77,127.09l.88.71c-.13.54-.24,1.1-.41,1.63-.06.17-.34.25-.43.42-.5.86-1.44,1.16-2.18,1.68-.32.23-.85.15-1.27.27-.58.16-1.14.4-1.71.57-1.66.49-3.32,1-5,1.44-.18,0-.45-.11-.64-.23a5.33,5.33,0,0,1-1.18-.92.91.91,0,0,1,0-.88c.57-.61.78-1.53,1.61-1.93a8.34,8.34,0,0,1,.83-.47c1-.33,1.94-.61,2.92-.91.22-.07.45-.09.67-.15s.46-.17.7-.21c.39-.08.78-.11,1.17-.19a1.92,1.92,0,0,0,.5-.21,4.21,4.21,0,0,1,3-.56A1.39,1.39,0,0,0,77,127.09Z"/><path class="cls-2" d="M63.13,114.7c.25-.14.56-.28.84-.47.65-.43,1.29-.86,1.92-1.31s1.54-.22,2.31-.21c.41,0,.89,1.33,1,1.85.13.79-.64,1.28-.53,2,0,.08-.14.21-.25.28-.6.41-1.23.78-1.81,1.21a12.06,12.06,0,0,0-.88.84c-.26.23-.54.43-.8.66s-.63.58-1,.86a4.34,4.34,0,0,1-.55.45c-.32.2-.66.35-1,.55a1.43,1.43,0,0,1-1.65-.1c-.44-.31-.87-.69-.63-1.4.11-.32,0-.72,0-1.07.11-1,1-1.53,1.42-2.31a7.68,7.68,0,0,1,1-1.08A7.53,7.53,0,0,0,63.13,114.7Z"/><path class="cls-2" d="M31.32,150.24c-.81,0-.7.83-1.13,1.12-.06,0-.08.15-.14.18-.94.4-1.41,1.35-2.19,1.91s-1.29,1.43-2.2,1.75a3.25,3.25,0,0,1-1.65.08c-.35-.07-1,0-1-.6a4.2,4.2,0,0,1,.13-1.83,5.87,5.87,0,0,1,1.58-2.19c.69-.53,1-1.28,1.53-1.85a10.73,10.73,0,0,0,.83-1c.24-.32.42-.68.67-1a3,3,0,0,1,2.85-.31,2.32,2.32,0,0,1,.72,3.05c0,.07-.13.11-.18.18a3.66,3.66,0,0,0-.17.35Z"/><path class="cls-2" d="M63.49,109c-.61.68-1.25,1.33-1.81,2s-1.26,1.76-2,2.58-1.33,2-2.52,2.52c-.6.24-1.23.51-1.79-.11l0,0c-.35-.21-1-.4-1-.62a7.44,7.44,0,0,1,.32-2,2.69,2.69,0,0,1,.36-.87c.41-.63.85-1.24,1.31-1.83.59-.75,1.23-1.48,1.84-2.22a.82.82,0,0,0,.14-.28c.31-1,.3-1,1.32-.78.55.12,1.12.15,1.67.26C62.49,107.92,62.55,108,63.49,109Z"/><path class="cls-2" d="M76.41,141.15a7,7,0,0,0-.86.16,2.94,2.94,0,0,1-2.36-.34,2.62,2.62,0,0,0-1.9-.36,2.64,2.64,0,0,1-.92-.13c-.18,0-.36-.07-.55-.09a9.83,9.83,0,0,0-2.06-.18c-.73.08-1.13-.4-1.64-.67a2,2,0,0,1-.37-2.76,6,6,0,0,0,.59-1.1,2.46,2.46,0,0,1,.45-.65s.33.2.51.3.23.19.31.17c.8-.25,1.21.32,1.75.72a6.87,6.87,0,0,0,1.43.59c1.22.51,2.47,1,3.65,1.55a9,9,0,0,0,2,.92,1.12,1.12,0,0,1,.6.63,1.63,1.63,0,0,1,.11,1c0,.18-.41.28-.63.42Zm-5.5-3.5v-.15l-1.32.43.08.57Zm-2-1.62-.74,1.26.11.11.79-.6Z"/><path class="cls-2" d="M57.45,148.72c.31-.25.61-.5.92-.73a1,1,0,0,1,.41-.15A3.4,3.4,0,0,1,62.12,149c.62.72,1.37,1.33,2,2.06a3.74,3.74,0,0,1,.66,1.45,1.1,1.1,0,0,1-.24.93,12.43,12.43,0,0,1-2.08,1.43c-.68.37-1.29-.24-1.95-.37-.33-.06-.63-.26-1-.34a2.76,2.76,0,0,1-2.12-2.23c-.16-.64-.28-1.29-.39-1.94a.43.43,0,0,1,.17-.34A.64.64,0,0,0,57.45,148.72Z"/><path class="cls-2" d="M43.73,108.46c0-.92.07-1.84.14-2.75,0-.2.2-.37.25-.57s0-.76.16-1a7.83,7.83,0,0,1,1.3-1.65c.19-.18.68-.07,1,0s.6.21.9.23a1.73,1.73,0,0,1,1.38,2.65c-.17.4-.42.74-.12,1.18,0,0-.14.19-.16.3-.08.37-.13.75-.19,1.13,0,.08,0,.18,0,.25-.15.57-.3,1.15-.46,1.71-.32,1.09-.94,1.35-2,.94a3.4,3.4,0,0,0-1.14-.07c-.48,0-.66-.2-.67-.71a8.63,8.63,0,0,0-.29-1.56Z"/><path class="cls-2" d="M22.06,120.72a2.67,2.67,0,0,0,.29-.68,1.46,1.46,0,0,1,1.78-1.16,1.34,1.34,0,0,0,.49.07c.73-.15,1.19.33,1.71.7,1,.69,2,1.27,2.91,2,.64.54,1.52.87,1.82,1.81s-.48,1.94-1.36,1.81c-1.61-.25-3.21-.58-4.81-.93a4,4,0,0,1-.91-.51,5.51,5.51,0,0,0-.51-.22c-.2-.43-.39-.84-.58-1.25s-.35-.7-.52-1Z"/><path class="cls-2" d="M36.9,152.91c-.19.48-.38,1-.55,1.44s-.37,1.16-.6,1.72c-.09.21-.33.36-.45.57-.41.68-.76,1.38-1.19,2a2.33,2.33,0,0,1-3.14.24,1.1,1.1,0,0,1-.3-.82,6.78,6.78,0,0,1,.48-2.1,6.51,6.51,0,0,0,.43-1.54l.53-2c0-.06,0-.14.05-.18.41-.36.82-.75,1.26-1.07a1.08,1.08,0,0,1,1.26-.21.89.89,0,0,0,.55,0,1.14,1.14,0,0,1,1.42,1.07A4.58,4.58,0,0,0,36.9,152.91Z"/><path class="cls-2" d="M54.29,103.57a7.42,7.42,0,0,0,1-.1c1.25-.29,2.06.68,2,1.92-.11,1.58-1.27,2.41-2,3.52-.26.37-.49.77-.77,1.13-.53.67-.94,1.54-1.91,1.65a4.65,4.65,0,0,1-1.51-.25c-1.06-.25-1.18-.75-1.08-1.86.08-.94.78-1.3,1.21-1.91s1.18-1.41,1.76-2.13c.4-.5.75-1,1.12-1.57Z"/><path class="cls-2" d="M37.53,160.71a4.12,4.12,0,0,1-.08-1.62c.28-.86-.12-1.88.68-2.62.25-.23.25-.72.4-1.07a1.51,1.51,0,0,1,1.75-.89c.45.1,1,0,1.25.48A6.07,6.07,0,0,1,42,156.7a13.91,13.91,0,0,1,.12,2.75,12.55,12.55,0,0,1-.62,2.67,1.2,1.2,0,0,1-.76.58A6.12,6.12,0,0,1,39,163C38.07,163,37.35,162,37.53,160.71Z"/></svg>