<svg id="Layer_1" data-name="Layer 1" xmlns="http://www.w3.org/2000/svg" viewBox="0 0 216 216"><defs><style>.cls-1{fill:#00aeef;}</style></defs><title>Largo-site-icons</title><path class="cls-1" d="M182.51,84.8l.73.9c.88-.11,1.77-.59,2.71-.07.14.08.61-.45,1-.78.11.12.28.32.47.51s.4.57.61.57c1.26,0,1.7,1.13,2.47,1.78a2.42,2.42,0,0,1,.17,2.64c-1,.85-.6,1.85-.53,2.84a4,4,0,0,1,.05.87c-.47,2.91,0,5.83,0,8.74,0,1.24.16,2.48.26,3.72,0,.13.16.33.11.37-.8.83-.29,1.79-.28,2.7a6.69,6.69,0,0,0,.2,1.92c.69,2.19.23,4.43.34,6.64a3.24,3.24,0,0,0,.27,1.15,2.35,2.35,0,0,1,.11,2,1.85,1.85,0,0,0,0,1,10.83,10.83,0,0,1,.14,4.93,12.32,12.32,0,0,0,.09,4,49.19,49.19,0,0,1,.28,6.69c0,.15-.1.32,0,.43.46,1,0,1.84-.28,2.74a2.61,2.61,0,0,0-.13.85c0,1.43.43,3,0,4.27s.21,2.59-.06,3.9c-.12.59.39,1.3.64,2-.73.1-.74.68-.77,1.21-.13,1.93-.25,3.86-.34,5.79,0,.74,0,1.48,0,2.23a3.87,3.87,0,0,1-.55,2.42s-.07.09-.07.13c.25,1.61-.47,3.11-.54,4.69s-.11,3-.27,4.52a7.32,7.32,0,0,1-.62,1.82c-.09.23-.24.55-.42.6-1.18.3-1.85,1.56-3.21,1.57a5.31,5.31,0,0,1-3.28-1.12,4.47,4.47,0,0,1-2.89,1.9c-1.16.17-2.27.65-3.43.79a8.78,8.78,0,0,1-2.47-.24c-1.23-.21-2.3-.1-2.95,1.3a2.75,2.75,0,0,0-3-.91c-2.67.49-5.38.78-8.08,1.12a9.78,9.78,0,0,1-3.25.28c-.38-.08-.83.24-1.25.39s-.62.36-.83.28a2,2,0,0,0-2.55,1c-1.38-.07-2.56-.34-3.83.15-.87.34-2,0-2.9.26-2.13.54-4.23,1.23-6.34,1.85a3,3,0,0,1-.81.05c-.31,0-.63,0-.94,0s-.42.19-.55.12c-1.64-.85-3.28-.12-4.91,0s-3.24.54-4.87.7a9.77,9.77,0,0,1-2.61-.18,8.19,8.19,0,0,0-3.67.12,23.5,23.5,0,0,1-5.57,1c-1.34,0-2.55.73-3.87.49a9.6,9.6,0,0,0-2.93-.11c-1.76.22-3.54.32-5.31.47a1.75,1.75,0,0,1-.59,0c-2.52-.68-5,0-7.48.33-1.33.19-2.68.24-4,.49s-2.76.28-4.14.41q-6,.58-12,1.17c-.49,0-1,.24-1.44.29a8,8,0,0,1-3.23,0,2.19,2.19,0,0,0-1.45.15,4.45,4.45,0,0,1-2.77.07,14.77,14.77,0,0,0-2.48-.23,35.71,35.71,0,0,1-3.86.21,20.31,20.31,0,0,0-5.84.66,43.81,43.81,0,0,1-7.17,1.24c-2.87.08-5.74.57-8.6.54a6.14,6.14,0,0,1-5.42-2.52c-.15-.22-.31-.64-.2-.8.75-1.15.11-2.31,0-3.41-.3-3.15-.82-6.29-1.27-9.43-.14-1-.35-2-.51-3a2.53,2.53,0,0,1-.06-1,13.71,13.71,0,0,0,0-5.76,3.84,3.84,0,0,1,0-.89c.16-1.63.35-3.25.5-4.88a2.81,2.81,0,0,0-.16-.87,6.76,6.76,0,0,1-.16-2.77,17.52,17.52,0,0,0-.34-4.27,2.86,2.86,0,0,1-.09-.87c.5-2.11,0-4.15-.31-6.21a4.9,4.9,0,0,1,.11-1.61,6.59,6.59,0,0,0-.35-4.28,5.92,5.92,0,0,1-.14-4.82,10.25,10.25,0,0,0,.45-2,18.76,18.76,0,0,0,.33-2.3c0-.57-.14-1.15-.15-1.73,0-1.6-.71-3.13-.35-4.78a21.83,21.83,0,0,0,.07-2.8c.27-3.41-1-6.67-.92-10.05.05-1.72.15-3.43.21-5.15,0-.39-.08-.77-.1-1.16,0-.64-.08-1.29-.08-1.93s.08-1.56.1-2.34A21.55,21.55,0,0,0,28.19,97a27.87,27.87,0,0,1,.19-4.31,3.08,3.08,0,0,1,2.3-2.92A9.65,9.65,0,0,0,32.05,89a4.82,4.82,0,0,1,2.81-.79,8,8,0,0,0,1.89-.06,10,10,0,0,1,1.83.06c2.38-.06,4.71.86,7.12.25a11.86,11.86,0,0,1,2.22,0c1.67-.09,3.36-.11,5-.36a9,9,0,0,1,4.28.28,1.48,1.48,0,0,0,.74,0,18.08,18.08,0,0,1,5.46,0,16.79,16.79,0,0,0,3.24-.26,16.7,16.7,0,0,0,4-.57,1.82,1.82,0,0,1,1-.08,11.78,11.78,0,0,0,5.14-.2,1.43,1.43,0,0,1,.74,0c1.19.48,2.34-.07,3.5-.13a11.84,11.84,0,0,1,4.13,0A3.68,3.68,0,0,0,87,86.88a16.21,16.21,0,0,1,5.14-.27,14.26,14.26,0,0,0,2.53-.08c.73-.08,1.45-.41,2.18,0,.08,0,.23.07.29,0A1.56,1.56,0,0,1,99,86.38a4.88,4.88,0,0,0,2.15.21c1,0,2,.48,3.07.07a2.6,2.6,0,0,1,1.72.26,5.68,5.68,0,0,0,2.78.35c1.12-.08,2.24-.23,3.36-.33a3.94,3.94,0,0,1,1.19,0,44.26,44.26,0,0,0,9.18.67,2.51,2.51,0,0,1,.59.07,1.55,1.55,0,0,0,1.85-.81c1,1.13,2.32.52,3.49.57,2,.08,4-.14,5.94-.23.15,0,.36.05.44,0,.81-.83,1.72-.17,2.58-.2,1.15,0,2.3,0,3.45,0,.79,0,1.58.15,2.36.13,1.18,0,2.36-.16,3.55-.2.72,0,1.45,0,2.18.07l3.47.17c.2,0,.45.16.58.09,1-.57,2-.23,3-.33a28.09,28.09,0,0,1,3.7-.14c1,0,2-.12,2.94-.18s2-.17,3-.16c.69,0,1.39.31,1.92-.42.08-.11.36-.1.54-.09a34.83,34.83,0,0,0,9.57-.18,2.61,2.61,0,0,1,1,.06C180.68,86.22,180.91,86.18,182.51,84.8ZM124.4,176.64a6.49,6.49,0,0,0,4.09.5c.58-.11,1.17-.16,1.75-.25a13.33,13.33,0,0,0,3-.51c1.16-.47,2.46.16,3.52-.65,1.13.45,2.14-.18,3.18-.4s2.08-.62,3.14-.79a14,14,0,0,1,2.31,0c.41-1,.79-2,1.65-2,.64-.07,1.36.53,2,.81,0-1,1.09-1,1.8-1.41a2,2,0,0,0,2,1c1-.13,1.1-1.21,1.65-1.36.69.24,1.3.66,1.56.5a3.74,3.74,0,0,1,3.06-.1c.19,0,.46.12.58,0,1.14-.88,2.45-.31,3.67-.48a11.18,11.18,0,0,0,2.57-.59,2.21,2.21,0,0,1,1.57-.06,1.33,1.33,0,0,0,.4,0l.83-1.06c1,1.07,2.23.25,3.31.41.37-.62.86-.28,1.33-.18a2.42,2.42,0,0,0,.86.2,9.78,9.78,0,0,1,4.16,0,3.93,3.93,0,0,0,1.88-.24,1.24,1.24,0,0,0,.62-.73,3.31,3.31,0,0,0,.06-1c0-1.38-.39-2.82.54-4.08a84.31,84.31,0,0,0,2.05-13.53,6.26,6.26,0,0,0-.42-2c-.3-1-1.34-1.28-1.92-2a5.1,5.1,0,0,0-3.18-1.73,8.56,8.56,0,0,1-3.48-1.61,5.17,5.17,0,0,0-.86-.57c-1.07-.49-2.16-1-3.24-1.43-1.43-.64-2.54-1.92-4.13-2.22a2.92,2.92,0,0,1-2.13-1.16,3.28,3.28,0,0,1-2.84-.43c-1-.5-2-1.15-3.08-.79-.44-.32-.86-.87-1.19-.82-1.43.21-2.44-.69-3.59-1.17s-2.55-1.3-3.82-1.79c-2-.75-3.84-1.89-6-2.1a2.66,2.66,0,0,1-1.63-1.06,6.93,6.93,0,0,0-3-2.33c-.31.24-.72.42-.9.73-1.21,2.15-3.71,3.08-4.9,5.23,0,0-.09,0-.13.08-1.21,1.19-2.45,2.34-3.6,3.58-1,1.07-1.88,2.26-2.87,3.35a2.68,2.68,0,0,1-1.19.77,2,2,0,0,0-1.28,1.16,7.24,7.24,0,0,1-.68,1.31c-.81,1-1.86,1.81-2.6,2.93a2.56,2.56,0,0,1-2.34,1.29c-1,1.13-2.44,1-3.69,1.33-.94.25-1.66.52-2,1.37-.31-.24-.61-.65-.9-.65-1,0-1.91.21-2.86.29a10.51,10.51,0,0,1-2.64.08c-1.59-.28-3.14-.76-4.71-1.17a1.23,1.23,0,0,1-.49-.33c-1.56-1.51-3.07-3.07-4.67-4.52A8.66,8.66,0,0,0,93.43,142,3.57,3.57,0,0,1,92,140.78a4.68,4.68,0,0,0-1.42-1.21,14.75,14.75,0,0,1-5-3.71,12.72,12.72,0,0,0-2-1.55,25.15,25.15,0,0,1-4.17-3.77c-.84-1.14-1.45-2.16-3.05-2.13a4.69,4.69,0,0,0-.76.8c-.19.31-.17.75-.35,1.06-.79,1.3-1.5,2.58-3.12,3.2a14.44,14.44,0,0,0-4,2.36c-2.24,1.85-4.23,4-6.5,5.8a28.88,28.88,0,0,1-2.82,2.47,24.28,24.28,0,0,0-3.15,2.48c-.57.49-.72,1.35-1.51,1.71a5.8,5.8,0,0,0-1.44,1c-1.49,1.36-3.33,2.32-4.46,4.07a1.3,1.3,0,0,1-.34.29c-2.08,1.53-4.16,3-6.23,4.58-.79.59-1.56,1.21-2.29,1.87a18.36,18.36,0,0,0-2,2c-.53.64-.79,1.54-1.39,2.07a2.4,2.4,0,0,0-.83,2.27c.28,1.91-.41,3.71-.57,5.56a36.07,36.07,0,0,0-.22,4.53,11.83,11.83,0,0,1,0,3.4,9.62,9.62,0,0,0-.18,2.75c0,1,.36,1.12,1.34,1.18a9.54,9.54,0,0,1,1.54.34c.19,0,.42.18.56.12a3.93,3.93,0,0,1,2.29,0,7.45,7.45,0,0,0,2.39-.6,2.43,2.43,0,0,1,.86,0,9.2,9.2,0,0,0,3.65.14,7.09,7.09,0,0,0,2.54-.62c.21-.15.58-.07.87-.11l4.54-.57a9.3,9.3,0,0,1,1.15-.22c1.21,0,2.43.07,3.64.08s2.42,0,3.63,0c.48,0,1-.24,1.44-.28,1.81-.13,3.61,0,5.43-.22,3-.31,6-.21,9-.72a18.4,18.4,0,0,1,4.5-.49,23.57,23.57,0,0,0,3.83-.45c1.43-.14,2.86-.16,4.29-.3,1.07-.1,2.13-.25,3.18-.45,1.42-.27,2.76-1.16,4.3-.48a1.1,1.1,0,0,0,.45,0c2.14-.09,4.27-.19,6.41-.27.48,0,1,.19,1.45,0a3.56,3.56,0,0,1,2.34,0c.77.22,1.37.32,1.85-.61a1,1,0,0,1,1.59-.54v1.06c3.75-.48,7.33-1.41,11.09-1.34Zm44.7-82.46-.16-.45c-.91.07-1.81.2-2.72.2s-2-.2-3-.19c-2.14,0-4.28.09-6.41.19-1.86.08-3.72-.12-5.56-.11a15.86,15.86,0,0,0-5.09.38,2.7,2.7,0,0,1-.85,0,14.19,14.19,0,0,0-3,0,2.83,2.83,0,0,1-1.38.1c-2.32-.62-4.69-.36-7-.32-1.67,0-3.33.24-5,.38a8.11,8.11,0,0,1-1.6.19,33.93,33.93,0,0,0-5.6-.3,32.17,32.17,0,0,1-4.72-.21c-2-.21-3.92.05-5.87-.55-1-.31-2.21-.74-3.31.05-.16.12-.54-.07-.81-.11l-1-.17c-2.24-.37-4.54.32-6.77-.43a2.85,2.85,0,0,0-1.63,0c-2.47.75-5,.07-7.46.26a11.73,11.73,0,0,1-2.36-.3c-1.7-.23-3.43-.34-5.1-.7a7,7,0,0,0-3.64.1,2.58,2.58,0,0,1-1.44.22,2.43,2.43,0,0,0-2.11.37,18.24,18.24,0,0,1-8.57,1.91c-1,0-2,.12-3.06.18a35.81,35.81,0,0,1-5.64.33c-2.63-.24-5.1.56-7.64.82a15.54,15.54,0,0,1-4.69.15c-.16,0-.38.2-.63.35.78,1,1.92,1.33,2.79,2a41.91,41.91,0,0,0,6,3.69,9.21,9.21,0,0,1,3.71,2.86,3.58,3.58,0,0,0,1.13.94c.83.53,1.7,1,2.55,1.5.62.36,1.08,1,2,.89a1.08,1.08,0,0,1,.83.53,6.43,6.43,0,0,0,2.38,2.31c.95.67,1.69,1.61,2.94,1.83.32.06.57.52.85.81a4.36,4.36,0,0,0,.6.63,37.08,37.08,0,0,1,3.7,2.46c1.17,1,2.82,1.19,3.81,2.45.19.24.63.27,1,.4s.65.16.77.36a5.07,5.07,0,0,0,1.94,1.49,5.51,5.51,0,0,1,1.22,1c1.3,1.47,2.51,3,3.86,4.44a30.25,30.25,0,0,0,2.6,2.18,22.76,22.76,0,0,1,2.77,2.44c.86,1,2.15,1.2,3.16,1.93,1.29.93,2.5,1.91,3.68,3a3.41,3.41,0,0,0,1.33.93,4.16,4.16,0,0,1,2.19,1.61c.84.88,2,1.46,2.25,2.77a7,7,0,0,1,2.46.74,2.85,2.85,0,0,0,2.66.39A4.4,4.4,0,0,1,112,143a3.71,3.71,0,0,0,3.64-2c.09-.18.39-.25.59-.36a4.1,4.1,0,0,0,1-.53c1.14-1.13,2.24-2.31,3.35-3.46.37-.39.73-.8,1.12-1.17,1.38-1.32,2.87-2.54,4.13-4,1.43-1.61,3.05-3,4.61-4.47,1.15-1.08,2.33-2.13,3.48-3.22a17.88,17.88,0,0,0,1.3-1.39c1.64-1.92,4-3.16,5.29-5.41a.74.74,0,0,1,.29-.32,12.47,12.47,0,0,0,3.54-2.83c1-.92,1.88-1.9,2.91-2.74,1.47-1.2,3-2.3,4.55-3.45,1.17-.89,2.32-1.81,3.48-2.71.5-.39,1-.79,1.52-1.17,1.2-.87,2.43-1.71,3.62-2.61q3.07-2.34,6.09-4.74C167.37,95.75,168.22,94.95,169.11,94.18Zm15.16,42.33a13.28,13.28,0,0,1-.34-2c0-2.89,0-5.79,0-8.68a5.43,5.43,0,0,0,0-1.79c-.43-1.18-.08-2.31-.07-3.46,0-2.21,0-4.42-.1-6.63-.08-1.86-.26-3.73-.4-5.59,0-.1,0-.19-.06-.29a11,11,0,0,1-.06-4.23,5.74,5.74,0,0,0,0-1.78c0-.48-.22-.94-.23-1.42-.06-1.81-.06-3.63-.11-5.45a5.45,5.45,0,0,0-.19-1.32,1.08,1.08,0,0,0-1.18-.93c-.79.73-1.59,1.45-2.37,2.19a8.78,8.78,0,0,0-1.33,1.33c-.76,1.11-2,1.45-3.06,2.12-.52.33-1.18.46-1.69.82-.74.53-1.76.77-2.07,1.82,0,.09-.26.16-.4.17-.9.05-1.34.77-1.94,1.27-.83.69-1.69,1.33-2.55,2a9.79,9.79,0,0,0-1.32.94,17.53,17.53,0,0,1-4.27,3.42,7.93,7.93,0,0,0-2.63,1.87,5,5,0,0,1-2.06,1.52c-1,.49-1.93,1-2.9,1.5-.13.07-.37.11-.38.18-.12,1.25-1.44,1.38-2,2.19a18,18,0,0,1-1.89,1.9c-1.27,1.24-2.55,2.47-3.81,3.72-.12.12-.1.37-.15.59a5.83,5.83,0,0,0,1.64.7c2.46.22,4.44,1.62,6.6,2.58s4.51,2.28,7,2.7a10.94,10.94,0,0,1,2.09.75,13,13,0,0,0,3,1.15,8.76,8.76,0,0,1,2.53.91c1.89.81,3.7,1.81,5.59,2.66,1.25.56,2.58,1,3.85,1.47,1.54.63,3.07,1.29,4.59,2,.78.34,1.49.59,1.9-.51C183.52,136.67,183.89,136.65,184.26,136.51ZM36.85,151.78a1.65,1.65,0,0,0,.39,0c2.07-.73,3.49-2.4,5.18-3.66,2.54-1.88,4.92-4,7.33-6a62.33,62.33,0,0,0,4.75-4.3,17.19,17.19,0,0,1,2.61-2.53,5.59,5.59,0,0,0,2-2.32,7.72,7.72,0,0,1,2.7-2.81A12,12,0,0,0,63.37,129c1.67-1.7,3.3-3.45,4.93-5.19a3.58,3.58,0,0,0,.44-.83l-1.16-.22c-.07-1.53-1.32-2.23-2.59-3a43.28,43.28,0,0,1-3.69-2.46c-.91-.67-2.09-.87-2.84-1.9-.27-.37-1-.64-1.53-1-1.09-.83-2.31-1.5-3.48-2.23-.41-.25-.86-.45-1.26-.71-1.42-.91-2.82-1.84-4.23-2.75a8.85,8.85,0,0,1-2.21-1.42c-1.37-1.7-3.29-2.37-5.21-3A10.13,10.13,0,0,1,36,102c-.11-.11-.42,0-.71,0,.22,1.87.44,3.64.63,5.4a3,3,0,0,1-.1,1c-.42,1.63-1,3.25-.31,5a1,1,0,0,1,0,.3,15.14,15.14,0,0,0,.16,3.25c.39,1.49,0,2.88-.17,4.31a11.85,11.85,0,0,0-.06,3.63,8.93,8.93,0,0,1,.07,4.3,2.72,2.72,0,0,0,0,1q.34,2.71.73,5.4a13.1,13.1,0,0,1,.32,1.29c.05,1.45.08,2.91,0,4.37,0,.93-.22,1.87-.2,2.8,0,1.81.17,3.61.28,5.41C36.69,150.24,36.78,151,36.85,151.78Z"/></svg>