<svg id="Layer_1" data-name="Layer 1" xmlns="http://www.w3.org/2000/svg" viewBox="0 0 216 216"><defs><style>.cls-1{fill:#231f20;}.cls-2{fill:#00aeef;}.cls-3{fill:#fff200;}</style></defs><title>Largo-site-icons</title><path class="cls-1" d="M142.92,131.71a18.2,18.2,0,0,0-2.38-1,10.67,10.67,0,0,0-2.31-.26c-2-.11-4-.37-5.95-.66a21.07,21.07,0,0,1-3.42-1.15c-1.63-.52-2.37-1.77-3.12-3a8.93,8.93,0,0,1-1.17-4.14,12.73,12.73,0,0,1,1.74-7,6.53,6.53,0,0,1,1.27-1.65,20.54,20.54,0,0,1,2.6-2.1c1.07-.71,2.31-1.19,3.34-2a10.06,10.06,0,0,1,3.44-1.48c1.5-.43,3-.84,4.53-1.14a41.18,41.18,0,0,1,4.8-.67c1.91-.14,3.83-.13,5.75-.16,1.44,0,2.89,0,4.34,0a4.86,4.86,0,0,1,1.84.29,4.68,4.68,0,0,0,2,.14,3.57,3.57,0,0,1,3.08,1.14,4.52,4.52,0,0,0,1.32.8c1.48.75,3,1.51,4.47,2.21.93.44,1.93.75,2.86,1.21a13.38,13.38,0,0,1,1.53,1.09,18.92,18.92,0,0,1,3,2.55,6.87,6.87,0,0,1,1.73,3.55,9.45,9.45,0,0,1-.13,1.64,7.75,7.75,0,0,1-1.82,4.78,17.41,17.41,0,0,1-2.42,2.28,9,9,0,0,1-4.07,1.65,36.74,36.74,0,0,1-4.07.85,6.28,6.28,0,0,0-1.26.41c-.1,0-.21.16-.29.14-1.38-.37-2.48.59-3.75.75a7.56,7.56,0,0,1-1.3.2c-1.87-.09-3.69.35-5.54.41-.84,0-1.68-.06-2.51-.09l-1.78-.06a1.91,1.91,0,0,1-.66,0c-1.47-.65-3-.22-4.45-.18C143.57,131,143.16,131.17,142.92,131.71ZM131.4,119.9c-.1,1.48,1.08,2,2,2.5a10.21,10.21,0,0,0,3.3,1,13.89,13.89,0,0,0,2.05.17c.62,0,1.24,0,1.86,0,1.14.06,2.29.17,3.43.22.77,0,1.55,0,2.32,0s1.26,0,1.89,0c1,.07,2.07.17,3.1.27.7.07,1.4.2,2.1.23,1,0,2.11-.41,3.15.12a1,1,0,0,0,.55,0c1.93-.35,3.87-.66,5.78-1.09a20.82,20.82,0,0,0,5.1-1.46,5.08,5.08,0,0,0,2.71-3.94.65.65,0,0,0-.12-.52c-1.05-1-1.93-2.15-3.54-2.37a4.64,4.64,0,0,1-2-.93,10.15,10.15,0,0,0-4.49-1.7,1.41,1.41,0,0,0-.33,0,12.09,12.09,0,0,1-2.3.15,4.15,4.15,0,0,1-2.79-1.18,2.71,2.71,0,0,0-2.89-.84,5.52,5.52,0,0,1-1.33.07c-.77,0-1.55-.2-2.31-.17a25.35,25.35,0,0,1-3.09.24,13.66,13.66,0,0,0-3.24.46c-1.09.14-2.09.78-3.25.59a.93.93,0,0,0-.59.24c-1.13.84-2.25,1.68-3.36,2.55a11.38,11.38,0,0,0-1.24,1.11,9.83,9.83,0,0,0-2.05,3.15C131.68,119.17,131.54,119.54,131.4,119.9Z"/><path class="cls-1" d="M34.41,86.6c.21-1,.46-2,.6-3A21.22,21.22,0,0,1,36.3,80a16.34,16.34,0,0,1,2.79-5.16,10.78,10.78,0,0,1,1.52-1.63,25.58,25.58,0,0,1,5.17-3.58,38.34,38.34,0,0,1,4.93-1.53,2.2,2.2,0,0,0,1.14-.59,1.93,1.93,0,0,1,1.77-.4A10.42,10.42,0,0,0,57,67.2a6.08,6.08,0,0,1,3.35.18,24,24,0,0,0,3.84.32,28.72,28.72,0,0,1,4.17.49,8,8,0,0,1,4.06,2.13,8.35,8.35,0,0,0,2.32,1.46A11.08,11.08,0,0,1,77,73.25c1.21,1,1.78,2.45,2.62,3.72.4.61.76,1.26,1.19,1.85a6.93,6.93,0,0,1,.7,1.94,5,5,0,0,1-.5,4.06,2,2,0,0,0-.26.61c-.15,1.76-1.37,2.91-2.41,4.13s-2.27,2.53-3.48,3.71A10.86,10.86,0,0,1,73,94.5c-1,.64-2,1.29-3,1.87a20.94,20.94,0,0,1-2,.91,16.5,16.5,0,0,0-2.22,1,6.15,6.15,0,0,1-2.54.69,15.18,15.18,0,0,1-5.5.24,2.9,2.9,0,0,0-1.64.12c-1.25.53-2.51,0-3.76.15a5.36,5.36,0,0,1-1.73-.16c-2.31-.48-4.61-1-6.9-1.53a9,9,0,0,1-2-.86q-1.62-.86-3.18-1.83a4.28,4.28,0,0,1-.81-.86c-.12-.14-.2-.34-.34-.43A4.77,4.77,0,0,1,35.51,91,14.38,14.38,0,0,1,34.41,86.6Zm16.15,5.75c.1.12.22.37.39.42a5.75,5.75,0,0,0,2,.34c1.73-.2,3.48,0,5.19-.18a14.89,14.89,0,0,0,3.37-.29c1.24-.42,2.56-.6,3.83-.93,1.77-.46,3.1-1.77,4.73-2.52.86-.4,1.35-1.26,2-1.84a9.62,9.62,0,0,0,2.21-3,1.74,1.74,0,0,0,.23-1.16,9.15,9.15,0,0,0-2.31-4.61c-1.14-1.05-2.09-2.3-3.13-3.46a3.81,3.81,0,0,0-2.6-1.33c-1.29-.1-2.6-.09-3.89-.21a16,16,0,0,1-3.82-.44,2.92,2.92,0,0,0-2.47-.23s-.14,0-.19-.08c-.52-.37-1-.12-1.46.13a7,7,0,0,1-2.07.74,9.5,9.5,0,0,0-3.71,1.54,41.37,41.37,0,0,0-3.54,2.93c-.44.38-1.1.76-1.19,1.23a6.25,6.25,0,0,1-.9,2,17.87,17.87,0,0,0-1.49,2.58,15.17,15.17,0,0,0-.53,2.9c0,.09.09.2.12.31a4.64,4.64,0,0,0,2,2.59,14.86,14.86,0,0,0,2.44,1.5,29.48,29.48,0,0,0,3.62,1.1A5,5,0,0,0,50.56,92.35Z"/><path class="cls-1" d="M51.06,103.5c.29.71.63,1.45.91,2.22a4.32,4.32,0,0,1,0,2.53,8.12,8.12,0,0,0-.24,1.74,18.34,18.34,0,0,1-.54,4.49,1.67,1.67,0,0,0,0,.66q.18,1.21.41,2.42a1.13,1.13,0,0,0,1,1c.32,0,.62.24.95.3A36.15,36.15,0,0,0,60.14,120a19.22,19.22,0,0,0,2-.21,3,3,0,0,1,1.06,0,16.53,16.53,0,0,0,4.08.26c1.77.08,3.55.25,5.32.18s3.53-.36,5.29-.58c.74-.09,1.48-.28,2.23-.31s1.53.06,2.3.09c.18,0,.37,0,.56,0,2.07-.06,4.14-.1,6.21-.2.72,0,1.43-.24,2.15-.33,1.28-.16,2.57-.23,3.83-.45,1.42-.24,2.82-.59,4.23-.93,1.88-.45,3.73-.74,5.48.46a2.6,2.6,0,0,1,1,2.41c-.43,1.37-.78,2.83-2.19,3.61a9.6,9.6,0,0,1-1.52.59,1.58,1.58,0,0,1-.44,0c-1.54,0-3.08,0-4.62.1a20.86,20.86,0,0,0-2.19.38c-1.28.21-2.55.44-3.84.58-.5.05-1-.17-1.54-.16-2.23,0-4.45.14-6.68.2-.55,0-1.11-.08-1.65,0-2.57.28-5.13.61-7.7.89a11.81,11.81,0,0,1-1.33-.1c-1.89,0-3.79,0-5.68,0a29.82,29.82,0,0,1-3.11-.22,10.54,10.54,0,0,0-3.5.12,9.8,9.8,0,0,1-5-.39,22.39,22.39,0,0,0-4.32-.75,5.61,5.61,0,0,1-4.32-2.59,9.74,9.74,0,0,1-.71-3.12,9.4,9.4,0,0,1,0-4.08.31.31,0,0,0,0-.11,9.25,9.25,0,0,1,.08-3c.19-1,.22-2,.32-3a16.8,16.8,0,0,0,.25-3.19A4,4,0,0,1,47.1,104a2.19,2.19,0,0,1,1.67-.79A2.92,2.92,0,0,1,51.06,103.5Z"/><path class="cls-1" d="M176.75,70.85c-.65-1.53-2.85-3.82-5.22-3.42a1.46,1.46,0,0,0-.82.43,5.47,5.47,0,0,0-1.55,4.68,2.12,2.12,0,0,1-.07,1,.91.91,0,0,1-.48.55,11.36,11.36,0,0,1-4.36.73,23.12,23.12,0,0,0-5.83.29c-.21,0-.44,0-.65,0a12,12,0,0,0-2.81.49c-.65.27-1.19.8-1.87.65,0,.6,0,1.12,0,1.64a3.46,3.46,0,0,0,.31,2q.84.09,1.67.11c2.23-.2,4.42-.7,6.84-.88,1.6-.12,5-.18,6.35.89a.46.46,0,0,1,.14.32l.13.09c0,.24,0,.46,0,.69a1.73,1.73,0,0,1-.08.46c.5,1.35-.53,1.89-1.72,2-1,.9-2.58.81-4,.67-.49-.05-1-.13-1.56-.21a.41.41,0,0,1-.41.24c-1.41-.05-2.77-.34-4.16-.49a5,5,0,0,0-2.1.79l0,0c-.09.06-.19.12-.27.19a.54.54,0,0,1-.69,0,1.43,1.43,0,0,0-.07.27,3.17,3.17,0,0,0,2.9,3.67,7.55,7.55,0,0,1,1.6.43c.41.16.76.28,1.14,0a1,1,0,0,1,.5-.23c1.47-.18,2.77-1.09,4.3-1,0,0,.07,0,.11,0,1.06-.11,2.12-.3,3.18-.32s1.3.36,1.26,1.39a1.39,1.39,0,0,1,0,.44c-.47,1.2.06,2.34.32,3.45a8.46,8.46,0,0,1,.17,3.4,12.32,12.32,0,0,0,.13,5.6,3.92,3.92,0,0,0,1.54,1.84c.49.4,1,0,1.5-.05.18,0,.36-.12.54-.12,1.46,0,2.05-1,2.6-2.11.84-1.65.39-3.5.68-5.24a10.52,10.52,0,0,0,0-1.25,6.35,6.35,0,0,0-.32-3.17,4,4,0,0,1-.25-2.82,15.61,15.61,0,0,0,.47-3.06c0-1-.12-1.92-.17-2.88,0-.48.07-1,0-1.45-.14-1.14.41-2.19.4-3.3a8,8,0,0,1,.53-2.33C177,74.29,177.51,72.63,176.75,70.85Z"/><path class="cls-1" d="M126,93.56c-.07-.5-.17-1-.21-1.52a2.36,2.36,0,0,1,.07-1,9.4,9.4,0,0,0,.5-3.05c.05-1.89.24-3.78.28-5.68,0-1.52-.07-3-.08-4.55a16,16,0,0,1,.35-4.43,9.07,9.07,0,0,0,.18-2.08,2.15,2.15,0,0,1,1.65-1.93,2.76,2.76,0,0,1,2.93.73,7.91,7.91,0,0,0,.82.57A4.47,4.47,0,0,1,134.06,75a22.71,22.71,0,0,0-.46,5.75,3.88,3.88,0,0,0,0,.56,12.31,12.31,0,0,1,0,4.6,7.46,7.46,0,0,0-.09,2.38,6.9,6.9,0,0,1-.23,2.51c-.15.8.29,1.39,1.09,1.33a2,2,0,0,1,.76,0,9.64,9.64,0,0,0,3.85.25c2.24-.13,4.47-.21,6.71-.34a12,12,0,0,0,2.31-.3,14.59,14.59,0,0,1,4.33-.08,1.88,1.88,0,0,0,.76,0,2.71,2.71,0,0,1,2.44.28,14,14,0,0,1,2.39,1.6,2.93,2.93,0,0,1,.33,3.59,3.75,3.75,0,0,1-3,1.63,7.42,7.42,0,0,1-1.08.14,10.92,10.92,0,0,1-1.53-.06c-.4,0-.79-.19-1.19-.28a6.11,6.11,0,0,0-2.5,0,16.67,16.67,0,0,1-3.32.19,15.5,15.5,0,0,0-4.71.63,10.29,10.29,0,0,1-2.07.1c-1.33.11-2.65.28-4,.37-.89.05-1.78,0-2.67,0a8.3,8.3,0,0,1-2.81-.49,4.45,4.45,0,0,1-2.49-2.08A5.82,5.82,0,0,1,126,93.56Z"/><path class="cls-1" d="M92.79,89.73c-.18,1.76-.39,3.45-.51,5.14-.07,1,0,2,0,3,0,1.7,0,3.4,0,5.1a16.22,16.22,0,0,0,.22,2.05,3.39,3.39,0,0,1-1.9,3.68c-.13.07-.31.2-.41.16a16.3,16.3,0,0,1-2.46-1.22c-.38-.26-.49-.88-.79-1.28-.73-1-.54-2.16-.6-3.24-.09-1.87.18-3.77,0-5.64s.38-3.9.31-5.88c0-.87.14-1.82.19-2.73.07-1.34.16-2.68.29-4,.16-1.69.16-3.41.24-5.11.09-2,.25-3.93.24-5.9a25.59,25.59,0,0,0,.17-4c-.17-1.11.68-1.75,1.48-2.3A15.46,15.46,0,0,1,91,66.73a1.25,1.25,0,0,1,1.62.31,3.67,3.67,0,0,1,1,2.73c0,.4,0,.8,0,1.2,0,.81,0,1.61-.12,2.42-.2,2.1-.2,4.23-.27,6.34a2.35,2.35,0,0,0,.06.67,3.41,3.41,0,0,1,0,1.75c-.2.81.16,1.26,1,1.21a18.56,18.56,0,0,0,2.62-.43,2.22,2.22,0,0,1,1.37-.08,4.1,4.1,0,0,0,1.53,0c.11,0,.25-.09.32,0,.85.49,1.74.1,2.61.14a3,3,0,0,1,2.55,3.63A.9.9,0,0,1,105,87c-1,.67-1.91,1.55-3.26,1.47-1-.06-1.92-.12-2.87-.1a5.2,5.2,0,0,0-1.75.3,9.43,9.43,0,0,1-3.57.71A2.71,2.71,0,0,0,92.79,89.73Z"/><path class="cls-2" d="M11.84,138.46c0-3,0-5.54.06-8.11,0-.91.16-1.81.26-2.71a41.5,41.5,0,0,0,.16-7.68c-.08-1.23.1-2.48.13-3.73,0-1.94.07-3.87.09-5.81,0-.54,0-1.08,0-1.61.12-1.86.29-3.71.38-5.58A35.8,35.8,0,0,0,13,99c-.18-2.48.25-5-.2-7.46a12,12,0,0,1,0-2.23s0-.09,0-.12c-.46-1.23,0-2.49-.11-3.74-.2-1.73-.25-3.47-.32-5.21-.09-2.26-.13-4.53-.23-6.79-.07-1.62-.2-3.24-.27-4.85,0-.79,0-1.58,0-2.36.08-1.86.2-3.72.3-5.58.13-2.23,1-4.27,1.64-6.38.16-.56.41-1.09.54-1.66A7.2,7.2,0,0,1,16,49.23a24.4,24.4,0,0,1,3.55-2.88c.63-.45,1.45-.62,2.11-1a7.76,7.76,0,0,1,2.66-1,5.47,5.47,0,0,0,1-.43,4,4,0,0,1,.8-.32c1.87-.35,3.74-.71,5.62-1,.73-.11,1.5,0,2.22-.09,1.86-.29,3.71-.65,5.56-1a1.78,1.78,0,0,1,.35-.08c2.34.09,4.7.07,7,.3a49.94,49.94,0,0,1,8.25,1.12,8.44,8.44,0,0,0,2.47.22c1.52-.05,3-.22,4.56-.33a2.87,2.87,0,0,1,.72.1,4.3,4.3,0,0,0,2.44,0,2.32,2.32,0,0,1,1.11-.13c2,.29,4-.06,6,0a27.74,27.74,0,0,0,3.35-.27c2.43-.19,4.87-.29,7.29-.57s4.55.22,6.82.14c1.83-.07,3.71.12,5.49-.59.34-.14.81.09,1.21.05,1.61-.17,3.21-.47,4.82-.54s3.23-.45,4.9-.39c2.21.09,4.43-.13,6.64-.25,2.72-.15,5.44-.29,8.16-.51,1.56-.12,3.11-.39,4.66-.58.37,0,.75,0,1.12,0,.74-.09,1.47-.2,2.2-.32a5,5,0,0,1,.6-.13l9.06-.21c2.45-.06,4.89-.2,7.34-.2,1.53,0,3.07.18,4.6.28.37,0,.75,0,1.12,0,2.11,0,4.23-.12,6.34-.05a38.21,38.21,0,0,1,4.3.5c2.17.32,4.32.81,6.5,1a13.69,13.69,0,0,0,3.95,0,11.33,11.33,0,0,1,2.48,0l2.83.06c.83,0,1.65,0,2.48,0s2,0,2.92-.07a33.23,33.23,0,0,1,3.84,0,7.65,7.65,0,0,1,2.42,0,40.49,40.49,0,0,1,4,1.17,11.4,11.4,0,0,1,3.49,1.79,4.5,4.5,0,0,0,1.22.56,8.68,8.68,0,0,1,2.84,2.72,3.72,3.72,0,0,1,1,2.07,3.3,3.3,0,0,0,.43,1,7.62,7.62,0,0,1,.44.89c.5,1.57,1.06,3.13,1.44,4.73a33.47,33.47,0,0,1,.8,4.87c.19,2.26.35,4.53.46,6.79a43.72,43.72,0,0,1-.11,9.75,32.45,32.45,0,0,0-.06,5.15,14.8,14.8,0,0,1-.12,2.19,47.45,47.45,0,0,0-.86,7.85c0,1.63-.33,3.27-.37,4.9s-.24,3.42-.29,5.14c0,1.21-.35,2.41-.47,3.63-.1,1-.07,2.06-.13,3.1s-.14,2.14-.22,3.2-.18,2-.27,3a.46.46,0,0,0,0,.25c.5.84.14,1.66,0,2.51-.26,1.72-.5,3.45-.6,5.18s0,3.36,0,5c0,.83-.11,1.65-.16,2.48,0,.66-.14,1.32-.12,2a8.22,8.22,0,0,1-.23,2.45,19.82,19.82,0,0,0-.32,2.57c-.1.68-.24,1.36-.37,2-.26,1.32-.48,2.66-.82,4a28.24,28.24,0,0,1-1,2.78c-.17.46-.36.91-.54,1.36a23.78,23.78,0,0,1-3.51,5.36c-.9,1.16-2,2.1-2.83,3.36a8.55,8.55,0,0,1-2.53,2.12c-.95.64-2,1.13-3,1.69-.11.06-.17.22-.28.24-2.06.34-3.76,1.69-5.86,1.95a51.28,51.28,0,0,1-5.09.82c-2.31,0-4.5.69-6.75.92-1.51.15-3,.28-4.52.51a2.15,2.15,0,0,0-1.06.76c-.44.49-.73,1.11-1.19,1.58-1.73,1.77-2.65,4.07-4.05,6-.92,1.29-1.52,2.81-2.35,4.17a11.7,11.7,0,0,1-1.43,1.53,6.16,6.16,0,0,0-1.39,1.68c-.82,2.2-2.3,4.05-3.16,6.23a5.78,5.78,0,0,1-1,1.3,20,20,0,0,0-2.45,3.52,17.78,17.78,0,0,1-2.51,3.06,6.85,6.85,0,0,0-1,1.39,4.14,4.14,0,0,1-2.6,2.44,3.24,3.24,0,0,1-4-1.4c-.54-1.06-.92-2.2-1.36-3.31-.09-.23-.09-.49-.18-.72a8,8,0,0,1-.5-3,45.65,45.65,0,0,0-.52-7.81,19.61,19.61,0,0,1,.16-5c.19-1.94.48-3.87.87-5.78a13.31,13.31,0,0,0-.63-6.6c-.14-.48-.27-1-.37-1.44-.6-2.81-1.82-3.33-4.2-3.07-1.07.12-2.09-.08-3.14,0a49.94,49.94,0,0,0-6.67.82,14.65,14.65,0,0,1-2.19.12c-2.93.22-5.85.47-8.78.68s-5.8.35-8.7.6c-1.79.16-3.57.48-5.35.7-.77.1-1.56.11-2.33.2-2.35.27-4.7.59-7.05.83-1.69.17-3.38.22-5.07.35-1.3.1-2.6.3-3.91.34-2.94.09-5.84.7-8.8.47a25,25,0,0,0-3.7.28,15,15,0,0,1-2.08.09c-2-.13-4-.32-5.95-.47-.35,0-.71,0-1.06,0-.19,0-.44,0-.57-.08a4.85,4.85,0,0,0-3.11-.66c-1.9,0-3.81.14-5.72.21a31.61,31.61,0,0,1-15.15-2.71c-.56-.26-1.18-.39-1.75-.63a19.44,19.44,0,0,1-7.08-5.17c-.8-.9-1.7-1.71-2.49-2.61a21.77,21.77,0,0,1-3.71-5.64c-.87-2-1.86-3.89-2.68-5.89A24.86,24.86,0,0,1,11.84,138.46Zm129.84,48.33a10,10,0,0,0,1-1.1c.88-1.36,1.7-2.76,2.59-4.12,1.59-2.42,3.25-4.8,4.81-7.24,1-1.57,1.89-3.21,2.83-4.82.5-.86.93-1.76,1.5-2.57.86-1.21,1.82-2.36,2.73-3.54,1.34-1.73,2.67-3.47,4-5.18a2,2,0,0,1,.89-.64c1.49-.49,3-1.14,4.61-.78a3.24,3.24,0,0,0,1-.08c2.38-.26,4.76-.53,7.14-.77,2.71-.28,5.45-.43,7.87-1.92a1.44,1.44,0,0,1,.73-.13,5,5,0,0,0,2.65-.95,17.58,17.58,0,0,0,4.89-5.22,15.9,15.9,0,0,0,2.64-7.43,55.31,55.31,0,0,0,.46-8.2c-.14-4.67.48-9.29.72-13.93.17-3.35.57-6.69.81-10,.21-3,.35-6,.51-8.95.12-2.19.12-4.39.36-6.57a25.37,25.37,0,0,0-.1-8.72,33.23,33.23,0,0,1-.76-10.39,53.54,53.54,0,0,0,.12-5.6,28.13,28.13,0,0,0-.37-4.7,68.38,68.38,0,0,0-1.74-7.13,14.15,14.15,0,0,0-2.52-5.22,3.16,3.16,0,0,0-3-1.3c-1.8.15-3.61-.45-5.42-.06a.24.24,0,0,1-.12,0,10.94,10.94,0,0,0-3.7-.34c-1.41,0-2.82.15-4.22.17-2.24,0-4.48,0-6.72,0a1.4,1.4,0,0,1-.49,0,11.38,11.38,0,0,0-3.77-.64c-1.53-.06-3.05-.35-4.58-.41-2.18-.08-4.37,0-6.55-.07-3.18-.11-6.36-.31-9.54-.45-1.41-.06-2.82,0-4.23-.06h-3c-1,0-2.08,0-3.11,0q-1.92.06-3.83.2c-1.75.12-3.51.3-5.26.41s-3.22.12-4.83.21c-2.18.11-4.37.34-6.55.35a35.12,35.12,0,0,0-4.34,0,1.28,1.28,0,0,1-.5,0,6,6,0,0,0-2.84.12c-1.66.33-3.31.7-5,1-1.94.32-3.9.6-5.86.8-.93.1-1.88-.07-2.82-.05a26.83,26.83,0,0,1-3.23.15,22.25,22.25,0,0,0-6.53.26,10.68,10.68,0,0,1-1.24.08c-.65,0-1.31.09-2,.15s-1.47.19-2.2.27c-.33,0-.67,0-1,0a29.15,29.15,0,0,1-7,.4c-1.93-.13-3.89.43-5.81-.19,0,0-.08,0-.12,0-1.43,0-2.87,0-4.28-.17a40.45,40.45,0,0,1-4.55-.46c-1.24-.3-2.52-.9-3.88-.55-.07,0-.16,0-.23-.07a5.84,5.84,0,0,0-2.93-.22c-1.52.09-3,.16-4.57.12a35.71,35.71,0,0,0-6.07.16,24.5,24.5,0,0,1-3.08.07,7.51,7.51,0,0,0-1,.06c-.7.1-1.39.25-2.09.35a5,5,0,0,0-2.71.75,4.88,4.88,0,0,1-1.63.83c-1.64.49-2.17,1.8-2.57,3.24a8.07,8.07,0,0,1-.45,1.68,3,3,0,0,0-.18,1.81,7.89,7.89,0,0,1,.13,1.33,12.23,12.23,0,0,1-.49,3.86,2,2,0,0,0-.05.73q0,1,0,2a17.59,17.59,0,0,0,0,4.33A2.41,2.41,0,0,1,20.95,73a4.12,4.12,0,0,0-.19,1.75c.07,2-.54,3.9-.33,5.91a29.64,29.64,0,0,1-.08,4.08,10.84,10.84,0,0,0-.1,2.07c.46,2.78-.38,5.52-.15,8.29,0,0,0,.08,0,.12,0,2,0,4,.13,6a25.44,25.44,0,0,1-.11,6,8.94,8.94,0,0,0,.1,2.08c.07,1.07.17,2.14.2,3.22,0,.91-.09,1.83,0,2.73a6.31,6.31,0,0,1-.56,3.27c-.14.28-.3.78-.17.91.45.48.34,1.06.47,1.6a22.9,22.9,0,0,1,.51,6,5.28,5.28,0,0,0,.39,2.15,4.12,4.12,0,0,1,.38,2.21,10.21,10.21,0,0,0-.1,2.46c0,.86-.08,1.72-.1,2.58,0,.49-.16,1.16.09,1.43.81.85.84,2,1.21,2.95a5.19,5.19,0,0,1,.5,1.91,1.87,1.87,0,0,0,.74,1.47,13.32,13.32,0,0,1,1.58,1.87,10.89,10.89,0,0,0,2.4,2.82,5.69,5.69,0,0,1,1.43,1.38c.74,1.3,2.43,1.4,3.16,2.67,0,.05.15.06.23.09,1.58.6,3.14,1.27,4.75,1.77a18.74,18.74,0,0,0,5.17,1.25l7.34.17a13.17,13.17,0,0,0,2.84.07,11.52,11.52,0,0,1,3.93-.11c1.93.27,3.86.54,5.76,1a4.85,4.85,0,0,0,1.94.11,32.76,32.76,0,0,1,3.44-.53c1.65-.1,3.31,0,5-.1,2.28-.13,4.57-.32,6.84-.58a17.19,17.19,0,0,1,4.75-.27,1.81,1.81,0,0,0,.59-.06,17.6,17.6,0,0,1,3.72-.65,24.7,24.7,0,0,0,4.42-.38,7.09,7.09,0,0,1,2.33-.17,6.41,6.41,0,0,0,2.8-.25,28.47,28.47,0,0,1,3-.48,8.06,8.06,0,0,1,3.34.08c2.33-.61,4.75-.28,7.11-.75a34.65,34.65,0,0,1,4.59-.23,29.44,29.44,0,0,0,5.31-.51,19,19,0,0,1,3.9-.46c2.1-.09,4.2,0,6.31.11.69,0,1.43,0,2,.62.09.12.38.09.57.11.58.05,1.16.05,1.73.14,1.35.21,2.69.46,4,.7a4,4,0,0,1,3.29,3.53,7.12,7.12,0,0,1-.11,1.71c-.08,1.06-.18,2.12-.21,3.18a9.65,9.65,0,0,1-.42,3.63c0,.09.07.24.07.36,0,2,.09,4,0,6,0,1.52-.24,3-.4,4.55-.23,2.31-.38,4.64-.78,6.92A8,8,0,0,0,141.68,186.79Z"/><path class="cls-3" d="M6.4,133.36c0-3,0-5.54.06-8.11,0-.91.16-1.81.26-2.71a41.5,41.5,0,0,0,.16-7.68c-.08-1.23.1-2.48.13-3.73,0-1.94.07-3.87.09-5.81,0-.54,0-1.08,0-1.61.12-1.86.29-3.71.38-5.58a35.8,35.8,0,0,0,0-4.18c-.18-2.48.25-5-.2-7.46a12,12,0,0,1,0-2.23s0-.09,0-.12c-.46-1.23,0-2.49-.11-3.74C7,78.67,7,76.92,6.9,75.18c-.09-2.26-.13-4.53-.23-6.79-.07-1.62-.2-3.24-.27-4.85,0-.79,0-1.58,0-2.36.08-1.86.2-3.72.3-5.58.13-2.23,1-4.27,1.64-6.38.16-.56.41-1.09.54-1.66a7.2,7.2,0,0,1,1.69-3.43,24.4,24.4,0,0,1,3.55-2.88c.63-.45,1.45-.62,2.11-1a7.76,7.76,0,0,1,2.66-1,5.47,5.47,0,0,0,1-.43,4,4,0,0,1,.8-.32c1.87-.35,3.74-.71,5.62-1,.73-.11,1.5,0,2.22-.09,1.86-.29,3.71-.65,5.56-1a1.78,1.78,0,0,1,.35-.08c2.34.09,4.7.07,7,.3a49.94,49.94,0,0,1,8.25,1.12,8.44,8.44,0,0,0,2.47.22c1.52-.05,3-.22,4.56-.33a2.87,2.87,0,0,1,.72.1,4.3,4.3,0,0,0,2.44,0A2.32,2.32,0,0,1,61,37.59c2,.29,4-.06,6,0a27.74,27.74,0,0,0,3.35-.27c2.43-.19,4.87-.29,7.29-.57s4.55.22,6.82.14c1.83-.07,3.71.12,5.49-.59.34-.14.81.09,1.21.05,1.61-.17,3.21-.47,4.82-.54s3.23-.45,4.9-.39c2.21.09,4.43-.13,6.64-.25,2.72-.15,5.44-.29,8.16-.51,1.56-.12,3.11-.39,4.66-.58.37,0,.75,0,1.12,0,.74-.09,1.47-.2,2.2-.32a5,5,0,0,1,.6-.13l9.06-.21c2.45-.06,4.89-.2,7.34-.2,1.53,0,3.07.18,4.6.28.37,0,.75,0,1.12,0,2.11,0,4.23-.12,6.34-.05a38.21,38.21,0,0,1,4.3.5c2.17.32,4.32.81,6.5,1a13.69,13.69,0,0,0,3.95,0A11.33,11.33,0,0,1,170,35l2.83.06c.83,0,1.65,0,2.48,0s2,0,2.92-.07a33.23,33.23,0,0,1,3.84,0,7.65,7.65,0,0,1,2.42,0,40.49,40.49,0,0,1,4,1.17A11.4,11.4,0,0,1,192,38a4.5,4.5,0,0,0,1.22.56A8.68,8.68,0,0,1,196,41.24a3.72,3.72,0,0,1,1,2.07,3.3,3.3,0,0,0,.43,1,7.62,7.62,0,0,1,.44.89c.5,1.57,1.06,3.13,1.44,4.73a33.47,33.47,0,0,1,.8,4.87c.19,2.26.35,4.53.46,6.79a43.72,43.72,0,0,1-.11,9.75,32.45,32.45,0,0,0-.06,5.15,14.8,14.8,0,0,1-.12,2.19,47.45,47.45,0,0,0-.86,7.85c0,1.63-.33,3.27-.37,4.9s-.24,3.42-.29,5.14c0,1.21-.35,2.41-.47,3.63-.1,1-.07,2.06-.13,3.1s-.14,2.14-.22,3.2-.18,2-.27,3a.46.46,0,0,0,0,.25c.5.84.14,1.66,0,2.51-.26,1.72-.5,3.45-.6,5.18s0,3.36,0,5c0,.83-.11,1.65-.16,2.48,0,.66-.14,1.32-.12,2a8.22,8.22,0,0,1-.23,2.45,19.82,19.82,0,0,0-.32,2.57c-.1.68-.24,1.36-.37,2-.26,1.32-.48,2.66-.82,4a28.24,28.24,0,0,1-1,2.78c-.17.46-.36.91-.54,1.36a23.78,23.78,0,0,1-3.51,5.36c-.9,1.16-2,2.1-2.83,3.36a8.55,8.55,0,0,1-2.53,2.12c-.95.64-2,1.13-3,1.69-.11.06-.17.22-.28.24-2.06.34-3.76,1.69-5.86,1.95a51.28,51.28,0,0,1-5.09.82c-2.31,0-4.5.69-6.75.92-1.51.15-3,.28-4.52.51a2.15,2.15,0,0,0-1.06.76c-.44.49-.73,1.11-1.19,1.58-1.73,1.77-2.65,4.07-4.05,6-.92,1.29-1.52,2.81-2.35,4.17a11.7,11.7,0,0,1-1.43,1.53,6.16,6.16,0,0,0-1.39,1.68c-.82,2.2-2.3,4.05-3.16,6.23a5.78,5.78,0,0,1-1,1.3,20,20,0,0,0-2.45,3.52,17.78,17.78,0,0,1-2.51,3.06,6.85,6.85,0,0,0-1,1.39,4.14,4.14,0,0,1-2.6,2.44,3.24,3.24,0,0,1-4-1.4c-.54-1.06-.92-2.2-1.36-3.31-.09-.23-.09-.49-.18-.72a8,8,0,0,1-.5-3,45.65,45.65,0,0,0-.52-7.81,19.61,19.61,0,0,1,.16-5c.19-1.94.48-3.87.87-5.78a13.31,13.31,0,0,0-.63-6.6c-.14-.48-.27-1-.37-1.44-.6-2.81-1.82-3.33-4.2-3.07-1.07.12-2.09-.08-3.14,0a49.94,49.94,0,0,0-6.67.82,14.65,14.65,0,0,1-2.19.12c-2.93.22-5.85.47-8.78.68s-5.8.35-8.7.6c-1.79.16-3.57.48-5.35.7-.77.1-1.56.11-2.33.2-2.35.27-4.7.59-7.05.83-1.69.17-3.38.22-5.07.35-1.3.1-2.6.3-3.91.34-2.94.09-5.84.7-8.8.47a25,25,0,0,0-3.7.28,15,15,0,0,1-2.08.09c-2-.13-4-.32-5.95-.47-.35,0-.71,0-1.06,0-.19,0-.44,0-.57-.08a4.85,4.85,0,0,0-3.11-.66c-1.9,0-3.81.14-5.72.21A31.61,31.61,0,0,1,25,156.49c-.56-.26-1.18-.39-1.75-.63a19.44,19.44,0,0,1-7.08-5.17c-.8-.9-1.7-1.71-2.49-2.61A21.77,21.77,0,0,1,10,142.45c-.87-2-1.86-3.89-2.68-5.89A24.86,24.86,0,0,1,6.4,133.36Zm129.84,48.33a10,10,0,0,0,1-1.1c.88-1.36,1.7-2.76,2.59-4.12,1.59-2.42,3.25-4.8,4.81-7.24,1-1.57,1.89-3.21,2.83-4.82.5-.86.93-1.76,1.5-2.57.86-1.21,1.82-2.36,2.73-3.54,1.34-1.73,2.67-3.47,4-5.18a2,2,0,0,1,.89-.64c1.49-.49,3-1.14,4.61-.78a3.24,3.24,0,0,0,1-.08c2.38-.26,4.76-.53,7.14-.77,2.71-.28,5.45-.43,7.87-1.92a1.44,1.44,0,0,1,.73-.13,5,5,0,0,0,2.65-.95,17.58,17.58,0,0,0,4.89-5.22,15.9,15.9,0,0,0,2.64-7.43,55.31,55.31,0,0,0,.46-8.2c-.14-4.67.48-9.29.72-13.93.17-3.35.57-6.69.81-10,.21-3,.35-6,.51-8.95.12-2.19.12-4.39.36-6.57a25.37,25.37,0,0,0-.1-8.72,33.23,33.23,0,0,1-.76-10.39,53.54,53.54,0,0,0,.12-5.6,28.13,28.13,0,0,0-.37-4.7A68.38,68.38,0,0,0,188.16,51a14.15,14.15,0,0,0-2.52-5.22,3.16,3.16,0,0,0-3-1.3c-1.8.15-3.61-.45-5.42-.06a.24.24,0,0,1-.12,0,10.94,10.94,0,0,0-3.7-.34c-1.41,0-2.82.15-4.22.17-2.24,0-4.48,0-6.72,0a1.4,1.4,0,0,1-.49,0,11.38,11.38,0,0,0-3.77-.64c-1.53-.06-3.05-.35-4.58-.41-2.18-.08-4.37,0-6.55-.07-3.18-.11-6.36-.31-9.54-.45-1.41-.06-2.82,0-4.23-.06h-3c-1,0-2.08,0-3.11,0q-1.92.06-3.83.2c-1.75.12-3.51.3-5.26.41s-3.22.12-4.83.21c-2.18.11-4.37.34-6.55.35a35.12,35.12,0,0,0-4.34,0,1.28,1.28,0,0,1-.5,0,6,6,0,0,0-2.84.12c-1.66.33-3.31.7-5,1-1.94.32-3.9.6-5.86.8-.93.1-1.88-.07-2.82-.05a26.83,26.83,0,0,1-3.23.15,22.25,22.25,0,0,0-6.53.26,10.68,10.68,0,0,1-1.24.08c-.65,0-1.31.09-2,.15s-1.47.19-2.2.27c-.33,0-.67,0-1,0a29.15,29.15,0,0,1-7,.4c-1.93-.13-3.89.43-5.81-.19,0,0-.08,0-.12,0-1.43,0-2.87,0-4.28-.17a40.45,40.45,0,0,1-4.55-.46c-1.24-.3-2.52-.9-3.88-.55-.07,0-.16,0-.23-.07a5.84,5.84,0,0,0-2.93-.22c-1.52.09-3,.16-4.57.12a35.71,35.71,0,0,0-6.07.16,24.5,24.5,0,0,1-3.08.07,7.51,7.51,0,0,0-1,.06c-.7.1-1.39.25-2.09.35a5,5,0,0,0-2.71.75,4.88,4.88,0,0,1-1.63.83c-1.64.49-2.17,1.8-2.57,3.24a8.07,8.07,0,0,1-.45,1.68,3,3,0,0,0-.18,1.81,7.89,7.89,0,0,1,.13,1.33,12.23,12.23,0,0,1-.49,3.86,2,2,0,0,0-.05.73q0,1,0,2a17.59,17.59,0,0,0,0,4.33,2.41,2.41,0,0,1-.12,1.35,4.12,4.12,0,0,0-.19,1.75c.07,2-.54,3.9-.33,5.91a29.64,29.64,0,0,1-.08,4.08,10.84,10.84,0,0,0-.1,2.07c.46,2.78-.38,5.52-.15,8.29,0,0,0,.08,0,.12,0,2,0,4,.13,6a25.44,25.44,0,0,1-.11,6,8.94,8.94,0,0,0,.1,2.08c.07,1.07.17,2.14.2,3.22,0,.91-.09,1.83,0,2.73a6.31,6.31,0,0,1-.56,3.27c-.14.28-.3.78-.17.91.45.48.34,1.06.47,1.6a22.9,22.9,0,0,1,.51,6,5.28,5.28,0,0,0,.39,2.15,4.12,4.12,0,0,1,.38,2.21,10.21,10.21,0,0,0-.1,2.46c0,.86-.08,1.72-.1,2.58,0,.49-.16,1.16.09,1.43.81.85.84,2,1.21,2.95a5.19,5.19,0,0,1,.5,1.91,1.87,1.87,0,0,0,.74,1.47,13.32,13.32,0,0,1,1.58,1.87,10.89,10.89,0,0,0,2.4,2.82,5.69,5.69,0,0,1,1.43,1.38c.74,1.3,2.43,1.4,3.16,2.67,0,.05.15.06.23.09,1.58.6,3.14,1.27,4.75,1.77A18.74,18.74,0,0,0,37,151l7.34.17a13.17,13.17,0,0,0,2.84.07,11.52,11.52,0,0,1,3.93-.11c1.93.27,3.86.54,5.76,1a4.85,4.85,0,0,0,1.94.11,32.76,32.76,0,0,1,3.44-.53c1.65-.1,3.31,0,5-.1,2.28-.13,4.57-.32,6.84-.58a17.19,17.19,0,0,1,4.75-.27,1.81,1.81,0,0,0,.59-.06,17.6,17.6,0,0,1,3.72-.65,24.7,24.7,0,0,0,4.42-.38,7.09,7.09,0,0,1,2.33-.17,6.41,6.41,0,0,0,2.8-.25,28.47,28.47,0,0,1,3-.48,8.06,8.06,0,0,1,3.34.08c2.33-.61,4.75-.28,7.11-.75a34.65,34.65,0,0,1,4.59-.23,29.44,29.44,0,0,0,5.31-.51,19,19,0,0,1,3.9-.46c2.1-.09,4.2,0,6.31.11.69,0,1.43,0,2,.62.09.12.38.09.57.11.58.05,1.16.05,1.73.14,1.35.21,2.69.46,4,.7a4,4,0,0,1,3.29,3.53,7.12,7.12,0,0,1-.11,1.71c-.08,1.06-.18,2.12-.21,3.18a9.65,9.65,0,0,1-.42,3.63c0,.09.07.24.07.36,0,2,.09,4,0,6,0,1.52-.24,3-.4,4.55-.23,2.31-.38,4.64-.78,6.92A8,8,0,0,0,136.24,181.69Z"/><path d="M118.44,127.62c-.2-.39-.14-.66.2-.8a.35.35,0,0,1,.31.15C119,127.31,118.87,127.54,118.44,127.62Z"/></svg>