<svg xmlns="http://www.w3.org/2000/svg" id="Layer_1" data-name="Layer 1" viewBox="0 0 216 216"><defs><style>.cls-1{fill:#ee2d78}.cls-2{fill:#8dc63f}</style></defs><title>Largo-site-icons</title><path d="M113.09,151.67a7.39,7.39,0,0,1-1-.19c-.13,0-.17-.38-.24-.59s.06-.18,0-.22c-.34-.5,0-1.22-.49-1.66,0,0,0-.12,0-.18,0-.76.31-1.55-.2-2.28,0-.07,0-.31.13-.39a1.91,1.91,0,0,0,.58-.87c.39-.94.44-1.25-.27-1.91.09-.12.27-.24.26-.36a13,13,0,0,1-.12-3.74c.16-.75.24-1.53.36-2.29s.54-1.22.27-1.93a2.17,2.17,0,0,1-.07-.7c0-.59.36-1.09.46-1.62a11.47,11.47,0,0,0-.06-2.49c0-.56-.15-1.13.39-1.58.15-.13.26-.61.2-.66-.52-.37-.36-.9-.42-1.38,0-.21-.19-.5-.11-.59a3.8,3.8,0,0,1,1-.81,2.41,2.41,0,0,1,2.14,0c.27-.27.49-.66.76-.71a1.89,1.89,0,0,0,1.61-1.46.85.85,0,0,1,.24-.32c.64-.62,1.57-1,1.79-2a.2.2,0,0,1,.13-.13,2.27,2.27,0,0,0,1.57-1.26c.34-.51,1.23-.54,1.13-1.44a3.06,3.06,0,0,1,.33-1.32c.17-.44.46-.84.62-1.29a1.26,1.26,0,0,0,0-.92.86.86,0,0,1,0-1,1.85,1.85,0,0,0,.15-1.42,2,2,0,0,1,0-.45c0-.56.08-1.12.06-1.67s-.27-.86-.2-1.25a1,1,0,0,0-.38-1,1.19,1.19,0,0,1-.32-1c.22-.45-.06-.7-.18-1a6.33,6.33,0,0,0-.71-1.5c-.68-.9-1.45-1.74-2.19-2.59a4.9,4.9,0,0,0-.61-.52l-.82-.67a4.19,4.19,0,0,0-.82-.66,2.54,2.54,0,0,1-1.22-.86c-.11-.17-.4-.23-.62-.32s-.41,0-.52-.15c-.31-.31-1-.2-1-.9-.51-.15-.51-.64-.65-1-.05-.15,0-.43,0-.48-.54-.37-.18-.62.08-.89-.61-.42-.64-.56-.29-1.26a1,1,0,0,0,.16-.39c0-.55.43-.62.77-.63a64.92,64.92,0,0,1-.35-7.61c-.26-.06-.52-.15-.82-.24l.49-.57c-.11-.41-.25-.86-.34-1.31s-.13-.93-.2-1.46l.86.19-.54-.34c0-.3.14-.54.07-.73-.22-.61,0-1.29-.41-1.9a1,1,0,0,1,.13-1.32c.08-.08.24-.18.23-.23-.1-.39-.25-.76-.36-1.14a7.49,7.49,0,0,1-.39-1.55,10.36,10.36,0,0,0-.27-3.46,1.2,1.2,0,0,1,.06-.59,2.58,2.58,0,0,0,.13-.47c0-.38-.05-.76-.08-1.13l-.1-1.21c.76-.65.76-.65,0-2.12l.64-.39-.8-.72c.24-.35-.05-.94.51-1.19a.89.89,0,0,1-.07-.2c0-.43,0-.86,0-1.24a11.35,11.35,0,0,1-.15-1.41,2.8,2.8,0,0,1,.26-.8,3.6,3.6,0,0,1,.16-.57c0-.15,0-.36.1-.45.42-.41.39-.79-.3-1.16,1-.29,1.41-1.34,2.48-1.36a.74.74,0,0,0,.47-.27,17.29,17.29,0,0,1,1.19-1.45,10.87,10.87,0,0,1,1.42-1c.28-.44.51-.88.82-1.26a14.21,14.21,0,0,0,1.06-1.16A26.57,26.57,0,0,0,122,48.49a5,5,0,0,0,.65-1.63.84.84,0,0,1,.42-.79c.52-.34.45-.9.43-1.43a1,1,0,0,1,.23-.49c.08-.13.31-.27.29-.34-.28-.78-.61-1.53-.89-2.31-.18-.5-.3-1-.44-1.5l.85-.4c-1-.33-1.08-.94-.92-1.68,0-.19-.1-.42-.17-.7.26-.2.39-.72,0-.83a1.11,1.11,0,0,1-.88-1,.89.89,0,0,0-.2-.36c-.52-.66-1.06-1.31-1.58-2a5,5,0,0,1-.41-.65c-.3-.54-.58-1.09-.9-1.61-.05-.09-.26-.08-.39-.12-.47-.16-1.15,0-1.22-.8,0-.06-.13-.12-.21-.17l-.94-.58c-.11-.07-.21-.15-.32-.21l-1-.52c-.65,0-1.5,0-2.34,0s-1.52-.16-2.28-.22a2,2,0,0,0-.59.13,3.27,3.27,0,0,1-.89.22,20.42,20.42,0,0,1-2-.24,1.49,1.49,0,0,0-1.19.23,2.24,2.24,0,0,1-1.14.38,3.7,3.7,0,0,0-2.11,1.07,7.71,7.71,0,0,1-.82.69c-.63.35-1.32.61-1.93,1-.36.22-.6.77-1,.84-.7.14-.78.58-.9,1.11,0,.13-.23.26-.38.32a4.07,4.07,0,0,1-.66.15c-.05.24,0,.47-.13.55a6.49,6.49,0,0,0-1.37,1.75c-.29.51-.68,1-1,1.48a9.68,9.68,0,0,0-.51,1.33,2.26,2.26,0,0,0-.24.79,6.84,6.84,0,0,1-.62,2.86c-.1.26-.41.58-.34.75a15.33,15.33,0,0,1,.32,1.78A6.17,6.17,0,0,1,92.38,48a1.17,1.17,0,0,0,0,.67c.12.3.47.7,0,1,.24.56.83,1,.4,1.68.27.35.54.67.77,1s.33.61.52.88c.47.66,1,1.3,1.43,2,.08.12.09.3.18.39.35.35.74.66,1.1,1s.58.42.6.65a.62.62,0,0,0,.75.61,2.82,2.82,0,0,1,1.57.38,23.09,23.09,0,0,0,2.58,1s-.15.12-.13.17c.1.31.25.59.34.9s.34.71.17,1.19a4.39,4.39,0,0,0-.14,1.62c0,.26.3.5.35.77.18,1,.31,1.93.47,2.9.06.36.17.72.2,1.08a14.57,14.57,0,0,0,.08,2.09,3.46,3.46,0,0,1-.09,2.33c0,.07.08.19.12.29.12.3.25.6.35.91.33,1-.49,2.2.36,3.18,0,0,0,0,0,.1l-.27.11a7.57,7.57,0,0,0,.31,1.27,3.93,3.93,0,0,1,.22,1.9,6.11,6.11,0,0,0,.05,1.9,1.84,1.84,0,0,1,.09,1.25c0,.05,0,.12,0,.18,0,.37.18.84,0,1.08a1.1,1.1,0,0,1-.37.3c.8,2.47.52,4.95.38,7.42.24,0,.51,0,.57.17s-.1.68-.09,1c0,.91.11,1.81.16,2.72q0,.83.06,1.67a.68.68,0,0,1-.1.32c-.49-.07-.39.45-.64.62s-.27.29-.43.4-.6.36-.9.54a3.49,3.49,0,0,1-.39.22,6.5,6.5,0,0,0-1.21.51c-.43.3-.72.87-1.18,1.06s-.79.71-1.11,1.13c-.09.13-.14.33-.26.39a1.86,1.86,0,0,0-1.14,1.22,9.26,9.26,0,0,1-1.45,2.19,2,2,0,0,0-.13.36l-1.08,2.59s.16.24.12.39c-.15.64-.37,1.27-.53,1.9a6.26,6.26,0,0,0-.47,2.18,6.72,6.72,0,0,1,0,1.32,4.12,4.12,0,0,0,1,3,11.9,11.9,0,0,0,1.54,1.27c.12.1.28.29.26.42a.71.71,0,0,0,.47.84,5.27,5.27,0,0,1,1.18.71c.65.54,1.23,1.17,1.88,1.72a4.48,4.48,0,0,0,1.24.79c.81.31,1.7.46,2.08,1.4,0,0,.09.06.14.07,1.06.1,1,1,1.06,1.67a8.33,8.33,0,0,1-.18,1.93,17.56,17.56,0,0,1-.29,2.68,10.53,10.53,0,0,0,0,2c0,.72-.14,1.44-.2,2.16s-.12,1.74-.18,2.61c0,.23,0,.47-.07.7-.06.59-.12,1.18-.2,1.77a8.13,8.13,0,0,0-.21,1.14c0,.63.14,1.26.15,1.89,0,.42-.26.89-.15,1.25a15,15,0,0,1,.17,2.62,16.06,16.06,0,0,1-.11,2.93.92.92,0,0,0,.09.32l-.29.49-.11,0a63,63,0,0,1-.36,7.59.74.74,0,0,1,.4,0c.21.1.52.3.52.46a7.26,7.26,0,0,1-.18,1.37,3,3,0,0,0-.14.62,6.36,6.36,0,0,1,.14,1.62,4.54,4.54,0,0,0,.06,2.66c.12.34,0,.62-.47.64s-.91.19-1.37.22-1.11.51-1.65.09-.87-.08-1.28.13-.64.3-.95.46a5,5,0,0,0-1.14.64c-.67.62-1.26,1.31-1.89,2-.45.47-1,.82-1.13,1.58-.06.42-.45.79-.71,1.17s-.57.82-.83,1.26c-.12.21-.09.59-.26.7-.68.43-.64,1.25-1.06,1.8,0,.05.06.19,0,.27-.18.53,0,1.21-.68,1.58.67.25.45.68.19,1.06a4.71,4.71,0,0,0-.45,1.74c-.05.23-.09.46-.14.69s-.15.25-.12.3c.4.65.42,1.46.76,2.07a14.58,14.58,0,0,1,.73,2.12c.23.61.29,1.24.88,1.66.12.09.1.39.13.59s0,.21,0,.27c.39.52.77,1,1.2,1.53.22.25.54.59.81.58a2.14,2.14,0,0,1,1.48.82A4.35,4.35,0,0,0,98,192.91c.4.13.91.15,1.17.42s.4.47.76.46.58,0,.87,0c.9,0,1.71.68,2.66.35.08,0,.21.1.32.12.52.08,1.16.38,1.53.18a3.63,3.63,0,0,1,1.7-.31,3.3,3.3,0,0,0,.37,0c.58-.11,1.16-.22,1.74-.32.25,0,.66.05.74-.08.31-.51.79-.38,1.22-.45.15,0,.4-.05.43-.14.24-.67,1-.53,1.46-1.08s1.36-.74,1.9-1.39a7.67,7.67,0,0,1,1.47-1.13c.31-.22.65-.41,1-.65.12,0,.44.14.6,0,.33-.23.82-.6.8-.89-.06-.75.41-1,.86-1.38a2.41,2.41,0,0,0,.69-.69,5.62,5.62,0,0,0,1-3.17c0-.26.24-.62.14-.8a.84.84,0,0,1,.21-1.1c-.16-.28-.46-.6-.39-.73.38-.72-.19-1.45.07-2.16a1.3,1.3,0,0,0,0-.75c-.15-.53-.37-1-.54-1.56a2.2,2.2,0,0,1,0-.55c0-.13,0-.3,0-.39a18.61,18.61,0,0,0-2-2.34,21.29,21.29,0,0,0-2.67-1.78c-.87-.55-1.76-1.06-2.61-1.63a3,3,0,0,1-.76-.82,3.19,3.19,0,0,1-.29-.77,10.61,10.61,0,0,1-.46-1.38c-.06-.32.09-.69,0-1-.15-.88-.38-1.74-.51-2.62a.89.89,0,0,1,.32-.63,7.26,7.26,0,0,1,.92-.63l-.59-.79.49-.09A15.21,15.21,0,0,1,113.09,151.67Zm-8.32-99.93c-.72-.23-1.35-.78-2.18-.6a.65.65,0,0,1-.35-.07,3.63,3.63,0,0,1-2-1.4l.25-.22-.17,0-.16-.64s0,0,0-.06c-.15-.69-.31-1.37-.45-2.06a.88.88,0,0,1,0-.3,9,9,0,0,1,.43-2.51,10.82,10.82,0,0,0,.31-1.9c.14-.25.29-.49.41-.74a6.56,6.56,0,0,0,.56-1.2,4.56,4.56,0,0,1,1.3-1.8,7.76,7.76,0,0,0,.67-1.07.48.48,0,0,1,.19-.19,15.31,15.31,0,0,0,2.59-1.17,10.4,10.4,0,0,1,1.62-.68c.3-.14.73,0,1.1,0,1-.07,2,.08,2.91-.59a1.75,1.75,0,0,1,.92-.48c.5,0,1.16-.17,1.39.68l-.17.26.08.11c.46.65,1.19,1.25,1.29,1.95s.85,1,.81,1.68.57,1.28.31,2,.28,1,.28,1.49,0,1,0,1.57a3,3,0,0,0,0,.56c.12.74-.69,1-.85,1.57A4.14,4.14,0,0,1,114,48.17a4.68,4.68,0,0,0-.79.95s0,.12-.09.15c-.56.45-1.11.92-1.69,1.34a1.5,1.5,0,0,1-.67.17,3,3,0,0,0-.86.34,9.67,9.67,0,0,1-2.56.8c-.48.07-.93.41-1.44.23S105.15,51.85,104.77,51.74Zm-.43,64.33c-.12-.16-.11-.41-.19-.6-.15-.37-.34-.72-.49-1.09a2.87,2.87,0,0,1-.26-.87,8.47,8.47,0,0,1,.16-3.66,4.18,4.18,0,0,1,1.69-1.94,12.92,12.92,0,0,1,1.43-1.1,14.25,14.25,0,0,1,2.54-1c1.1-.3,2.22-.49,3.34-.72.38-.08.77-.09,1.15-.18.69-.17.85.49,1.27.75a1.16,1.16,0,0,1,.57,1.06c0,.08.14.16.22.25a1.72,1.72,0,0,1,.58,1.2,1.42,1.42,0,0,0,.17.59,2.83,2.83,0,0,1,.17,2.24,1,1,0,0,0-.08.7c.28.55-.26.75-.45.81-.69.2-.53.53-.28,1a3.09,3.09,0,0,1,.14.33l-.59.36.14.1c-.3.45-.6.89-.89,1.34a3.58,3.58,0,0,1-2.37,1.42c-.31.08-.55.45-.84.66a.58.58,0,0,1-.45.12c-1-.41-1.82.2-2.73.18a1,1,0,0,1-.72-.24c-.34-.41-.61-.78-1.25-.58-.16,0-.44-.35-.63-.32C105,117,104.68,116.51,104.35,116.07Zm7.53,61.09a2,2,0,0,1,.46,1.89,1,1,0,0,1,.43,1.5.47.47,0,0,0,0,.42c.61.75-.11,1.38-.18,2.06a4.46,4.46,0,0,1-.25.88c0,.11-.06.27-.15.32-.57.34-.86,1.1-1.69,1.08-.19,0-.36.33-.57.43a30.6,30.6,0,0,1-3.16,1.49,6.71,6.71,0,0,1-2.23.29,4.61,4.61,0,0,1-2.64-.61c-.46-.31-.85-.71-1.31-1a4.76,4.76,0,0,0-1.44-.8c-.45-.11-.38-.37-.45-.64l-.24-1,.19-.05v-.08l-.54-.08a13.62,13.62,0,0,1-.48-2.05c0-.31.32-.65.5-1a1.69,1.69,0,0,1,.74-2.71c.36-1,.73-1.86,1.77-2.23-.51-.42,0-.57.2-.64a27.08,27.08,0,0,1,2.92-1.15,10.9,10.9,0,0,1,1.42-.28,18.92,18.92,0,0,1,2.45,0,1.43,1.43,0,0,1,1.35.93,6.35,6.35,0,0,0,1,1.19A20.21,20.21,0,0,1,111.88,177.16Z" class="cls-1"/><path d="M129.62,35c-.54.61-1,1.08-1.39,1.59a1.42,1.42,0,0,1-1.54.43,6.93,6.93,0,0,1-1.14-.77c-.07,0-.11-.16-.17-.17-1.55-.23-1.32-1.6-1.67-2.6.45-.44-.33-1.17.39-1.59.13-.08,0-.57,0-.87s.08-.61.25-.71a3,3,0,0,0,.87-1c.17-.26.38-.67.83-.26.08.08.34,0,.5-.05,1.2-.34,2.38-.75,3.59-1s2.5-.43,3.75-.63c.12,0,.32,0,.38,0A18.17,18.17,0,0,1,135.44,29c.39.66-.15,1.21-.43,1.67A6.25,6.25,0,0,1,132,33.17a11.78,11.78,0,0,0-2.15,1.4C129.67,34.67,129.64,34.93,129.62,35Z" class="cls-2"/><path d="M129.53,46a5.11,5.11,0,0,1-3.15-1.29,5.25,5.25,0,0,1-1.32-1.37,3.15,3.15,0,0,1-.32-1.4,9.27,9.27,0,0,0,.06-1.3,1,1,0,0,1,.59-1.12,5.4,5.4,0,0,1,2.64-.69c.7,0,1.4-.24,2.1-.33s1.59-.16,2.39-.23c.62-.05,1.25,0,1.87-.13a1.9,1.9,0,0,1,2,.93c.58.73.36,1.56.53,2.34.09.44-1,1.34-1.42,1.48-1.1.33-2.16.79-3.27,1.08-.65.17-.85.64-1.19,1.09S130.22,46.19,129.53,46Z" class="cls-2"/><path d="M131.42,51.07c.19.22.42.53.69.81a1.25,1.25,0,0,1,.27,1.65c-.06.11-.2.27-.17.3.44.57-.16,1-.23,1.43,0,.06-.09.12-.15.15-.52.21-1.06.39-1.56.64a2.17,2.17,0,0,0-.68.62c-.45.58-.74,1.33-1.49,1.58a1.63,1.63,0,0,1-1.14-.07,16.46,16.46,0,0,1-1.35-1,2.91,2.91,0,0,0-1-.39,1.15,1.15,0,0,1-.93-1,3.6,3.6,0,0,0-.74-1.09c-.44-.57-.92-1.11-1.34-1.71a.62.62,0,0,1,.15-.58,1.34,1.34,0,0,0,.61-1A1.61,1.61,0,0,1,123.43,50c.61-.2,1.21-.46,1.83-.66a.42.42,0,0,1,.37.13c.5.7,1.38.32,2,.7,0,0,.2-.14.16-.11Z" class="cls-2"/><path d="M120.78,29.78a2.29,2.29,0,0,1-1.33-1.06c-.57-.73-.22-1.57-.05-2.34a7.57,7.57,0,0,1,1-2.81,2.2,2.2,0,0,0,.28-1c.06-.54.62-.69.79-1.16a5.13,5.13,0,0,1,.75-1.45,6.61,6.61,0,0,0,1-2.26c.12-.36.73-.58,1.15-.83s.86-.09,1.29.25a3.9,3.9,0,0,1,1.24,2.22,7.81,7.81,0,0,1,.27,1.45,12.4,12.4,0,0,1,0,1.46c0,.25,0,.49-.06.73,0,.78-.78,1-1.17,1.48-.52.66-1.11,1.27-1.64,1.93s-1.13,1.42-1.63,2.17a2.62,2.62,0,0,1-1.54,1.13A3.64,3.64,0,0,1,120.78,29.78Z" class="cls-2"/><path d="M115.44,60.91s0-.14,0-.17c.7-.54.51-1.38.73-2.08s.66-1.15,1.13-1a2.5,2.5,0,0,0,1.89-.11c.2-.07.56.26.83.42.11.07.21.27.29.26.63-.09,1,.41,1.48.65s1.09.48,1.61.76c.7.38,1.53.67,1.8,1.5a8.24,8.24,0,0,1,.08,1.56c.1.85-.85,1.21-.9,2,0,.07-.25.15-.39.16a2.06,2.06,0,0,1-.65-.06c-.7-.19-1,.28-1.48.69a5.12,5.12,0,0,1-1.12.56c-.54.29-.73-.19-1.06-.42a6.35,6.35,0,0,0-1-.36,1.64,1.64,0,0,1-.74-.49c-.44-.73-.81-1.5-1.19-2.27A5.6,5.6,0,0,0,115.44,60.91Z" class="cls-2"/><path d="M80.53,51.05l-.3-.14a5.52,5.52,0,0,0,0-1c-.12-.79.08-1.38.62-1.61,0-.42-.08-1,.6-1,.21,0,.43,0,.64,0a17.55,17.55,0,0,0,2.74-.67,18.25,18.25,0,0,0,2.42-.9.59.59,0,0,1,.24-.05,2.45,2.45,0,0,1,2.08,1.62,2.31,2.31,0,0,1,0,1.61c-.54,1.17-1.07,2.35-2.55,2.7a2.52,2.52,0,0,0-1.33,1c-.21.3-.26.74-.52,1.09a2,2,0,0,1-2.18.73,7.79,7.79,0,0,0-.75-.25,3.2,3.2,0,0,1-2-2.38A2.21,2.21,0,0,1,80.53,51.05Z" class="cls-2"/><path d="M88.68,36.95a13.76,13.76,0,0,0-1.92-.15c-.63,0-1.3.43-1.86.29s-.67.33-1,.46a1.84,1.84,0,0,1-2.27-.64c-.24-.35-.53-.67-.79-1a3.69,3.69,0,0,1-.57-2,1.75,1.75,0,0,0-.15-.58A1,1,0,0,1,80.62,32a1.39,1.39,0,0,0,.61-.3c.68-.86,1.58-.68,2.47-.58a18.4,18.4,0,0,1,2.62.28c1.14.3,2.41.17,3.41,1,1.27,1,1.64,1,1,2.77,0,0,0,.08,0,.11-.1.36-.09.91-.33,1.05A8.26,8.26,0,0,1,88.68,36.95Z" class="cls-2"/><path d="M115.1,25.38a1.8,1.8,0,0,1-1.75-.65,1.4,1.4,0,0,1-.29-.58,10.69,10.69,0,0,1,.42-6.29c.25-.66.13-1.46.35-2.13a3.27,3.27,0,0,1,1.56-1.83.52.52,0,0,1,.25,0,4.17,4.17,0,0,1,2.47,1.85c.23.63.54,1.22.72,1.86a9.43,9.43,0,0,1,.37,2,2.72,2.72,0,0,1-.34,1.12c-.29.69-.59,1.37-1,2A11.83,11.83,0,0,1,117,24c-.07.1-.18.18-.21.29-.32,1.08-.32,1.09-1.42,1.09Z" class="cls-2"/><path d="M80,38.9c.95.06,1.76.12,2.57.16.33,0,.67-.05,1,0a3.36,3.36,0,0,0,1.72-.33c.72-.33,2.27.38,2.75,1.07l.22.29c.22.3.65.63.61.89a2.77,2.77,0,0,1-.77,2c-.16.13-.28.31-.43.44a2.24,2.24,0,0,1-.66.52c-.53.18-1.09.24-1.62.39a2.44,2.44,0,0,0-1.57,1.35c-.16.33-.31.45-.64.4-.14,0-.36-.05-.42,0-.42.51-.8.2-1.2,0s-.78-.36-1.14-.59a2.7,2.7,0,0,1-1.24-3,4.69,4.69,0,0,0,.1-1.43,1.73,1.73,0,0,1,.51-1.5C79.93,39.38,79.94,39,80,38.9Z" class="cls-2"/><path d="M87.14,63.92a6.5,6.5,0,0,1-1.52-.76c-.28-.25-.32-.77-.47-1.18,0-.11,0-.28-.1-.34-.64-.45-.13-1.14-.37-1.68,0,0,.07-.1.09-.15a8.8,8.8,0,0,0,.74-1.55,7.26,7.26,0,0,1,1.73-2.64,2.31,2.31,0,0,0,.57-.85c.13-.67.75-.65,1.15-.93a1.64,1.64,0,0,1,1.7.36,13,13,0,0,1,1.13,1.65,3.61,3.61,0,0,1-.61,4.21,8.65,8.65,0,0,0-1.23,1,13.26,13.26,0,0,0-.9,1.48A2.57,2.57,0,0,1,87.14,63.92Z" class="cls-2"/><path d="M89,21a5.25,5.25,0,0,1-.31-.76c-.12-.48-.18-1-.28-1.45a6.73,6.73,0,0,1-.2-.71,2.75,2.75,0,0,1,1.28-1.91A1.7,1.7,0,0,1,91.13,16a6.11,6.11,0,0,1,1.33,1,24.29,24.29,0,0,1,2.06,2.31,7.09,7.09,0,0,1,1.25,2.17A2.92,2.92,0,0,0,96.66,23a.46.46,0,0,1,.1.33,4,4,0,0,0-.09.84,1.48,1.48,0,0,1-.78,1.49,2.08,2.08,0,0,1-1.44.06A5.08,5.08,0,0,1,92,23.85a9.88,9.88,0,0,0-1.28-1c-.08-.06-.13-.16-.2-.22-.39-.31-.81-.59-1.18-.92a4.83,4.83,0,0,1-.53-.65Z" class="cls-2"/><path d="M95.87,18.5c-.19-1-.36-2-.56-2.93a.74.74,0,0,1,.27-.83c.31-.25.53-.62.86-.84A1.53,1.53,0,0,1,98,13.84,3.69,3.69,0,0,1,100,16.73c0,.06,0,.13,0,.19.33,1.11.72,2.21,1,3.34a3.14,3.14,0,0,1,.09,1.69c-.11.34.1.76,0,1.19a1.49,1.49,0,0,1-1.79,1.07c-1.17-.15-1.6-1-2.15-1.84a12.43,12.43,0,0,1-1.22-2.92,8.79,8.79,0,0,1-.2-.92Z" class="cls-2"/><path d="M103.46,22.81c-.14-.62-.26-1.16-.37-1.71-.07-.32-.11-.64-.18-1a3.61,3.61,0,0,0-.17-.52c-.22-.57-.46-1.12-.65-1.7a1.06,1.06,0,0,1,0-.67c.33-.81-.06-1.61,0-2.41,0-.16.11-.43.22-.46.44-.12.39-.35.22-.65s-.09-.53.29-.49a13.42,13.42,0,0,1,1.38.22,2.7,2.7,0,0,1,1.12.31,5.06,5.06,0,0,1,1.18,1.34,9.59,9.59,0,0,1,.53,1.54,9,9,0,0,1,.13,2.87,12.51,12.51,0,0,1-.15,2.23,11.41,11.41,0,0,1-.38,1.62c-.15.52-1.35.7-1.87.29-.23-.18-.43-.39-.67-.55A5.18,5.18,0,0,0,103.46,22.81Z" class="cls-2"/><path d="M88.76,30.27a9.89,9.89,0,0,1-1.7-.27,9.08,9.08,0,0,1-1.68-.84c-.31-.17-.57-.43-.89-.6a2,2,0,0,1-1-2.23,7.85,7.85,0,0,0-.14-1.67c0-.18,0-.43.06-.54a13,13,0,0,1,1.24-1.25.67.67,0,0,1,.57-.11,2.25,2.25,0,0,1,.89.51c.54.59,1.42.81,1.76,1.62,0,.11.22.18.34.25.42.26.83.52,1.26.77s.65.29.95.49a2.2,2.2,0,0,1,1,2.14c0,.31,0,.59-.27.8A3.24,3.24,0,0,1,88.76,30.27Z" class="cls-2"/><path d="M94.45,69.8A2.36,2.36,0,0,1,92,68.23a8.53,8.53,0,0,1,.11-2.3,9.17,9.17,0,0,1,.27-1.27,2.83,2.83,0,0,1,.21-.55c.4-.83.78-1.67,1.24-2.47a1,1,0,0,1,1.65-.23,5,5,0,0,1,1.21,1.53A6.43,6.43,0,0,1,96.94,65a3.15,3.15,0,0,1-.38,2.14c-.42.59-.66,1.3-1.09,1.87A4.12,4.12,0,0,1,94.45,69.8Z" class="cls-2"/></svg>