<svg xmlns="http://www.w3.org/2000/svg" xmlns:xlink="http://www.w3.org/1999/xlink" id="Your_Icon" width="73.396" height="74.074" x="0" y="0" enable-background="new 14.129 0 73.396 74.074" version="1.1" viewBox="14.129 0 73.396 74.074" xml:space="preserve"><g><path d="M50.826,0C30.572-0.014,14.149,16.575,14.129,37.021c0.02,20.476,16.443,37.06,36.697,37.053 c20.262,0.009,36.684-16.577,36.699-37.053C87.509,16.575,71.087-0.014,50.826,0z M54.488,57.181h-6.785v-6.882h6.785V57.181z M56.859,38.543c-1.763,1.153-2.42,2.488-2.402,3.897v5.196l-6.72,0.03v-7.759c0.005-2.299,0.758-3.869,2.951-5.29l3.77-2.567 c2.418-1.649,2.404-4.973,0.906-6.461c-1.328-1.279-3.553-2.025-5.94-1.558c-4.336,0.891-4.686,4.102-4.676,7.141v1.333h-6.718 c0.01-5.711,0.64-8.301,3.633-11.558c3.331-3.672,8.033-4.261,12.37-3.378c4.341,0.916,9.505,5.148,9.513,11.297 C63.537,35.043,58.622,37.385,56.859,38.543z"/></g><text font-family="'HelveticaNeue-Bold'" font-size="3.704" transform="matrix(1 0 0 1 14.1289 84.4443)">Created by SuperAtic LABS</text><text font-family="'HelveticaNeue-Bold'" font-size="3.704" transform="matrix(1 0 0 1 14.1289 88.1484)">from the Noun Project</text></svg>