<?xml version="1.0" encoding="utf-8"?>
<!-- Generator: Adobe Illustrator 16.0.4, SVG Export Plug-In . SVG Version: 6.00 Build 0)  -->
<!DOCTYPE svg PUBLIC "-//W3C//DTD SVG 1.1//EN" "http://www.w3.org/Graphics/SVG/1.1/DTD/svg11.dtd">
<svg version="1.1" id="Layer_1" xmlns="http://www.w3.org/2000/svg" xmlns:xlink="http://www.w3.org/1999/xlink" x="0px" y="0px"
	 width="58.965px" height="39.749px" viewBox="22.982 15.552 58.965 39.749" enable-background="new 22.982 15.552 58.965 39.749"
	 xml:space="preserve">
<path d="M81.947,38.298c0.028-6.596-6.17-12.067-14.479-13.16c1.076,2.145,1.675,4.474,1.678,6.911
	c0.006,7.726-5.907,14.395-14.389,17.407c2.779,1.372,6.098,2.173,9.665,2.177c1.257,0,1.257,0,1.257,0
	c1.324-0.158,3.637,0.214,5.14,0.826l5.81,2.362c1.502,0.611,2.886,0.909,2.051-0.809c-0.493-1.007-1.453-2.952-1.453-2.952
	c-0.652-1.484-0.681-3.375,0.912-4.775C78.138,46.285,81.922,43.741,81.947,38.298z"/>
<path d="M44.633,15.552c-12.104,0.014-21.69,7.418-21.65,16.546c0.029,6.735,4.713,9.883,4.713,9.883
	c1.974,1.734,1.935,4.072,1.129,5.911c0,0-1.19,2.406-1.798,3.653c-1.038,2.123,0.676,1.758,2.536,1.001l7.188-2.925
	c1.862-0.757,4.722-1.218,6.359-1.021c0,0,0,0,1.556-0.003c12.107-0.012,21.915-7.421,21.908-16.544
	C66.563,22.926,56.74,15.539,44.633,15.552z M33.929,34.886c-1.535,0-2.781-1.146-2.781-2.56s1.246-2.56,2.781-2.56
	c1.537,0,2.781,1.147,2.781,2.56S35.465,34.886,33.929,34.886z M45.102,34.886c-1.536,0-2.781-1.146-2.781-2.56
	s1.245-2.56,2.781-2.56c1.536,0,2.781,1.147,2.781,2.56S46.638,34.886,45.102,34.886z M56.275,34.886
	c-1.535,0-2.781-1.146-2.781-2.56s1.246-2.56,2.781-2.56c1.537,0,2.781,1.147,2.781,2.56S57.812,34.886,56.275,34.886z"/>
<text transform="matrix(1 0 0 1 14.2593 84.4443)" font-family="'HelveticaNeue-Bold'" font-size="3.7037">Created by Nadya Brätt</text>
<text transform="matrix(1 0 0 1 14.2593 88.1484)" font-family="'HelveticaNeue-Bold'" font-size="3.7037">from the Noun Project</text>
</svg>
