<svg xmlns="http://www.w3.org/2000/svg" id="Layer_1" data-name="Layer 1" viewBox="0 0 216 216"><defs><style>.cls-1{fill:#fbb040}.cls-2{fill:#7f3f98}.cls-3{fill:#8dc63f}.cls-4{fill:#231f20}</style></defs><title>hire-us</title><path d="M15.1,46.14a10.41,10.41,0,0,1,3.06.29c3.31,1.42,6.78,1.33,10.16.94,7.72-.89,15.49-1.09,23.22-1.77,4.56-.4,9.07-1.45,13.58-2.29,2.79-.52,6.1,1.64,6.44,4.35.27,2.15.6,4.3.72,6.46A27.49,27.49,0,0,1,72,58.29c-.49,4.95-1,9.89-1.5,14.84-.16,1.64-.2,3.3-.48,4.92a122.85,122.85,0,0,0-1.5,14.48c-.22,4.21-.68,8.41-1.06,12.61a3.33,3.33,0,0,1-.41,1c-1.61.57-2.35-.73-3.37-1.35a66.16,66.16,0,0,1-11.47-.36,45.54,45.54,0,0,0-8.8,0c-2.54.15-5.06.71-7.59,1a22.06,22.06,0,0,1-4.19.05,45.32,45.32,0,0,0-9.91-.13,17.75,17.75,0,0,1-6.37-.86c-2.34-.59-3.38-2.64-3.93-4.74a7.39,7.39,0,0,1-.09-4.1,18.24,18.24,0,0,0,.51-6.09c-.32-5.78.47-11.5.88-17.23.39-5.34.91-10.68,1.43-16a12.35,12.35,0,0,0-.44-4.91C13,49,13.12,49,15.1,46.14Z" class="cls-1"/><path d="M203.79,45.66A34.62,34.62,0,0,1,205,55.27c0,6.53-.09,13-.68,19.54-.3,3.42,0,6.89,0,10.34A69.81,69.81,0,0,1,202.8,100a12.2,12.2,0,0,1-.46,1.41c-3.95-1-7.75-.33-11.39.55a113.81,113.81,0,0,1-12.81,2.17c-4.3.54-8.59,1.23-12.87,1.95a13.2,13.2,0,0,1-4.16.28,22.3,22.3,0,0,0-3.81.21,4.47,4.47,0,0,1-4.56-2.83c-1.84-4.09-1.83-4.09-1.66-8.84a27.12,27.12,0,0,1,1.16-8.3,9.33,9.33,0,0,0,.41-2.64c.27-5,.34-10,.83-14.93.39-4,.64-7.89.86-11.85s.52-7.88.79-11.8c.25-.11.52-.33.66-.27a7.86,7.86,0,0,0,4.8.55c2.76-.41,5.57-.45,8.36-.65a17.23,17.23,0,0,0,2.28-.17,33.71,33.71,0,0,1,12.18-.64,13.87,13.87,0,0,0,4.57-.28c2.74-.5,5.45-1.18,8.18-1.78a3.51,3.51,0,0,1,2.91.46C200.64,43.68,202.26,44.67,203.79,45.66Z" class="cls-2"/><path d="M139.06,41.28c2,1.09,3.15,2.87,2.62,5a21.85,21.85,0,0,0-.42,5.69,18.13,18.13,0,0,1-.34,3.43,116,116,0,0,0-1,11.77c-.19,3.15-.18,6.36-1.14,9.47a31.35,31.35,0,0,0-.79,5.67c-.14,1.27-.05,2.58-.31,3.82-.74,3.4-.43,6.82-.35,10.22,0,1.07.74,2.12,1.13,3.16a1.89,1.89,0,0,1-2,1.43c-1.79,0-3.58-.12-5.36,0-3.69.25-7.4.47-11.06,1-2.67.38-5.34.46-8,.62-3.31.21-6.61.58-9.89,1.05-3.9.56-7.83.73-11.69,1.78-2.24.61-4.55-.38-6.39-1.9a30.23,30.23,0,0,1-2.51-2.61c.56-5.64,1.44-11.34,1.61-17.05.19-6.37.88-12.72.51-19.14-.28-5,.22-10,.41-14.93.07-2,.24-4.07.37-6.18,1.46-.85,3-.25,4.45-.09a22.68,22.68,0,0,0,6.83-.07c2-.37,4.07,0,6.1-.15a80.67,80.67,0,0,0,8.37-.83,48.67,48.67,0,0,1,6.47-.62c1.91-.07,3.8-.41,5.71-.58q6.09-.51,12.19-1A8,8,0,0,1,139.06,41.28Z" class="cls-3"/><path d="M22,39.58a10.41,10.41,0,0,1,3.06.29c3.31,1.42,6.78,1.33,10.16.94,7.72-.89,15.49-1.09,23.22-1.77C63,38.64,67.5,37.6,72,36.76c2.79-.52,6.1,1.64,6.44,4.35.27,2.15.6,4.3.72,6.46a27.49,27.49,0,0,1-.31,4.16c-.49,4.95-1,9.89-1.5,14.84-.16,1.64-.2,3.3-.48,4.92A122.85,122.85,0,0,0,75.39,86c-.22,4.21-.68,8.41-1.06,12.61a3.33,3.33,0,0,1-.41,1c-1.61.57-2.35-.73-3.37-1.35a66.16,66.16,0,0,1-11.47-.36,45.54,45.54,0,0,0-8.8,0c-2.54.15-5.06.71-7.59,1a22.06,22.06,0,0,1-4.19.05,45.32,45.32,0,0,0-9.91-.13,17.75,17.75,0,0,1-6.37-.86c-2.34-.59-3.38-2.64-3.93-4.74a7.39,7.39,0,0,1-.09-4.1,18.24,18.24,0,0,0,.51-6.09c-.32-5.78.47-11.5.88-17.23.39-5.34.91-10.68,1.43-16a12.35,12.35,0,0,0-.44-4.91C19.91,42.48,20,42.44,22,39.58Z" class="cls-4"/><path d="M74.65,42.95c0,.63,0,1.27,0,1.91,0,3.32,0,6.64-.08,10-.06,2.55-.11,5.1-.34,7.63Q73.35,72,72.34,81.52c-.45,4.18-1,8.36-1.64,13a10.45,10.45,0,0,0-5.9-.38,11.91,11.91,0,0,1-4.55-.2c-5.23-.85-10.47-.4-15.68-.07-3.69.23-7.37.61-11.07.59-2.3,0-4.59.16-6.88.2a18,18,0,0,1-2.21-.23,4,4,0,0,1-.4-1.21c.26-6.51.5-13,.87-19.51.1-1.77.65-3.51.88-5.28a50.45,50.45,0,0,0,.49-5.34c.11-3.82-.18-7.64.69-11.43.34-1.45,0-3,0-4.58,0-.62.12-1.24.2-2.1,2.08-.14,4.09-.24,6.09-.4,1-.09,2-.24,3-.43a23.47,23.47,0,0,1,6.8-.61c4.21.42,8.39-.38,12.58-.75,2.79-.25,5.55-.81,8.32-1.3,1.63-.29,3.23-.78,4.86-1.09a12.92,12.92,0,0,1,3.38-.32C73.89,40.28,74.55,41.16,74.65,42.95Z" class="cls-1"/><path d="M208.33,39.13a34.62,34.62,0,0,1,1.18,9.61c0,6.53-.09,13-.68,19.54-.3,3.42,0,6.89,0,10.34a69.81,69.81,0,0,1-1.49,14.85,12.2,12.2,0,0,1-.46,1.41c-4-1-7.75-.33-11.39.55a113.81,113.81,0,0,1-12.81,2.17c-4.3.54-8.59,1.23-12.87,1.95a13.2,13.2,0,0,1-4.16.28,22.3,22.3,0,0,0-3.81.21,4.47,4.47,0,0,1-4.56-2.83c-1.84-4.09-1.83-4.09-1.66-8.84a27.12,27.12,0,0,1,1.16-8.3,9.33,9.33,0,0,0,.41-2.64c.27-5,.34-10,.83-14.93.39-4,.64-7.89.86-11.85s.52-7.88.79-11.8c.25-.11.52-.33.66-.27a7.86,7.86,0,0,0,4.8.55c2.76-.41,5.57-.45,8.36-.65a17.23,17.23,0,0,0,2.28-.17,33.71,33.71,0,0,1,12.18-.64,13.87,13.87,0,0,0,4.57-.28c2.74-.5,5.45-1.18,8.18-1.78a3.51,3.51,0,0,1,2.91.46C205.18,37.15,206.8,38.14,208.33,39.13ZM205,57.74a5,5,0,0,0,0-.77c0-4.46,0-8.93-.11-13.39,0-1,.27-2.09-.86-3-3.12.26-6.39.43-9.64.86a38,38,0,0,1-6.49.15,17.44,17.44,0,0,0-5.3.51c-3.73,1.06-7.61.73-11.35,1.51a7.38,7.38,0,0,1-1.15,0l-6.17.17a29.11,29.11,0,0,0-.55,3.2c-.31,5.22-.62,10.45-.83,15.68-.11,3.06,0,6.14-.07,9.21-.07,2-.65,4.1-.44,6.09a51.4,51.4,0,0,1-.31,8.78c-.15,2.42-.4,4.83-.56,7.25-.09,1.25.63,1.86,1.9,1.73,1.91-.19,3.84-.23,5.71-.6,8.54-1.68,17.15-2.76,25.78-3.8,2.9-.34,5.76-.94,8.44-1.4,1.7-3.35,1.45-6.7,1.68-10C205.25,72.56,204.27,65.14,205,57.74Z" class="cls-4"/><path d="M205,57a5,5,0,0,1,0,.77c-.78,7.4.2,14.82-.32,22.22-.23,3.26,0,6.61-1.68,10-2.68.46-5.54,1.06-8.44,1.4-8.63,1-17.24,2.12-25.78,3.8-1.87.37-3.8.41-5.71.6-1.27.13-2-.48-1.9-1.73.16-2.42.41-4.83.56-7.25a51.4,51.4,0,0,0,.31-8.78c-.21-2,.37-4.06.44-6.09.09-3.07,0-6.15.07-9.21.21-5.23.52-10.46.83-15.68a29.11,29.11,0,0,1,.55-3.2l6.17-.17a7.38,7.38,0,0,0,1.15,0c3.74-.78,7.62-.45,11.35-1.51a17.44,17.44,0,0,1,5.3-.51,38,38,0,0,0,6.49-.15c3.25-.43,6.52-.6,9.64-.86,1.13.89.84,2,.86,3C205,48,205,52.51,205,57Z" class="cls-2"/><path d="M146.53,36.37c2,1.09,3.15,2.87,2.62,5.05a21.85,21.85,0,0,0-.42,5.69,18.13,18.13,0,0,1-.34,3.43,116,116,0,0,0-1,11.77c-.19,3.15-.18,6.36-1.14,9.47a31.35,31.35,0,0,0-.79,5.67c-.14,1.27,0,2.58-.31,3.82-.74,3.4-.43,6.82-.35,10.22,0,1.07.74,2.12,1.13,3.16a1.89,1.89,0,0,1-2,1.43c-1.79,0-3.58-.12-5.36,0-3.69.25-7.4.47-11.06,1-2.67.38-5.34.46-8,.62-3.31.21-6.61.58-9.89,1-3.9.56-7.83.73-11.69,1.78-2.24.61-4.55-.38-6.39-1.9A30.23,30.23,0,0,1,89.07,96c.56-5.64,1.44-11.34,1.61-17,.19-6.37.88-12.72.51-19.14-.28-5,.22-10,.41-14.93.07-2,.24-4.07.37-6.18,1.46-.85,3-.25,4.45-.09a22.68,22.68,0,0,0,6.83-.07c2-.37,4.07,0,6.1-.15a80.67,80.67,0,0,0,8.37-.83,48.67,48.67,0,0,1,6.47-.62c1.91-.07,3.8-.41,5.71-.58q6.09-.51,12.19-1A8,8,0,0,1,146.53,36.37ZM144.72,45c.23-1.61.56-3.3-.4-5a21.71,21.71,0,0,0-4.46-.64q-5.93.36-11.81,1.16c-2.39.32-4.72,1.14-7.1,1.49-3,.45-6.1.65-9.16.92a6.41,6.41,0,0,1-2.27,0,8.79,8.79,0,0,0-4.91.35,17.3,17.3,0,0,1-7.77.64c-1.2,1.42-1,3.07-1,4.52,0,6.52-1.43,13-1,19.51A26.4,26.4,0,0,1,94.62,71L93.39,91.62A8.86,8.86,0,0,0,94.1,96a6.6,6.6,0,0,0,2.48.07c2.09-.86,4.29-.55,6.43-.84a90.59,90.59,0,0,1,11.06-.68,37.45,37.45,0,0,0,8.7-1.12,123.51,123.51,0,0,1,13.83-2.77A9.93,9.93,0,0,0,140.69,89c.28-3.7.55-7.51.86-11.31.11-1.38.28-2.77.46-4.14.13-1,.4-2,.47-3C143.09,62,143.5,53.46,144.72,45Z" class="cls-4"/><path d="M144.32,39.95c1,1.72.63,3.41.4,5-1.22,8.49-1.63,17.05-2.24,25.59-.07,1-.34,2-.47,3-.18,1.37-.35,2.76-.46,4.14-.31,3.8-.58,7.61-.86,11.31a9.93,9.93,0,0,1-4.09,1.65,123.51,123.51,0,0,0-13.83,2.77,37.45,37.45,0,0,1-8.7,1.12,90.59,90.59,0,0,0-11.06.68c-2.14.29-4.34,0-6.43.84A6.6,6.6,0,0,1,94.1,96a8.86,8.86,0,0,1-.71-4.38L94.62,71a26.4,26.4,0,0,0,.15-3.07c-.38-6.54,1-13,1-19.51,0-1.45-.18-3.1,1-4.52a17.3,17.3,0,0,0,7.77-.64,8.79,8.79,0,0,1,4.91-.35,6.41,6.41,0,0,0,2.27,0c3.06-.27,6.12-.47,9.16-.92,2.38-.35,4.71-1.17,7.1-1.49q5.88-.8,11.81-1.16A21.71,21.71,0,0,1,144.32,39.95Z" class="cls-3"/><path d="M117,145.29c.63,1.51,1.4,3.12,2,4.8a3.09,3.09,0,0,1-2.62,4.22,15.06,15.06,0,0,1-1.91.13c-1.63.07-3.32-.23-4.81.74-1.66-.48-3.25.06-4.88.29-2,.29-4.07.29-6.11.39-1.57.08-1.57.07-3,1.85-.24.07-.49.24-.71.2-4.09-.83-8.06,0-12,.8a10.56,10.56,0,0,1-1.91.09,16.17,16.17,0,0,0-2.29,0c-5.57.9-11.2.48-16.79.82A114.51,114.51,0,0,0,43,162.27a26.86,26.86,0,0,1-3.79.46c-4.82.41-9.64.71-14.45,1.23-2.35.25-4-.46-5-2.58-.55-1.13-1.15-2.23-1.66-3.21.53-1.17,1.49-.91,2.11-.89a85.3,85.3,0,0,0,22.42-2.06,37.1,37.1,0,0,1,5.3-.81q7.44-.7,14.9-1.27c4.57-.34,9.15-.57,13.72-.88a8.27,8.27,0,0,0,2.62-.5,7.42,7.42,0,0,1,3-.45,17.2,17.2,0,0,0,3.39-.49c1.86-.4,3.7-.94,5.57-1.29,2.74-.51,5.64-.54,8.22-1.47a37.49,37.49,0,0,1,6.2-1.25,54.26,54.26,0,0,0,5.47-1.5C112.89,144.72,114.89,143.74,117,145.29Z" class="cls-3"/><path d="M119.93,157.66c1.69,2.17,3.58,4,2.86,7.09-.74.06-1.48.14-2.22.18s-1.29,0-1.91,0c-4.64.71-9.29,1.42-13.93,2.2s-9.3,1.59-13.94,2.47S81.71,171,77.2,171.83s-9.14,1-13.68,1.7c-.38.06-.77.07-1.14.15a147.29,147.29,0,0,1-23.16,2.8c-1.65.09-3.27.51-4.92.72-3.8.49-7.63.79-11.39,1.46-2.19.39-3.78-.67-5.27-1.73s-1.77-2.73-1.43-4.61c2.25-.3,4.49-.69,6.75-.88q13.37-1.15,26.74-2.18c1.13-.09,2.27.09,3.41,0a4.54,4.54,0,0,0,2.17-.37,6,6,0,0,1,4.08-.7,24.73,24.73,0,0,0,6.84-.36c1.86-.3,3.73,0,5.63-.35,7-1.42,14.12-2.08,21.09-3.73,3.59-.85,7.23-1.51,10.88-2,1.54-.21,2.79-1.06,4.26-1.32s3-.44,4.5-.78,2.93-.85,4.41-1.26C117.85,158.15,118.72,158,119.93,157.66Z" class="cls-3"/><path d="M116.7,138.09c-4.05.47-7.94,1-11.84,1.35-5.2.5-10.42.82-15.62,1.33-3,.3-6.07.83-9.1,1.27a31.28,31.28,0,0,1-4.16.62c-6.81,0-13.4,1.9-20.15,2.38a6.57,6.57,0,0,0-1.13.2,132.19,132.19,0,0,1-23,2.94c-2.93.05-5.86.35-8.79.53a13.11,13.11,0,0,1-5.3-.34c-2.81-1-2.86-.93-2.84-4.38,4.57.19,9.1-.52,13.66-.63a104,104,0,0,0,14.74-1.87c6.54-1.1,13.15-1.77,19.73-2.69,7.71-1.08,15.41-2.3,23.13-3.33,5.69-.76,11.38-1.46,17-2.56a53.31,53.31,0,0,0,7.82-1.65,3.38,3.38,0,0,1,4.28,1.6,21.31,21.31,0,0,1,1.72,3.81C117.06,137.09,116.78,137.65,116.7,138.09Z" class="cls-3"/><path d="M42.68,129.48c-.59-2.06-1.09-4,.6-6,1.77,1.8,3.85,1.55,6,1.15,1.88-.34,3.81-.39,5.71-.6,7.58-.87,15.19-1.49,22.77-2.28,8.23-.86,16.52-1.47,24.64-3.26,1.86-.41,3.8-.13,5.61-1,1.15-.57,2.3.31,3.12,1a7.71,7.71,0,0,1,2.39,4.27c.25,1.2-.43,2.06-1.66,1.9a35.84,35.84,0,0,0-8.77.27c-1.64.2-3.26.57-4.9.82-7,1.09-14.15,1.64-21.24,2.36a172.89,172.89,0,0,1-20.25.87,37.34,37.34,0,0,0-6.82.88A18.64,18.64,0,0,1,42.68,129.48Z" class="cls-3"/><path d="M16.44,192.28l-2-6.56a4.41,4.41,0,0,1,1.66-.07,13.49,13.49,0,0,0,6,.64c6.35-.53,12.69-1.24,19-1.83,3.81-.35,7.64-.52,11.44-.93,5.2-.57,10.37-1.31,15.56-2,1.38-.17,2.77-.3,4.22-.45.79,1.16,1.52,2.17,2.19,3.23,1.15,1.81.79,2.65-1.41,3.19a18.75,18.75,0,0,1-3,.48q-5.52.42-11,.75c-1.64.1-3.29,0-4.93.14a49.39,49.39,0,0,0-6.05.84c-2.48.54-4.87,1.42-7.49,1.25a11.37,11.37,0,0,0-3,.59c-1.85.4-3.65.93-5.62.54a8.72,8.72,0,0,0-3,.24c-2.13.36-4.24.82-6.36,1.19S18.62,193,16.44,192.28Z" class="cls-3"/><path d="M10.8,125.85l2.46-.77a5.92,5.92,0,0,0,1.4,1.11A3.71,3.71,0,0,1,16.93,129a5.7,5.7,0,0,1-.31,4.08A4.08,4.08,0,0,1,15,134.6c-1,.58-2.07,1-3.14,1.48A3.72,3.72,0,0,1,9,133.93c-.41-.79-1-1.51-1.32-2.32-.81-1.85-1.6-3.61-.94-5.83.53-1.78.44-3.66,1.33-5.48,1.57-3.18,4.41-4.84,7-6.82a1.4,1.4,0,0,1,2.16,1.25c-.21,1.62-.22,3.56-1.72,4.48C13.14,120.67,12.23,123,10.8,125.85Z" class="cls-4"/><path d="M25.73,127l2.55,1.34a4.64,4.64,0,0,1,1.6,7.08,4.3,4.3,0,0,1-4.24.89,4.81,4.81,0,0,1-2.07-1.59,13.54,13.54,0,0,1-2.19-7.53c.09-3.92,2.33-6.61,4.5-9.37.56-.72,1.75-.94,2.77-1.44.55.23,1.13.46,1.69.72,1.8.84,2,2.18.68,3.5s-2.59,2.42-3.75,3.74A15.72,15.72,0,0,0,25.73,127Z" class="cls-4"/><path d="M108.84,185.35c-1.51.24-2.54-.13-2.9-1.73a13.58,13.58,0,0,1,.18-6.64,1.61,1.61,0,0,1,1.69-1.27,10.94,10.94,0,0,1,5.66,1.76c1.89,1.33,2.26,3.35,2.27,5.4,0,4.1-3.88,8.78-7.91,9.66a5.75,5.75,0,0,1-2.25,0,1.75,1.75,0,0,1-1-1c-.1-.23.16-.77.42-1,1.06-.89,2.22-1.66,3.27-2.57A2.11,2.11,0,0,0,108.84,185.35Z" class="cls-4"/><path d="M91.32,187.52c-2.39-.93-3.55-2.25-3.64-4.43s0-4.2,2.95-5L95.57,180c.44,1.4.71,2.64,1.2,3.79,1.51,3.53-2,8.5-5.59,9.59a3.94,3.94,0,0,1-1.9.08,2.38,2.38,0,0,1-1.51-.86c-.43-.8.12-1.32.89-1.76A4.72,4.72,0,0,0,91.32,187.52Z" class="cls-4"/><path d="M158.44,153c0-.1.06-.23.14-.28s.26,0,.28.05a1.52,1.52,0,0,1,.09.49,5.71,5.71,0,0,0,0,.59c0,.22.11.45.42.49.23-.27,0-.59.09-.87s.15-.6.22-.92l-.37-.09a2.48,2.48,0,0,0,0-1.47c-.19-.76-.2-1.56-.33-2.34-.06-.38.21-.55.4-.88,0,.33.08.58-.08.84a.35.35,0,0,0,0,.32c.23.3.14.65.18,1a.34.34,0,0,0,.29-.34c0-.48,0-1,.06-1.43a4.11,4.11,0,0,1,.06-1,1.24,1.24,0,0,0,0-.82,2.34,2.34,0,0,1-.06-1.16c0-.47.09-.94.11-1.41a1.84,1.84,0,0,1,.35-1.05c-.33-.28-.25-.67-.29-1s.05-.46-.21-.59l-.06-.3-.09,0,.17.24a2.61,2.61,0,0,1-.06.41c-.06.18-.12.38-.37.38h0a2.69,2.69,0,0,0,.06-.75,2.51,2.51,0,0,1,.17-1.33c.16-.48.29-1,.47-1.55l-.37-.71-.43.37a1.77,1.77,0,0,1-.2,1.27.24.24,0,0,0,0,.16,12.82,12.82,0,0,1-.3,2.58,11.86,11.86,0,0,1-.27,1.58.78.78,0,0,0,0,.42,1.72,1.72,0,0,1,0,1.45c-.06.15,0,.35-.07.5s-.28.49-.38.75a8.47,8.47,0,0,0-.24.86,1,1,0,0,1-.07,1.26c-.06.07,0,.26,0,.41.28-.05.13-.29.23-.39a1.66,1.66,0,0,0,.3-.41.92.92,0,0,0,.09-.4,3.26,3.26,0,0,0-.07-.5,1.51,1.51,0,0,1,.27-1.28,1.32,1.32,0,0,0,.15-.37c.07.31.12.61.2.91s-.07.32-.18.44l0-.14h0v.14a2,2,0,0,1,0,1.16,1.46,1.46,0,0,0,0,.73.57.57,0,0,1,0,.25,8.45,8.45,0,0,0-.19,1.07,6.37,6.37,0,0,0,.14,1l-.84.78c-.05.27-.12.57-.16.88a.51.51,0,0,0,0,.32,1.2,1.2,0,0,1,.11.9,7.46,7.46,0,0,0,0,1.27c0,.08.12.15.19.24.32-.25.22-.51.17-.79a5.16,5.16,0,0,1,0-.9c.15.28.25.39.26.51a2,2,0,0,0,.11.83c0,.09,0,.26-.05.39a1.62,1.62,0,0,0,0,.66,1.26,1.26,0,0,1,0,1.06,5.23,5.23,0,0,0-.2,1.59c0,.14.06.31,0,.42a3.64,3.64,0,0,0-.17,1.49c0,.53-.08,1.07-.13,1.6a.34.34,0,0,1-.1.22c-.34.25-.36.62-.38,1l.41.32c0,.28-.12.47,0,.72a2.77,2.77,0,0,1,.15.83,1,1,0,0,1-.26.94,1.49,1.49,0,0,0-.38,1,.33.33,0,0,0,.1.29.35.35,0,0,1,0,.47,1.55,1.55,0,0,0-.27,1,12.93,12.93,0,0,0,.05,2.27.36.36,0,0,1,0,.25c-.3.35-.17.74-.13,1.13a11,11,0,0,0,0,1.76s0,.05,0,.08c-.06.38-.15.77-.18,1.16s0,.79,0,1.18c0,.06,0,.12,0,.16a3.66,3.66,0,0,1-.07,1.92,1.92,1.92,0,0,0,.35,1.71c0,.75-.06,1.46-.07,2.16,0,.08.11.18.19.23s.18-.05.2-.11c.08-.23.24-.51.18-.71a1,1,0,0,1,.08-.81c.27-.49.12-1.06.31-1.56A.58.58,0,0,0,158,180a1.82,1.82,0,0,1,0-1.08,5.29,5.29,0,0,0,0-1.23.83.83,0,0,1-.3-1.06.73.73,0,0,0,0-.5,3.94,3.94,0,0,1-.22-1.3,3.66,3.66,0,0,1,0-1.1,1.94,1.94,0,0,0,0-.91,1.19,1.19,0,0,1,0-.5,8.86,8.86,0,0,0,.18-2.11c0-.09.08-.19.12-.3s.14.06.14.09q.14,1.26.27,2.53a3,3,0,0,0,0,.59c.08.25-.37.39-.08.67a3.24,3.24,0,0,1,.4.63l.54.13c.28-.44-.17-.73-.22-1.08s.3-.21.27-.48a6.67,6.67,0,0,1,0-1.27c0-.27-.08-.57.15-.81.06-.06,0-.21,0-.31a.72.72,0,0,1,.32-.8s0-.16.06-.24.08,0,.13,0a8.52,8.52,0,0,0,0,1.17,6.66,6.66,0,0,1,.07,1.09,1.89,1.89,0,0,1,0,.49,1.42,1.42,0,0,0,.2,1.13,4.43,4.43,0,0,0,.46.63c.17-.42.53-.72.37-1.25a6.52,6.52,0,0,1-.14-1.26h.41c0-.11.14-.27.1-.36a2.26,2.26,0,0,1,0-1.53,1.13,1.13,0,0,0-.06-.74c-.1-.22-.23-.36.07-.54.15-.09.13-.37,0-.55a.75.75,0,0,1-.07-.56,4,4,0,0,0-.09-1,2.85,2.85,0,0,1,.57-2.43l-.33-.41c.25-.24.09-.78.64-.85,0-.28,0-.56,0-.84,0,0,0-.1.07-.15a1.56,1.56,0,0,1,0,1.21,3,3,0,0,0-.06.82,23.42,23.42,0,0,1,.07,3.3c-.09.64-.19,1.28-.22,1.93a10.28,10.28,0,0,0,.24,2.85,2.8,2.8,0,0,1,0,1.34.84.84,0,0,0,.11.78,1.59,1.59,0,0,1,.15.9,4.48,4.48,0,0,0,.31,2,.69.69,0,0,1-.1.79,1,1,0,0,0-.07,1.05,2.35,2.35,0,0,1,.08,1.25,8.65,8.65,0,0,0-.09,1.86,6.14,6.14,0,0,1-.22,1.58,1.17,1.17,0,0,1-.16.39,4.47,4.47,0,0,0-.63,1.19c-.09.27-.19.31-.64.45-.23.55-.45,1.09-.69,1.63a.48.48,0,0,1-.16.19.67.67,0,0,0-.37.53c0,.11-.23.25-.37.28s-.21-.14-.32-.21-.24.23-.32.21a1.08,1.08,0,0,0-1.22.55,2,2,0,0,1-.94.66c-.27.11-.46.31-.76.44l-.24-.32-.13-.17c-.51.33-.62-.4-1.05-.37,0,.15,0,.31-.07.47-.08.47-.27.59-.77.5l-.21,0-.4.56-.48-.47-.24.49c-.16-.38,0-.88-.63-.86l-.42.38c0-.23-.07-.39-.11-.54s-.21-.11-.28,0c-.29.4-.35.45-.68.25s-.59-.2-.78-.49-.3-.1-.45,0,.11.36-.22.41a1.19,1.19,0,0,1-.12-.28,1.36,1.36,0,0,0-1.34-1.18c-.32,0-.47-.13-.49-.42a.72.72,0,0,0-.32-.48,2.86,2.86,0,0,1-1.11-1.45c-.46-.26-.43-.76-.56-1.18s-.27-.56-.67-.5a9.12,9.12,0,0,0-.29-1.07c-.14-.34-.37-.63-.51-1a8.72,8.72,0,0,1-.41-1.18,4,4,0,0,1-.2-1.25,4,4,0,0,0-.19-1.08,6.81,6.81,0,0,1-.28-1.66,11.48,11.48,0,0,0-.46-2c0-.25-.07-.5-.11-.75s-.06-.38-.09-.58a3,3,0,0,1-.1-.57c0-1.08.07-2.15,0-3.23a10.31,10.31,0,0,1,0-1.52,13.53,13.53,0,0,0-.15-2.71,29.16,29.16,0,0,1-.21-4.58c0-.88.13-1.76.09-2.63-.08-1.92.11-3.84,0-5.76s0-3.91,0-5.86c0-1.13,0-2.27,0-3.4,0-.73-.07-1.47-.13-2.2-.07-.93,0-1.87-.1-2.8a6.61,6.61,0,0,1,.08-1.1c0-.74,0-1.47,0-2.21s.06-1.7.1-2.55q0-.89.08-1.78c0-.23,0-.45,0-.68a1.92,1.92,0,0,0,0-.25c0-.42-.09-.84-.08-1.26s.29-.79.21-1.24a.79.79,0,0,1,0-.42c.3-.74.33-1.54.59-2.28a2.81,2.81,0,0,0,.13-.65,5.68,5.68,0,0,1,.55-2,1.1,1.1,0,0,0,.17-.39,3.63,3.63,0,0,1,.67-1.71c.26-.44.3-1,.8-1.33.08,0,.08-.21.13-.31A5.88,5.88,0,0,1,145,117c.18-.24.45-.42.63-.66s.27-.57.46-.8a8.17,8.17,0,0,1,.95-1,7.33,7.33,0,0,1,1.17-.91c.51-.28,1-.62,1.52-.86.08,0,.18-.09.24-.07.36.19.68,0,1-.14a11.15,11.15,0,0,1,1.37-.18,4.07,4.07,0,0,1,1.35,0,10.76,10.76,0,0,1,1.42.22c.38.09.73.32,1.11.38s.66.06.84.44c.07.14.23.12.57,0a1.28,1.28,0,0,0,.68.62,1.77,1.77,0,0,1,.62.44,1.68,1.68,0,0,1,.54.74,3.87,3.87,0,0,0,.39.73c.24.07.15-.19.29-.25.11.12.22.24.34.36s.1,0,.15,0l-.06-.13h0l.24.16.06,1.14c-.21.05-.15-.11-.2-.18l-.25-.31c.08.29.12.41.14.53s0,.22,0,.34.08.24,0,.33a3.53,3.53,0,0,0,0,1.74,4.84,4.84,0,0,0,.15,1.07l0-.37c.05-.42.11-.83.15-1.25a.87.87,0,0,0,0-.41,1,1,0,0,1,.14-1,2.11,2.11,0,0,0,.17-.55h0c.07,0,.2.06.21.11s0,.4,0,.59.15.6.23.89c.51.38.41,1,.44,1.48a1.28,1.28,0,0,1-.11.57,2.42,2.42,0,0,0-.19,1.59l-.53.32c0,.14-.07.3-.11.46s-.07.27.11.35.1.09.09.13c-.14.65.28,1.21.3,1.83,0,.39,0,.79.06,1.18,0,.08,0,.18,0,.25a5.7,5.7,0,0,1,.23,1.93,11.79,11.79,0,0,1-.09,2,5.79,5.79,0,0,0-.07,1.09,1.07,1.07,0,0,1-.33,1,4.23,4.23,0,0,1,0,2,2,2,0,0,0,.13,1.4,1.72,1.72,0,0,1,.1.39c.24-.18.19-.49.48-.71,0,.34,0,.59,0,.83s.08.45.1.67c.05.51.11,1,.14,1.52a6.85,6.85,0,0,1-.06.92,5.15,5.15,0,0,0,0,1.85,1,1,0,0,1,0,.41,2.69,2.69,0,0,0,0,1.49.7.7,0,0,1-.21.77,1.73,1.73,0,0,0-.46,1.16,1.51,1.51,0,0,0,.14.47c-.11.07-.27.12-.31.22a3.85,3.85,0,0,0-.18.67l.45.09c0-.22,0-.37,0-.53s0-.32,0-.48c.15.26.18.62.57.67,0,.17-.07.3-.09.44s0,.27,0,.43l-.48-.23a4.6,4.6,0,0,0-.32.71,1.8,1.8,0,0,0-.1,1.06,3.91,3.91,0,0,1,.1,1.17,1.15,1.15,0,0,1-.22.53,10.18,10.18,0,0,0-.25-1.53,2.26,2.26,0,0,1,.28-1.77c-.13-.19-.25-.18-.34,0s-.14.44-.46.39a.45.45,0,0,0-.09.28,5.52,5.52,0,0,0,.21.64,3.73,3.73,0,0,0-.61,1.73.78.78,0,0,0,.12.48,1.19,1.19,0,0,1,.21.72c.06.65.12,1.3.22,1.94a1.53,1.53,0,0,1-.11.9c-.07.15-.09.33-.17.48a1.11,1.11,0,0,0,0,1.16,2.72,2.72,0,0,1,.18,1c.09.76.11,1.52.17,2.28s.05,1.8.14,2.7a2.41,2.41,0,0,1-.16,1.57c-.06.1,0,.28,0,.42a5.9,5.9,0,0,1-.23,1.39l-.08-1-.38.45a5.06,5.06,0,0,1,0-2.35,2.34,2.34,0,0,0,0-1.15,2.18,2.18,0,0,1,.16-1.88c.16-.22.06-.44,0-.65s-.22-.31-.27-.49a1.59,1.59,0,0,1,0-.5l-.41-.23a5.22,5.22,0,0,1-.18-2.07,1,1,0,0,0-.06-.41,4.51,4.51,0,0,0-.62-1.9c0-.06,0-.16-.06-.24h0c.12-.12.23-.25,0-.37Zm-10.75,26.73a1.07,1.07,0,0,0,.11.2s.09,0,.14,0,0-.17,0-.19a.56.56,0,0,0-.23,0l0-.43-.11,0-.16.35Zm-4.32-25.84c.09-.05.24-.11.24-.16,0-.27,0-.54-.06-.91-.08.43-.14.76-.2,1.08,0,0,0,0,.05.06s0,0,0,.06Zm-.53-5.74a1.42,1.42,0,0,0,.11-.29s-.07-.1-.11-.15-.05.09-.05.13a3.14,3.14,0,0,0,.06.31,2.74,2.74,0,0,1,.29.77,6.93,6.93,0,0,0,.41,1.41,8,8,0,0,0,.23-1.23,7.23,7.23,0,0,0-.17-1.19c-.13.15-.19.28-.27.29s-.23-.07-.35-.1S142.88,148.18,142.84,148.2Zm.46-4.51s-.13.05-.13.09a2.61,2.61,0,0,0,0,1.25,1,1,0,0,1,.07.49,7.23,7.23,0,0,1-.22,1,.54.54,0,0,0,0,.4c.07.18.09.38.15.56s.11.09.17.14.06-.07.06-.1a5.28,5.28,0,0,1,.13-1.93,1,1,0,0,0,0-.5c-.1-.46-.22-.92-.33-1.38,0,0,.13,0,.13-.07,0-.23,0-.47,0-.7h-.12ZM151,115.81c.06,0,.13.07.18.05a2.06,2.06,0,0,0,.33-.16l.19-.46-.32.05.14.41-.44-.38c-.31.09-.61.16-.9.25a1.08,1.08,0,0,0-.35.21c-.24.21-.38.52-.76.6a.83.83,0,0,0-.49.55,3.84,3.84,0,0,1-.5,1,1.81,1.81,0,0,0-.28.68s-.08,0-.12.06l-.28-.39c-.41.39.08.93-.29,1.28h-.57a6.65,6.65,0,0,1-.18.76,3,3,0,0,1-.29.49v0a2.85,2.85,0,0,1-.3.87c-.5.63-.25,1.41-.47,2.09a.17.17,0,0,0,0,.15c.26.2.14.46.11.71s-.1.35-.06.5a4.18,4.18,0,0,1-.17,2,4.26,4.26,0,0,1-.38.82c0,.09.31.24.05.52l-.58-.46c-.41.29-.11.74-.25,1.08,0,0,.06.08.1.13l.41-.26,0,.48,0,0-.45,0a4.94,4.94,0,0,0,0,.78c0,.28.12.55-.12.78a1.53,1.53,0,0,0,.12.19c0,.07.12.15.11.22a22.78,22.78,0,0,1-.19,2.77,6.77,6.77,0,0,0-.19,1.67,7.68,7.68,0,0,0,.2,1.5,8.8,8.8,0,0,1,.23,2.34,1.38,1.38,0,0,0,.15.5,2.14,2.14,0,0,0-.23.46,8.75,8.75,0,0,0,0,2.61,8.42,8.42,0,0,1,0,2.25,3.18,3.18,0,0,0,.05.92c0,.09.13.17.19.25h0a1,1,0,0,0-.22,1,9.66,9.66,0,0,1,0,1.92c0,.41-.12.84.16,1.22l0,0a2.09,2.09,0,0,0-.18.47,6,6,0,0,0,0,1.78,2.35,2.35,0,0,1-.09,1.41,1.08,1.08,0,0,0,0,.41c0,.31,0,.62,0,.93s0,.27.19.31a.64.64,0,0,0,.33-.92c0-.1-.06-.22-.1-.32a.33.33,0,0,1,.13-.41c.16.57.33,1.11.47,1.66a1.84,1.84,0,0,1,0,.66c-.06.42-.14.84-.23,1.25s.16.84,0,1.26c0,.08,0,.21.09.31.1.26.21.52.32.78a2.06,2.06,0,0,0,.19.29c.3.07.18-.4.49-.25a.93.93,0,0,1,0,.24,1.21,1.21,0,0,0,.2,1.19c.11.12.09.37.12.57s0,.5.06.75a2.75,2.75,0,0,1,0,.51,17.18,17.18,0,0,0,0,2.88,3.79,3.79,0,0,1,0,1.26.87.87,0,0,0,.07.4,1.58,1.58,0,0,1,.12.39c0,.73-.07,1.46-.11,2.19a1.86,1.86,0,0,1-.06.25c0,.06,0,.13,0,.16.26.36,0,.71-.07,1a1.22,1.22,0,0,0,.1,1,4.73,4.73,0,0,1,.52,1.21c.06.31.25.14.37.23a3.2,3.2,0,0,0-.06.55c0,.59.1,1.18.13,1.78,0,.33-.07.68.26.93a.29.29,0,0,1,.07.23,1.22,1.22,0,0,0,.15.73,2,2,0,0,1,.1.68c.26.22.45.23.64,0a1.2,1.2,0,0,1,.43-.38,3.61,3.61,0,0,1,.61,0c.24,0,.4.14.61.18a1.38,1.38,0,0,1,1,.89,11.35,11.35,0,0,0,1.33,2.36c.35.51.72,1.1,1.44,1.22.34-.35.35-.35.38-.53.07-.42.14-.84.2-1.25.11-.7.23-1.39.32-2.09a13.85,13.85,0,0,0,.18-1.77,7.21,7.21,0,0,1,.15-1.94,3.5,3.5,0,0,0,0-.76,6.86,6.86,0,0,1,.07-1.18,1.83,1.83,0,0,0,0-.84,4.46,4.46,0,0,1,0-1.51,18.08,18.08,0,0,0,.07-3.05,1.27,1.27,0,0,1,0-.41,6.91,6.91,0,0,0,.2-2.17,8.43,8.43,0,0,1,.11-1.86,3.6,3.6,0,0,0,.07-1.93.41.41,0,0,1,0-.25,4.51,4.51,0,0,0,0-1.42,1.68,1.68,0,0,1,0-.5,4,4,0,0,0,.08-1.18c0-.48,0-1,0-1.44a2,2,0,0,0,0-.51,8,8,0,0,1,0-1.85,7.13,7.13,0,0,1,.12-1.52,1.91,1.91,0,0,0,0-1,2.18,2.18,0,0,1-.08-.91c.06-1.42.14-2.83.22-4.24,0-.54,0-1.08.07-1.61.05-.93.13-1.86.17-2.8,0-.59,0-1.19,0-1.78q0-1.23.09-2.46c0-.81,0-1.63.06-2.44s.13-1.91.2-2.87c0-.56.13-1.13.12-1.69,0-1.56.05-3.11.13-4.66.09-1.75.13-3.51.19-5.26a4.92,4.92,0,0,1-.05-.67c.1-.56,0-1.11,0-1.67a5.15,5.15,0,0,0-.17-1.34A1,1,0,0,0,157,118c-.17-.26-.38-.49-.53-.76a3.76,3.76,0,0,0-1.39-1.33,1,1,0,0,0-1-.08,7.12,7.12,0,0,1-.91.34v-.63c-.08,0-.12,0-.13,0-.37.37-.86.64-1,1.19a.78.78,0,0,1-.25.34,1.91,1.91,0,0,0-.65,1.16,2.06,2.06,0,0,1-.61,1.19,2.18,2.18,0,0,0-.68,1.23,3.24,3.24,0,0,1-.29.88,2,2,0,0,0-.33,1.2c0,.06-.08.12-.15.23a1,1,0,0,1-.08-1.12c0-.07,0-.17.09-.24.43-.54,0-1.23.3-1.79a.37.37,0,0,0,0-.25c0-.16-.11-.31-.17-.47l-.16-.39a1.6,1.6,0,0,0-.13,1.23,1.62,1.62,0,0,1-.06,1.16,9.89,9.89,0,0,0-.61,1.65,1.65,1.65,0,0,1-.25.36c-.09-.25-.16-.4-.21-.56s0-.34-.23-.42a1.86,1.86,0,0,0-.13.56,1.67,1.67,0,0,0,.21.5l-.22.65.38.47a.28.28,0,0,0-.34.16c-.21.41,0,.69.26,1a2.47,2.47,0,0,0,.05-1.22c.25-.24.28-.65.7-.85a5,5,0,0,0-.18.88c0,.33.13.67.1,1a5.76,5.76,0,0,1-.29,1,3.13,3.13,0,0,0-.06.42c-.08.61-.16,1.22-.26,1.83a1.21,1.21,0,0,1-.16.38c-.06.1-.17.18-.27.1a.29.29,0,0,1,0-.28,3.15,3.15,0,0,0,.4-1.79c0-.11,0-.23-.2-.17-.12.57-.25,1.15-.36,1.72-.17.83-.33,1.66-.48,2.49a2.23,2.23,0,0,0,0,.84,1.23,1.23,0,0,1-.16,1,.92.92,0,0,0-.08.49c0,.31,0,.61,0,.92a3,3,0,0,0,.11,1.57c.07.13,0,.33,0,.4s-.33.39-.31.42c.19.28,0,.54,0,.81a4,4,0,0,0,.09,1.75c-.11.29.1.62-.15.88,0-.07,0-.15,0-.22s0,0,0-.05-.09.09-.08.1a.59.59,0,0,1,0,.86,3.38,3.38,0,0,1,.18,1c0,.56-.1,1.11-.11,1.66a.75.75,0,0,1-.33.59.93.93,0,0,1-.11-.26,6.6,6.6,0,0,1,0-1.35,3.06,3.06,0,0,0-.14-1.56,1.78,1.78,0,0,1,.15-1.77.77.77,0,0,0,.09-.39c0-.2,0-.4,0-.59a2.13,2.13,0,0,0-.2-1.39.57.57,0,0,1-.07-.32c.05-.57-.24-1.16.14-1.72a.87.87,0,0,0,.06-.58,3.88,3.88,0,0,1,.18-1.66,7,7,0,0,0,.24-1.9c0-.16-.11-.16-.27-.12a3.89,3.89,0,0,1,0,.49.26.26,0,0,1-.27.27l0,0c0-.51,0-1,0-1.52,0,0,.06,0,.1-.07.09.13,0,.42.33.4a6.45,6.45,0,0,1-.28-2.33,1.05,1.05,0,0,0,0-.17,1.44,1.44,0,0,1,.12-.82,1.55,1.55,0,0,0,.13-.57,5.38,5.38,0,0,0,0-.58c.2-.21.48-.36.52-.56a4.31,4.31,0,0,0,0-1.33,1.2,1.2,0,0,1,.07-.65,7.51,7.51,0,0,1,.47-1,7.24,7.24,0,0,0,.45-1.17,11.68,11.68,0,0,1,.67-1.17c.06-.12,0-.28.08-.41.17-.38.36-.76.54-1.14.37,0,.36-.33.43-.6a1.39,1.39,0,0,1,.85-1.08,1.67,1.67,0,0,0,.83-.68Zm10,20.58c0,.47,0,.89,0,1.3a2.82,2.82,0,0,1,0,.76,4.08,4.08,0,0,0,0,1.84,3.84,3.84,0,0,1,0,1.24,2.11,2.11,0,0,0-.09.83,1.21,1.21,0,0,1-.21,1,2.26,2.26,0,0,0-.14,1.46,2.73,2.73,0,0,1,.06.83,3.86,3.86,0,0,0,.09,1.58,3.31,3.31,0,0,0,.25-.86,3.64,3.64,0,0,1,.39-1.37c.18-.32.31-.68-.06-1,0,0,0-.1,0-.15a13.11,13.11,0,0,1,.17-1.33,20.8,20.8,0,0,0,.24-2.18.3.3,0,0,0-.19-.33c-.17-.08-.2-.27,0-.37a.34.34,0,0,0,.21-.41c-.08-.43.07-.92-.31-1.28-.06-.06,0-.21,0-.32,0-.31,0-.61,0-.92S161.31,136.39,161,136.39Zm-15,36.87a4.26,4.26,0,0,0-.1.59c0,.25.06.5,0,.75a4.74,4.74,0,0,0,.19,2.3c0,.07,0,.17,0,.25s.08.07.12.1l.19-.26.41.38c0-.28,0-.41,0-.53s-.08-.21.06-.28.09-.24.11-.37a2.1,2.1,0,0,0-.18-1.23,2.16,2.16,0,0,1-.22-.63A1.6,1.6,0,0,0,146,173.26Zm-3-36.54c.42-.15.4-.44.43-.66s-.05-.39,0-.58a9,9,0,0,0,0-2.92.92.92,0,0,1,0-.41,3.69,3.69,0,0,0,.16-.38c0-.09-.07-.2-.11-.3-.24.12-.34-.27-.62-.14l.34,1a2,2,0,0,0-.19,1.23,6,6,0,0,1,0,1.68A11.16,11.16,0,0,0,142.94,136.72Zm.35,1.79-.09,2.55c.36,0,.45-.13.42-.36a2.52,2.52,0,0,1-.13-.9A2.28,2.28,0,0,0,143.29,138.51Zm17.76,46.15c.43-.52.24-1.1.21-1.71-.24.33-.34.48-.22.75A1.56,1.56,0,0,1,161.05,184.66ZM159.75,137c.16-.65.34-1.15,0-1.65-.3.42,0,.88-.14,1.3C159.56,136.7,159.64,136.78,159.75,137Zm-16.55-6a1.09,1.09,0,0,0,.44-1c0-.18-.11-.31-.37-.26A6.4,6.4,0,0,0,143.2,131Zm1.73-5.36a2.74,2.74,0,0,0-.38,1.78A4.63,4.63,0,0,0,144.93,125.6Zm16.81,56.66a.91.91,0,0,0,0,1.08c.33-.16.29-.43.28-.67S161.87,182.46,161.74,182.26Zm-.22-16.45.12-.06v-.64a.8.8,0,0,0-.26.45C161.37,165.64,161.47,165.73,161.52,165.81Zm-1.25-5.39c-.4.51-.41.67-.14,1.06Zm-2.3-9.67c0,.2-.05.36-.06.51a2,2,0,0,0,.05.34C158.23,151.12,158.23,151.12,158,150.76Zm.64-13.48a.29.29,0,0,0-.13.36.17.17,0,0,0,.14.06c.19-.06.14-.21.11-.34S158.66,137.3,158.62,137.27Zm-12.43,31c-.17-.22-.09-.5-.33-.77v.83Zm-.12-5.91a2.11,2.11,0,0,0-.13-.75h-.07C145.58,161.9,145.6,162,146.07,162.38Zm14.1,1.39c.24-.29.24-.29-.05-.6Zm-2.44-6.31c.24-.1.34-.25.18-.53Zm2.16,19.66.11,0a.26.26,0,0,0,.12-.34.14.14,0,0,0-.12-.06c-.16,0-.18.17-.16.31A.72.72,0,0,0,159.89,177.12Zm-16.13-25.6c-.3,0-.3,0-.24.6Zm16,.6.24-.61C159.59,151.69,159.58,151.86,159.72,152.12ZM147.5,178.23l-.06,0,.13.25s0,0,.06,0,.07-.11.05-.13A1.57,1.57,0,0,0,147.5,178.23Zm10-20.53a1,1,0,0,0-.15.21s0,.09.07.13.14-.06.15-.11S157.53,157.81,157.49,157.7ZM157.21,147h-.07v.26h.06Zm0,1.16.15,0,0-.37h-.09Zm.12.67-.08,0a.24.24,0,0,0-.06.35.09.09,0,0,0,.07,0c.16-.07.14-.2.12-.33S157.38,148.8,157.36,148.79Zm-12,29c.12-.13.19-.26,0-.44Zm12.11-14.88a1.27,1.27,0,0,0,.21-.15s0-.09,0-.14-.15,0-.19,0S157.48,162.74,157.46,162.86Zm-.76,21.21c-.28.22-.28.22,0,.42Zm2.86-50.85a1,1,0,0,0-.07.14s0,.05,0,.05l.11-.1Zm-2.05,11.2s.07-.08.08-.12,0-.09-.07-.14a.7.7,0,0,0-.11.16S157.47,144.4,157.5,144.43Zm.63,11.75s0,0-.06,0,0,0-.06,0,0,0,.05,0S158.11,156.19,158.13,156.18Zm-.41-13.65s0,0,0-.05l0,0,.07.08Zm-14.51-5h0a.21.21,0,0,0,0,.07l.08,0Zm16.84,40.19s0,0,0,.06,0,0,0,.07,0,0,0-.06S160.06,177.7,160.05,177.68Zm2.26-1.14-.08-.11s-.06,0-.05.06a.82.82,0,0,0,0,.15Zm-1.57,3.8h-.05s0,0,0,.06h.09Z" class="cls-4"/><path d="M161.53,155.78l-.12-1.16h0a.19.19,0,0,0-.06.05l-.14.16a2.33,2.33,0,0,1,.31-2,.54.54,0,0,0,.12-.55,1.4,1.4,0,0,1,.1-1.06,2.63,2.63,0,0,0,.13-1.54c0-.17-.09-.4.21-.51a8.36,8.36,0,0,1,.24,2.41,1.91,1.91,0,0,1-.18.8,1.47,1.47,0,0,0-.08,1.07,2.7,2.7,0,0,1,0,1.26,1.48,1.48,0,0,0,0,.5,2.33,2.33,0,0,1,0,1.09,1.83,1.83,0,0,0,0,.58c0,.13,0,.27,0,.42-.35-.08-.23-.32-.25-.5s0-.4-.34-.45c-.14.51.07,1-.09,1.56-.09,0-.17-.08-.16-.09a4.35,4.35,0,0,0,0-1.35A.71.71,0,0,1,161.53,155.78Z" class="cls-4"/><path d="M159.64,168.93c-.36-.14-.07-.61-.38-.76v-.92l-.24.26s-.09-.08-.09-.11q.18-.9.38-1.8s.08-.06.18-.13.17.13.19.22a1.48,1.48,0,0,1,.08,1.13.89.89,0,0,0,0,.48A3.16,3.16,0,0,1,159.64,168.93Z" class="cls-4"/><path d="M159.37,141.92c.13.28.27.55.39.84s0,.49-.15.72-.12.25-.28.26-.19-.21-.15-.42a2.7,2.7,0,0,0,.08-.66,1.22,1.22,0,0,1,.13-.73Z" class="cls-4"/><path d="M158.63,164.21a3.61,3.61,0,0,1,.29,1.82C158.43,164.94,158.43,164.94,158.63,164.21Z" class="cls-4"/><path d="M162.36,129.23a2.25,2.25,0,0,1-.07,1.38A1.71,1.71,0,0,1,162.36,129.23Z" class="cls-4"/><path d="M159.19,145a1,1,0,0,1-.21.74l0-.73Z" class="cls-4"/><path d="M162.47,146.33c-.14-.32-.34-.53,0-.8Z" class="cls-4"/><path d="M161.23,117.25l-.19-.69a.14.14,0,0,1,.23.12,4.13,4.13,0,0,1,0,.57Z" class="cls-4"/><path d="M158,168.07a2.63,2.63,0,0,1,0-.38s.07,0,.11-.07.06.1,0,.13A2.15,2.15,0,0,1,158,168.07Z" class="cls-4"/><path d="M162.48,127.56v.32h-.07l0-.31Z" class="cls-4"/><path d="M162.2,131.84l0-.28h.13c0,.09,0,.18,0,.27Z" class="cls-4"/><path d="M160.53,116a.83.83,0,0,1,0-.15.4.4,0,0,1,0-.1s0,0,0,0a.11.11,0,0,1,0,.07l-.09.13Z" class="cls-4"/><path d="M159.53,138.18a.8.8,0,0,1,0,.13s0,0-.05,0-.05,0-.05,0A.84.84,0,0,1,159.53,138.18Z" class="cls-4"/><path d="M158.44,153.38c-.07-.11-.3-.23,0-.34l0,0v.37Z" class="cls-4"/><polygon points="158.2 152.48 158.18 152.53 158.16 152.48 158.2 152.48" class="cls-4"/><path d="M145.68,152.69a.76.76,0,0,1-.54-.67,7.64,7.64,0,0,0-.16-.91,1.14,1.14,0,0,0-.16-.28l0,0a1.8,1.8,0,0,1,0-1.4,2.15,2.15,0,0,0,.05-1.71,1.16,1.16,0,0,1,0-.71,3.58,3.58,0,0,0-.21-2,2.84,2.84,0,0,1,.37-.48.37.37,0,0,1,.56.17.88.88,0,0,1,.07.33,13.15,13.15,0,0,1-.13,1.51,2.9,2.9,0,0,0,0,1.26,2.28,2.28,0,0,1-.13,1.49.87.87,0,0,0,0,.72,2.06,2.06,0,0,1,.12.91,4.63,4.63,0,0,0,.13,1.74Z" class="cls-4"/><path d="M145.66,152.7c.24.05.3.26.3.45s0,.62,0,.93a8.77,8.77,0,0,0-.06,1,1.58,1.58,0,0,1-.22.82,2.54,2.54,0,0,1-.24-1.83c.11-.46.19-.93.28-1.39Z" class="cls-4"/><path d="M145.62,124.19c.09-.29.19-.44.15-.54a1.34,1.34,0,0,1,.18-1.2,1,1,0,0,0,.08-.64c0-.11.1-.23.22-.49.07.49.18.81,0,1.12a2.16,2.16,0,0,0-.27,1.21.83.83,0,0,1-.08.32S145.83,124,145.62,124.19Z" class="cls-4"/><path d="M146.91,172.47c.31.17.51.36.39.75a1.35,1.35,0,0,0,0,.44C147.05,173.37,147,173.23,146.91,172.47Z" class="cls-4"/><path d="M146.65,143.52V145l0,0s-.05,0-.05-.06c0-.47,0-.94,0-1.42Z" class="cls-4"/><path d="M144.63,129.37a.26.26,0,0,1,.28.24,1.34,1.34,0,0,1-.1.88c-.27-.16-.1-.38-.12-.56s0-.38,0-.57Z" class="cls-4"/><path d="M144.5,150.78l.35.07,0,0-.1.42c-.27-.11-.23-.3-.2-.48Z" class="cls-4"/><path d="M146.53,146l-.06.31h-.05V146Z" class="cls-4"/><path d="M145.65,131.23l0,.62c-.12-.32-.19-.49.06-.6Z" class="cls-4"/><path d="M144.54,135.1l.05,0a.09.09,0,0,1,0,.07s0,0,0,0Z" class="cls-4"/><path d="M147,172.2c-.05-.06-.11-.1-.11-.13a.69.69,0,0,1,.09-.17s.05,0,.05.06S147,172.1,147,172.2Z" class="cls-4"/><path d="M146.09,120.78a1.12,1.12,0,0,1,.22-.07s.06.07.07.12a.08.08,0,0,1,0,.06.2.2,0,0,1-.12,0,.89.89,0,0,1-.11-.11Z" class="cls-4"/><path d="M146.61,155.1l0,.15h-.11c0-.05,0-.1,0-.16Z" class="cls-4"/><path d="M146.26,159.09a.82.82,0,0,1-.1-.11s0,0,0-.07.1,0,.11,0A.46.46,0,0,1,146.26,159.09Z" class="cls-4"/><path d="M151,115.81l-.24.1,0-.09H151Z" class="cls-4"/><path d="M144.76,141.24l0,.06-.06-.08.05,0Z" class="cls-4"/><path d="M144.57,146.63s0,.1,0,.15a.48.48,0,0,0,0,.08s0-.06,0-.09a.65.65,0,0,1,0-.14Z" class="cls-4"/><path d="M146.31,176.34l0,.07a.42.42,0,0,1-.07-.08s0,0,0-.05Z" class="cls-4"/><path d="M188.23,130.76l.24-.57-.39-.21c-.25.29-.29.73-.74.79-.08,0-.21.29-.19.43a13.5,13.5,0,0,1,0,1.86,10.15,10.15,0,0,0,.12,1.34c.08.58.21,1.16.29,1.75a3.61,3.61,0,0,1,.05,1.26,10.57,10.57,0,0,1-.32,2.21c.18.11.26,0,.29-.08s.13-.49.2-.73.09-.25.17-.45a4.79,4.79,0,0,1,.51,2.23,1,1,0,0,1-.13.39c-.1.23-.21.46-.35.79.14.75.33,1.57.44,2.41s0,1.62.15,2.44a20.66,20.66,0,0,1,0,2.57l-.38,0s-.07.1-.06.14c.07.3-.09.62.11.91,0,0,0,.14-.07.2s-.19.16-.2.24c-.06.77-.42,1.54,0,2.32a1.71,1.71,0,0,1,.07.23l.28-.44c.06,0,.13.07.14.11a8.15,8.15,0,0,1,.17,1c.06,1,.11,1.92.14,2.88,0,.36,0,.72,0,1.08a6.07,6.07,0,0,0,0,1.52.92.92,0,0,1-.1.48s-.13,0-.25.08c-.08-.32.07-.66-.2-.9,0,0,0-.16,0-.24,0-.3.09-.61.15-1l-.32-.18.14-1.71c-.28-.1-.55-.15-.63-.51-.49.56-.17,1,0,1.59-.28.56-.2,1.27-.57,2a1.76,1.76,0,0,1-.06-1.32,1.4,1.4,0,0,0,0-1.07,4.27,4.27,0,0,1-.13-1.43c0-.85-.06-1.69-.1-2.54,0-.33-.24-.47-.58-.66a14.48,14.48,0,0,0-.15,3.09,1.43,1.43,0,0,0,.15.55,1,1,0,0,1,.08.74,1,1,0,0,0-.07.15s0,0,.06.07a.53.53,0,0,0,0-.08c0-.05,0-.11,0-.16.07.12.19.23.19.35a1.15,1.15,0,0,1-.12.57,2.32,2.32,0,0,0-.16,1.69l.68.41a5.33,5.33,0,0,1-.76,2.31c-.08.11,0,.32,0,.49a5.74,5.74,0,0,1,.07.58.5.5,0,0,1-.16.36.78.78,0,0,0-.3.75c0,.2,0,.4,0,.59s-.07.45-.36.5-.22.4-.4.59a4.23,4.23,0,0,0-.63,1.08,1.35,1.35,0,0,0,0,.45l.52-.13s.09.08.09.12a2.8,2.8,0,0,1-.21.93l-.15-.44-.23.41c.13.42.27.79.36,1.17a1.72,1.72,0,0,1,.09.82,5.31,5.31,0,0,0,0,1.66,8.14,8.14,0,0,0,.38,1.87c.09-.17.19-.27.18-.36a6.48,6.48,0,0,1,.3-2.41,9.09,9.09,0,0,0,.1-.91c-.17-.08-.34-.11-.41-.21a.87.87,0,0,1-.13-.47c0-.34,0-.67.06-1,.26-.13.38.16.6.24a.77.77,0,0,0,.37-.69c0-.41.12-.84-.11-1.24a.61.61,0,0,1-.06-.32c0-.37,0-.73.08-1.09a1,1,0,0,1,.12-.49.77.77,0,0,0,.1-.86c0-.1.06-.26.11-.44.4.23.32.61.39.9s-.32.52-.35.84.41.47,0,.69a.4.4,0,0,0-.06.37,3.53,3.53,0,0,1,.59,1.39l.13.35c.27-.19,0-.59.33-.71v0s0,.06,0,.08a12.26,12.26,0,0,1,.22,2.17,3.21,3.21,0,0,1-.17,1.5,3,3,0,0,0-.1,2.22.39.39,0,0,1-.1.46.55.55,0,0,0-.11.63,3.76,3.76,0,0,1,.19,1.67c0,.5.06,1,0,1.52a8.71,8.71,0,0,0,.17,2.26,2.25,2.25,0,0,1,0,1.18.44.44,0,0,0,.21.58l0,0a2.58,2.58,0,0,0,0,.82,5.56,5.56,0,0,1,.23,2.34,10,10,0,0,0,0,2.27.7.7,0,0,1-.05.23c-.35,0-.24-.34-.36-.49-.08,0-.15.07-.16.1-.12.49-.23,1-.35,1.53l-.44,0,.6-1.53c-.58.08-.62.1-.69.47s0,.61-.31.83c-.11.08-.05.26,0,.38a.56.56,0,0,1,0,.69,5.27,5.27,0,0,0-.74-.08c-.27,0-.38.11-.4.43a1.44,1.44,0,0,1-.42.81c-.22.28-.54.25-.87,0l-.21.94-.37-.52c-.35,0-.54.28-.86.46.29.2.42,0,.58,0a.21.21,0,0,1,.19.08.21.21,0,0,1-.07.2,2.24,2.24,0,0,1-.39.14l-1,.31a2,2,0,0,1-1.71,0,.45.45,0,0,0-.39,0c-.18.12-.33,0-.49,0s-.05-.2-.08-.29a.08.08,0,0,0-.07,0,.25.25,0,0,0-.06.1l.24.18c-.18.16-.3.41-.62.35a.2.2,0,0,0-.15.06c-.11.11-.16.34-.38.23s-.2-.19-.33-.33l-.28.22a4.72,4.72,0,0,1-.57-.31c-.29-.21-.68-.18-1-.46s-.58-.38-.83-.64-.35-.17-.48-.3a2.77,2.77,0,0,1-.34-.47l-.52.28,0-.47h-.5l-.24-.69c-.19-.21-.55,0-.65-.38,0-.07-.24-.11-.37-.11a4.5,4.5,0,0,0-.61.09c-.26-1.19-.71-2.29-.85-3.48a4.57,4.57,0,0,0-.48-1.34.63.63,0,0,1-.09-.47,2.93,2.93,0,0,0-.21-2,2.73,2.73,0,0,1-.32-1.64c0-.11-.1-.25-.16-.37a3,3,0,0,1-.34-2,1.33,1.33,0,0,0-.17-.89,1.23,1.23,0,0,1-.06-.9c.09-.38.22-.76.28-1.15a6.37,6.37,0,0,0,0-1c0-1,.21-1.91.28-2.87a30.92,30.92,0,0,0,.11-3.9,7.34,7.34,0,0,1,.1-2.34.94.94,0,0,0-.06-.5,4,4,0,0,1-.14-1.6,4.28,4.28,0,0,0,0-.59,6.45,6.45,0,0,1,.07-1,18,18,0,0,0,0-2.11c0-.11-.1-.22-.08-.33a9.26,9.26,0,0,0-.1-2.08,4.37,4.37,0,0,1,0-1.75.33.33,0,0,0,0-.17,2.91,2.91,0,0,1,.15-1.65,4.43,4.43,0,0,0,.13-1,17.27,17.27,0,0,0,.17-2,10.45,10.45,0,0,1,.12-1.6,2.81,2.81,0,0,1,.11-.58,4.2,4.2,0,0,0,.25-1.48,2.19,2.19,0,0,1,.14-.91,1.66,1.66,0,0,0,.08-1.16,3.2,3.2,0,0,1,.15-1.56,6.32,6.32,0,0,0,0-1.94.73.73,0,0,1,0-.33,4.5,4.5,0,0,0,.1-1.68c0-.87.06-1.74.15-2.61a14.18,14.18,0,0,0,.19-3,.54.54,0,0,1,.1-.4c.29-.27.21-.61.27-.93a11.28,11.28,0,0,1,.3-1.65,3,3,0,0,0,.11-1,10.13,10.13,0,0,1,.19-2.44c.2-.88.39-1.75.55-2.64a2.58,2.58,0,0,1,.16-.39c0-.13.15-.29.11-.4-.1-.34-.18-.65.13-.92a2.52,2.52,0,0,1,.32-1.66c.17-.5.37-1,.58-1.48a14.69,14.69,0,0,1,.73-2,.4.4,0,0,0,0-.25c-.11-.75.38-1.18.83-1.65a1.73,1.73,0,0,0,.32-.39,4.76,4.76,0,0,1,1.11-1.27,4.61,4.61,0,0,1,2.3-1,9.65,9.65,0,0,1,3.38,0,4.33,4.33,0,0,1,1.94.76l.52-.23a1.38,1.38,0,0,0,.67.81,4.45,4.45,0,0,1,1.38,1.46c.15.24.27.49.43.77l.37-.4a3.94,3.94,0,0,1,1.25,2.52,19.15,19.15,0,0,1,.13,3,2.33,2.33,0,0,1-.14,1.08,1,1,0,0,0,0,.42c0,.14.08.31,0,.42-.23.44-.07.89-.1,1.34a6.42,6.42,0,0,1-.28,1.74,1.64,1.64,0,0,0,0,1.16,1,1,0,0,1,0,.41c0,.28,0,.55-.07.9l.49-.06c0,.13.09.31,0,.37-.3.32-.15.68-.13,1,0,.17.07.33.06.49,0,.34-.07.39-.55.44Zm-4.58,51.94c-.08.16-.28.32,0,.52l0-.52-.15,0h-.1a.45.45,0,0,1,.13-.08A.22.22,0,0,1,183.65,182.7Zm2.17-50.54a.26.26,0,0,0,.39-.14c0-.09-.07-.23-.13-.33s-.12-.09-.19-.13c0-.23-.09-.34-.32-.47l-.14.62.48-.17c0,.21,0,.42-.06.63a.44.44,0,0,0-.07.14s0,.06.07.09,0,0,0,0S185.85,132.22,185.82,132.16Zm2.22,15c-.2,0-.31.12-.29.32s.07.38.08.57,0,.37,0,.6c.38-.6.39-.6.18-1.12a.34.34,0,0,1,0-.38v-.36h0Zm-15.89,16-.27-.43c-.18.34,0,.39.21.41h.08c-.07.4.38.27.48.48a2.93,2.93,0,0,1,0,1.42l-.4-.77c0,.23,0,.31,0,.39a1.2,1.2,0,0,0,.4,1.13,1.53,1.53,0,0,1,.44,1,5,5,0,0,0,.17,1,.57.57,0,0,1-.11.63s-.09,0-.14,0c-.18-.15.05-.46-.23-.58l-.31.28a5.84,5.84,0,0,0-.15-.72c0-.25-.28-.47-.4-.71a.93.93,0,0,1-.09-.49c0-.37-.13-.62-.4-1,0,.68.11,1.23.06,1.78a.45.45,0,0,0,.29.47.43.43,0,0,1,.22.32,13.2,13.2,0,0,1,.06,2,.91.91,0,0,0,.34.87c.4-.1.14-.42.23-.62.59.17.26.7.47,1.06l-.56-.06c-.36.43.19.74.09,1.13l-.62-.24a.43.43,0,0,0,0-.14s0-.05-.08-.08a.19.19,0,0,0,0,.07s0,.09.05.14c0,.55.25,1.08.11,1.65,0,.07.05.16.08.23l.51,1.21c.27,0,.43.25.55.51.3.66.6,1.32.9,2a.39.39,0,0,1,0,.16c0,.11,0,.23-.21.23a1.36,1.36,0,0,0-.76-1.1l0,0c0-.3-.09-.61-.12-.92a.62.62,0,0,0-.29-.57.46.46,0,0,0-.54.05,1,1,0,0,0,0,.83,3.36,3.36,0,0,1,.24,1.4.38.38,0,0,0,0,.24.88.88,0,0,1,0,1c-.1.19,0,.31.16.41l.41-.23a1.19,1.19,0,0,1,.12.29c0,.25,0,.49,0,.74l0,0-.46-.3c0,.08-.08.15-.06.18a5.93,5.93,0,0,1,.55,2.11,1.86,1.86,0,0,0,.43,1.15c.37,0,.55-.16.56-.51,0-.14,0-.28,0-.42s0-.28.24-.32c.19.16.37.52.66.38s.66.16,1,.09.59.29.88.37l.54-.23,1.41,2.26a2.8,2.8,0,0,0,2,1.28c-.07-.6.26-1.1.17-1.69a3.31,3.31,0,0,1,.27-1.73,1,1,0,0,0,0-.9,1.31,1.31,0,0,1-.13-1.05,2.23,2.23,0,0,0,.08-1.31,1.07,1.07,0,0,1,0-.49,2.32,2.32,0,0,0,.1-1.81.41.41,0,0,1,0-.17c0-1,0-1.93.06-2.89.08-.79.09-1.58.11-2.37s0-1.75,0-2.63c0-.28.08-.56.1-.84a2.25,2.25,0,0,0,0-.76c-.09-.3.08-.54.09-.82.07-1.21.21-2.42.29-3.64a6.87,6.87,0,0,0,0-1.78,3.58,3.58,0,0,1,0-1.18c.17-1.15,0-2.31.11-3.47,0-.7-.13-1.42-.07-2.11.1-1.13-.08-2.26,0-3.39.06-1.35,0-2.71,0-4.07,0-1-.05-2.08-.09-3.12a40.16,40.16,0,0,1,.38-6.53c.14-1.06.17-2.14.22-3.22,0-.85,0-1.7.07-2.54.07-1.38.25-2.75.21-4.14,0-1.1.09-2.2.13-3.31,0-.74.06-1.47,0-2.21,0-1-.06-1.92-.12-2.89a6.19,6.19,0,0,0-.2-1.43,2.76,2.76,0,0,0-1.51-1.89c-.24.47-.46.92-.7,1.35a.49.49,0,0,1-.31.24c-.22,0-.23-.2-.27-.36s-.08,0-.17-.09a3,3,0,0,0-.24,1.22c0,.22-.06.45,0,.67s-.29.33-.48.47a1.51,1.51,0,0,1,.1.56,8.39,8.39,0,0,1-.44,1.45,7.35,7.35,0,0,0-.53,1.32c0,.06-.11.1-.24.2l0-.59-.34,0a4.51,4.51,0,0,0,.47-.45.51.51,0,0,0,.05-.63l.1-.1-.08.12c-.06-.08-.17-.17-.17-.25,0-.28.05-.56.07-.84,0-.07-.05-.14-.1-.26l-.67.87,0-.61-.2.48.24.11-.32.4a4.83,4.83,0,0,1-.19,1.65c.11.6-.25,1.09-.36,1.64,0,.05-.12.08-.26.18l.09-.82c0-.22.05-.45.08-.67s.08-.67.09-1a11.23,11.23,0,0,1,.26-2.09.82.82,0,0,0,0-.42,1.28,1.28,0,0,1,.14-1,6.64,6.64,0,0,1,.66-1.37.75.75,0,0,0,.11-.48c0-.3-.1-.6-.15-.89-.55.22-.61.54-.9,1.14-.19.4-.35.82-.57,1.2a.89.89,0,0,0-.2.53c0,.31,0,.63-.34.81,0,0,0,.09,0,.14,0,.51-.26,1,.06,1.54,0,0,0,.1,0,.19a1.12,1.12,0,0,0-.19-.14,1.33,1.33,0,0,0-.26-.05,3.15,3.15,0,0,1,.09,1.41l-.47-.35a1,1,0,0,0-.14.29c0,.23,0,.45,0,.68a3.58,3.58,0,0,1-.6,2.14c0,.08,0,.15,0,.19a1.07,1.07,0,0,1,.14.94c-.12.75-.34,1.48-.42,2.24a2.91,2.91,0,0,1-.4,1.28c-.24-.24-.25-.23-.29-.74a.91.91,0,0,0,.31-.73c.07-.61-.23-1.21,0-1.83.05-.14-.09-.35-.17-.61-.09.14-.18.21-.17.27a3.79,3.79,0,0,1-.18,1.5,5.44,5.44,0,0,0-.09.58,6.32,6.32,0,0,0,.25,1.82,5.9,5.9,0,0,1,.09.75,11.92,11.92,0,0,0,0,2.26c0,.1-.05.21-.07.32a3.87,3.87,0,0,0-.08.58c0,.65,0,1.3,0,1.95a2.87,2.87,0,0,1-.16,1.24,1,1,0,0,0,0,.57,1.45,1.45,0,0,1,0,1,3.67,3.67,0,0,0-.32-.39c-.11-.1,0-.37-.31-.34a2.74,2.74,0,0,1,.25.51,2.63,2.63,0,0,1,0,.54l.46.17a1.36,1.36,0,0,1-.18,1.08,1.65,1.65,0,0,1-.22-.29c-.09-.21-.14-.43-.24-.63a.16.16,0,0,0-.28,0,12,12,0,0,1,.13,1.65c0,.4.21.55.49.74,0,.63,0,1.25-.07,1.86a1.35,1.35,0,0,1-.21.44l-.29-.59a1.57,1.57,0,0,0-.21.94l.53-.37c0,.25,0,.5,0,.75a7,7,0,0,1-.15,1.74c-.09.32-.32.61-.37.93s.06.67,0,1a5.68,5.68,0,0,1-.26,1.2,1.1,1.1,0,0,0-.06.73c.08.24,0,.47-.22.85l-.29-1.89c-.14,0-.2.08-.18.2.08.59.17,1.17.26,1.76a4.93,4.93,0,0,1,.21,2,.4.4,0,0,0,.05.24,2.06,2.06,0,0,1,.08,1.25,9.11,9.11,0,0,0-.15,1.16,7.1,7.1,0,0,0,.63,2,15.42,15.42,0,0,1,.5,1.61c-.12.29,0,.54.08.82.15.72.27,1.44.39,2.16a.28.28,0,0,1-.17.35,3,3,0,0,0-.29-.78,1.81,1.81,0,0,1-.3-1.28,2.85,2.85,0,0,0,0-.59,5.81,5.81,0,0,0-.44-1.9,3.26,3.26,0,0,0-.14,1.43,1.86,1.86,0,0,0,.09,1.37l-.29.25.26.7h.58A.94.94,0,0,1,172.14,163.22Zm14.58-22.43a3.45,3.45,0,0,0-.34.49,2.73,2.73,0,0,0,0,1.34c0,.37.14.73-.18,1-.07.07-.07.21-.07.32,0,.59,0,1.19-.07,1.78a.86.86,0,0,1,0,.33,1.08,1.08,0,0,0,0,1.26.13.13,0,0,1,0,.08c0,.61.19,1.25-.31,1.75.24.68.46,1.32.69,2a2,2,0,0,0,.25.53c.14.18.22.45.56.48,0-.52.07-1,.07-1.47a1.44,1.44,0,0,1,.06-.75.3.3,0,0,0,0-.24,1.25,1.25,0,0,1,0-.91.6.6,0,0,0,0-.41A5.48,5.48,0,0,1,187,147a.72.72,0,0,1,0-.49c.06-.13.24-.2.35-.27,0-.49,0-.95-.06-1.4a4.42,4.42,0,0,0-.25-1.24c-.36-.84-.41-.94-.3-1.54a5,5,0,0,0,.12-.58A3.81,3.81,0,0,0,186.73,140.79ZM185,151.46a.84.84,0,0,1,.08.21c0,.13.05.23.2.18a.28.28,0,0,0,.13-.19.45.45,0,0,0,0-.25,1.84,1.84,0,0,1-.2-1.53s0-.11,0-.16a1.2,1.2,0,0,1,.11-1.06c.05-.11.08-.23.15-.44a1.94,1.94,0,0,1-.3.23,1.21,1.21,0,0,0-.75,1.21,2.26,2.26,0,0,0,.08.75,1.47,1.47,0,0,1,0,.83c-.08.33-.14.66-.22,1l.28.59c.1.21-.07.51.29.71a3,3,0,0,1,.11-.76.71.71,0,0,0-.07-.79C184.73,151.81,184.77,151.62,185,151.46Zm.07,11.06a.68.68,0,0,0,.31-.69,1.43,1.43,0,0,1,.36-1.08.74.74,0,0,0,.07-.88,4.84,4.84,0,0,1-.36-1.36c-.05-.2-.07-.41-.13-.78a2.93,2.93,0,0,0,.07,1.82.45.45,0,0,1,0,.39,2.39,2.39,0,0,0-.35,1.24A7.42,7.42,0,0,0,185.06,162.52Zm-.55,15.18a8.12,8.12,0,0,0-.19,3.94s.07,0,.08,0c.11-.46.24-.91.32-1.38,0-.23-.2-.06-.33-.16.15-.58,0-1.25.51-1.77a.41.41,0,0,0,.07-.53Zm-.69-.08A.45.45,0,0,0,184,177a1.2,1.2,0,0,1-.05-1,5.05,5.05,0,0,0,.1-1.47c-.3,0-.29.2-.37.33-.22.39,0,.77,0,1.14l-.31.47c.27.29.31.3.26.44A.55.55,0,0,0,183.82,177.62Zm.8-29.76c.08-.34.15-.57.18-.81a5.65,5.65,0,0,0,0-.81c0-.24.17-.49,0-.75-.39.12-.65.34-.61.79s.08.78.15,1.16C184.39,147.56,184.5,147.66,184.63,147.86Zm-12.28-16.67a11.19,11.19,0,0,0,.06,2.89l.35-2.53Zm1.77-7.47c-.71,1-.75,1.12-.45,1.77C173.94,124.89,174.36,124.4,174.12,123.72Zm9.62,49.34-.07,0a5.06,5.06,0,0,0,.1.56c0,.05.12.1.2.11s.11,0,.13-.09a1.33,1.33,0,0,0-.06-1.2.35.35,0,0,0-.27-.12c-.12,0-.17.13-.14.25S183.7,172.9,183.74,173.05Zm.07-21.47c.38-.34.38-.42.11-1.39A2.14,2.14,0,0,0,183.82,151.58Zm3.45,1.12a2,2,0,0,0,.33,1.39C187.58,153.54,187.8,153.11,187.26,152.71Zm-2.09,21.17c-.15.44-.15.44.19,1.37C185.37,174.77,185.59,174.3,185.18,173.88Zm-14-15a1.72,1.72,0,0,0-.06-1.34s-.09,0-.17,0A2,2,0,0,0,171.21,158.85Zm.27,11.65a2.17,2.17,0,0,0,.08-1.65c-.08.11-.19.2-.18.25a2.15,2.15,0,0,1,0,.91A2.14,2.14,0,0,0,171.48,170.51Zm.41-24.63c-.06,0-.15.08-.16.13-.08.34-.14.69-.19,1,0,0,.12.06.24.12,0-.25,0-.44,0-.63S172,146.14,171.88,145.88Zm10.92,31.66c-.33.48-.35.68-.14.8s.21,0,.35,0ZM188,154a.76.76,0,0,0-.21.88.21.21,0,0,0,.18.1.23.23,0,0,0,.13-.18C188.1,154.57,188.06,154.33,188,154Zm-3.08-11.08H185a3,3,0,0,1,.08-.46,3.31,3.31,0,0,1,.2-.43c-.21-.16-.36-.13-.38.09A6.19,6.19,0,0,0,184.94,142.92Zm.35,38.66c0,.38-.23.71.15,1C185.67,182.19,185.4,181.95,185.29,181.57Zm0-4.91s.06,0,.07,0,.13-.37,0-.43a.1.1,0,0,0-.07,0,2.94,2.94,0,0,0-.1.36S185.31,176.62,185.33,176.66Zm1.57-6.35h-.07v.7h.07Zm-14.41-34a3.6,3.6,0,0,0,0,.56.2.2,0,0,0,.16.12c.06,0,.16-.11.15-.14A4.43,4.43,0,0,0,172.49,136.33Zm5.05,55.31c.15.22.27.18.49.08Zm6.32-36.88c.17-.12.26-.16.3-.22a.61.61,0,0,0,0-.23c-.07,0-.16,0-.19.07A1.77,1.77,0,0,0,183.87,154.75Zm1.31,1.09a.5.5,0,0,0-.11-.47A.3.3,0,0,0,185.18,155.84ZM177,191.26s0,.1,0,.14.08.06.13.08,0-.11,0-.15S177.07,191.29,177,191.26Zm8.48-10.14a.93.93,0,0,0,.06-.24,1.28,1.28,0,0,0-.09-.29C185.38,180.83,185.25,181,185.5,181.13ZM184,157.94l-.15-.15s0,0,0,.06a1,1,0,0,0,.05.14Zm.35-9.21s.1,0,.11-.08,0-.09,0-.14a.56.56,0,0,0-.14.1S184.28,148.68,184.3,148.72Zm0-7.74h.06v-.26h-.06Zm.32,3.53-.05-.14s-.12.05-.12.07a.76.76,0,0,0,.07.19Zm-13.36,28.23h-.05s0,.1,0,.15h.1Zm8.41-54.06-.06-.17a.84.84,0,0,0-.16.13s0,.08,0,.12ZM184,160.53l-.05-.13s0,0-.05.05a.68.68,0,0,0,0,.13Zm.34,4,0-.06,0,.05.07.08Zm-.73-.5a.84.84,0,0,0-.06.13s0,0,.05,0,.06,0,.05,0A.8.8,0,0,0,183.61,164Zm1.34-1h0V163Zm-10.15-47.15-.06-.12s-.05,0-.05,0a.67.67,0,0,0,0,.13ZM184.48,143a.85.85,0,0,0,0-.13s0,0,0-.05-.08.06-.07.08S184.46,143,184.48,143Zm-12.15-7.82.11.07s0,0,.05-.06l-.12-.09Zm.07.68s-.08.06-.08.08a.37.37,0,0,0,.05.13s.09-.05.09-.08A.41.41,0,0,0,172.4,135.89ZM186.14,141l0,.07.08,0Zm-2.47,6.5-.05-.06a.77.77,0,0,0-.06.14s0,0,0,.06Zm-.9,31.94s0,0,0,.06h.08l0-.1Zm.89-.64-.05-.05a.68.68,0,0,0-.05.12s0,0,0,.06Zm-.72,5.23a.22.22,0,0,0,0-.06l0,0a.22.22,0,0,0,0,.06Zm.83,1.91,0,.06h.08a.17.17,0,0,0,0-.06Zm-1.37-5.53,0-.06-.06,0Z" class="cls-4"/><path d="M187.94,164.54l-.43-1.33c0-.1,0-.24-.1-.3a.56.56,0,0,1-.12-.63,2.47,2.47,0,0,0-.05-1.63c-.17-.4.06-.81-.1-1.33a.83.83,0,0,1,.48.91,4.83,4.83,0,0,0,.24,1.49l.51-.94a1.62,1.62,0,0,1,0,.87,4.33,4.33,0,0,1-.19.81c0,.08-.06.19,0,.24.33.63-.19,1.21,0,1.82Z" class="cls-4"/><path d="M189.1,164.65c.14-.81-.29-1.62,0-2.5.21.16.11.34.14.47a3.19,3.19,0,0,1,.06.5c0,.19.05.39.07.58a2.27,2.27,0,0,1,0,.5,2.6,2.6,0,0,1-.15.46Z" class="cls-4"/><path d="M187.4,166.41l.1-.9c.18,0,.19.16.18.26s0,.51-.3.62Z" class="cls-4"/><path d="M188.13,168.45a2.68,2.68,0,0,0,0-.44.89.89,0,0,1-.07-.43.58.58,0,0,1,.13.11A.7.7,0,0,1,188.13,168.45Z" class="cls-4"/><path d="M188,177.37c-.43-.24-.29-.47-.24-.68Z" class="cls-4"/><path d="M187.61,181.29l.06-.7c.08.38.08.38-.09.68Z" class="cls-4"/><path d="M188.23,130.74a1.63,1.63,0,0,1,0,.33c0,.06-.08.11-.13.16s-.06,0-.06,0a.27.27,0,0,1,0-.14c0-.1.1-.19.15-.29A.06.06,0,0,1,188.23,130.74Z" class="cls-4"/><path d="M187.32,167c0-.21.05-.43.08-.64l0,0a.64.64,0,0,1-.07.64Z" class="cls-4"/><polygon points="185.99 163.4 185.98 163.34 186.03 163.35 185.99 163.4" class="cls-4"/><path d="M171.82,151.39c.28-.11.5-.25.45-.61a.63.63,0,0,1,0-.41c.23-.32.15-.72.27-1.06s-.16-.89.07-1.39a4.51,4.51,0,0,0,.18-1.41c0-.48.11-1,.14-1.43s0-1,0-1.72c.13.26.21.34.21.43,0,.42,0,.85.06,1.27.06.93,0,1.86.08,2.79a.9.9,0,0,0,.44.64l-.26,1.51c-.17,0-.23,0-.23-.16,0-.36.06-.74-.32-1.06a2,2,0,0,0-.05.49,2.06,2.06,0,0,1-.15,1.46l.32.59-.36,1-.25-.31c0,.06-.14.13-.13.18.07.5.13,1,.24,1.49s.38.82.25,1.3c0,.08.07.2.13.3a.73.73,0,0,1,.08.7c-.15-.24-.26-.44-.4-.63a.24.24,0,0,0-.22,0,.26.26,0,0,0-.12.2.49.49,0,0,0,.08.32c.16.16.13.34.13.54a11.66,11.66,0,0,0,0,1.24,1,1,0,0,0,.53.92.8.8,0,0,1,.41.7,1.9,1.9,0,0,0,.09.39,1,1,0,0,1,0,.8.92.92,0,0,0,0,.66,4.18,4.18,0,0,1,.11,1.49l-.55-.24a1.05,1.05,0,0,1-.07-.17c-.09-.41.22-.8,0-1.25a4.59,4.59,0,0,1-.15-1.23l-.44-.24a3.75,3.75,0,0,0-.54-1.69,1,1,0,0,1-.13-.65,3.87,3.87,0,0,0,0-.84,1.23,1.23,0,0,1,0-.74.25.25,0,0,0,0-.17,5.68,5.68,0,0,1,0-1.83,2.3,2.3,0,0,0-.1-.67c-.06-.22-.23-.42-.24-.63A3.9,3.9,0,0,1,171.82,151.39Z" class="cls-4"/><path d="M176.37,135l-.35-.23c0,.06-.11.1-.1.14a12.38,12.38,0,0,1,.07,2.69c0,.19.06.4-.18.52,0,0-.06.15-.06.23a3.33,3.33,0,0,1,0,.58,2.47,2.47,0,0,1-.22.54l.47.43-.21.24c-.21-.09-.1-.41-.36-.46-.05,0-.11-.18-.11-.28,0-.54,0-1.08,0-1.61a1.82,1.82,0,0,1,.46-1.29c-.13-.38-.26-.75-.38-1.12a1,1,0,0,1-.06-.49,4.63,4.63,0,0,1,.66-1.91c-.4-1-.09-2-.13-3-.19,0-.23.18-.27.34a2,2,0,0,1-.15.49,2,2,0,0,0-.21,1.14,4.84,4.84,0,0,1-.36,2,12.62,12.62,0,0,1-.1-2.11c-.06-.69.29-1.32.25-2l.44-.21a2.12,2.12,0,0,1,.48-2.06c.07.12.2.24.19.34,0,.31-.11.61.1.9a.2.2,0,0,1,0,.16,4.31,4.31,0,0,0,0,1.51,5.38,5.38,0,0,1-.09.93c-.14.81-.14.84.53,1.4A13.9,13.9,0,0,1,176.37,135Z" class="cls-4"/><path d="M173.29,173.44c-.18-.11-.16-.28-.16-.45a4.8,4.8,0,0,0,0-.59,2.88,2.88,0,0,0-.15-.47c.33-.15.29.19.45.29l.53-.56a5,5,0,0,1,.34-2.36c0,.38.19.75-.06,1.15-.12.19,0,.44.16.62a.48.48,0,0,1,.09.55,3.32,3.32,0,0,0-.31,1.61,1.45,1.45,0,0,1-.26,1c-.12-.11-.28-.19-.34-.32s-.1-.38-.28-.51l.13-.06s0,0,0-.06Z" class="cls-4"/><path d="M173.26,140.19c.19,0,.19.18.21.31a4.29,4.29,0,0,0,.4,1.54,2.12,2.12,0,0,1,.11.58c.07.35,0,.73.22,1.06.1.12,0,.38,0,.57a3.71,3.71,0,0,0,.1,1.58s0,.1-.06.18a1.3,1.3,0,0,1-.41-1.22,1.79,1.79,0,0,0-.09-.9.94.94,0,0,1-.08-.41,1,1,0,0,0-.28-.77,1.11,1.11,0,0,1-.26-.78c0-.54,0-1.07,0-1.61C173.16,140.27,173.22,140.24,173.26,140.19Z" class="cls-4"/><path d="M176,142.9a.27.27,0,0,0-.18.34,3.1,3.1,0,0,1-.08,1.59,1.91,1.91,0,0,0,0,.49c0,.49.22,1-.21,1.52a16.59,16.59,0,0,1,0-3.79l.44-.15Z" class="cls-4"/><path d="M173.74,169.66l-.22-1.7.21-.37-.28-.66c.13,0,.22,0,.26,0a.51.51,0,0,1,.18.26,3.16,3.16,0,0,1,.06,1.33,1.29,1.29,0,0,0,0,.47A.6.6,0,0,1,173.74,169.66Z" class="cls-4"/><path d="M174.6,137.52a2.94,2.94,0,0,1-.36-1.34c0-.46-.08-.92-.12-1.4a.48.48,0,0,1,.38.49,19.07,19.07,0,0,0,.16,2A1.07,1.07,0,0,1,174.6,137.52Z" class="cls-4"/><path d="M174.34,142a4.32,4.32,0,0,1-.13-1.94.25.25,0,0,1,.32.22c0,.52-.06,1-.1,1.57C174.43,141.88,174.38,141.92,174.34,142Z" class="cls-4"/><path d="M174,175.84c-.36-.15-.27-.46-.38-.67l-.35-.66a.26.26,0,0,1,.43.09A2,2,0,0,1,174,175.84Z" class="cls-4"/><path d="M177.51,126.49c.26.62.26.79,0,1.24A1.57,1.57,0,0,1,177.51,126.49Z" class="cls-4"/><path d="M174.87,150.57v-.84c.4.3.39.3.36.56S175.15,150.49,174.87,150.57Z" class="cls-4"/><path d="M173.55,178.09a1.72,1.72,0,0,0-.23-.41,1.05,1.05,0,0,1-.29-.77l.3-.08,0,0c0,.08,0,.2,0,.24.37.3.3.68.19,1.06Z" class="cls-4"/><path d="M173.69,154.51l-.19-.92c.2-.1.25,0,.26.11,0,.27,0,.55,0,.82Z" class="cls-4"/><path d="M174.64,155.84a.82.82,0,0,1,.39.73C174.76,156.33,174.76,156.33,174.64,155.84Z" class="cls-4"/><path d="M173.23,164.54c.08,0,.2,0,.22.09.06.24.1.49.14.72-.17.13-.25,0-.27-.08s-.06-.49-.09-.73Z" class="cls-4"/><path d="M174.94,162.45l-.22-.7c.09,0,.18,0,.21,0A.73.73,0,0,1,174.94,162.45Z" class="cls-4"/><path d="M174.8,152.93a1.47,1.47,0,0,1,0,.84A1,1,0,0,1,174.8,152.93Z" class="cls-4"/><path d="M173.23,164.54l-.2-.6c.26.07.26.07.2.6Z" class="cls-4"/><path d="M176.24,137.66a.41.41,0,0,1-.05.62Z" class="cls-4"/><path d="M176.29,125.88c.14.33-.06.45-.16.68C176,126.24,176.21,126.12,176.29,125.88Z" class="cls-4"/><path d="M176,142.9a1.15,1.15,0,0,1-.19-.25.8.8,0,0,1,0-.29h.07a.87.87,0,0,1,.13.25,1.45,1.45,0,0,1,0,.31Z" class="cls-4"/><path d="M174.49,149.59V150h-.08l-.06-.46Z" class="cls-4"/><path d="M174.94,163.88v.26h0v-.26Z" class="cls-4"/><path d="M174.94,157.12a2.56,2.56,0,0,1,0,.32s0,.07-.07.11a.66.66,0,0,1,0-.14C174.89,157.33,174.91,157.26,174.94,157.12Z" class="cls-4"/><path d="M173.8,152.47l-.13.17s-.09-.08-.09-.11a.21.21,0,0,1,.09-.13S173.73,152.44,173.8,152.47Z" class="cls-4"/><path d="M173.29,178.64l-.08.09a1,1,0,0,1,0-.16s0,0,0-.06Z" class="cls-4"/><path d="M173.62,178.45l.06.21s-.11,0-.13,0a.17.17,0,0,1,0-.13S173.56,178.49,173.62,178.45Z" class="cls-4"/><path d="M173.44,180.12a1.15,1.15,0,0,1,.22,0s0,.07,0,.11-.06,0-.07,0l-.17-.14Z" class="cls-4"/><path d="M173.6,146.62l0,.06s0,0,0-.06,0,0,0-.06Z" class="cls-4"/><path d="M176.35,125.38l-.08.07a.85.85,0,0,1,0-.14s0,0,0-.05Z" class="cls-4"/><path d="M178,121.55a.69.69,0,0,1,0-.15s.06,0,.09,0a1.36,1.36,0,0,1,0,.15S178,121.54,178,121.55Z" class="cls-4"/><polygon points="177.33 128.38 177.32 128.45 177.3 128.39 177.33 128.38" class="cls-4"/><path d="M172.54,173.08l0,0a1.21,1.21,0,0,1,0,.13s0,0,0,0A1.19,1.19,0,0,1,172.54,173.08Z" class="cls-4"/><path d="M173.72,155c.06.07.11.11.11.13a1,1,0,0,1-.08.2s-.06,0-.06-.06S173.7,155.12,173.72,155Z" class="cls-4"/><path d="M173.66,156.74l-.1-.1s0,0,0-.06l.07.18Z" class="cls-4"/><polygon points="174.61 167.58 174.58 167.57 174.6 167.52 174.61 167.58" class="cls-4"/><polygon points="174.93 159.52 174.91 159.45 174.96 159.46 174.93 159.52" class="cls-4"/><polygon points="173.71 165.8 173.76 165.79 173.74 165.85 173.71 165.8" class="cls-4"/><path d="M173.64,156.76l.15.12c-.2.09-.09-.09-.12-.15Z" class="cls-4"/><path d="M173.15,156.58l-.09.08a.79.79,0,0,1,0-.14s0,0,.05-.05Z" class="cls-4"/><polygon points="172.65 175.58 172.6 175.55 172.65 175.54 172.65 175.58" class="cls-4"/><path d="M175.13,145.22h0a.24.24,0,0,1,0-.06l.08,0Z" class="cls-4"/><path d="M174.43,139.36s0,0,0,.06,0,0,0,.06,0,0,0-.06S174.42,139.38,174.43,139.36Z" class="cls-4"/><polygon points="174.9 151.7 174.93 151.64 174.96 151.7 174.9 151.7" class="cls-4"/><path d="M175.46,149.74l0,.07-.09,0a.24.24,0,0,1,0-.07Z" class="cls-4"/><path d="M175.33,148.59l0,.07a.37.37,0,0,1-.06-.08s0,0,.05-.06Z" class="cls-4"/><path d="M173.54,178.12l-.06-.12,0,.13.1,0Z" class="cls-4"/></svg>