<svg id="Layer_1" data-name="Layer 1" xmlns="http://www.w3.org/2000/svg" viewBox="0 0 216 216"><defs><style>.cls-1{fill:#00aeef;}.cls-2{fill:#8dc63f;}.cls-3{fill:#ee2d78;}</style></defs><title>hire-us</title><path class="cls-1" d="M92.69,52.25c1.81-.13,3.62-.36,5.42-.59s3.43-.48,5.14-.76c.89-.15,1.76-.43,2.65-.58,1.36-.22,2.73-.37,4.1-.57,2.09-.32,4.18-.65,6.25-1a.41.41,0,0,1,.1-.08,5.4,5.4,0,0,1,4.38.06l5.28-1q.77-.53,1.56-1a3.84,3.84,0,0,1,1.28-1l.05,0a7.25,7.25,0,0,1-.83-1.5c-.06-.14-.1-.29-.14-.44a4.63,4.63,0,0,1-1.36.47c-1.42.31-2.8.87-4.24,1a42.88,42.88,0,0,0-7.79,1.93,19.37,19.37,0,0,1-3.61.49,32.16,32.16,0,0,0-4.09.45,38.43,38.43,0,0,1-7.06.8c-2,.12-4,.3-5.93.43-1.4.09-2.8.22-4.2.21-2.27,0-4.55,0-6.81-.25a3.58,3.58,0,0,1-2-1.18A1.49,1.49,0,0,1,81,46.75a3.68,3.68,0,0,1,2.73-1.24c1.18,0,2.35-.27,3.52-.41a17.9,17.9,0,0,1,2-.21c3,0,6.07,0,9.11,0s6.13,0,9.18-.16c2.2-.13,4.38-.58,6.57-.84,1.91-.23,3.83-.32,5.72-.64,1.59-.27,3.13-.81,4.71-1.19,1-.25,2.05-.47,3.1-.69,0-.88,0-1.77.11-2.62-1.53.43-3.09.78-4.64,1.09-1.75.35-3.52.61-5,.86-1-2.69-1.88-5.13-2.69-7.61A33.89,33.89,0,0,1,114,27.73a2.09,2.09,0,0,0-1.68-1.87c-.72-.26-1,.09-1.09.63a7.58,7.58,0,0,0,.11,2.67,63.66,63.66,0,0,1,1.63,7.95,23.1,23.1,0,0,0,1.29,3.74,4.55,4.55,0,0,1-.94.32c-.76.09-1.53.11-2.3.17-1.47.13-2.93.26-4.39.42s-3.17.44-4.76.59c-1.24.11-2.49.05-3.74.15-1.63.12-3.25.32-4.88.48-1.11.11-2.22.28-3.34.29-.93,0-1.95.43-2.8-.39-.12-.12-.49,0-.75,0L84.83,43c-1.59.06-3.25-.24-4.62.89-.79.65-1.55,1.34-2.42,2.09C75.12,47.22,71.93,45.53,69,47L69,48.35a4,4,0,0,1,.86.17,7.1,7.1,0,0,0,3.32.66c2.11-.05,4.28,0,5.48,2.24.05.1.22.13.33.19a9.26,9.26,0,0,0,6.35,1.06c1.33-.19,2.66-.38,4-.46C90.47,52.15,91.59,52.33,92.69,52.25Z"/><path class="cls-1" d="M119.22,54.91c.11.1,1.46,5,1.52,5.13a64.12,64.12,0,0,1,2.07,7c.39,1.71.34,3.55,2.53,4.08a8.55,8.55,0,0,0,1.05.12,3.92,3.92,0,0,0,0-1.09c-.54-1.83-1.21-3.63-1.66-5.48-.61-2.49-2.39-8.79-2.87-11.31C120.87,54.09,120,53.94,119.22,54.91Z"/><path class="cls-1" d="M130.61,47.61c-1.57,1.4-3.61,2-5.4,2.95-2.33,1.29-5,1.82-7.19,3.44a18.13,18.13,0,0,1-4.8,2.17c-2.54.9-5.24.89-7.74,1.76a19.68,19.68,0,0,0-4.4,1.91A31.84,31.84,0,0,1,95,62.52c-2.21.83-4.48,1.53-6.74,2.23a3.74,3.74,0,0,1-3.51-.52,3,3,0,0,1-.67-1.06,3.94,3.94,0,0,1,2.75-2.85c1.52-.4,3-.78,4.53-1.28,1-.33,1.88-1,2.88-1.27,1.94-.59,3.92-1,5.87-1.56a15.59,15.59,0,0,0,1.69-.8c1.77-.74,3.51-1.56,5.33-2.17,2.79-.94,5.62-1.75,8.44-2.57,1-.28,2-.45,3-.72s1.78-.69,2.67-1c1.51-.53,3.14-1,4.72-1.46,1.39-.41,3.42-.66,4.25-2,.2-.32.23-1,.68-1-.26-1-1.25-.45-1.48-1.46a4.75,4.75,0,0,1-2.33.88.49.49,0,0,1-.18.17c-1,.46-2,.84-3.08,1.26l-3.19,1.3c-.23.09-.45.16-.66.23l-.13.06a.45.45,0,0,1-.23.25,8.32,8.32,0,0,1-2.81.58,9.36,9.36,0,0,1-1,.21v0a2,2,0,0,1-.39.18c-1.93.45-3.87.87-5.79,1.35-1.26.32-2.52.69-3.76,1.09-1.55.5-3.08,1.06-4.62,1.56s-3.13.92-4.67,1.46-2.88,1.18-4.33,1.73-2.78,1-4.16,1.5c-.87.33-1.7.8-2.58,1.12a4.84,4.84,0,0,0-2.63,1.73c-.73,1.09-1.54,2.13-2.36,3.17a1.62,1.62,0,0,1-.86.55c-2.19.48-4.39.89-6.58,1.36a18,18,0,0,0-1.8.58l0,.49a4.23,4.23,0,0,0,1.3.61,13.48,13.48,0,0,0,4.77-.8,7.7,7.7,0,0,1,4.76.19,14,14,0,0,0,4.34.94,9.28,9.28,0,0,0,2.85-.28c2.85-.81,5.68-1.71,8.5-2.63,1.77-.57,3.52-1.19,5.25-1.88,1.26-.5,2.42-1.24,3.68-1.71,2.48-.93,5.19-1.13,7.53-2.52a1.25,1.25,0,0,1,.35-.14.44.44,0,0,1,.1-.1,15.88,15.88,0,0,1,4.75-1.7,1.81,1.81,0,0,1,.44-.43,16.65,16.65,0,0,1,2.21-1.19c1.42-.66,2.84-1.31,4.28-1.89,1.27-.51,2.58-.94,3.88-1.36.39-.13.78-.24,1.17-.33C142.93,48.12,139.78,43.51,130.61,47.61Z"/><path class="cls-1" d="M158,33.88a1.55,1.55,0,0,0-1.1-.2c-.87.28-1.68.77-2.56,1-1.64.51-3.32.91-5,1.37-1.22.34-2.42.77-3.66,1.07a1.59,1.59,0,0,1-1.95-.66c-.27-.47-.41-1.17-.81-1.39a11.21,11.21,0,0,0-5-1.78,26.38,26.38,0,0,0-3.36.2,2.63,2.63,0,0,0-1.37.33c-1.42,1.19-2.73,2.5-4.13,3.71a6.47,6.47,0,0,1-1.47,1c-.06.87-.14,1.8-.13,2.71h.06a4.56,4.56,0,0,1,.09,1.65c-.25,1.32,1.69,3.52,2.39,4.47a12.16,12.16,0,0,0,4.21,3.8,8.44,8.44,0,0,0,7.51-.08c4-2.09,4.21-5.91,4.81-9.87a1.41,1.41,0,0,1,.52-.89,15.52,15.52,0,0,1,3.17-1.82,36,36,0,0,1,4.8-1.11c.61-.12,1.25-.05,1.87-.13s1.29,0,1.66-.37C159.2,36.39,158.76,34.3,158,33.88ZM140.6,46.13c-1.57-.1-3.49.36-5.17-.94a24.23,24.23,0,0,1-2.49-1.73c-.71-.71-1.47-1.65-1.14-2.73.45-1.45,1.14-2.83,3.06-2.84.7,0,1.4-.31,2.09-.27a12.67,12.67,0,0,1,1.86.52,3.77,3.77,0,0,1,3.1,3.48c.09.67.35,1.31.45,2A2.26,2.26,0,0,1,140.6,46.13Z"/><path class="cls-2" d="M101.07,101.85c1.91,1.14,3.14,0,4.5-.65.56-.27,1.23-.33,1.82-.55,1.06-.4,2.22-.67,2.92-1.82a4.82,4.82,0,0,0,3.15-.81c1.1-.69,2.56-.8,3.83-1.24,1-.34,2.22-.24,2.62-1.57a.54.54,0,0,1,.46-.22c1.28.72,2.41-.12,3.53-.44,1.68-.48,3.23-1.57,4.93-1.83,1.41-.21,2.54-1,3.88-1.24a7.22,7.22,0,0,0,1.83-.66c.23-.12.32-.51.49-.79,2.22.18,4.08-.79,5.91-1.93a2.07,2.07,0,0,1,1.27-.3c1.25.17,2.18-.54,3.22-1,.68-.29,1.37-.56,2-.87.1,0,.13-.22.22-.32s.34-.39.38-.36c.81.51,1.34-.28,2-.39a4.13,4.13,0,0,1,1.26.19c.11,0,.29.09.32.05a.56.56,0,0,0,.11-.38c-.25-1.25-.56-2.49-.78-3.75-.13-.75-.06-1.53-.2-2.27a5.56,5.56,0,0,0-.7-1.91c-.22-.34-.79-.45-1.2-.67l-.06-.37a15.62,15.62,0,0,1,1.61-.6c.52-.14,1.08-.14,1.62-.24a2.92,2.92,0,0,1,3.09,2.39c.27,1.81,0,3.68.84,5.44a7.48,7.48,0,0,1,.1,2.47,10.18,10.18,0,0,0,.27,1.41,32.64,32.64,0,0,1,.72,3.57,15.54,15.54,0,0,1-.24,2.67,2.78,2.78,0,0,0,0,1.12,3.57,3.57,0,0,1,.3,1.66,23.39,23.39,0,0,0,.32,3.43c0,.53,0,1.34-.28,1.54a4.71,4.71,0,0,1-2,.53c-.27,0-.57-.25-.66-.3-1.84.82-3.53,1.59-5.24,2.32-.79.34-1.63.54-2.42.88-1.89.81-3.92,1.31-5.52,2.74-.31.28-.93.19-1.38.35-.78.28-1.56.59-2.32.93-1.17.52-2.32,1.07-3.48,1.62s-2.33,1.23-3.56,1.67-2.61.63-3.89,1c-1.46.45-2.88,1-4.33,1.5-1.11.38-2.25.7-3.35,1.09-1.68.59-3.42,1-5.12,1.5-.52.16-1,.41-1.53.57-.84.26-1.69.5-2.54.73s-1.9.44-2.84.72a33.94,33.94,0,0,0-4.16,1.33c-1.77.78-3.43,1.78-5.17,2.64a17,17,0,0,1-2.2.88c-.57.19-1.18.29-1.77.43-.06,0-.17,0-.19,0-.52,1.08-1.71.79-2.54,1.25a15.91,15.91,0,0,1-1.68.68c-.38.16-.74.36-1.12.51s-.76.25-1.14.38c-.75.25-1.51.49-2.25.77-.48.18-.93.57-1.41.59-1.83,0-2.82,1.36-4,2.45a4,4,0,0,1-.94.75c-1.12.53-2.25,1-3.4,1.5-.62.26-1.28.41-1.9.67-1.88.78-3.73,1.63-5.68,2.27a22.52,22.52,0,0,0-5.27,2.67,27.93,27.93,0,0,1-4.43,1.89c-.94.4-1.82,1-2.77,1.3-2,.73-4.08,1.33-6.09,2.06A33.78,33.78,0,0,0,45.46,145a18.76,18.76,0,0,1-10.27,1.89,18.43,18.43,0,0,1-4.24-.86,9.87,9.87,0,0,1-2.42-1.65c-1.17-.88-2.35-1.75-3.48-2.69s-2-1.79-3-2.74c-.19-.18-.13-.61-.21-.92a3.72,3.72,0,0,0-.31-1c-.49-.83-1.08-1.6-1.55-2.44-.18-.31-.08-.77-.2-1.13-.28-.83-.68-1.63-.93-2.47a16.91,16.91,0,0,1-.65-5.76c0-.41,0-.82,0-1.23a10.32,10.32,0,0,1,1-3.84A28.73,28.73,0,0,0,20,117c.23-.71.73-1.33,1-2,.35-.89.59-1.82.89-2.73a3.17,3.17,0,0,1,.28-.69c1.34-2.17,2.63-4.38,4.08-6.48a19.65,19.65,0,0,1,2.69-2.89c.75-.72,1.62-1.29,2.41-2A29.71,29.71,0,0,1,33.74,98a31.07,31.07,0,0,1,3.51-2,15.43,15.43,0,0,1,6.28-1.54c1.65-.09,3.32.13,5,.15a19.87,19.87,0,0,1,7,1.83A14.26,14.26,0,0,1,58,98.35a29.07,29.07,0,0,1,6,5.48c.9,1.09,1.64,2.31,2.46,3.48a5.52,5.52,0,0,0,5.77,2.6c1.23-.2,2.51-.07,3.76-.15s2.27-.33,3.41-.35a6.23,6.23,0,0,1,2.37.42,3.26,3.26,0,0,0,3-.2,13,13,0,0,1,1.4-.55L91,107c.67-.28,1.35-.53,2-.84.42-.2.79-.51,1.21-.71a2,2,0,0,1,.7-.1c.14,0,.31.06.44,0,.9-.35,1.79-.73,2.69-1.1a12.14,12.14,0,0,1,2.1-.8C101,103.33,101.39,103,101.07,101.85Zm-62.94,41a11,11,0,0,0,1.68-.23c1.26-.36,2.5-.79,3.75-1.2,1.09-.36,2.17-.73,3.25-1.11,1.75-.6,3.51-1.2,5.25-1.83,1.05-.38,2.1-.78,3.12-1.23,1.78-.79,3.55-1.62,5.31-2.47s3.31-1.71,5-2.45c2.58-1.12,5.23-2.09,7.8-3.24.89-.4,1.55-1.4,2.44-1.64,1.79-.49,2.54-2,3.41-3.25a19,19,0,0,0,1.94-4.54,6.47,6.47,0,0,0,0-4A2.67,2.67,0,0,0,80,114a5.06,5.06,0,0,0-2.49-.09c-1.17.17-2.31.54-3.47.77a11.33,11.33,0,0,1-3.58.52A23.35,23.35,0,0,1,66,113.77c-.18-.07-.3-.33-.42-.52-.82-1.2-1.59-2.44-2.45-3.61-1.28-1.74-2.9-3.23-3.61-5.36,0-.13-.22-.22-.34-.32-1.51-1.19-3.09-2.3-4.5-3.59A8,8,0,0,0,50,98.22c-.52-.06-1-.14-1.55-.23-2.61-.44-5.24-1.14-7.67.63-1.21.88-2.44,1.75-3.63,2.66-1,.76-1.94,1.59-2.94,2.34-.69.52-1.52.87-2.16,1.43a20.27,20.27,0,0,0-3.2,3.15,32.69,32.69,0,0,0-2.62,4.66c-.91,1.82-1.46,3.87-2.63,5.48-1.44,2-1.42,4.11-1.64,6.28a6.12,6.12,0,0,0,.11,1.74c.15.76.43,1.5.59,2.27s0,1.47.31,1.86c1,1.09,1,2.5,1.52,3.72a17.31,17.31,0,0,0,1.72,3.26,7.46,7.46,0,0,0,2.2,1.82c1.06.63,2.28,1,3.32,1.66C33.66,142.16,35.9,142.18,38.13,142.84Zm64-36.09c-.35.08-.54.08-.65.17a4.13,4.13,0,0,1-2,.85c-.54.1-.69.56-.44,1.11a8.4,8.4,0,0,1,.5,1.34,26.76,26.76,0,0,1,.69,3c.07.44,0,1.21-.3,1.34a2.62,2.62,0,0,1-1.91.28c-.65-.26-1.6-.61-1.36-1.73,0-.09-.08-.2-.12-.3a10.19,10.19,0,0,1-.75-1.93c-.23-1.3-.37-1.47-1.65-1a9.28,9.28,0,0,0-1.39.75,8.08,8.08,0,0,1,1.29,5c0,.46.28,1.06-.48,1.26a6.37,6.37,0,0,1-1.45.4,1.37,1.37,0,0,1-.94-.58A5.87,5.87,0,0,1,89.9,112a4.72,4.72,0,0,0-1.35.12c-1.39.61-2.77,1.27-4.12,2-.13.07-.14.54-.06.78s.46.65.52,1c.25,1.44.43,2.89.61,4.34a7.93,7.93,0,0,1-.08.92c0,.83-.68,1.81.46,2.4l2.68-1.35c.5-.25,1-.53,1.52-.73,1-.4,2-.72,3-1.15a17.81,17.81,0,0,0,1.78-1c.76-.44,1.5-.93,2.29-1.31,1.32-.64,2.67-1.24,4-1.81a20.15,20.15,0,0,1,2-.62c.42-.13.85-.23,1.27-.37s.89-.36,1.34-.5c1.45-.43,2.92-.83,4.37-1.26.3-.09.56-.31.85-.39,1.66-.44,3.35-.8,5-1.28,1.33-.38,2.62-.89,3.92-1.34a14.42,14.42,0,0,0,2.28-.81c.55-.3,1-.64,1.58-.2.12.08.38,0,.54,0,1-.42,2.06-.9,3.12-1.29.67-.25,1.41-.32,2.09-.58,1.68-.64,3.34-1.35,5-2,.38-.15.82-.14,1.19-.3,1.14-.52,2.24-1.14,3.39-1.64,1.54-.68,3.11-1.31,4.67-1.94.36-.15.74-.22,1.1-.37,1.66-.67,3.36-1.25,4.94-2.06.88-.45,1.55-1.29,2.65-1.39a.9.9,0,0,0,.63-.49c.05-.14-.24-.42-.38-.63l.15,0L152,91.31l.13-1.17c-.46,0-.92,0-1.37,0-.14,0-.27.15-.42.2a15.07,15.07,0,0,1-1.57.48c-1,.22-2.08.39-3,.57l1.93,5.26c-.13.18-.32.4-.46.66a2.24,2.24,0,0,1-2.05,1.08c-.31,0-.63-.51-.93-.8a4.79,4.79,0,0,0-.9-.87c-.95-.5-.23-1.5-.71-2.11.85-.65-.13-1.34.19-2.05a10,10,0,0,0-1.17.18c-.32.09-.61.31-.93.38-1.31.31-1.42.51-1.28,1.87a22.25,22.25,0,0,1,.13,3.28c-.06,1.18-1.08,1.5-2,1.76a1.15,1.15,0,0,1-1-.31c-.64-1.1-1.55-2.17-1-3.59a5.17,5.17,0,0,0-3.23.14c-.11.1-.27.27-.25.38.21,1.06.54,2.09.66,3.16a10.56,10.56,0,0,1,0,2.92c-.06.35-.7.63-1.11.88-.86.53-1.42.23-1.84-.71-.35-.79-.29-1.92-1.34-2,.08-.78.13-1.5.25-2.2.15-.9-.35-1-1-.91s-1.14.45-1.73.51-.67.45-.66.88a7,7,0,0,0,.2,1.81,5.61,5.61,0,0,1-.34,3.93,2.07,2.07,0,0,0-.7.2c-.53.39-.87.2-1.33-.17-1.59-1.25-2-3-2.17-4.91-1-.54-1.6.48-2.35.8l1.27,6a5.45,5.45,0,0,0-1.51.58.88.88,0,0,1-1.5-.37,21.17,21.17,0,0,1-1.46-3.9c-.17-.7-.36-1.11-1-1.09-1.31.05-2.12.67-2,1.51.17,1.62.37,3.24.57,4.86a1.88,1.88,0,0,1-1.06,2,2.06,2.06,0,0,1-2.14-1c-.38-.63-.52-1.53-1.58-1.41,0-.81,0-1.55.06-2.29,0-.22.1-.56,0-.64-.46-.34-1-.7-1.56-.28-.24.17-.6.4-.61.61a8,8,0,0,0,.22,1.51c.2,1.28.39,2.55.57,3.83,0,.13,0,.36-.09.39-.59.25-1.28.77-1.77.62a7.72,7.72,0,0,1-2-1.42s0-.06,0-.09Z"/><path class="cls-2" d="M28.48,124.08c.19-.53.43-1.14.61-1.77a20.51,20.51,0,0,1,.71-2.7,21.94,21.94,0,0,1,2.9-5,25.05,25.05,0,0,1,4.05-3.87c.58-.46,1.28-.75,1.88-1.18s1.37-1.17,2.14-1.62a12.84,12.84,0,0,1,2.91-1.32c.55-.16,1.24.21,1.87.25a21.26,21.26,0,0,1,6.87,1.34,22.46,22.46,0,0,1,2.45,1,4.25,4.25,0,0,1,1.42,1.31,6.86,6.86,0,0,1,1.28,4,9.43,9.43,0,0,1-.35,2.84,1,1,0,0,0,.09.55c.68,2.06,0,4-.74,5.83a10.49,10.49,0,0,1-2.85,4c-1.36,1.17-2.35,2.81-4.18,3.45-.41.14-.6.82-1,1.16-.78.69-1.61,1.34-2.45,1.94a11.54,11.54,0,0,1-2,1.21,18.18,18.18,0,0,1-7.41,1.32,6.08,6.08,0,0,1-4.34-2,13.64,13.64,0,0,1-1.53-1.69,13.82,13.82,0,0,1-2.15-7.11C28.67,125.37,28.57,124.79,28.48,124.08ZM31.76,126a18.4,18.4,0,0,0,.14,2.11c.3,1.66,1.55,2.66,2.6,3.84,1.45,1.62,4.49,2.51,6.38,1.54s3.46-1.88,5.15-2.9a15.12,15.12,0,0,0,2.63-1.92c1.21-1.15,2.31-2.42,3.43-3.66a8.59,8.59,0,0,0,.5-.88c.81-1.16,1.66-2.29,2.44-3.46a2.94,2.94,0,0,0,.45-1.25c.11-.92.78-1.68.7-2.63a12.27,12.27,0,0,1-.28-1.88,2,2,0,0,0-1.23-2.28,31.09,31.09,0,0,0-3.4-1c-.55-.15-1.27-.13-1.64-.47a3.25,3.25,0,0,0-2.36-.73,18.78,18.78,0,0,0-2.58.11,4.21,4.21,0,0,0-1.73.39c-1.28.78-2.51,1.67-3.72,2.57a11.94,11.94,0,0,0-2.39,2c-.89,1.13-1.38,2.58-2.32,3.66A11.07,11.07,0,0,0,31.76,126Z"/><path class="cls-3" d="M156.89,195.79c-.71-1.74-2.55-1.87-3.94-2.71-1.16-.7-2.2-1.75-3.46-2.14-1.59-.5-1.7-2.19-3-2.91a43,43,0,0,1-3.51-2.51c-.18-.13-.44-.19-.58-.35-.84-.95-1.62-2-2.5-2.86a14.38,14.38,0,0,0-1.6-1.2,8.77,8.77,0,0,1-.73-.72c-.49.47-.88.72-1.53-.08a10.91,10.91,0,0,0-2.76-2.24,9.83,9.83,0,0,0-2.18-.64,3.5,3.5,0,0,1-.76-.44,11.72,11.72,0,0,0-1.65-1c-1.31-.55-2.68-1-4-1.51-.54-.21-1-.59-1.56-.79a15,15,0,0,0-1.61-.31c-.36-.08-.71-.29-1.07-.34a4,4,0,0,0-1.42,0,9.47,9.47,0,0,0-1.41.64c-.92.39-1.81.66-1.81,2a1.51,1.51,0,0,1-1.55,1.6,1.38,1.38,0,0,0-.83.44,3.45,3.45,0,0,1-3.26.64,1.35,1.35,0,0,0-1.55.46c-.27.36-1.14.29-1.75.38-2.4.34-4.81.61-7.2,1-3.3.57-6.58,1.22-9.85,1.91-1.09.23-2.11.74-3.19,1-1.64.44-3.31.76-5,1.18-2,.53-4.06,1.13-6.09,1.69A30.28,30.28,0,0,1,67,187.31a26.55,26.55,0,0,1-5.51-.57,4,4,0,0,1-2.79-4.82,1.19,1.19,0,0,0,.09-.57c-.41-2.09,1-3,2.51-3.8,2.05-1,4.12-2,6.22-3s4.22-1.82,6.36-2.61c1.83-.68,3.71-1.19,5.57-1.78.39-.13.77-.32,1.16-.46.87-.31,1.73-.64,2.62-.92,1.76-.55,3.54-1.05,5.31-1.58,3.9-1.17,7.78-2.37,11.69-3.49,1.14-.33,2.36-.36,3.52-.63a40.34,40.34,0,0,1,4.75-1.19c1.58-.16,2.55-1.3,3.82-1.82.54.37,1,.73,1.56,1a.69.69,0,0,0,.53-.08c1-.53,2-1.12,3-1.62,1.63-.78,3.34-1.43,4.94-2.27A20,20,0,0,0,126,154.8a27.3,27.3,0,0,0,3.66-3.74,30.21,30.21,0,0,0,2.27-3.78c.59-1,.95-2.28,1.78-3,1.9-1.7,2.82-4,4.36-6,1.12-1.4,1.8-3.07,3.19-4.32a32.84,32.84,0,0,1,3.5-2.53c1.16-.79,2.17-1.81,3.34-2.58,1.34-.88,2.79-1.59,4.18-2.39a6.37,6.37,0,0,0,.8-.64c.2-.16.36-.41.58-.47,1-.29,2-.5,3-.81a9.57,9.57,0,0,0,1.65-.73,6.17,6.17,0,0,1,3-.81c.32,0,.64-.32,1-.38a27.48,27.48,0,0,0,3.83-.58c1.31-.41,2.63,0,3.94-.41a6.14,6.14,0,0,1,2.36.24,10.29,10.29,0,0,1,1.57.2,20.27,20.27,0,0,1,2,.77c.62.25,1.25.48,1.84.79a7.35,7.35,0,0,1,3.26,3.25c.28.55,1,.91,1.18,1.47a28.78,28.78,0,0,1,1.12,3.64,13.9,13.9,0,0,1,.22,5.26,16.85,16.85,0,0,1-1.14,3.53,22.2,22.2,0,0,1-1.11,2.49c-.6,1.15-1.27,2.25-1.88,3.39s-1.57,1.69-1.91,2.88c-.1.35-.79.52-1.09.7a5.23,5.23,0,0,1-.2.62c-.23.49-.47,1-.74,1.44a1.6,1.6,0,0,1-.46.44c-.57.42-1.16.82-1.74,1.24-.22.16-.43.32-.63.49-.73.61-1.43,1.24-2.18,1.82a9.44,9.44,0,0,1-1.46.94c-1.78.92-3.66,1.7-5.35,2.76-1,.61-2.35.56-2.92,1.79-1.09-.48-1.4,1-2.63.89-1.44-.18-3,.54-4.49.88-.46.1-.91.24-1.36.36a15.13,15.13,0,0,0-1.93.61l-1.26,0c-.17,0-.39,0-.5-.07a.93.93,0,0,0-1.5.09,4,4,0,0,0-3.95-1,10.1,10.1,0,0,1-4.3,1.47,2.19,2.19,0,0,0-1.33.62c2.09.53,4.18,1.1,6.28,1.58,1.26.29,2.55.47,3.83.64.28,0,.59-.25.89-.28a16.58,16.58,0,0,1,1.68-.07c.15,0,.33.12.46.08a10,10,0,0,1,5-.35,5,5,0,0,0,1.75-.35,16.76,16.76,0,0,1,4.53-.1c1.61.08,3.19-.23,4.78-.05,1,.12,2,.43,3.05.63.7.14,1.41.24,2.11.36a19.75,19.75,0,0,1,5,1.22c.74.33,1.59.42,2.35.72,1.67.66,3.31,1.39,5,2.1a4.45,4.45,0,0,1,1.56.76,30.42,30.42,0,0,1,3.1,3.87,6.49,6.49,0,0,1,.52,2.43c.15.93.22,1.87.37,2.8a10.11,10.11,0,0,1-.94,5.38,16.72,16.72,0,0,1-1.68,2.76c-.09.14-.3.21-.61.41l.65-1.53c-.63.44-1.27.82-.84,1.76.09.21-.5.8-.85,1.12a40.51,40.51,0,0,1-3.44,3,8.76,8.76,0,0,1-4.67,2,7.78,7.78,0,0,0-2.19.83,10.91,10.91,0,0,1-2.17.86,16.13,16.13,0,0,1-2.7,0c-.94,0-1.89,0-2.83,0-.19,0-.37-.17-.57-.22-.48-.12-1-.42-1.42-.28-1.84.62-3.47-.48-5.22-.51-.29,0-.65-.39-.84-.68A1.84,1.84,0,0,0,156.89,195.79Zm1.39-37.63a15,15,0,0,0,2-1c1.19-.81,2.89-.58,3.83-1.88a13.05,13.05,0,0,0,6.34-4c.94-1.05,2.26-1.72,2.87-3.17.28-.67,1.29-1,1.32-1.92,0-.06.21-.1.3-.18a4.24,4.24,0,0,0,.83-.87,10.5,10.5,0,0,1,1.15-2.3,9.68,9.68,0,0,0,2.52-3.69,9.13,9.13,0,0,0,.77-4.58c-.14-.77.16-1.63,0-2.37-.25-.93-.17-2-1.06-2.75s-1.71-1.91-2.64-2.79a5.2,5.2,0,0,0-2-1.28,8.72,8.72,0,0,0-2.72-.18c-1.54.06-3-.21-4.62.28-2.39.74-4.89,1.1-7.33,1.69a33.43,33.43,0,0,0-3.44,1.13,8.67,8.67,0,0,0-2.44,1c-2.87,2.26-6.41,3.55-9,6.19,0,0-.1.11-.15.12a3,3,0,0,0-2.14,1.3c-.48.52-1,1-1.52,1.48-.76.74-1.56,1.44-2.26,2.24-.48.55-.73,1.32-1.25,1.81a11.65,11.65,0,0,0-2.58,3.52c-.72,1.49-.91,3.1-1.58,4.56a16.73,16.73,0,0,1-1.9,3.27,20.57,20.57,0,0,1-3.2,3.39,9.64,9.64,0,0,1-3.93,2.31c-2.38.42-4.48,1.51-6.75,2.12A22,22,0,0,0,115,163a24.41,24.41,0,0,0-5.78,3.34,3.9,3.9,0,0,0-.44.52l-2.24,2.55a5.32,5.32,0,0,0,4.66,2.56,18.29,18.29,0,0,0,6.23-1.37c1-.33,2-.88,3-1.31l4.47-1.92a4,4,0,0,1,.52-.21,13.26,13.26,0,0,0,4.46-2,8.35,8.35,0,0,1,2.18-1.14c1.06-.36,2.18-.53,3.25-.83s1.83-1,2.94-.79c.16,0,.53-.21.52-.32,0-1.42,1-1.32,1.93-1.32,2,0,4,0,6,0a18.42,18.42,0,0,0,3.42.05,25.45,25.45,0,0,0,3.77-1.31,5.45,5.45,0,0,0,1.37-.49c.74-.53,2.07.23,2.33-1.15Zm-15.51,22.1,2,2c.41.41.81.84,1.22,1.25a9.55,9.55,0,0,0,1,.94,31.6,31.6,0,0,1,3.37,2.4c.62.59,1.21,1.69,2.25,1.29a13.75,13.75,0,0,0,1.88,1.56,12.81,12.81,0,0,0,2.84,1.21c1,.27,1.67,1.38,2.88.93.11,0,.29.13.44.18,1.2.39,2.41.78,3.62,1.15a3.44,3.44,0,0,0,1.36.32,29.22,29.22,0,0,1,3.92-.54c.75,0,1.64-.76,2.21-.53,1.2.47,2.13-.24,3.14-.4a18.48,18.48,0,0,0,4.23-1.5,7.08,7.08,0,0,0,2.66-1.88,9.28,9.28,0,0,1,1.52-1.54,8.44,8.44,0,0,0,2.31-3.16c.21-.39,0-1,.07-1.48a5.61,5.61,0,0,0-1-5.17c-.25-.3-.52-.59-.8-.87-.74-.77-1.44-1.57-2.25-2.26-.23-.2-.76,0-1.15-.07a.64.64,0,0,1-.32-.13c-.65-.5-1-1.58-2.2-1-.11.06-.34-.1-.51-.18-1.29-.57-2.56-1.21-3.89-1.68a28.94,28.94,0,0,1-3.21-.81c-2.64-1.31-5.46-1.16-8.24-1.24a28.79,28.79,0,0,0-4.15.48c-.13,0-.27-.08-.41-.09-1.23-.09-2.46-.24-3.69-.25-1.84,0-3.59.74-5.46.67-1.45-.06-2.92.2-4.38.25a4.51,4.51,0,0,1-1.48-.34c-1-.34-2-.8-3-1.06-1.63-.4-3.46-.21-4.69-1.71a1.75,1.75,0,0,0-2.14-.59c-1.39.61-2.72,1.33-4.08,2-1.75.86-3.52,1.69-5.27,2.55-.36.18-.68.42-1.11.69.44.21.72.37,1,.48,1.36.5,2.74,1,4.08,1.5,1.6.65,3.17,1.41,4.77,2.08a18.64,18.64,0,0,1,2.5.88c1.12.68,2.12,1.53,3.57,1.26a1.19,1.19,0,0,1,.72.24c.7.44,1.37.94,2.09,1.35C141.55,179.76,142.14,180,142.76,180.26Zm-38.11-13.18c-1.25.34-2.22.56-3.15.86-1.18.39-2.31.89-3.49,1.26-1.34.42-2.71.75-4.06,1.11s-3,.75-4.46,1.15c-2.4.64-4.84,1.18-7.18,2a62,62,0,0,0-5.68,2.59,21.17,21.17,0,0,1-3.31,1.56c-3.65,1-7.13,2.58-10.93,3a1.48,1.48,0,0,0-1,.92c-.07.25.35.76.67,1a7.09,7.09,0,0,0,4.42,1.06,18.72,18.72,0,0,0,5.77-.7c1.87-.63,3.9-.78,5.83-1.25,1.39-.34,2.72-1,4.12-1.27,3-.69,6-1.28,9-1.88,3.22-.64,6.44-1.26,9.67-1.88a3.36,3.36,0,0,1,.76-.15c2.69.13,5.12-.86,7.58-1.7.25-.08.43-.36.74-.64a6.91,6.91,0,0,1-4-2.52C104.9,170.33,104.11,169.09,104.65,167.08ZM174,152.54c-1.59-.3-1.51,1.18-2.38,1.48l.25.31Z"/><path class="cls-3" d="M167.53,147.85c-1,.76-1.69,1.27-2.33,1.87-.27.25-.36.45-.84.51a5.74,5.74,0,0,0-1.91,1c-.8.47-1.6.93-2.36,1.46a18.11,18.11,0,0,1-2,1.57A19.73,19.73,0,0,1,154,155.9a11.87,11.87,0,0,1-6.8,0c-2.18-.76-4.15-1.86-4.54-4.36a32.09,32.09,0,0,1-.1-5c0-.49.18-1,.23-1.47a11.31,11.31,0,0,1,2.2-5.6,19.57,19.57,0,0,1,3.23-3.3,28.4,28.4,0,0,1,4-2.79,32.42,32.42,0,0,1,3.1-1.19c1.45-.64,2.85-1.39,4.28-2.06.39-.18.87-.19,1.27-.37a10.63,10.63,0,0,1,4.91-.62,19.91,19.91,0,0,1,3.41.48c1.46.29,2.89.78,4.36,1,1.14.15,1.55.92,2,1.73.09.17-.22.71-.47.85-.72.4-.69.75-.21,1.36,1.37,1.72,1,3.37-.06,5.16a23.73,23.73,0,0,1-2.73,3.66c-.73.82-1.33,1.76-2.08,2.56a16.45,16.45,0,0,1-1.68,1.28A6.75,6.75,0,0,0,167.53,147.85Zm-22.5.52a2,2,0,0,0,0,.62c.51,1.64,2.69,2.53,4.09,2.42a22.89,22.89,0,0,1,3.19-.42c1.56.11,2.79-.8,4.22-1.1a18,18,0,0,0,3.75-1.57c.35-.16.57-.56.91-.77,1.29-.8,2.65-1.48,3.89-2.36a18.47,18.47,0,0,0,2.49-2.31c1.3-1.34,2.82-2.51,3.48-4.38.35-1,.85-1.94,1.21-2.94a1.22,1.22,0,0,0-.1-1,7.85,7.85,0,0,0-2.88-2.25,6,6,0,0,0-2.76-.56,11.92,11.92,0,0,0-2.76.45,26.18,26.18,0,0,0-4.5,1.19,13.13,13.13,0,0,0-2.78,1.38,25.16,25.16,0,0,1-2.31,1.3c-1.41.81-2.31,2.28-3.88,2.83-.17.06-.25.36-.38.54s-.18.44-.31.46c-1.92.34-2.57,2.16-3.69,3.34C144.63,144.64,145.23,146.64,145,148.37Z"/><path class="cls-3" d="M111.9,165.77c1-1.38,2.55-1.31,3.93,0a12.46,12.46,0,0,1,1,1,2.24,2.24,0,0,1,.48,1.93c-.22,1-1.24,1-2,1.18-1.19.25-3-1.39-3.11-2.7A13.69,13.69,0,0,0,111.9,165.77Z"/><path class="cls-3" d="M150.2,173l1.43-.23c.19,0,.46-.14.56-.05,1.44,1.14,3,.36,4.56.41.75,0,1.5.25,2.24.25s1.51-.23,2.26-.25a15.63,15.63,0,0,1,1.73.21c1.22.11,2.55.52,3.65.19,1.61-.47,2.93.44,4.43.47a4.71,4.71,0,0,1,3.24,1.14,5.82,5.82,0,0,0,1.72.76,21.86,21.86,0,0,1,3.55,1.7,3.3,3.3,0,0,1,1.71,2.64,15.2,15.2,0,0,0,.18,1.62c-.54.31-1.47.09-1.42,1.1,0,0-.26.1-.39.16a1.87,1.87,0,0,0-.59.3,4.84,4.84,0,0,1-3.22,1.2c-.56.07-1.53.42-1.42,1.25a6.37,6.37,0,0,1-1.74.83,8.24,8.24,0,0,0-1.83.49,14.17,14.17,0,0,1-2.65.37,15.5,15.5,0,0,0-1.6.44,5.62,5.62,0,0,1-1.06,0,12.93,12.93,0,0,1-1.76-.37c-.95-.25-1.88-.56-2.83-.81s-2-.48-3-.74c-.2-.06-.37-.25-.57-.34-.72-.32-1.46-.61-2.17-1s-1.71-.67-2.2-1.75-1.58-1.83-2.29-2.82a6,6,0,0,1-.9-4.24c.06-.63,0-1.27.08-1.9A7.22,7.22,0,0,1,150.2,173Zm25.26,6.9c-.69-.49-1.3-1-2-1.37-1.07-.62-2.56-.51-3.21-1.87,0-.07-.17-.11-.26-.11-1.43,0-2.72-.63-4.26-.48-1.92.19-3.92-.56-5.9-.76-.85-.09-1.87-.9-2.6.31,0,.07-.24.06-.37.06-1,0-2-.1-3-.08-1.19,0-2.1,1.1-1.68,2a3.65,3.65,0,0,0,1,1.3c1.31,1,2.78,1.8,4,2.9,1.47,1.33,3.33,1.47,5,2,.39.13.92,0,1.21.23,1.35,1,2.88.38,4.31.53.61.06,1.26-.26,1.88-.21a4.79,4.79,0,0,0,3.57-1.34c.18-.15.49-.16.64-.32A4.19,4.19,0,0,0,175.45,179.86Z"/></svg>