<svg xmlns="http://www.w3.org/2000/svg" id="Layer_1" data-name="Layer 1" viewBox="0 0 216 216"><defs><style>.cls-1{fill:#7f3f98}.cls-2{fill:#fff}.cls-3{fill:#f1f2f2}</style></defs><title>test-2-</title><path d="M80.45,166.76a3.16,3.16,0,0,0-1.21.35c-.13.1-.08.66.06.92.51,1,1.07,1.88,1.65,2.79a6.58,6.58,0,0,0,4,2.58,17.5,17.5,0,0,0,3.06.32c-1.08-.84-2-1.42-2.69-2.13a6.18,6.18,0,0,1-1.16-1.75c-.4-.85-.65-1.78-1-2.63-.31-.65-.72-1.12-1.55-.52C81.28,166.86,80.81,166.71,80.45,166.76Zm-2-2c.36-.23.86-.37,1-.69,1-1.91,2-3.83,2.88-5.82a25.26,25.26,0,0,1,3.68-5.66,8.16,8.16,0,0,0-1.36-.31c-1.12,0-2.23,0-3.35,0a1,1,0,0,0-.71.23c-.91,1.22-2.13,2.23-2.5,3.82-.29,1.26-.53,2.53-.9,3.76a9.48,9.48,0,0,0-.17,3.41C77.13,164.63,78.16,164.2,78.47,164.76ZM97,163.35c.87-3-.29-5.71-1.58-8.34a.79.79,0,0,0-.37-.3,28.6,28.6,0,0,0-3.53-1.54c-.63-.2-1.82-.22-2,.13-.64,1-1.87,1.5-2.29,2.8s-1.5,2.54-2.12,3.87-1.28,2.78-.32,4.27a13.65,13.65,0,0,1,1,1.4c.65,1.34,1.2,2.73,1.86,4.07.28.57,1,1,1.08,1.58.23,1.16,1.16,1.18,1.92,1.31a2.43,2.43,0,0,0,1.73-.45,5.28,5.28,0,0,0,.94-1.64l.67.75a35.13,35.13,0,0,0,1.9-3.72C96.39,166.19,96.64,164.75,97,163.35ZM68.63,78l.58-.73c.22,1.19,1.68.26,2.13,1.22a11.7,11.7,0,0,0,.35-2.3,24.87,24.87,0,0,0-.37-4.68c-.23-1.22,0-2.55-.38-3.85a36.49,36.49,0,0,1-.59-4.44l2.77-.65c.14.62.3,1.15.38,1.7.32,2,.64,4,.91,6.07.18,1.41.31,2.84.4,4.26s0,2.63.12,3.94c.06.82.36,1.62.37,2.44,0,1.8-.28,3.61-.12,5.39a19.78,19.78,0,0,1,.46,3.88A20.07,20.07,0,0,0,76.09,94c.12,1.47.14,3,.24,4.42.12,1.75.22,3.5.41,5.25a28.36,28.36,0,0,1,.4,4.69,10.89,10.89,0,0,0,0,2c.15,1.34.4,2.66.57,4,.13,1.14.18,2.29.31,3.43.14,1.34.36,2.66.49,4,0,.44-.08.89,0,1.34.12,1.21.24,2.43.47,3.63.27,1.37-.49,2.84.45,4.13.12.17-.06.56-.1.85a2.5,2.5,0,0,0-.1.69c.09.68.23,1.37.33,2,.19,1.35-.44,2.7.17,4.07a5.48,5.48,0,0,1,.06,1.91c0,1.7.12,3.4.16,5.1,0,.53,0,1,0,1.65H84.4c.08-.06.3-.32.55-.35,1.11-.11,2.23-.15,3.35-.22.87-.06,1.11-.42,1-1.35-.18-1.59-.28-3.18-.45-4.76-.22-2-.49-3.89-.72-5.85-.17-1.45-.36-2.91-.47-4.37,0-.49.33-1.17.11-1.45-.64-.85-.33-1.63-.17-2.46a.37.37,0,0,0,0-.29c-1-1.31-.25-2.86-.55-4.27a19.51,19.51,0,0,1-.18-3.28c0-1.44-.11-2.88-.14-4.33,0-.6,0-1.2,0-2a4.11,4.11,0,0,1-.25-1c-.08-1.26-.08-2.52-.14-3.78-.06-1.08-.18-2.15-.27-3.23-.12-1.48-.17-3-.35-4.44-.2-1.76-.58-3.51-.73-5.28-.19-2.16-.24-4.35-.32-6.53A5,5,0,0,1,84.84,87c-.29-.16-.41-.35-.42-.53,0-.37,0-.75,0-1.12-.11-.85-.27-1.67-.4-2.51-.2-1.37-.39-2.73-.61-4.1-.25-1.6-.52-3.19-.74-4.79-.31-2.13-.6-4.28-.87-6.41-.07-.53,0-1.08,0-1.62-.25-2.62-.64-5.25-.73-7.88a29,29,0,0,0-.56-5.84A14.55,14.55,0,0,1,80,48.92c0-1.54-.18-1.69-1.72-1.43a31.55,31.55,0,0,1-3.45.16A29.27,29.27,0,0,0,70,48.1a10.61,10.61,0,0,1-4.22.13A20.38,20.38,0,0,0,62.08,48c-1.49.06-2.86.75-4.49.28-1.41-.4-3.07,0-4.61.08-1.37.06-2.83.45-4.11.13a13.62,13.62,0,0,0-6.62.37,15.88,15.88,0,0,1-5,.85,9.72,9.72,0,0,0-2.56.47,23.72,23.72,0,0,1-2.81.55c-1.7.15-3.41.19-5.12.25-.48,0-1-.08-1.44-.09-.76,0-1.52,0-2.27,0-.36,0-.71-.27-1-.24s-.69.29-1.06.36a20,20,0,0,1-2.62.36c-1.35.06-2.69,0-4,0-.73,0-1.45,0-2.18,0s-1.18.14-1.84.23a.76.76,0,0,1-.13.35,3,3,0,0,0-.62,2.43,26.53,26.53,0,0,1-.15,2.89,30.14,30.14,0,0,0-.09,3.84c.18,2,.6,3.93.83,5.9.13,1.12.07,2.26.18,3.38.16,1.51.48,3,.62,4.53a29.9,29.9,0,0,0,.16,3.85,27.85,27.85,0,0,1,.47,6.8c0,1.88-.24,3.78-.1,5.65a38.34,38.34,0,0,1,0,4.93,11.66,11.66,0,0,0,.15,2.59c.28,1.68.66,3.36,1,5,.45,2.4.17,4.87.89,7.27a14.35,14.35,0,0,1,.16,4.12c0,1.16-.14,2.33-.19,3.49,0,.71,0,1.41,0,2.12s-.09,1.42-.14,2.13A16.74,16.74,0,0,0,13,125c0,1,.26,2.08.34,3.12.13,2,.3,3.91.3,5.86,0,.75.5,1.51,0,2.29-.16.25-.06.68,0,1a3.23,3.23,0,0,0,.26.67c.45,1.24,0,2.53.26,3.81a41.32,41.32,0,0,1,.48,4.25,7.24,7.24,0,0,0,.38,1.51c.08.21.32.5.49.51,2,0,4.07,0,6.1,0-.25-2.35-.55-4.6-.72-6.84-.12-1.58,0-3.16-.12-4.74-.13-2.67-.36-5.33-.49-8-.12-2.36-.14-4.71-.29-7.07-.19-3.27-.47-6.53-.7-9.79-.15-2.16-.32-4.32-.42-6.48-.06-1.25,0-2.51,0-3.76,0-2.23-.18-4.45-.17-6.68a54,54,0,0,0-.36-7.36c-.38-2.87-.51-5.79-.65-8.69-.13-2.71-.11-5.43-.23-8.15-.07-1.34-.14-2.68-.32-4L20,66.28c0,.28.09.56.13.84.21,1.27.52,2.53.63,3.8a29.7,29.7,0,0,1,0,3.34c0,1.24-.13,2.49,0,3.73.06.68.11,1.65,1.24,1.63a58.42,58.42,0,0,0,6-.18c1.9-.22,3.76.1,5.63,0l4.73-.17c1,0,2.09,0,3.13,0l1.39-.06c.68,0,1.36-.12,2-.13,1.29,0,2.59-.06,3.88-.11,1.53,0,3-.4,4.58.13a5.86,5.86,0,0,0,2.19.31c1.55-.09,3.11-.58,4.61-.4a21.41,21.41,0,0,0,5.16-.36,26.79,26.79,0,0,0,3.08-.7c0-.08,0-.16-.08-.24ZM132,71.45c-.5-.24-1-.52-1.49-.71-1.57-.57-3.19-1-4.71-1.69-3.27-1.44-6.48-3-9.7-4.54a9.05,9.05,0,0,1-2.35-1.42c-1-.89-2.26-.7-3.31-1.49a36.7,36.7,0,0,0-5.33-2.86c-1.45-.76-2.86-1.59-4.35-2.25-1-.44-1.48-1.81-2.9-1.52-.2,0-.5-.66-.85-.88a17.31,17.31,0,0,0-3.11-1.71c-1.33-.48-2.21-1.66-3.75-1.91-1.23-.19-2.32-1.22-3.49-1.84a.94.94,0,0,0-.79,0,1.16,1.16,0,0,0-.41.78c0,.84.15,1.67.2,2.5.08,1.18.12,2.37.16,3.56s.07,2.61.18,3.92c.09,1.08.39,2.13.4,3.2s-.37,2-.34,3c0,1.72.29,3.44.37,5.16.07,1.2,0,2.41,0,3.61,0,.08.08.15.12.24l.16.12c-.62,2,.16,4.33,1.29,6.4l-.4-.1a8.1,8.1,0,0,0,0,1.25c.28,2.27.62,4.52.87,6.78.23,2,.36,4,.57,6,.09.74.37,1.46.44,2.2.12,1.32.12,2.64.24,4,.07.79.27,1.57.41,2.35a20.1,20.1,0,0,1,.45,2.36,25.91,25.91,0,0,0,.18,3.88c.33,1.36-.19,2.73.47,4.08.55,1.11-.23,2.45.23,3.7.19.5,0,1.09.74,1,.1,1.65.3,3.36.55,5.1-1-.12-1.36.13-1.44,1.25,0,.36.15.72.15,1.08,0,2.29-.35,4.63.06,6.84.27,1.5.09,3,.56,4.5a7.67,7.67,0,0,1,.32,2.25c0,1.37,0,2.75,0,4.12,0,.6.13,1.18.15,1.78s.32,1,1,1c1.26-.1,2.51-.24,3.76-.36,1.68-.15,3.36-.28,5-.44,1.87-.18,3.74-.31,5.59-.62a8.48,8.48,0,0,1,4,0,2.62,2.62,0,0,0,2-.34,1.46,1.46,0,0,1,.85-.18c1,.13,2,.36,3,.48,1.19.15,2.21-.71,3.61-.23,1.59.55,3.46.28,5.21.31,1.32,0,2.62-.11,3.94-.09a6.18,6.18,0,0,1,1.34.33c1.56-.72,3.45.44,4.63-.64,1.41.07,2.6.19,3.78.16s2.48-.23,3.72-.36l2.62-.3a22.47,22.47,0,0,1-.76-3.42,29.34,29.34,0,0,1,.26-3.54c.06-1.14.09-2.28.09-3.42a16.41,16.41,0,0,1-.14-1.66c.08-.86.33-1.69.41-2.55,0-.38-.24-.8-.24-1.19,0-1.38.11-2.76.17-4.31l-.38.26v-6a10.53,10.53,0,0,0,.23-1.36c0-.79-.06-1.58,0-2.36a30.57,30.57,0,0,0,.34-3.21c0-1.06.32-2,.28-3.1,0-1.52,0-3,.12-4.57,0-.7.07-1.39.09-2.1a4.61,4.61,0,0,0-.09-1.72v-7a5,5,0,0,0,0-.54c0-1.65-.13-3.32-.18-5,0-.61.15-1.23.11-1.83-.13-1.79-.31-3.58-.53-5.35-.13-1.1-.37-2.18-.57-3.31-.52,0-.93.21-1.22.09-1.1-.48-2.14-1.06-3.22-1.6a44.3,44.3,0,0,0-5-2.44c-1.37-.49-2.54-1.7-4.18-1.31C132.08,71.56,132,71.48,132,71.45ZM8.36,82.12c0-3.15-.38-6.29-.64-9.42-.18-2.2-.37-4.39-.58-6.59-.11-1.19-.26-2.37-.39-3.56-.2-1.71-.45-3.42-.59-5.13-.1-1.21,0-2.44-.09-3.64-.18-1.73-.54-3.44-.81-5.16,0-.17,0-.45.09-.53.81-.62.67-1.56.83-2.4a6.47,6.47,0,0,0,3.9.93c.72-.11,1.48.07,2.21,0,2.12-.2,4.21-.54,6.33-.67,3.2-.21,6.41-.23,9.6-.47,1.76-.13,3.49-.6,5.24-.84,1.56-.21,3.13-.31,4.69-.46a3.17,3.17,0,0,0,.68-.12c1.5-.58,3-.25,4.57-.29,1.76,0,3.52.49,5.3-.06.52-.15,1.15.14,1.74.13s1-.23,1.52-.27q3.09-.22,6.18-.37c.64,0,1.28,0,1.92,0,1.49,0,3,0,4.46-.12s3-.27,4.45-.39c.84-.07,1.67-.1,2.5-.16s1.87-.17,2.8-.27L77.21,42s0-.12,0-.2a10.32,10.32,0,0,1,4.6.88c1.1.42,1.74,1.33,2.75,1.7s2,.65,2.93,1.08a18.83,18.83,0,0,1,1.59,1c1.18.66,2.36,1.35,3.6,1.9a29.08,29.08,0,0,0,2.77.89.91.91,0,0,1,.37.33,6,6,0,0,0,3,2,19.24,19.24,0,0,1,3,1.74c.63.37,1.28.74,1.91,1.12a15.93,15.93,0,0,0,2.6,1c.94.35,1.78,1,2.72,1.39s2.24.76,3.33,1.22c.84.37,1.61.87,2.42,1.3s1.91,1,2.91,1.45c.75.33,1.6.46,2.34.81,1.11.53,2.14,1.2,3.23,1.77a16.82,16.82,0,0,0,3.61,1.73c2,.47,3.52,1.76,5.33,2.51,1.3.53,2.67.87,4,1.29,1.51.48,3,.92,4.53,1.44,1.12.39,2.22.88,3.32,1.35,1.89.79,3.77,1.6,5.66,2.39a.8.8,0,0,0,.49.06c1.45-.56,2.89-.16,4.35,0,.19,0,.42-.28.71-.49.8.23,1.65.78,2.83.23.87-.41,1.89.41,2.87.5,1.6.14,3.2.22,4.8.33.31,0,.72,0,.9.12.42.39.78.2,1.24.16a6.64,6.64,0,0,1,2.11.3,13.77,13.77,0,0,1,6.43,3.85,12.73,12.73,0,0,1,1.7,2.46c.71,1.13,1.43,2.27,2,3.46a28.53,28.53,0,0,1,2.52,7.47c.26,1.29.4,2.61.66,3.89.2,1,.52,2,.74,3a7.05,7.05,0,0,1,0,1.11c0,1.14.1,2.28.14,3.42,0,.16,0,.33.06.49.07,1.76.08,3.53.22,5.29a26.69,26.69,0,0,0,.63,3.46c0,.15.33.33.52.35a3.21,3.21,0,0,0,1-.1,10.08,10.08,0,0,1,3.27.06c2.41.14,4.62,1.06,6.91,1.62a4.23,4.23,0,0,1,3,1.88,28.66,28.66,0,0,0,2.65,3.23,2.79,2.79,0,0,1,.49,1.36c.13.93.12,1.89.26,2.83,0,.28.37.5.6.79-.6,1.26-.19,2.67-.14,4.06.06,1.63.2,3.25.33,4.87a16.89,16.89,0,0,1,.25,3.45,16.38,16.38,0,0,0,.21,3.38c.1,2.11,0,4.22-.06,6.34s-1,3.13-3.11,3.13a4.23,4.23,0,0,0-.76.14l-2.18.37a54.07,54.07,0,0,1-1.73,5.42c-.28.66-1.23,1.1-1.93,1.54-1,.62-1.55-.33-2.36-.7a40.08,40.08,0,0,1-2.7,6.67,18,18,0,0,1-4.1,5.07,6.33,6.33,0,0,1-2.51,1,6.76,6.76,0,0,1-3.08.42,2.74,2.74,0,0,0-.6-.1l.17-2.31a.93.93,0,0,0,.71,0c1.16-.71,2.6-.81,3.58-2.09a16.7,16.7,0,0,0,3.06-5.43c.43-1.48.93-2.94,1.4-4.42.34-1.08.67-2.16,1-3.26a.67.67,0,0,0,0-.34l2.61-.27c0,.15,0,.31,0,.45a3.6,3.6,0,0,0,1.25-.34,3.75,3.75,0,0,0,.63-1,6,6,0,0,0,1.22-4.53c-.33-1.71-.68-3.41-1-5.12a16,16,0,0,0-.93-4.08,32.54,32.54,0,0,0-3.14-4.43,1.45,1.45,0,0,0-.47-.36c-1.12-.64-2.61-.41-3.57-1.47-.14-.15-.49-.11-.64-.26a2.65,2.65,0,0,0-2.66-.82,24.64,24.64,0,0,1-3.16.3c-.06,0-.12,0-.18,0a5.14,5.14,0,0,0-4,.49,1.8,1.8,0,0,1-.6.29c-.85.21-2.42,1.64-2.36,2.61l-.27-.11a6.36,6.36,0,0,0-1.07,1.22c-.53,1-.84,2.11-1.41,3.08a4,4,0,0,0-.85,2.57c0,.16-.13.5-.21.5-.65,0-.49.62-.52.88-.15,1.09-.17,2.18-.26,3.28-.07.92-.81,1.78-.3,2.77,0,0,0,.06-.06.08-.66.83-.27,1.7-.16,2.58a2.41,2.41,0,0,0,.48,1.24l-2.38.12a15.69,15.69,0,0,0-1.33-1.67c.43-1,.43-1-.28-1.43a6.61,6.61,0,0,0-1.33.18c-.32.12-.81.37-.84.61a6,6,0,0,0,.14,1.75c.18,1,.38,2.09.62,3.12.26,1.2.54,2.41.84,3.61l-2.62.24a3.63,3.63,0,0,0-.16-.34c-.82-1.46-.85-3.09-1.57-4.55a8.34,8.34,0,0,1-.3-3.42c0-.76-.33-.91-1-.88-1.82.09-3.62.15-5.44.2-.91,0-1.84-.07-2.74,0-1.11.13-2.19.47-3.3.62a18.55,18.55,0,0,1-2.73.12c-.29,0-.57-.29-.85-.45-.26.39-1.1.46-1.61.39a5.5,5.5,0,0,0-1.67.31c-.18,0-.37.17-.54.17a36.34,36.34,0,0,1-4.11-.22,15,15,0,0,0-4.63.13c-.89.13-1.93-.32-2.74,0-1.3.42-2.45-.09-3.67-.1-1.65,0-3.31-.23-5-.37a.56.56,0,0,0-.29,0c-1.31.91-2.75.42-4.15.46-.62,0-1.25.24-1.87.3a14.71,14.71,0,0,1-1.59,0,21.15,21.15,0,0,1-2.77.77,37.81,37.81,0,0,0-5,.53c-1.22.34-2.63-.09-4-.09a18.52,18.52,0,0,0-2.62.26c-.16,0-.29.29-.29.29.92.87,1.82,1.65,2.65,2.51.18.19.16.6.23.91.34,1.4.72,2.81,1,4.23.07.42-.32.9-.4,1.37-.17.86-.28,1.73-.41,2.6a.78.78,0,0,0,0,.3c.41,1.47-.24,2.86-.46,4.25a6.14,6.14,0,0,1-2,3.5,3.19,3.19,0,0,0-.72,1.27c-.24.72-.48,1.26-1.43,1.23a6.94,6.94,0,0,0-1.79.47,17.82,17.82,0,0,1-2.18.58,9.58,9.58,0,0,1-4.4-.52,7.13,7.13,0,0,0-2.47-.26,4.88,4.88,0,0,1-3.23-1.28,18.72,18.72,0,0,1-2.43-2.7c-.09-.1-.11-.3-.2-.33-1.71-.54-1.21-2.14-1.67-3.3a15.75,15.75,0,0,0-1.72-2.92,5.38,5.38,0,0,1-.62-3.64,17,17,0,0,1,.31-2.79c.3-1.37.77-2.69,1.07-4.06a8.1,8.1,0,0,0-.09-1.87c-1,.14-1.89.34-2.83.42a5.13,5.13,0,0,1-2.39,0c-.64-.29-1-.06-1.53.06-.68.14-1.45-.1-2.12.08a7.49,7.49,0,0,1-3.07,0,5.94,5.94,0,0,0-1.06.14,25.84,25.84,0,0,1-3,.15,25.26,25.26,0,0,1-2.79-.39c-3.23-.46-6.43-1.12-9.75-.75a47.44,47.44,0,0,1-5.23,0c-.2,0-.54.12-.57.24a1,1,0,0,0,.18.68c1,1.58,2,3.13,1.87,5.12a22.35,22.35,0,0,0,.39,2.47,3.29,3.29,0,0,1-.24,1.53,4.43,4.43,0,0,0-.17,3.12c.27,1.06-.36,2.08-.47,3.11-.13,1.3-1,2.19-1.47,3.28-.26.56-1,.93-1.66,1.27-1.41.76-2.75,1.75-4.55,1.45a2.5,2.5,0,0,0-.81,0l-.65-2.33h.14a4.74,4.74,0,0,0,3.12-1.93,11.29,11.29,0,0,0,2.4-4,4.62,4.62,0,0,0,.06-3.19,1.73,1.73,0,0,1-.06-.6,9.19,9.19,0,0,0-2.43-6.76c-.69-.71-1.72-1.17-.85-2.34H32.41c-.36.41-.66.76-1,1.12-.52.64-1.2,1.19-1.13,2.2a1.87,1.87,0,0,1-.45,1.39,4.44,4.44,0,0,0-1.3,2L26.21,159v0c.62-1.75,1.33-3.46,2-5.19-.62-.12-1.27-.22-1.9-.37-1-.22-2-.44-3.06-.71a1,1,0,0,0-1.31.75,26.34,26.34,0,0,1-1.29,5c-.29.89-.44,1.84-.74,2.73a5.07,5.07,0,0,0-.13.55l-2.57-.17c.11-.86.22-1.71.33-2.58l-.09,0c.19-.85.37-1.69.59-2.53s.48-1.87.8-2.79.21-1.35-.78-1.16c-2.22.39-3.74-.8-5.35-2-.79-.58-2-.91-1.87-2a3,3,0,0,0-.84-2.15c-.18-.27-.27-.6-.44-.87-.52-.79.28-1.55,0-2.34A9.33,9.33,0,0,1,9.34,142l.54-.1a2.37,2.37,0,0,1,.16-3.12,4.38,4.38,0,0,1-.28-3.66c-.69-.53-.74-3,.13-3.78-.81-.11-.92-.25-.65-1.14a3.75,3.75,0,0,0,0-3.11.39.39,0,0,1,0-.38c.6-.62.24-1.44.44-2.12a.87.87,0,0,0,0-.87c-.12-.21,0-.58,0-.87.08-.62.13-1.25.24-1.87.14-.86.33-1.7.52-2.72-.45-.28-.39-1.8.36-2.91-.12-.16-.34-.33-.36-.51-.12-1.2-.18-2.4-.29-3.61,0-.56-.14-1.12-.2-1.67a44.24,44.24,0,0,1-.37-4.77c0-.88-.5-1.71-.08-2.68.19-.46-.62-1.38-.4-1.81.59-1.18-.35-2.2,0-3.37.25-.94-.21-2.06-.29-3.11-.14-2.09-.28-4.18-.35-6.28C8.32,85.76,8.35,83.94,8.36,82.12Zm157,60.07c.57-1.5,1-2.82,1.55-4.12q1.31-3.29,2.65-6.57c0-.08.12-.12.2-.17,1.33-.85,2.66-1.67,4-2.53.3-.19.7-.4.8-.69a1.35,1.35,0,0,1,1.61-1.07c.64.07,1.31,0,2.11,0l.29.6a24.12,24.12,0,0,1,3-.52,11.93,11.93,0,0,1,2.13.32,7.59,7.59,0,0,1,1.5.12,14,14,0,0,1,2.08,1c1.33.75,2.66,1.5,4,2.3a4.51,4.51,0,0,1,1,.94c.4.47.66,1.15,1.16,1.43,1.38.76,1.5,2.22,2,3.41a51.44,51.44,0,0,1,1.69,5.8c.25,1,.33,2,.59,3,.14.49.46,1.24.82,1.32a14.09,14.09,0,0,0,2.87.06c-.36-.52-.84-.89-.84-1.27,0-1.85.14-3.68.22-5.53,0-1.12.12-2.24.11-3.36s-.11-2.27-.17-3.4-.12-2.21-.18-3.33-.13-2.28-.22-3.41a43.18,43.18,0,0,0-.47-4.6c-.07-.37,0-1.62-1.2-1.14,0,0-.07-.1-.12-.16l.47-.52c-.37-.11-.74-.11-.86-.27-1.22-1.89-3.19-1.24-4.9-1.56-.93-.17-2,.48-2.83-.37-.08-.08-.35.08-.52,0-1.37-.2-2.82.5-4.16-.37-.94-.62-2.18-.74-3-1.69s-2.33-1.08-2.07-2.75a7.6,7.6,0,0,0-.16-1.59c-.13-1.82-.25-3.63-.37-5.45,0-.43,0-.87,0-1.32,0-.64-.15-1.29-.19-1.93-.08-1.12-.1-2.25-.2-3.36s-.33-2.14-.46-3.22a12.71,12.71,0,0,0,0-1.36,25.58,25.58,0,0,0-1.63-5.8c-.43-.92-.7-2.06-1.1-3.1a11.1,11.1,0,0,0-3-4.08,9,9,0,0,0-4-1.83,8.77,8.77,0,0,0-1.67-.06c-1-.06-2-.12-2.92-.23-2-.24-4-.58-6-.71-.47,0-1,.6-1.51.92-.34-1.43-1.42-1.08-2.51-.58-.75-1-3.76-1.26-4.6-.61,0,1,0,1.85,0,2.7.09,1.35.36,2.68.34,4a29.26,29.26,0,0,0-.27,3.69c.19,1.61.23,3.23.33,4.85.1,1.42.21,2.86.27,4.29.06,1.24,0,2.49.08,3.73,0,.92.07,1.84.06,2.76a37.66,37.66,0,0,0-.09,4.77,16.53,16.53,0,0,1-.15,4,40.09,40.09,0,0,0,.1,6.26c0,1.39.19,2.79.12,4.17a10.44,10.44,0,0,0,0,3.59,10.64,10.64,0,0,1,.12,3.23c0,.93-.31,1.87-.34,2.8,0,1.17.11,2.36.1,3.55,0,.87-.25,1.73-.21,2.6.07,1.16.31,2.33.49,3.6.6,0,1.2,0,1.82,0a17.3,17.3,0,0,0,2.54.11,6.59,6.59,0,0,0,2-.69c1.7-.82,3.41-1.49,5.34-.86.47.15.75.23.92-.41s.68-.54,1.1-.14A5.77,5.77,0,0,1,165.34,142.18Z" class="cls-1"/><path d="M173.34,154.93c.44,1.31-.5,2.79.51,4a.43.43,0,0,1,0,.35,3.67,3.67,0,0,0,0,2.46,8.22,8.22,0,0,0,.27,1.43,11,11,0,0,0,4.18,4.18,4.25,4.25,0,0,0,1.22.54l-.17,2.31c-.73,0-1.38.19-2,.14a10.62,10.62,0,0,1-4-.94c-.28-.14-.68,0-.89,0a16.09,16.09,0,0,0-1.88-1.44,29.46,29.46,0,0,0-3-1.49,10.86,10.86,0,0,1-2.69-2.07L167.3,163a5,5,0,0,0,1.1.71c.77.34,1.34,1.53,2.19.85l1.28.56.19-.23c-.34-.36-.85-.65-1-1.08a25.42,25.42,0,0,1-.83-3.27c-.08-.36.16-.85,0-1.11a7.38,7.38,0,0,1-.53-2.37c-.13-.54,0-1.22-1-1.23-.56,0-1.12-.72-1.66-1.12l.08-.08-1.61-.61a2.37,2.37,0,0,0-.24-2l2.38-.12a2.25,2.25,0,0,0,1,.71c.28-.24.52-.44.74-.66a6.24,6.24,0,0,0,1.12-1.26c.36-.69.28-1.52.61-2.27a12.93,12.93,0,0,0,.82-3,9.45,9.45,0,0,1,1.59-3.64c.7-1.06,1.47-2.06,2.12-3.14a9.46,9.46,0,0,1,3.11-2.53,5.42,5.42,0,0,1,4.08-.45c.26,0,.46-.17.77.22s1.12.13,1.79.18l.81.71c.58.53,1.18,1,1.72,1.58,2.14,2.2,2.81,5.1,3.53,7.91a20.83,20.83,0,0,1,.26,3.65c.06.76.14,1.51.22,2.23l-2.61.27c0-.06,0-.11,0-.15-.65-2-.77-4.13-1.26-6.18-.12-.52-.19-1-.29-1.58l.15,0c-.19-.57-.44-1.12-.58-1.69a4.75,4.75,0,0,0-1.72-2.78,7.5,7.5,0,0,0-3.36-1.38,2.71,2.71,0,0,0-2.79,1.49,23.85,23.85,0,0,1-1.94,2.69c-.22.29-.62.47-.76.79-.56,1.2-1,2.44-1.57,3.66a5.76,5.76,0,0,0-.38.91c-.09.37,0,.76-.11,1.12-.14.69-.33,1.38-.52,2.07a6.56,6.56,0,0,1-.63,1.92C173.09,153.82,174,154.44,173.34,154.93Z" class="cls-1"/><path d="M184.6,148.4c1,.23.87,1,.82,1.67-.2,2.21-.47,4.42-.78,6.62a1.85,1.85,0,0,1-1.39,1.62s-.09,0-.1,0c-.82,1.67-2.41.43-3.57.91-.25.1-.81-.56-1.22-.86-.58-2-.34-4.29-2-6,.94-.36.84-1.09.76-1.82,0-.31-.11-.75.06-.89a5.92,5.92,0,0,0,1.41-2.8,2.8,2.8,0,0,1,2.17-1.08c.39.07.81,0,1.2,0a11.1,11.1,0,0,1,1.78.31c1,.28.47,1.27.77,1.88C184.6,148.13,184.55,148.39,184.6,148.4Z" class="cls-1"/><path d="M175.34,103.87a12.44,12.44,0,0,1,0,2.54,2,2,0,0,1-2.43,2.06c-.57-.09-.93-.72-1.7,0-.51.5-1.77.2-2.69.33-.68.11-1.35.36-2,.48a4.86,4.86,0,0,1-1-.07c-.38,0-.87-.22-1.14,0-1,.62-1.78-.07-2.64-.23-.12,0-.29.15-.43.24,0,.1,0,.19,0,.29-.87-.07-1.75-.11-2.61-.23-.25,0-.47-.31-.68-.5s-.64-.62-.94-1c-.11-.12-.27-.32-.23-.41.39-1.16-.72-1.33-1.19-1.93a11.07,11.07,0,0,1-1-2.16,1.47,1.47,0,0,1,.31.09l1.15.85a10.6,10.6,0,0,0,.3-1.52c.1-1.39.17-2.79.2-4.18s0-2.75,0-4.11,0-2.53,0-3.79a1.45,1.45,0,0,0-.36-.87c-.69-.75-.72-.77-.44-1.77h-.64c-.1-1.47-.1-1.47,2.13-2.89a9.69,9.69,0,0,0,2.41,1.57c1.16.35,2.37.88,3.68.48.13,0,.37.36.54.34,1.28-.11,2.46.44,3.79.35A7.81,7.81,0,0,1,173.13,89a2.84,2.84,0,0,1,1,1.62c.24,1.4.27,2.85.42,4.26.11,1,.28,2,.41,3a4.34,4.34,0,0,1,0,.5c0,1.2,0,2.4,0,3.6C175,102.6,175.29,103.23,175.34,103.87Zm-4.7-.48c.66-.28.43-.59.34-1.09a13.25,13.25,0,0,1-.21-2.89c.06-1,.57-2.08-.39-3-.07-.06,0-.25,0-.37-.06-1.39-.12-2.79-.2-4.36-.91.51-1.53,1-2.33.36a2.92,2.92,0,0,0-1.62-.66,10.56,10.56,0,0,1-2.58,0c-.79-.19-1.66.11-2.58-.21-.59-.2-1.39.31-2.12.39s-.75.37-.58.92a8.47,8.47,0,0,1,.44,1.59c.24,2,.43,4,.62,6.07a12.91,12.91,0,0,0,0,1.62c.12.52.32,1.28.69,1.43a9.55,9.55,0,0,0,2.58.48c1.26.14,2.52.28,3.79.32a2.47,2.47,0,0,0,1.2-.53c.32-.19.44-.4.84,0s.8,1.21,1.58,0c0,.54-.06.76-.08,1C170.38,104.11,170.4,103.49,170.64,103.39Z" class="cls-1"/><path d="M167.3,163l-2.46,1.42a7,7,0,0,0-.88-.71,12,12,0,0,1-2.28-2.81,11,11,0,0,1-1.2-2.47l2.62-.24c0,.13.23.22.34.34a13.83,13.83,0,0,1,1,1.13c.59.86.71,2,1.78,2.58A9.19,9.19,0,0,1,167.3,163Z" class="cls-1"/><path d="M146.89,92.81v7l-.09-.09A9,9,0,0,0,141,98.21c-.19,0-.42-.24-.81-.49a3.08,3.08,0,0,1-.7-.16,26.87,26.87,0,0,0-2.61-1.1c-1.45-.42-3-.69-4.41-1.09-.64-.17-1.22-.54-1.85-.76-.92-.32-1.87-.55-2.8-.87-.58-.19-1.1-.52-1.66-.73-.75-.28-1.52-.51-2.29-.75a1.49,1.49,0,0,0-.62-.15,6.22,6.22,0,0,1-3.51-.59,42.79,42.79,0,0,0-4-1.53c-1.2-.35-2.36-.87-3.52-1.28-2-.69-4.14-.83-6.07-1.81a28.64,28.64,0,0,0-3.93-1.16c-2.18-.7-4.34-1.51-6.52-2.21-1.11-.36-2.27-.55-3.37-.89-.58-.17-1.07-.6-1.63-.78-.84-.27-1.71-.46-2.75-.72-1.12-2.08-1.9-4.38-1.29-6.4l.06,0c0-.17.07-.34.08-.41l0,0c.35.25.56.51.81.55a18.06,18.06,0,0,1,6.43,2.61c2.43,1.47,5,2.8,7.39,4.28A27.31,27.31,0,0,0,107.37,84a30.66,30.66,0,0,0,5.72,1.24,9.88,9.88,0,0,1,3,.62,12.56,12.56,0,0,0,3.37,1,13.85,13.85,0,0,0,3.07.58,10,10,0,0,1,3.11.89c1.31.43,2.61.87,3.89,1.35.46.16.86.5,1.31.63.92.27,1.89.38,2.8.7,1.64.57,3.12,1.59,5,1.6.27,0,.52.48.82.55s.9-.06,1.34,0c2,.33,4,.7,5.93,1.06C146.79,93.7,146.85,93.25,146.89,92.81Z" class="cls-1"/><path d="M145.92,118.23v6c-1.42,1-1.3,1.12-3.11.61a1.06,1.06,0,0,0-.3,0c-2.52-.08-5-.15-7.55-.2-.77,0-1.63.33-2.29.08-1.61-.62-3.11.12-4.67.07-1.76-.07-3.53.59-5.33.12-.15,0-.42-.07-.47,0-.5.82-1.24.48-1.91.42-1.17-.1-2.35-.25-3.52-.27-2.54,0-5.07,0-7.6,0-1.38,0-2.77-.25-4.15-.35a11.69,11.69,0,0,1-2.61-.08c-2.23-.7-4.52-.41-6.77-.66-1-.11-1.9-.17-2.85-.3h-.1c-.25-1.73-.45-3.44-.55-5.1a1.22,1.22,0,0,0,.27-.07c.4-.13,1,.21,1.46.34a2.14,2.14,0,0,0,.54.11,20.09,20.09,0,0,1,2.73-.15c1.5.12,3,.48,4.49.59,1.76.12,3.52.09,5.29.13,1.2,0,2.41.11,3.61.12,1,0,2.08-.07,3.11,0,1.41.13,2.82.38,4.23.59h.3c1.22-.19,2.44-.46,3.66-.56,1.83-.14,3.66-.21,5.49-.23,1.35,0,2.69.14,4,.18s2.73,0,4.11,0c1.61,0,3.22-.12,4.81,0s3.13-1.28,4.43.27l.79-2.21c.15.3.23.42.38.71A.91.91,0,0,1,145.92,118.23Z" class="cls-1"/><path d="M93.6,164.67c0,.31-.48.78-.84.92-1.25.5-2-.13-2.63-1a6.23,6.23,0,0,1-.92-3.4,5,5,0,0,0-.59-1.54c-.24-.58-.76-1.1.21-1.62a2.54,2.54,0,0,1,3.29.39c.19.23.15.67.23,1.09l.89.19C93.37,161.28,93.55,163,93.6,164.67Z" class="cls-1"/><path d="M86.86,74.33l0,0a.1.1,0,0,0,0,0Z" class="cls-1"/><path d="M71.32,59.89c.87.11,2.18,1.59,2,2.43,0,.15-.23.27-.26.3l-2.77.65a12,12,0,0,0-1.56,0c-1.93.26-3.85.61-5.78.83-.94.12-1.9-.06-2.85,0-1.12.12-2.21.45-3.33.62s-2,.26-3.07.35c-.47,0-1,0-1.42,0-1.11.12-2.21.31-3.32.4s-2.43.12-3.64.21c-1.65.14-3.31.41-5,.47-1.42,0-2.83-.53-4.28-.22,0,0-.07,0-.11,0-1.35-.14-2.69-.31-4-.42-.65-.06-1.32,0-2,0a8.43,8.43,0,0,1-1.47-.42c-1.34.77-2.94.4-4.54.17-.2,0-.51-.44-.56-.44-1,.87-2.12,0-3.16.15a.61.61,0,0,0-.38.45,8.41,8.41,0,0,0,.09.85l-2.87.18c-.07-.44-.13-.88-.22-1.32-.3-1.48-.16-3.2-1.83-4.29.91-.5,1.68-1,2.49-1.34a.85.85,0,0,1,.74.15,8.52,8.52,0,0,1,1.18,1.17A3.94,3.94,0,0,0,23.08,62a8.16,8.16,0,0,1,1.37.11c.22,0,.43.18.65.18a28.31,28.31,0,0,0,5-.15c1.2-.24,2.51.69,3.59-.39.06,0,.25,0,.37,0A5.49,5.49,0,0,0,35,62c.93,0,1.86,0,2.79,0,1.6,0,3.19,0,4.8-.08,1.11,0,2.21-.17,3.32-.21,2.06-.09,4.11-.14,6.16-.2l3.5-.11c1,0,2,0,3,0,.73,0,1.44-.26,2.17-.35,2.06-.26,4.14-.24,6.13-1a8.93,8.93,0,0,1,2.82-.48A9.84,9.84,0,0,1,71.32,59.89Z" class="cls-1"/><path d="M36.76,161.89a21.28,21.28,0,0,1-.4,4.19,4.89,4.89,0,0,1-.81,1.71c-.11.15-.52.09-.79.14a11.45,11.45,0,0,1-1.27.27,2.52,2.52,0,0,1-.87-.14c.07-.68-.43-.79-.88-1a1.43,1.43,0,0,1-.58-.69c-.27-.58-.47-1.19-.82-2.07.37-.69,1.17-1.56.29-2.82-.46-.65.71-2.15,1.57-2.14a2.28,2.28,0,0,0,.66-.14C35.12,158.43,36.68,159.45,36.76,161.89Z" class="cls-1"/><path d="M32.94,171.84l.65,2.33a1.4,1.4,0,0,0-.9.58c-.19.27-.83.29-1.27.32-1.61.09-3.21.17-4.81.17a2.57,2.57,0,0,1-1.46-.47c-.47-.36-.81-.74-1.51-.57-.25.06-.66-.37-.93-.63-1.19-1.21-2.82-2-3.53-3.68-.06-.13-.09-.29-.15-.41l-1-1.65c.27-.57-.1-1.18-.72-1.86a6.62,6.62,0,0,1-.87-1.86l.44,0c.11-.87.22-1.73.33-2.6l2.57.17a2.84,2.84,0,0,0,1.27,3,3.48,3.48,0,0,0,4.09-2.09c.34-1.24.64-2.49,1.07-3.7l2.35.76a12.13,12.13,0,0,0-.36,1.35,11.48,11.48,0,0,0,.22,3.86c.12.84,0,1.82.87,2.39,0,0,0,.21,0,.29.26.5.54,1,.82,1.48a5.55,5.55,0,0,1,.61,1.12A2.79,2.79,0,0,0,32.94,171.84Zm-7.68-.17A3.69,3.69,0,0,0,29.73,173c-.69-1-1.33-1.87-2-2.74-.21-.27-.63-.38-.77-.67-.5-1-.91-2-1.34-2.94-1,.21-2,.39-2.88.64-.19,0-.46.47-.4.61a9.12,9.12,0,0,0,1.12,2.17C23.95,170.7,24.77,171.05,25.26,171.67Z" class="cls-1"/><path d="M43.46,93.22A5.08,5.08,0,0,1,43.67,88c.5-.88,1-1.89,2.34-2-.15-1.42.44-2.82,0-4.23a14.22,14.22,0,0,1-.43-1.69,3.17,3.17,0,0,1,0-.73c.51-.08,1-.19,1.44-.23,1.09-.08,1.65.58,1.58,1.66a10,10,0,0,0,0,3.79,1.64,1.64,0,0,1,0,.71c-.07.4.15.59.49.67a6.17,6.17,0,0,0,.93.19A2.72,2.72,0,0,1,52.36,88a4.28,4.28,0,0,1-.05,3.39,5.49,5.49,0,0,1-2.11,2.81c-1,.57-2,1.25-3.3.57-.1-.06-.25-.13-.34-.1-1.11.38-1.65-.6-2.42-1ZM45,92.56a4.37,4.37,0,0,0,1,.59,2,2,0,0,0,1.72,0,3.77,3.77,0,0,0,1.82-2.78,1.64,1.64,0,0,0-.64-1.58,2.87,2.87,0,0,0-2.18.09L45,90.53Z" class="cls-2"/><path d="M56,152c1,2.91-.75,4.82-2.48,6.67-1.17,1.27-2.57,2.31-3.63,3.7-.9,1.17-2,2.18-3,3.27-.13.14-.22.37-.38.44a19.2,19.2,0,0,0-5.06,4.2c-1.94,2-4.35,3.38-6.2,5.46a8.4,8.4,0,0,1-2.47,1.79,16.19,16.19,0,0,0-1.75,1l-1.81-.46c.44-.32.87-.64,1.31-1a32.32,32.32,0,0,0,3.12-2.59c1.77-1.8,3.35-3.8,5.17-5.53a61.66,61.66,0,0,0,6.16-6c.92-1.14,2.31-1.72,3.15-3a12,12,0,0,1,2.75-2.5,5.69,5.69,0,0,0,2.38-4.89l-.29-.18c-.53.53-1,1.06-1.58,1.57-1.67,1.61-3.36,3.17-5,4.79-2.14,2.12-4.24,4.28-6.37,6.4a18.7,18.7,0,0,1-2.13,2,28.18,28.18,0,0,0-2.87,2.17c-1.17,1.11-2.45,2.09-3.68,3.11L30,171.14c2.91-2.66,5.71-5.43,8.65-8.07,2.39-2.14,4.57-4.5,7-6.62,2.08-1.82,3.94-3.88,6-5.93L49.9,148l.55-1.67a10.13,10.13,0,0,0,1.33.27c.55.12,1,.24,1.06,1,0,.3.58.56.9.8a8.24,8.24,0,0,0,.93.56,2.54,2.54,0,0,1,1.17,2.22A4.27,4.27,0,0,0,56,152Z" class="cls-1"/><path d="M53.19,152.66a5.69,5.69,0,0,1-2.38,4.89,12,12,0,0,0-2.75,2.5c-.85,1.28-2.23,1.86-3.15,3a61.66,61.66,0,0,1-6.16,6c-1.83,1.73-3.4,3.73-5.17,5.53a32.32,32.32,0,0,1-3.12,2.59c-.43.34-.87.66-1.31,1-1.32,1-2.64,1.92-3.86,3-.75.65-1.62,1.11-2.33,1.8s-.69.65-1.87,0a44.05,44.05,0,0,1,7.09-7.15c0-1,1.09-1.56,1.87-2.27.39-.36.81-.71,1.22-1.06,1.23-1,2.51-2,3.68-3.11a28.18,28.18,0,0,1,2.87-2.17,18.7,18.7,0,0,0,2.13-2c2.13-2.12,4.23-4.29,6.37-6.4,1.64-1.62,3.34-3.18,5-4.79.53-.51,1-1,1.58-1.57Z" class="cls-3"/><path d="M50.44,146.34,49.9,148c-1,.17-2.1.41-3.15.51s-1.83.09-2.74.13l-.06-2c1.75,0,3.38-.72,5.11-.84.23,0,.57-.07.68.06A1.66,1.66,0,0,0,50.44,146.34Z" class="cls-1"/><path d="M49.9,148l1.73,2.5c-2,2-3.91,4.11-6,5.93-2.41,2.12-4.59,4.48-7,6.62-2.94,2.63-5.74,5.4-8.65,8.07l0,0c-1.33,1.21-2.88,2.19-4.14,3.47-2,2-4.58,3.45-6.51,5.63a4.48,4.48,0,0,1-3.3,1.66,4.13,4.13,0,0,1-.59,0c-1.32-.19-2.67-.17-4-.31a4.73,4.73,0,0,1-1.16-.42c.82-.83,1.51-1.5,2.18-2.19.3-.32.51-.81.87-1,1-.43,1.39-1.31,2-2,1.13-1.28,2.23-2.61,3.45-3.8,2.94-2.86,6-5.63,8.92-8.5,1.79-1.73,3.46-3.59,5.23-5.34,1.48-1.47,3.08-2.84,4.56-4.33s2.91-3.13,4.39-4.67a2,2,0,0,1,1.09-.61c.34,0,.67-.06,1-.07.91,0,1.83,0,2.74-.13S48.85,148.19,49.9,148Z" class="cls-3"/><path d="M43.94,146.67l.06,2c-.35,0-.68,0-1,.07a2,2,0,0,0-1.09.61C40.42,150.87,39,152.5,37.5,154s-3.08,2.86-4.56,4.33c-1.77,1.75-3.44,3.61-5.23,5.34-3,2.86-6,5.63-8.92,8.5-1.22,1.19-2.32,2.52-3.45,3.8-.63.72-1.08,1.6-2,2-.37.17-.58.66-.87,1-.67.69-1.37,1.37-2.18,2.19a4.73,4.73,0,0,0,1.16.42c1.34.13,2.69.12,4,.31a4.13,4.13,0,0,0,.59,0v1.9H9.59a2.07,2.07,0,0,0,1,1l-.32,1.36a2.74,2.74,0,0,0-1,0,1.35,1.35,0,0,1-1-.46,8.72,8.72,0,0,1-2-2.33,2.11,2.11,0,0,0-1-1,7.73,7.73,0,0,1-.87-.82,3.78,3.78,0,0,0,.92-.3,33.12,33.12,0,0,0,6-5.07,84.44,84.44,0,0,1,7.16-7.9c1.73-1.59,3.54-3.08,5.28-4.65.72-.65,1.33-1.42,2-2.1,1.25-1.23,2.58-2.38,3.8-3.64a68.45,68.45,0,0,0,7.21-8.09,8,8,0,0,1,4.65-3,4.64,4.64,0,0,1,1.8-.26A5.07,5.07,0,0,0,43.94,146.67Z" class="cls-1"/><path d="M30,171.14l1.25,1.35c-.41.35-.83.7-1.22,1.06-.79.71-1.92,1.24-1.87,2.27A44.05,44.05,0,0,0,21.07,183c1.18.64,1.21.65,1.87,0s1.58-1.14,2.33-1.8c1.22-1.08,2.55-2,3.86-3l1.81.46a19,19,0,0,0-1.62,1.25,24,24,0,0,0-2.2,2.52,27,27,0,0,1-3.35,3.52,8.45,8.45,0,0,1-3.36,1.24,18.85,18.85,0,0,1-2.86,0,13.51,13.51,0,0,0-1.86.28,7,7,0,0,1-2.71-.24c-.93-.19-1.76-.78-2.69-1l.32-1.36a8.42,8.42,0,0,0,6,.35c.09-.43.18-.87.28-1.38H16v-1.9a4.48,4.48,0,0,0,3.3-1.66c1.93-2.18,4.48-3.6,6.51-5.63,1.26-1.28,2.82-2.26,4.14-3.47Z" class="cls-1"/><path d="M16,183.85h.88c-.1.52-.19,1-.28,1.38a8.42,8.42,0,0,1-6-.35,2.07,2.07,0,0,1-1-1Z" class="cls-3"/></svg>