<svg id="Layer_1" data-name="Layer 1" xmlns="http://www.w3.org/2000/svg" viewBox="0 0 216 216"><defs><style>.cls-1{fill:#7f3f98;}</style></defs><title>hire-us</title><path class="cls-1" d="M93,83c1.12.35,2.3.54,3.42.9,2.21.71,4.38,1.52,6.58,2.24a27.13,27.13,0,0,1,4,1.17c1.94,1,4.11,1.12,6.13,1.83,1.17.41,2.34.95,3.56,1.29a43,43,0,0,1,4,1.55,6.29,6.29,0,0,0,3.54.6,1.44,1.44,0,0,1,.62.15c.77.25,1.55.47,2.31.76.57.21,1.1.54,1.68.75.93.33,1.9.56,2.83.88.63.22,1.22.59,1.86.77,1.48.4,3,.66,4.47,1.09.91.27,1.75.75,2.64,1.11a3.41,3.41,0,0,0,.71.17c.39.25.62.52.81.49,2.17-.31,4,.55,5.82,1.56a.26.26,0,0,1,.08.09V93.33c0,.45-.1.91-.15,1.43-2-.35-4-.73-6-1.07-.44-.07-.92.09-1.35,0s-.55-.55-.83-.55c-1.86,0-3.35-1-5-1.62-.91-.32-1.89-.43-2.83-.71-.46-.14-.86-.48-1.32-.64-1.3-.48-2.62-.92-3.93-1.36a10,10,0,0,0-3.16-.9,14.33,14.33,0,0,1-3.1-.58,13,13,0,0,1-3.41-1,10.19,10.19,0,0,0-3.07-.63,30.4,30.4,0,0,1-5.78-1.25,27.91,27.91,0,0,1-6-2.27c-2.45-1.5-5-2.84-7.47-4.33a18.38,18.38,0,0,0-6.51-2.63c-.25,0-.46-.3-.82-.56v0l-.07.41-.06,0c-.63,2,.16,4.37,1.3,6.47,1,.26,1.93.45,2.78.72C91.88,82.44,92.38,82.87,93,83Z"/><path class="cls-1" d="M87.36,74.69v0h0Z"/><path class="cls-1" d="M146.65,118.49l-.79,2.23c-1.31-1.56-2.94-.14-4.47-.27s-3.24,0-4.87,0c-1.38,0-2.76,0-4.14,0s-2.72-.19-4.08-.18c-1.85,0-3.7.08-5.55.23-1.24.1-2.47.37-3.7.56a1.06,1.06,0,0,1-.3,0c-1.43-.2-2.85-.46-4.28-.59-1-.09-2.09,0-3.13,0-1.22,0-2.44-.1-3.66-.13-1.78,0-3.57,0-5.34-.14-1.52-.11-3-.47-4.53-.59a21.26,21.26,0,0,0-2.77.16,1.93,1.93,0,0,1-.54-.11c-.5-.12-1.07-.47-1.48-.33l-.28.07c.1,1.67.3,3.39.56,5.14h.1c1,.13,1.92.2,2.88.31,2.28.25,4.59,0,6.84.66a11.88,11.88,0,0,0,2.63.08c1.4.09,2.79.32,4.2.35,2.56.06,5.12,0,7.68,0,1.19,0,2.37.18,3.55.28.69.06,1.43.4,1.94-.43,0-.07.32,0,.47,0,1.82.48,3.61-.18,5.39-.12,1.58.06,3.1-.7,4.72-.07.66.26,1.53-.09,2.31-.07,2.54,0,5.09.13,7.63.2a1.22,1.22,0,0,1,.3,0c1.84.53,1.72.35,3.15-.62V119l0,.17Z"/><path class="cls-1" d="M206.25,142a17,17,0,0,1-.21-3.42,16.66,16.66,0,0,0-.25-3.49c-.12-1.64-.26-3.28-.32-4.92,0-1.4-.46-2.83.14-4.11-.23-.28-.57-.52-.61-.79-.14-.95-.13-1.91-.26-2.86a3,3,0,0,0-.5-1.37,27.86,27.86,0,0,1-2.68-3.27,4.29,4.29,0,0,0-3-1.91c-2.31-.56-4.55-1.48-7-1.63a10.32,10.32,0,0,0-3.3-.06,3.27,3.27,0,0,1-1.06.1c-.19,0-.49-.19-.52-.35a27.93,27.93,0,0,1-.64-3.5c-.15-1.78-.16-3.56-.23-5.35,0-.17,0-.33-.06-.5q-.08-1.73-.15-3.45a6.43,6.43,0,0,0,0-1.12c-.22-1-.55-2-.75-3-.26-1.31-.41-2.64-.67-3.94a29,29,0,0,0-2.54-7.54c-.62-1.2-1.34-2.35-2.06-3.5a12.7,12.7,0,0,0-1.72-2.49,14,14,0,0,0-6.5-3.89,6.91,6.91,0,0,0-2.12-.3c-.47,0-.83.24-1.26-.16-.18-.17-.6-.1-.91-.13-1.62-.11-3.24-.18-4.85-.33-1-.09-2-.92-2.91-.51-1.19.55-2.05,0-2.86-.23-.29.21-.52.52-.72.5-1.47-.14-2.93-.53-4.4,0a.75.75,0,0,1-.49-.06l-5.72-2.42c-1.11-.47-2.21-1-3.35-1.36-1.51-.53-3-1-4.57-1.45-1.36-.43-2.75-.77-4.06-1.31-1.83-.75-3.37-2.06-5.38-2.53a16.83,16.83,0,0,1-3.66-1.75c-1.1-.57-2.14-1.25-3.26-1.78-.75-.36-1.6-.49-2.37-.82-1-.44-2-1-2.94-1.47-.82-.43-1.6-.95-2.45-1.31-1.1-.47-2.27-.77-3.36-1.24-.95-.41-1.79-1.06-2.75-1.41a15.27,15.27,0,0,1-2.62-1.06l-1.94-1.13a19.28,19.28,0,0,0-3-1.75,6.11,6.11,0,0,1-3-2,.9.9,0,0,0-.38-.33,29.27,29.27,0,0,1-2.8-.91c-1.25-.56-2.44-1.25-3.63-1.92-.56-.31-1-.81-1.6-1.06-1-.43-2-.72-3-1.08s-1.68-1.3-2.78-1.72a10.26,10.26,0,0,0-4.64-.9l0,.2-3,.33c-.94.1-1.88.19-2.82.27s-1.69.1-2.53.17c-1.5.13-3,.31-4.5.4s-3,.1-4.51.13c-.65,0-1.3-.06-1.94,0q-3.13.16-6.25.38c-.52,0-1,.26-1.53.27s-1.23-.29-1.76-.13c-1.8.55-3.57,0-5.35.06-1.54,0-3.11-.29-4.62.29a2.65,2.65,0,0,1-.69.12c-1.58.16-3.17.26-4.74.47-1.77.24-3.52.71-5.3.84-3.23.24-6.47.26-9.7.47-2.14.14-4.26.48-6.4.68-.74.07-1.51-.1-2.24,0a6.51,6.51,0,0,1-3.94-.95c-.15.86,0,1.8-.83,2.43-.11.08-.12.36-.09.54.27,1.74.63,3.47.82,5.22.13,1.21,0,2.46.08,3.68.14,1.74.39,3.46.59,5.2.14,1.2.29,2.39.41,3.59.21,2.22.39,4.44.58,6.66.26,3.17.68,6.33.65,9.52,0,1.84,0,3.68,0,5.52.07,2.12.2,4.23.35,6.34.07,1.06.54,2.18.29,3.14-.31,1.18.63,2.22,0,3.41-.22.43.61,1.37.41,1.83-.42,1,.1,1.81.08,2.71a42.79,42.79,0,0,0,.38,4.82c.05.56.16,1.12.21,1.69.1,1.21.17,2.43.29,3.64,0,.18.24.35.36.52-.76,1.13-.82,2.66-.36,2.94-.2,1-.38,1.89-.53,2.75-.11.62-.17,1.26-.24,1.89,0,.3-.18.67-.05.88a.87.87,0,0,1,0,.87c-.21.69.15,1.51-.45,2.14a.43.43,0,0,0,0,.39,3.79,3.79,0,0,1,0,3.14c-.27.91-.15,1.05.66,1.16-.89.73-.84,3.28-.14,3.82a4.42,4.42,0,0,0,.28,3.7A2.38,2.38,0,0,0,9.58,143l-.55.1a10,10,0,0,0,.24,1.12c.27.79-.54,1.57,0,2.37.18.27.27.61.45.87a3,3,0,0,1,.84,2.18c-.1,1.12,1.1,1.46,1.9,2,1.63,1.2,3.16,2.39,5.4,2,1-.18,1.14.2.79,1.18s-.57,1.87-.81,2.81-.4,1.71-.59,2.56l.09,0-.66,5.22-.45,0a6.9,6.9,0,0,0,.88,1.87c.63.68,1,1.3.73,1.88.41.69.71,1.17,1,1.67a3.78,3.78,0,0,1,.16.42c.72,1.69,2.36,2.5,3.57,3.72.27.27.69.7.94.64.71-.18,1.05.21,1.53.58a2.6,2.6,0,0,0,1.47.48c1.62,0,3.24-.09,4.86-.18.45,0,1.09,0,1.29-.32a1.62,1.62,0,0,1,1.73-.57c1.82.3,3.17-.7,4.6-1.47.62-.33,1.42-.72,1.67-1.28.49-1.09,1.35-2,1.49-3.31.11-1,.75-2.08.48-3.14a4.5,4.5,0,0,1,.17-3.16,3.22,3.22,0,0,0,.24-1.54,22.34,22.34,0,0,1-.39-2.5c.08-2-.9-3.58-1.89-5.18a1,1,0,0,1-.19-.69c0-.13.38-.25.58-.25a48.14,48.14,0,0,0,5.28,0c3.35-.39,6.59.29,9.86.75.94.13,1.88.37,2.82.4a27.16,27.16,0,0,0,3-.16,5.52,5.52,0,0,1,1.07-.14,7.71,7.71,0,0,0,3.1,0c.67-.18,1.45.06,2.13-.08.54-.11.9-.35,1.55-.05a5.21,5.21,0,0,0,2.41,0c.95-.09,1.88-.28,2.86-.43a7.81,7.81,0,0,1,.09,1.9c-.3,1.38-.78,2.72-1.08,4.1a18.1,18.1,0,0,0-.31,2.82,5.52,5.52,0,0,0,.62,3.69,15.5,15.5,0,0,1,1.74,2.95c.46,1.17,0,2.79,1.69,3.34.09,0,.12.23.2.33a19.15,19.15,0,0,0,2.46,2.73,4.92,4.92,0,0,0,3.27,1.29,7.08,7.08,0,0,1,2.49.26,9.76,9.76,0,0,0,4.46.53,18.09,18.09,0,0,0,2.2-.58,6.67,6.67,0,0,1,1.81-.48c1,0,1.2-.52,1.45-1.25a3.12,3.12,0,0,1,.73-1.28,6.28,6.28,0,0,0,2.06-3.54c.22-1.41.88-2.81.46-4.29a.76.76,0,0,1,0-.3c.13-.88.24-1.76.41-2.63.09-.47.48-1,.41-1.39-.24-1.44-.63-2.85-1-4.28-.07-.31,0-.72-.24-.92-.84-.86-1.74-1.66-2.68-2.54,0,0,.12-.27.29-.29a18.4,18.4,0,0,1,2.65-.26c1.34,0,2.77.42,4,.09a38.49,38.49,0,0,1,5.1-.54,20.59,20.59,0,0,0,2.79-.77c.44,0,1,0,1.6,0s1.26-.29,1.9-.3c1.42,0,2.88.46,4.2-.47a.5.5,0,0,1,.29,0c1.67.13,3.34.35,5,.36,1.23,0,2.4.53,3.7.09.82-.28,1.87.18,2.77,0a15.18,15.18,0,0,1,4.69-.14,35,35,0,0,0,4.15.22c.18,0,.36-.13.55-.17a5.45,5.45,0,0,1,1.69-.31c.52.06,1.36,0,1.62-.4.29.16.57.45.85.46a17.66,17.66,0,0,0,2.76-.13c1.12-.15,2.22-.49,3.34-.63.91-.11,1.85,0,2.77,0,1.83-.05,3.67-.12,5.5-.21.66,0,1,.13,1,.89a8.37,8.37,0,0,0,.3,3.46c.73,1.48.76,3.13,1.58,4.6a17,17,0,0,0,1.38,2.84c.76,1,1.27,2.13,2.31,2.84,1.27.86,2.16,2.18,3.61,2.81a30.77,30.77,0,0,1,3.07,1.5,17.64,17.64,0,0,1,1.91,1.46c.21,0,.62-.12.9,0a10.65,10.65,0,0,0,4,.95c.82.06,1.64-.32,2.64,0a6.73,6.73,0,0,0,3.11-.43,6.29,6.29,0,0,0,2.54-1,18.41,18.41,0,0,0,4.14-5.12,41.24,41.24,0,0,0,2.73-6.75c.82.38,1.4,1.34,2.39.71.71-.45,1.67-.88,2-1.55a56.71,56.71,0,0,0,1.75-5.48l2.2-.38a4.58,4.58,0,0,1,.77-.15c2.14,0,3.12-1,3.13-3.17S206.35,144.13,206.25,142ZM20.88,166.06c-1.1-.46-1.62-2.2-1.15-3.64.3-.9.45-1.85.75-2.76a26.77,26.77,0,0,0,1.3-5.07,1,1,0,0,1,1.32-.77c1,.28,2.05.5,3.09.72.64.14,1.3.25,1.92.37-.68,1.75-1.4,3.48-2,5.25-.44,1.24-.76,2.51-1.1,3.78A3.52,3.52,0,0,1,20.88,166.06Zm-.31-94.85c-.12-1.29-.43-2.56-.65-3.84a13.88,13.88,0,0,1-.22-1.7.62.62,0,0,1,.39-.46c1-.16,2.15.73,3.19-.15,0,0,.35.42.57.45,1.61.23,3.23.59,4.58-.18a9.09,9.09,0,0,0,1.5.43c.66.07,1.33,0,2,0,1.37.11,2.73.28,4.1.42,0,0,.07,0,.1,0,1.47-.31,2.89.27,4.33.22,1.68-.06,3.35-.33,5-.47,1.22-.1,2.46-.11,3.68-.22s2.23-.29,3.36-.4c.48,0,1,0,1.44,0,1-.09,2.07-.19,3.1-.35s2.23-.5,3.36-.63c.95-.11,1.92.07,2.87,0,2-.23,3.89-.58,5.85-.84a12,12,0,0,1,1.57,0,36.83,36.83,0,0,0,.6,4.49c.34,1.31.15,2.65.38,3.89A24.15,24.15,0,0,1,72,76.59a11.27,11.27,0,0,1-.35,2.32c-.46-1-1.93,0-2.16-1.23l-.58.74-.38-.36.07.25a27.73,27.73,0,0,1-3.1.71,22,22,0,0,1-5.22.36c-1.52-.18-3.1.32-4.67.41a5.85,5.85,0,0,1-2.21-.31c-1.55-.55-3.08-.19-4.63-.14-1.31,0-2.62.06-3.92.1-.68,0-1.36.1-2,.14q-.7,0-1.41.05c-1.06,0-2.11,0-3.17,0-1.59,0-3.19.11-4.78.18-1.9.08-3.77-.25-5.69,0a60.13,60.13,0,0,1-6,.18c-1.15,0-1.19-1-1.24-1.65-.11-1.25,0-2.51,0-3.77A31,31,0,0,0,20.57,71.21Zm3,13.2c1.12-.06,2.24-.18,3.37-.28.09,0,.19-.14.26-.12,2.12.61,4.22-.18,6.34-.12,2.82.07,5.65-.11,8.48-.19,2.1-.06,4.2-.09,6.3-.19,1.74-.08,3.48-.3,5.22-.37,1.23,0,2.47.15,3.7.07,1.42-.09,2.83-.56,4.24-.52,2.17.06,4.46-.77,6.49.3a2.46,2.46,0,0,0,2.29.17,4.32,4.32,0,0,1,1.71.15l.75,15.37a11.41,11.41,0,0,0-2.53.21,9.37,9.37,0,0,1-3.55.56c-1.05-.06-2.12.16-3.18.16s-2-.15-3.07-.13-2.24.18-3.37.24c-.35,0-.7-.19-1-.17-.59,0-1.17.23-1.76.28-1.52.13-3,.25-4.57.31-1.16,0-2.33-.05-3.49,0-1.91.11-3.81.32-5.72.46a38.33,38.33,0,0,0-4.32.29c-2.05.39-4.17,0-6.2.72a7.32,7.32,0,0,1-2.64.05c-1.66-.08-3.32-.2-5.14-.32.08-5.59-.61-11.22-1-16.92C21.93,84.41,22.73,84.45,23.52,84.4Zm50.11,27.84c.15.27-.14.76-.14,1.16,0,1.94,0,3.88.09,5.82,0,1.35.17,2.69.28,4.36a11.1,11.1,0,0,0-1.67-.19c-.55,0-1.09.26-1.64.27-1.88,0-3.85-.32-5.63.12-1.56.38-3.1.11-4.62.47a24.24,24.24,0,0,1-3.93.34c-1.92.12-3.85.2-5.78.34-.21,0-.41.24-.66.39l-.1-.26a13.46,13.46,0,0,0-1.52-.08c-1.53.1-3,.23-4.57.35-.64.05-1.27.18-1.91.19-2.12,0-4.25-.06-6.37,0a29.44,29.44,0,0,0-3.17,0,16.78,16.78,0,0,1-3.13.12c-.57,0-1.13-.3-1.71-.35-.82-.07-1.64,0-2.47,0a2.57,2.57,0,0,1-.75,0c-1.2-.39-1.55-.82-1.29-2,.42-2-.17-4-.37-5.92-.1-1-.2-2-.28-3-.17-2.16-.41-4.32-.44-6.48a8,8,0,0,1,.62-2.35,13.07,13.07,0,0,0,2.39-.21,7.83,7.83,0,0,1,3.74.14,6.86,6.86,0,0,0,2.47-.08c1.19-.22,2.33-.69,3.53-.88a7,7,0,0,1,2,.3,17.69,17.69,0,0,0,5.8-.11,31.53,31.53,0,0,1,4.59,0c1,0,1.9-.19,2.85-.26,1.37-.11,2.73-.23,4.1-.3,1-.05,1.93-.06,2.89-.06,1.38,0,2.76.12,4.14.08,1.83-.06,3.65-.23,5.47-.33.55,0,1.11.08,1.65,0,1.33-.12,2.66-.3,4-.45.62-.07.81.23.83.84.08,1.66.36,3.32.31,5A5.69,5.69,0,0,0,73.63,112.24ZM25.13,173c-.5-.62-1.33-1-1.83-1.61a9.36,9.36,0,0,1-1.14-2.2c-.06-.13.22-.56.41-.61.95-.26,1.92-.44,2.92-.65.43,1,.85,2,1.35,3,.14.28.57.41.78.67.69.89,1.33,1.81,2,2.77A3.74,3.74,0,0,1,25.13,173Zm13.49-5.87a11.32,11.32,0,0,1-2.43,4.08,4.78,4.78,0,0,1-3.15,2,2.75,2.75,0,0,1-2.37-1.62,5.34,5.34,0,0,0-.62-1.13c-.28-.5-.56-1-.82-1.5,0-.08,0-.26,0-.29-.91-.58-.76-1.58-.88-2.42a11.68,11.68,0,0,1-.23-3.9,5.78,5.78,0,0,1,1.68-3.42,1.91,1.91,0,0,0,.45-1.41c-.07-1,.62-1.57,1.15-2.23.3-.37.61-.72,1-1.13h3c-.88,1.18.16,1.64.86,2.36a9.28,9.28,0,0,1,2.46,6.83,1.59,1.59,0,0,0,.06.6A4.7,4.7,0,0,1,38.62,167.16Zm32.16-18.52a33.1,33.1,0,0,0-3.37.71c-.13,0-.29.18-.36.14-1.86-1.09-3.88-.13-5.82-.48a19.36,19.36,0,0,0-6.31-.18c-2.84.45-5.53-.57-8.31-.31-.09,0-.22-.12-.27-.09-1.62.9-3.42-.18-5.08.47-.29.11-.7-.13-1.07-.16a32.8,32.8,0,0,0-8,.77,8.45,8.45,0,0,1-1.72-.07c-1.27,0-2.54,0-3.81-.11-.29,0-.74-.17-.82-.37a12.37,12.37,0,0,1-.65-2.19c-.3-1.43-.6-2.87-.78-4.31-.1-.83.13-1.7,0-2.53-.24-2-.6-4.08-.87-6.12,0-.38.2-.8.2-1.2a9.88,9.88,0,0,0-.15-2c-.26-1.26.1-1.6,1.36-1.45s2.46.07,3.69.12c.52,0,1,.12,1.55.18.88.1,1.77.21,2.66.27a22.91,22.91,0,0,0,2.79,0c.86-.05,1.7-.3,2.56-.38,1.51-.13,3-.18,4.53-.27.7,0,1.4-.13,2.1-.13,2.1,0,4.21.13,6.3,0,1.1-.08,2.23.37,3.33-.19.29-.14.77.16,1.17.19a26.63,26.63,0,0,0,3.42.18c1.78-.09,3.54-.36,5.32-.51a6,6,0,0,1,1.55,0c1.78.31,3.49-.46,5.25-.31a13.09,13.09,0,0,1,2.45.44c.22.06.43.55.44.86.06,2,0,4,.13,6,.19,2.45.65,4.87.87,7.31.13,1.48,0,3,.06,4.47,0,.22.05.43.12.92C73.67,148.49,72.22,148.49,70.78,148.65Zm6-49.69c-.1-1.49-.11-3-.25-4.47A21.52,21.52,0,0,1,76,90.8a20.45,20.45,0,0,0-.46-3.92c-.17-1.8.12-3.64.11-5.46,0-.82-.31-1.64-.36-2.46-.09-1.33,0-2.66-.12-4s-.22-2.87-.41-4.3c-.27-2-.59-4.09-.92-6.13-.09-.55-.25-1.09-.39-1.72,0,0,.24-.15.27-.3.13-.86-1.18-2.36-2.07-2.46a10.41,10.41,0,0,0-1.63-.36,9.27,9.27,0,0,0-2.84.49c-2,.79-4.12.77-6.2,1-.74.09-1.46.3-2.2.35-1,.07-2,0-3,0l-3.54.1c-2.08.06-4.16.12-6.24.2-1.12,0-2.23.18-3.35.21-1.61.05-3.23.06-4.85.08-.94,0-1.88,0-2.81,0A5.31,5.31,0,0,1,34,62c-.13,0-.32-.1-.37,0-1.09,1.1-2.41.15-3.62.39a27.75,27.75,0,0,1-5.1.16c-.22,0-.44-.16-.66-.18a7.65,7.65,0,0,0-1.38-.1A4,4,0,0,1,19.27,61a8.78,8.78,0,0,0-1.2-1.18.88.88,0,0,0-.75-.16c-.81.39-1.59.85-2.52,1.36,1.68,1.09,1.55,2.84,1.85,4.34a36.42,36.42,0,0,1,.54,5.38c.13,2.75.1,5.5.24,8.24.15,2.93.27,5.88.66,8.78a53.06,53.06,0,0,1,.36,7.45c0,2.25.13,4.5.18,6.75,0,1.27,0,2.53,0,3.8.11,2.18.27,4.37.43,6.55.23,3.3.51,6.59.71,9.89.14,2.38.16,4.77.29,7.15.14,2.69.36,5.38.5,8.08.08,1.59,0,3.2.13,4.79.18,2.28.47,4.55.73,6.92-2.05,0-4.11,0-6.16,0-.17,0-.42-.3-.49-.51a7.15,7.15,0,0,1-.39-1.53,40.38,40.38,0,0,0-.49-4.3c-.3-1.29.19-2.6-.26-3.85a3.45,3.45,0,0,1-.26-.68c0-.34-.14-.79,0-1,.52-.79,0-1.56,0-2.31,0-2-.17-4-.31-5.93-.08-1.06-.29-2.1-.33-3.16a16.11,16.11,0,0,1,.2-2.07c.06-.72.12-1.44.15-2.16s0-1.43,0-2.15c.05-1.18.18-2.35.19-3.52a14.3,14.3,0,0,0-.16-4.17c-.73-2.43-.45-4.92-.91-7.35-.32-1.7-.7-3.38-1-5.08a11.62,11.62,0,0,1-.16-2.61,36.27,36.27,0,0,0,0-5c-.14-1.89.08-3.81.11-5.71a28.4,28.4,0,0,0-.48-6.87,30,30,0,0,1-.16-3.89c-.14-1.53-.46-3-.62-4.58-.12-1.13,0-2.29-.18-3.42-.24-2-.65-4-.83-6a29.17,29.17,0,0,1,.09-3.88,26.64,26.64,0,0,0,.16-2.92A3,3,0,0,1,9.85,52a.78.78,0,0,0,.14-.35c.66-.08,1.26-.2,1.86-.23s1.47,0,2.2,0c1.36,0,2.73,0,4.09,0a20.33,20.33,0,0,0,2.65-.36c.37-.07.71-.34,1.07-.36s.7.23,1.06.25c.76,0,1.53,0,2.3,0,.49,0,1,.1,1.46.08,1.73-.06,3.46-.1,5.18-.24a25.64,25.64,0,0,0,2.84-.56,9.83,9.83,0,0,1,2.58-.48,15.92,15.92,0,0,0,5-.86,13.88,13.88,0,0,1,6.7-.37c1.29.32,2.76-.07,4.15-.13,1.56-.07,3.23-.49,4.66-.08,1.65.47,3-.22,4.54-.28a20.28,20.28,0,0,1,3.71.22,10.86,10.86,0,0,0,4.27-.13,28.5,28.5,0,0,1,4.93-.46c1.16-.08,2.34,0,3.48-.17,1.56-.26,1.75-.1,1.75,1.45a14.42,14.42,0,0,0,.44,3.31,29.08,29.08,0,0,1,.56,5.89c.09,2.66.49,5.32.74,8,.05.54,0,1.09,0,1.63q.41,3.25.87,6.48c.23,1.62.5,3.23.75,4.84.21,1.38.41,2.76.62,4.14.13.85.29,1.69.41,2.54,0,.37,0,.75,0,1.13a.7.7,0,0,0,.43.54,4.76,4.76,0,0,0-.22,1.1c.08,2.2.13,4.41.32,6.6.16,1.79.54,3.55.74,5.33.17,1.49.23,3,.35,4.49.09,1.09.21,2.17.27,3.26.07,1.27.07,2.55.15,3.82a4.15,4.15,0,0,0,.25,1c0,.76,0,1.37,0,2,0,1.46.09,2.91.15,4.37a19.8,19.8,0,0,0,.18,3.32c.3,1.43-.49,3,.56,4.31a.41.41,0,0,1,0,.29c-.15.84-.48,1.64.18,2.49.22.29-.15,1-.11,1.47.12,1.48.3,2.95.48,4.42.24,2,.51,3.93.73,5.9.18,1.6.27,3.21.46,4.81.11.94-.12,1.31-1,1.36-1.13.07-2.26.12-3.39.23-.25,0-.47.29-.55.35H80.4c0-.62,0-1.14,0-1.67-.05-1.72-.12-3.44-.17-5.17a5.49,5.49,0,0,0-.06-1.93c-.62-1.38,0-2.75-.18-4.11-.1-.69-.25-1.37-.34-2.07a2.73,2.73,0,0,1,.1-.7c0-.29.22-.68.1-.85-1-1.32-.19-2.8-.46-4.18-.23-1.21-.35-2.44-.47-3.67,0-.44.08-.91,0-1.35-.14-1.35-.35-2.7-.5-4-.13-1.15-.17-2.31-.31-3.46-.16-1.35-.42-2.69-.58-4a11.92,11.92,0,0,1,0-2,28.25,28.25,0,0,0-.4-4.74C77,102.5,76.86,100.73,76.74,99Zm.74,65.82a9.69,9.69,0,0,1,.18-3.45c.38-1.25.63-2.53.92-3.8.37-1.6,1.6-2.62,2.53-3.85a1,1,0,0,1,.72-.24c1.13,0,2.25,0,3.38,0a7.66,7.66,0,0,1,1.38.31,25.55,25.55,0,0,0-3.73,5.72c-.84,2-1.89,3.95-2.91,5.88-.17.33-.69.47-1,.7C78.58,165.48,77.54,165.92,77.48,164.79Zm7.94,10a6.68,6.68,0,0,1-4-2.61c-.59-.92-1.15-1.86-1.67-2.82-.14-.26-.19-.84-.06-.93a3.17,3.17,0,0,1,1.22-.35c.36-.06.84.09,1.1-.09.83-.6,1.26-.13,1.56.53.4.87.65,1.8,1.06,2.66a6.18,6.18,0,0,0,1.18,1.76c.75.73,1.63,1.31,2.72,2.16A18,18,0,0,1,85.42,174.79Zm12.25-10.16c-.4,1.41-.65,2.87-1.17,4.23a37.18,37.18,0,0,1-1.93,3.76l-.68-.75a5.31,5.31,0,0,1-1,1.65,2.47,2.47,0,0,1-1.75.46c-.76-.13-1.7-.15-1.94-1.33-.12-.58-.8-1-1.09-1.59-.67-1.35-1.22-2.76-1.87-4.11a14.58,14.58,0,0,0-1-1.42c-1-1.51-.31-3,.32-4.31s1.68-2.53,2.14-3.91,1.67-1.78,2.32-2.83c.22-.35,1.42-.33,2.06-.13a31,31,0,0,1,3.57,1.56.8.8,0,0,1,.38.31C97.38,158.86,98.55,161.55,97.67,164.62Zm50.46-62.45c0,.71-.05,1.41-.09,2.12v0c-.08,1.54-.16,3.08-.11,4.62,0,1.08-.33,2.06-.29,3.13a28.91,28.91,0,0,1-.33,3.24c-.06.79,0,1.59,0,2.38a9.53,9.53,0,0,1-.24,1.37v6.11l.39-.26c-.07,1.57-.15,3-.17,4.35,0,.4.28.82.24,1.21-.08.86-.34,1.71-.42,2.58,0,.55.14,1.12.14,1.68,0,1.15,0,2.31-.09,3.46a29.54,29.54,0,0,0-.26,3.57,22.76,22.76,0,0,0,.76,3.46l-2.65.3c-1.26.13-2.51.32-3.77.36s-2.39-.09-3.81-.16c-1.2,1.1-3.12-.08-4.69.65a5.7,5.7,0,0,0-1.35-.33c-1.33,0-2.66.1-4,.09-1.77,0-3.66.24-5.27-.31-1.42-.49-2.44.38-3.65.23-1-.13-2-.35-3-.48a1.41,1.41,0,0,0-.85.18,2.62,2.62,0,0,1-2.05.34,8.61,8.61,0,0,0-4,0c-1.86.33-3.76.45-5.64.63-1.69.17-3.39.29-5.09.45-1.27.12-2.53.26-3.8.36-.67.05-1-.32-1-1s-.15-1.19-.15-1.79c0-1.39.07-2.78,0-4.17a8,8,0,0,0-.31-2.27c-.48-1.48-.29-3-.57-4.54-.4-2.24-.07-4.6-.06-6.92,0-.36-.17-.73-.15-1.09.08-1.12.43-1.39,1.45-1.27-.25-1.75-.46-3.47-.56-5.14-.72.13-.55-.46-.74-1-.47-1.26.32-2.62-.24-3.74-.67-1.36-.14-2.75-.48-4.11a25.22,25.22,0,0,1-.18-3.93,21.8,21.8,0,0,0-.46-2.39c-.15-.79-.35-1.57-.42-2.37-.12-1.33-.12-2.66-.24-4-.07-.75-.36-1.48-.44-2.23-.22-2-.34-4-.57-6.05-.26-2.29-.61-4.56-.89-6.85a7.8,7.8,0,0,1,.05-1.27l.41.1c-1.14-2.1-1.93-4.44-1.3-6.47l-.17-.13c0-.08-.11-.16-.11-.24,0-1.22.05-2.44,0-3.65-.09-1.74-.34-3.48-.38-5.22,0-1,.36-2,.35-3s-.33-2.15-.42-3.23c-.11-1.32-.12-2.65-.18-4s-.09-2.39-.17-3.59c-.05-.84-.19-1.69-.2-2.53a1.1,1.1,0,0,1,.42-.79.91.91,0,0,1,.79,0c1.19.62,2.29,1.66,3.53,1.86,1.55.25,2.44,1.44,3.78,1.93a17.71,17.71,0,0,1,3.15,1.74c.35.22.65.94.86.89,1.43-.3,1.92,1.08,2.93,1.53,1.51.67,2.94,1.51,4.41,2.27a37.18,37.18,0,0,1,5.38,2.9c1.06.8,2.38.61,3.34,1.51a9.27,9.27,0,0,0,2.37,1.44c3.25,1.56,6.51,3.13,9.8,4.59,1.54.68,3.18,1.13,4.76,1.71.52.19,1,.47,1.51.71.06,0,.12.11.17.1,1.66-.41,2.85.82,4.22,1.31a46.15,46.15,0,0,1,5,2.47c1.08.54,2.15,1.13,3.26,1.62.29.13.71,0,1.23-.09.2,1.14.44,2.23.58,3.34.22,1.8.39,3.6.53,5.4,0,.61-.12,1.23-.1,1.85,0,1.68.15,3.36.18,5,0,.18,0,.36,0,.54v7.11A4.5,4.5,0,0,1,148.14,102.17Zm25.16,64.23-1.3-.56c-.86.69-1.44-.52-2.21-.86s-1.43-1.07-2.21-1.49c-1.08-.58-1.2-1.74-1.8-2.6a12.2,12.2,0,0,0-1-1.15c-.11-.12-.31-.21-.34-.34-.3-1.21-.59-2.43-.85-3.65q-.34-1.57-.61-3.16a6,6,0,0,1-.15-1.76c0-.25.52-.49.85-.62A6.53,6.53,0,0,1,165,150c.72.49.72.49.28,1.45,1.76,2.06,1.83,2.22,1.58,3.72l1.63.61-.08.08c.56.4,1.12,1.12,1.69,1.12,1.06,0,.88.7,1,1.25a7.46,7.46,0,0,0,.53,2.4c.17.27-.08.76,0,1.12a26.78,26.78,0,0,0,.83,3.3c.15.43.66.73,1,1.09Zm17.6-12.53c-.32,1.1-.66,2.2-1,3.29-.47,1.49-1,3-1.41,4.47a16.78,16.78,0,0,1-3.1,5.5c-1,1.28-2.44,1.38-3.61,2.11-.4.25-1.38-.17-1.95-.53a11.11,11.11,0,0,1-4.23-4.23,8.07,8.07,0,0,1-.27-1.45,3.71,3.71,0,0,1,0-2.49.44.44,0,0,0,0-.36c-1-1.26-.07-2.76-.51-4.08.7-.5-.26-1.12.16-1.73a6.62,6.62,0,0,0,.65-1.94c.19-.69.38-1.39.52-2.09.08-.37,0-.77.1-1.13a5.77,5.77,0,0,1,.39-.92c.52-1.24,1-2.49,1.58-3.71.15-.31.54-.5.76-.8a23.37,23.37,0,0,0,2-2.72,2.75,2.75,0,0,1,2.82-1.5,7.56,7.56,0,0,1,3.39,1.4,4.78,4.78,0,0,1,1.74,2.8,16.89,16.89,0,0,0,.58,1.71l-.16,0c.1.53.17,1.07.29,1.6.5,2.07.61,4.21,1.27,6.24A.9.9,0,0,1,190.89,153.87Zm4.61-1.49c-.22.34-.34.77-.64,1a3.85,3.85,0,0,1-1.26.34c-.09-.87-.2-1.79-.27-2.71a21.6,21.6,0,0,0-.26-3.69c-.73-2.85-1.4-5.77-3.56-8-.55-.56-1.16-1.06-1.75-1.59l-.82-.72c-.68,0-1.55.13-1.8-.19s-.51-.18-.78-.23a5.51,5.51,0,0,0-4.12.46,9.64,9.64,0,0,0-3.15,2.55c-.65,1.1-1.43,2.11-2.14,3.18a9.62,9.62,0,0,0-1.6,3.69,13.23,13.23,0,0,1-.82,3.06c-.34.76-.26,1.59-.61,2.29a6.05,6.05,0,0,1-1.13,1.28c-.22.23-.47.42-.74.67a2.27,2.27,0,0,1-1.5-2c-.11-.89-.5-1.77.17-2.6,0,0,.06-.07.05-.08-.51-1,.23-1.87.31-2.8.09-1.1.1-2.22.26-3.31,0-.27-.13-.87.53-.89.08,0,.23-.34.21-.5a4.06,4.06,0,0,1,.86-2.6c.58-1,.9-2.1,1.43-3.11a6.81,6.81,0,0,1,1.08-1.24l.27.11c-.06-1,1.52-2.42,2.38-2.63a1.94,1.94,0,0,0,.61-.29,5.19,5.19,0,0,1,4.07-.5c.07,0,.13.06.19.05a26.26,26.26,0,0,0,3.19-.3,2.67,2.67,0,0,1,2.69.83c.16.15.51.1.65.26,1,1.06,2.47.84,3.61,1.48a1.49,1.49,0,0,1,.47.36,33.25,33.25,0,0,1,3.18,4.48,16.59,16.59,0,0,1,.94,4.13c.36,1.73.71,3.45,1,5.18A6.08,6.08,0,0,1,195.51,152.38Zm4.59-4.52c-.36-.08-.68-.83-.82-1.33-.27-1-.34-2-.6-3a52,52,0,0,0-1.71-5.86c-.47-1.2-.59-2.68-2-3.45-.5-.28-.77-1-1.17-1.44a4.49,4.49,0,0,0-1-.95c-1.32-.81-2.67-1.57-4-2.33a14.23,14.23,0,0,0-2.1-1.06,7.47,7.47,0,0,0-1.51-.11A12.3,12.3,0,0,0,183,128a24.64,24.64,0,0,0-3,.53l-.28-.61c-.81,0-1.48.05-2.13,0A1.36,1.36,0,0,0,176,129c-.1.29-.5.51-.8.7-1.33.86-2.68,1.7-4,2.55-.08,0-.18.1-.21.18-.9,2.21-1.8,4.42-2.67,6.64-.52,1.32-1,2.66-1.56,4.17a6.4,6.4,0,0,0-.55-.74c-.42-.4-.93-.48-1.1.14s-.46.57-.93.42c-1.94-.64-3.67,0-5.39.86a6.71,6.71,0,0,1-2.06.7,17.69,17.69,0,0,1-2.56-.1c-.62,0-1.24,0-1.83,0-.18-1.28-.43-2.45-.49-3.64,0-.87.19-1.75.2-2.62,0-1.19-.13-2.39-.09-3.58,0-.94.3-1.88.34-2.82a10.74,10.74,0,0,0-.13-3.27,10.48,10.48,0,0,1,0-3.62c.08-1.4-.07-2.81-.11-4.22a39.8,39.8,0,0,1-.1-6.33,16.45,16.45,0,0,0,.16-4.06,39.22,39.22,0,0,1,.08-4.82c0-.93,0-1.86-.06-2.78,0-1.26,0-2.52-.07-3.77-.06-1.45-.18-2.89-.27-4.33-.1-1.63-.14-3.27-.33-4.9A28.11,28.11,0,0,1,151.7,86c0-1.35-.25-2.71-.34-4.07-.06-.86,0-1.74,0-2.73.84-.66,3.88-.38,4.64.62,1.09-.51,2.19-.86,2.53.58.52-.34,1-1,1.53-.93,2,.13,4,.47,6.07.71,1,.11,2,.18,2.95.24a9.21,9.21,0,0,1,1.7.05,9.08,9.08,0,0,1,4,1.85,11.19,11.19,0,0,1,3.08,4.13c.4,1,.67,2.2,1.11,3.13a26,26,0,0,1,1.65,5.85c.09.44,0,.92,0,1.37.13,1.09.35,2.16.46,3.25s.13,2.27.2,3.4c0,.65.15,1.31.19,2,0,.44,0,.89,0,1.33q.18,2.76.37,5.51a7.41,7.41,0,0,1,.16,1.6c-.27,1.69,1.37,1.88,2.09,2.78s2,1.09,3,1.71c1.36.88,2.81.18,4.2.38.17,0,.45-.13.53-.05.85.86,1.9.19,2.85.37,1.73.32,3.72-.34,5,1.57.11.17.5.16.86.27l-.47.53c.05.07.11.17.13.16,1.19-.47,1.14.78,1.21,1.15a43.08,43.08,0,0,1,.47,4.66c.09,1.15.16,2.3.23,3.45s.13,2.24.19,3.36.15,2.29.17,3.43-.05,2.27-.1,3.4c-.08,1.86-.22,3.72-.22,5.59,0,.38.48.76.84,1.28A14.29,14.29,0,0,1,200.1,147.86Z"/><path class="cls-1" d="M49.84,125Z"/><path class="cls-1" d="M162.66,110.2c-.88-.07-1.77-.11-2.64-.24-.25,0-.48-.31-.69-.5s-.65-.63-1-1c-.11-.12-.27-.31-.23-.42.4-1.18-.73-1.34-1.21-2a11.3,11.3,0,0,1-1-2.18,2.11,2.11,0,0,1,.31.08l1.16.86a12,12,0,0,0,.3-1.54q.15-2.11.2-4.22c0-1.39,0-2.77,0-4.16s0-2.55,0-3.82a1.47,1.47,0,0,0-.35-.87c-.7-.76-.73-.78-.45-1.79h-.65c-.1-1.48-.1-1.48,2.15-2.92A10,10,0,0,0,161,87.13c1.18.35,2.4.89,3.72.49.14,0,.38.36.55.34,1.29-.11,2.48.44,3.83.35a7.87,7.87,0,0,1,5.5,1.15,2.86,2.86,0,0,1,1,1.64c.25,1.42.28,2.87.43,4.31.11,1,.28,2,.41,3a3.88,3.88,0,0,1,0,.51c0,1.21,0,2.42,0,3.63,0,.65.32,1.28.37,1.93a13,13,0,0,1,0,2.57,2,2,0,0,1-2.47,2.07c-.57-.09-.94-.73-1.72,0-.51.51-1.79.2-2.71.33-.69.1-1.36.35-2,.48a4.12,4.12,0,0,1-1-.06c-.39,0-.89-.22-1.16,0-1,.63-1.8-.07-2.68-.23-.13,0-.29.16-.44.24Zm8.93-18c-.92.52-1.54,1-2.35.36a3,3,0,0,0-1.64-.67,10.77,10.77,0,0,1-2.61,0c-.79-.19-1.68.11-2.6-.21-.6-.21-1.41.3-2.15.4s-.77.37-.59.93a8.7,8.7,0,0,1,.45,1.6c.24,2,.43,4.09.62,6.13a13.18,13.18,0,0,0,0,1.63c.12.53.32,1.29.7,1.45a9.54,9.54,0,0,0,2.61.48c1.27.15,2.55.29,3.82.32a2.52,2.52,0,0,0,1.22-.53c.32-.2.45-.41.85,0s.81,1.22,1.59,0l-.07,1c.34-.32.36-1,.6-1.06.67-.28.43-.59.34-1.09a13,13,0,0,1-.21-2.93c.05-1,.57-2.09-.41-3-.06-.06,0-.25,0-.38C171.73,95.22,171.66,93.81,171.58,92.22Z"/><path class="cls-1" d="M179.86,159.62c-.58-2-.34-4.33-2-6.08,1-.35.84-1.09.76-1.84,0-.3-.1-.76.06-.9a5.93,5.93,0,0,0,1.43-2.83,2.83,2.83,0,0,1,2.2-1.09c.4.06.82,0,1.22,0a11.66,11.66,0,0,1,1.79.31c1,.29.48,1.28.78,1.9.06.12,0,.38.06.39,1,.23.89,1.05.83,1.69-.2,2.24-.48,4.47-.79,6.69a1.85,1.85,0,0,1-1.41,1.64s-.09,0-.1,0c-.82,1.69-2.44.44-3.61.92C180.84,160.59,180.28,159.93,179.86,159.62Z"/><path class="cls-1" d="M92.93,160.71l.9.19c.13,1.63.31,3.34.36,5.06,0,.31-.48.79-.85.94-1.26.5-2-.14-2.66-1.06a6.37,6.37,0,0,1-.93-3.45,5.12,5.12,0,0,0-.59-1.55c-.24-.58-.77-1.11.22-1.63a2.56,2.56,0,0,1,3.32.4C92.89,159.84,92.85,160.29,92.93,160.71Z"/><path class="cls-1" d="M30.27,165.57c.37-.7,1.18-1.58.29-2.85-.47-.67.72-2.18,1.58-2.17a2.16,2.16,0,0,0,.67-.15c2.27-.75,3.86.28,3.94,2.74a22,22,0,0,1-.41,4.24,4.92,4.92,0,0,1-.82,1.73c-.1.15-.52.09-.79.15a11.28,11.28,0,0,1-1.28.27,2.52,2.52,0,0,1-.88-.15c.07-.69-.44-.8-.89-1a1.5,1.5,0,0,1-.58-.7C30.82,167.08,30.61,166.46,30.27,165.57Z"/></svg>