<svg id="Layer_1" data-name="Layer 1" xmlns="http://www.w3.org/2000/svg" viewBox="0 0 216 216"><defs><style>.cls-1{fill:#00aeef;}.cls-2{fill:#8dc63f;}.cls-3{fill:#ee2d78;}</style></defs><title>hire-us</title><path class="cls-1" d="M69.81,47.3,69.75,46c3-1.49,6.16.19,8.83-1.08.87-.75,1.63-1.44,2.42-2.09,1.37-1.13,3-.82,4.62-.89l1.51-.05c.25,0,.62-.15.74,0,.85.82,1.87.39,2.8.39,1.11,0,2.22-.18,3.34-.29,1.62-.16,3.25-.36,4.87-.48,1.24-.09,2.49,0,3.73-.15,1.59-.14,3.17-.41,4.76-.59s2.93-.29,4.39-.42c.76-.07,1.54-.08,2.3-.17a4.54,4.54,0,0,0,.94-.32,23.09,23.09,0,0,1-1.29-3.74,63.6,63.6,0,0,0-1.63-7.94,7.57,7.57,0,0,1-.11-2.67c0-.54.37-.89,1.09-.63a2.09,2.09,0,0,1,1.67,1.86,33.86,33.86,0,0,0,1.45,5.38c.81,2.48,1.73,4.92,2.69,7.6,1.44-.25,3.21-.5,5-.85s3.48-.73,5.18-1.23a5.37,5.37,0,0,0,1.86-1.16c1.4-1.21,2.72-2.51,4.13-3.7a2.63,2.63,0,0,1,1.37-.33,26.44,26.44,0,0,1,3.35-.2,11.2,11.2,0,0,1,5,1.77c.4.23.54.92.81,1.39a1.58,1.58,0,0,0,1.95.66c1.23-.29,2.43-.72,3.65-1.07,1.65-.47,3.33-.87,5-1.37.87-.27,1.68-.75,2.55-1a1.55,1.55,0,0,1,1.09.2c.73.42,1.17,2.5.56,3-.37.33-1.09.3-1.66.37s-1.26,0-1.87.13A36,36,0,0,0,152,37.4a15.5,15.5,0,0,0-3.17,1.82,1.41,1.41,0,0,0-.52.89c-.21,1.39-.28,2.8-.54,4.18a9.13,9.13,0,0,1-1.48,4.06c-.87,1.13-2.22,1.4-3.44,1.94-1.53.68-3.06.29-4.58.12-1.71-.19-2.78.76-3.85,1.79s-2,1.9-2.9,2.91-2,2.36-3,3.57a16.61,16.61,0,0,0-1.47,2,1.81,1.81,0,0,0-.21,1.21c.62,2.63,1.23,5.27,2,7.87.52,1.83,1.27,3.6,1.88,5.4a3.92,3.92,0,0,1,0,1.09,8.49,8.49,0,0,1-1.06-.08c-2.21-.44-2.23-2.28-2.69-4a64.06,64.06,0,0,0-2.35-6.88.89.89,0,0,0-1.64-.06c-1.49,2.27-3.85,3.63-5.68,5.55-.93,1-1.66,2.14-2.57,3.14-1.25,1.37-2.56,2.69-3.9,4C108.68,80,106.53,82,104.32,84a9.27,9.27,0,0,1-2.44,1.49,14,14,0,0,1-4.31,1,7.69,7.69,0,0,0-4.36,1.9,13.47,13.47,0,0,1-3.94,2.79,4.24,4.24,0,0,1-1.43,0l-.2-.45A18.09,18.09,0,0,1,89,89.5c1.77-1.38,3.56-2.71,5.33-4.09a1.62,1.62,0,0,0,.53-.86c.29-1.28.56-2.57.74-3.87A4.84,4.84,0,0,1,97.23,78c.65-.67,1.2-1.44,1.84-2.13,1-1.07,2.08-2.09,3.08-3.16s2.05-2.34,3.14-3.44,2.38-2.22,3.56-3.35,2.3-2.29,3.48-3.41c.94-.9,1.91-1.78,2.9-2.62,1.52-1.27,3.08-2.49,4.62-3.74a2,2,0,0,0,.27-.33l-2.23-8.22c-2.37.37-4.76.75-7.15,1.11-1.36.21-2.74.35-4.1.57-.89.15-1.76.43-2.64.58q-2.56.43-5.14.76c-1.8.23-3.61.46-5.42.59-1.1.08-2.22-.1-3.33,0-1.34.08-2.67.27-4,.46a9.25,9.25,0,0,1-6.35-1.06c-.11-.07-.28-.1-.33-.2-1.2-2.28-3.36-2.29-5.47-2.24a7.09,7.09,0,0,1-3.32-.66A4,4,0,0,0,69.81,47.3Zm28.41,36a3,3,0,0,0,1.06.66,3.74,3.74,0,0,0,3.38-1.06c1.73-1.62,3.46-3.23,5.09-4.94A31.84,31.84,0,0,0,112,72.86a19.66,19.66,0,0,1,3.13-3.63c1.88-1.87,4.3-3,6.2-4.95a18.09,18.09,0,0,0,3.37-4c1.27-2.42,3.43-4,5-6.22,1.27-1.79,3-3.25,3.74-5.42a3.47,3.47,0,0,0,.05-.92,3.14,3.14,0,0,0-1.15,0c-.29.11-.47.51-.7.77s-.5.57-.78.83c-2,1.83-4,3.65-6,5.5-.33.31-.49.81-.82,1.11-1,.84-2,1.58-2.94,2.43-2.18,2-4.37,3.93-6.47,6-1.37,1.34-2.58,2.83-3.85,4.27A15.63,15.63,0,0,1,109.6,70c-1.51,1.34-3.12,2.59-4.61,4-.77.71-1.29,1.67-2,2.4-1.12,1.1-2.32,2.11-3.52,3.13A3.93,3.93,0,0,0,98.21,83.25ZM129.3,40.14c-1.38.3-2.72.57-4.05.9-1.57.38-3.11.92-4.7,1.19-1.89.32-3.81.41-5.72.64-2.19.27-4.37.72-6.57.84-3,.17-6.11.14-9.17.16s-6.07,0-9.1,0a17.89,17.89,0,0,0-2,.21c-1.17.14-2.34.37-3.52.41a3.68,3.68,0,0,0-2.72,1.24,1.49,1.49,0,0,0-.07,1.46,3.58,3.58,0,0,0,2,1.18c2.26.21,4.54.24,6.81.25,1.4,0,2.8-.12,4.2-.21,2-.13,4-.31,5.93-.43a38.39,38.39,0,0,0,7.05-.8,32.16,32.16,0,0,1,4.09-.45,19.32,19.32,0,0,0,3.61-.49,42.87,42.87,0,0,1,7.78-1.93c1.43-.17,2.81-.73,4.23-1C129.27,42.82,129.7,42.26,129.3,40.14Zm13,4.84a2.26,2.26,0,0,0,1.76-2.53c-.11-.67-.36-1.31-.45-2A3.77,3.77,0,0,0,140.56,37a12.7,12.7,0,0,0-1.86-.52c-.69,0-1.39.27-2.09.27-1.92,0-2.6,1.39-3.05,2.84-.34,1.08.43,2,1.14,2.73A24.19,24.19,0,0,0,137.18,44C138.86,45.34,140.78,44.88,142.35,45Zm-13.82,1.4-7.14,1.35,1.9,5.33c.17-.18.38-.37.57-.58l2.3-2.56c.74-.82,1.52-1.61,2.22-2.47C128.55,47.25,128.47,46.86,128.52,46.37Z"/><path class="cls-2" d="M107.26,114.48c-.38.19-20.21,7.71-20.6,7.91-1.14-.58-.46-1.56-.46-2.39a7.9,7.9,0,0,0,.08-.92c-.18-1.45-.36-2.9-.61-4.33-.06-.35-.41-.65-.52-1s-.07-.71.06-.78,19.83-7.51,20-7.61c-.39-1.26-.61-2.49-1-3.75-.65.15-20.93,7.4-21.66,7.11a6.22,6.22,0,0,0-2.37-.42c-1.14,0-2.27.27-3.41.35s-2.53,0-3.76.15a5.51,5.51,0,0,1-5.77-2.59c-.82-1.16-1.56-2.38-2.45-3.47a29,29,0,0,0-6-5.48,14.23,14.23,0,0,0-2.47-1.83,19.84,19.84,0,0,0-7-1.83c-1.66,0-3.33-.24-5-.15A15.41,15.41,0,0,0,38.07,95a31.06,31.06,0,0,0-3.5,2,29.73,29.73,0,0,0-2.41,2.17c-.78.68-1.66,1.26-2.41,2A19.62,19.62,0,0,0,27.07,104c-1.45,2.1-2.73,4.3-4.08,6.47a3.17,3.17,0,0,0-.28.69c-.3.91-.54,1.84-.89,2.73-.28.7-.77,1.32-1,2a28.71,28.71,0,0,1-.82,3.21,10.31,10.31,0,0,0-1,3.83c0,.41,0,.82,0,1.23a16.89,16.89,0,0,0,.65,5.75c.25.84.65,1.64.93,2.47.12.36,0,.81.2,1.12.47.84,1.06,1.61,1.55,2.43a3.71,3.71,0,0,1,.31,1c.08.31,0,.73.21.92,1,.95,2,1.87,3,2.74s2.3,1.81,3.47,2.68a9.86,9.86,0,0,0,2.42,1.65,18.41,18.41,0,0,0,4.24.86,18.74,18.74,0,0,0,10.26-1.88,33.72,33.72,0,0,1,3.43-1.52c2-.73,4.07-1.33,6.08-2.05,1-.35,1.84-.89,2.77-1.3A27.9,27.9,0,0,0,63,137.15a22.51,22.51,0,0,1,5.26-2.67c1.95-.65,3.79-1.49,5.67-2.27.62-.26,1.28-.41,1.9-.67,1.14-.47,2.28-1,3.39-1.5a4,4,0,0,0,.94-.75c1.16-1.09,2.15-2.4,4-2.45.47,0,.93-.41,1.41-.58.74-.27,1.5-.51,2.25-.76.22-.07,19.89-7.37,20.11-7.44C107.63,116.9,107.44,115.65,107.26,114.48Zm-25.38,4.06a19,19,0,0,1-1.94,4.54c-.87,1.25-1.62,2.75-3.41,3.24-.89.24-1.55,1.25-2.44,1.64-2.57,1.15-5.21,2.11-7.79,3.24-1.7.74-3.34,1.65-5,2.45s-3.52,1.67-5.31,2.46c-1,.45-2.07.85-3.12,1.23-1.74.63-3.5,1.22-5.25,1.82-1.08.37-2.16.75-3.25,1.11-1.24.41-2.48.84-3.74,1.2a11,11,0,0,1-1.68.23c-2.23-.65-4.47-.68-6.4-1.9-1-.66-2.26-1-3.32-1.65a7.45,7.45,0,0,1-2.2-1.82,17.31,17.31,0,0,1-1.72-3.25c-.54-1.21-.53-2.63-1.52-3.72-.35-.39-.18-1.24-.31-1.86s-.44-1.5-.59-2.26a6.11,6.11,0,0,1-.1-1.74c.22-2.16.19-4.31,1.64-6.27,1.18-1.6,1.72-3.66,2.63-5.47a32.63,32.63,0,0,1,2.62-4.66,20.23,20.23,0,0,1,3.2-3.15c.65-.56,1.47-.91,2.16-1.43,1-.75,1.94-1.58,2.94-2.34,1.19-.91,2.41-1.78,3.63-2.66,2.43-1.76,5.06-1.06,7.67-.62.51.09,1,.18,1.55.23a8,8,0,0,1,4.67,2.16c1.41,1.29,3,2.4,4.5,3.59.12.1.3.19.34.32.71,2.12,2.33,3.62,3.6,5.35.86,1.17,1.63,2.4,2.44,3.6.13.19.24.46.42.52a23.32,23.32,0,0,0,4.45,1.46,11.32,11.32,0,0,0,3.57-.52c1.16-.23,2.3-.6,3.47-.77a5.06,5.06,0,0,1,2.48.09,2.67,2.67,0,0,1,1.13,1.66A6.46,6.46,0,0,1,81.88,118.54Z"/><path class="cls-2" d="M176.79,91.1a23.38,23.38,0,0,1-.32-3.42,3.57,3.57,0,0,0-.3-1.66,2.77,2.77,0,0,1,0-1.12,15.52,15.52,0,0,0,.24-2.67,32.65,32.65,0,0,0-.72-3.56,10.15,10.15,0,0,1-.27-1.41,7.47,7.47,0,0,0-.1-2.47c-.82-1.76-.56-3.63-.83-5.43A2.92,2.92,0,0,0,171.36,67c-.53.1-1.09.1-1.61.24a15.68,15.68,0,0,0-1.6.6l.06.37c.41.21,1,.33,1.2.67a5.55,5.55,0,0,1,.69,1.91c.15.74.08,1.52.2,2.27.22,1.25.52,2.5.78,3.74a.56.56,0,0,1-.11.38s-.21,0-.32-.05a4.13,4.13,0,0,0-1.26-.19c-.66.11-1.19.9-2,.39,0,0-.26.23-.38.36s-.12.27-.22.32c-.68.3-1.36.58-2,.87-1,.44-2,1.15-3.22,1a2.07,2.07,0,0,0-1.27.3c-1.82,1.14-3.69,2.11-5.9,1.93-.16.28-.26.67-.49.79a7.22,7.22,0,0,1-1.83.66c-1.33.26-2.46,1-3.87,1.24-1.69.25-3.24,1.35-4.92,1.82-1.11.32-2.24,1.15-3.52.44a.53.53,0,0,0-.46.22c-.4,1.33-1.65,1.23-2.61,1.57-1.27.44-2.72.55-3.82,1.24a4.82,4.82,0,0,1-3.15.81c-.7,1.14-1.85,1.42-2.92,1.82-.59.22-1.25.28-1.82.55-1.36.65-2.59,1.79-4.5.65.32,1.14-.06,1.48-.89,1.64a12.09,12.09,0,0,0-2.09.8c-.9.36-1.79.74-2.69,1.09-.12,0-.29,0-.44,0a2,2,0,0,0-.7.1c-.42.2-.79.51-1.21.71-.66.31-1.34.56-2,.84l-4.8,2a13.1,13.1,0,0,0-1.4.55l-.16.07c.4,1.23.8,2.45,1.18,3.67.89-.44,1.79-.87,2.71-1.26a4.71,4.71,0,0,1,1.35-.12,5.87,5.87,0,0,0,1.28,4.65,1.37,1.37,0,0,0,.94.58,6.36,6.36,0,0,0,1.45-.4c.76-.2.49-.79.48-1.26a8.07,8.07,0,0,0-1.29-5,9.25,9.25,0,0,1,1.39-.75c1.27-.43,1.42-.27,1.65,1a10.19,10.19,0,0,0,.75,1.93c0,.1.14.22.12.3-.24,1.11.71,1.47,1.35,1.72a2.62,2.62,0,0,0,1.9-.28c.27-.14.36-.9.3-1.34a26.74,26.74,0,0,0-.69-3,8.38,8.38,0,0,0-.5-1.34c-.25-.55-.11-1,.44-1.11a4.12,4.12,0,0,0,2-.85c.11-.09.3-.08.65-.17l.64,3.55s0,.08,0,.09a7.71,7.71,0,0,0,2,1.42c.48.15,1.18-.37,1.77-.62.07,0,.11-.26.09-.39-.18-1.28-.37-2.55-.57-3.82a8,8,0,0,1-.22-1.51c0-.21.37-.44.61-.61.59-.42,1.1-.06,1.56.28.1.08,0,.42,0,.64,0,.73,0,1.47-.05,2.28,1.06-.12,1.2.78,1.58,1.41a2.06,2.06,0,0,0,2.14,1,1.88,1.88,0,0,0,1.06-2c-.2-1.62-.4-3.23-.57-4.85-.09-.84.72-1.46,2-1.51.67,0,.87.39,1,1.09a21.17,21.17,0,0,0,1.46,3.9.88.88,0,0,0,1.5.37,5.45,5.45,0,0,1,1.51-.58l-1.27-6c.75-.32,1.33-1.34,2.35-.8.19,1.93.58,3.66,2.17,4.9.47.37.81.55,1.33.17a2.08,2.08,0,0,1,.7-.2,5.61,5.61,0,0,0,.34-3.92,7,7,0,0,1-.2-1.81c0-.43,0-.81.66-.87s1.14-.39,1.73-.51,1.18,0,1,.91c-.12.7-.16,1.42-.25,2.2,1,.12,1,1.25,1.34,2,.42.94,1,1.24,1.84.71.41-.25,1.05-.53,1.11-.88a10.55,10.55,0,0,0,0-2.92c-.13-1.06-.45-2.1-.66-3.16,0-.11.13-.28.25-.38a5.16,5.16,0,0,1,3.23-.13c-.56,1.42.34,2.48,1,3.59a1.15,1.15,0,0,0,1,.31c.92-.26,1.94-.57,2-1.76a22.22,22.22,0,0,0-.13-3.27c-.13-1.36,0-1.56,1.28-1.87.32-.08.61-.29.93-.38a10,10,0,0,1,1.17-.18c-.32.71.66,1.4-.19,2.05.49.61-.23,1.61.71,2.11a4.79,4.79,0,0,1,.9.87c.3.29.62.79.93.8a2.23,2.23,0,0,0,2.05-1.08c.15-.25.34-.48.46-.66L165,83.43c1-.18,2-.35,3-.56a15,15,0,0,0,1.57-.48c.15,0,.28-.19.42-.2.46,0,.91,0,1.37,0l-.13,1.17.87,5.3-.15,0c.14.22.43.49.38.63a.89.89,0,0,1-.63.49c-1.1.09-1.77.93-2.65,1.38-1.58.81-3.28,1.39-4.94,2.06-.36.14-.74.22-1.1.37-1.56.64-3.13,1.26-4.67,1.94-1.15.51-2.24,1.12-3.38,1.64-.36.17-.81.16-1.19.3-1.67.66-3.33,1.36-5,2-.67.26-1.41.33-2.08.58-1.05.39-2.07.87-3.12,1.29-.16.07-.42.13-.54,0-.61-.43-1-.1-1.58.2a14.42,14.42,0,0,1-2.27.81c-1.31.45-2.59,1-3.92,1.34-1.65.48-3.33.84-5,1.28-.3.08-.56.3-.85.39-1.45.43-2.91.83-4.37,1.26-.46.13-.89.35-1.34.5s-.85.24-1.27.37a20.15,20.15,0,0,0-2,.62c-1.36.57-2.7,1.17-4,1.81-.79.38-1.53.87-2.29,1.31a17.81,17.81,0,0,1-1.78,1c-1,.43-2,.75-3,1.15-.52.21-1,.48-1.52.73l-.69.35c.18,1.2.37,2.39.63,3.57.25-.12.5-.24.76-.35a15.86,15.86,0,0,0,1.68-.68c.82-.46,2-.17,2.54-1.25,0,0,.12,0,.19,0,.59-.14,1.2-.24,1.77-.43a17.06,17.06,0,0,0,2.2-.88c1.73-.86,3.4-1.86,5.16-2.64a33.92,33.92,0,0,1,4.15-1.33c.94-.27,1.9-.47,2.84-.72s1.7-.46,2.54-.73c.52-.16,1-.41,1.52-.57,1.7-.52,3.44-.9,5.12-1.49,1.11-.39,2.24-.71,3.35-1.09,1.44-.49,2.86-1.05,4.32-1.5,1.28-.39,2.63-.57,3.89-1s2.37-1.11,3.56-1.67,2.31-1.09,3.47-1.61c.76-.34,1.53-.65,2.31-.93.45-.16,1.06-.07,1.38-.35,1.6-1.42,3.63-1.93,5.52-2.73.79-.34,1.63-.54,2.42-.88,1.71-.73,3.4-1.5,5.24-2.32.09,0,.39.33.66.3a4.7,4.7,0,0,0,2-.53C176.82,92.44,176.82,91.63,176.79,91.1Z"/><path class="cls-2" d="M29.31,123c.19-.53.43-1.14.61-1.77a20.49,20.49,0,0,1,.71-2.69,21.92,21.92,0,0,1,2.9-5,25,25,0,0,1,4.05-3.87c.58-.46,1.28-.75,1.88-1.18s1.37-1.17,2.14-1.61a12.83,12.83,0,0,1,2.91-1.32c.55-.16,1.24.21,1.87.25a21.24,21.24,0,0,1,6.86,1.34,22.44,22.44,0,0,1,2.45,1,4.24,4.24,0,0,1,1.42,1.31,6.85,6.85,0,0,1,1.28,4,9.42,9.42,0,0,1-.35,2.83,1,1,0,0,0,.09.55c.68,2.05,0,4-.74,5.82a10.48,10.48,0,0,1-2.85,4c-1.36,1.17-2.35,2.81-4.18,3.45-.41.14-.6.82-1,1.16-.78.69-1.6,1.34-2.45,1.94a11.52,11.52,0,0,1-2,1.21,18.16,18.16,0,0,1-7.41,1.32,6.08,6.08,0,0,1-4.33-2,13.63,13.63,0,0,1-1.53-1.69,13.8,13.8,0,0,1-2.14-7.1C29.5,124.25,29.4,123.68,29.31,123Zm3.28,1.91a18.39,18.39,0,0,0,.14,2.11c.3,1.66,1.55,2.66,2.6,3.84,1.45,1.62,4.49,2.51,6.38,1.54s3.46-1.88,5.14-2.9a15.11,15.11,0,0,0,2.63-1.92c1.21-1.15,2.3-2.41,3.42-3.65a8.58,8.58,0,0,0,.5-.88c.81-1.16,1.66-2.28,2.44-3.46a2.93,2.93,0,0,0,.45-1.25c.11-.92.78-1.68.7-2.63a12.26,12.26,0,0,1-.28-1.88,2,2,0,0,0-1.23-2.28,31.06,31.06,0,0,0-3.4-1c-.55-.15-1.27-.13-1.64-.47a3.24,3.24,0,0,0-2.35-.73,18.76,18.76,0,0,0-2.57.11,4.2,4.2,0,0,0-1.73.39c-1.28.78-2.51,1.67-3.71,2.56a11.93,11.93,0,0,0-2.39,2c-.89,1.13-1.38,2.58-2.32,3.65A11.06,11.06,0,0,0,32.59,124.88Z"/><path class="cls-2" d="M103.16,105.92a5.87,5.87,0,0,0,1.28,4.65,1.37,1.37,0,0,0,.94.58,6.36,6.36,0,0,0,1.45-.4c.76-.2.49-.79.48-1.26a8.33,8.33,0,0,0-1.15-4.77,14.3,14.3,0,0,0-3.2,1.21Z"/><path class="cls-2" d="M96.18,108.48a5.87,5.87,0,0,0,1.28,4.65,1.37,1.37,0,0,0,.94.58,6.36,6.36,0,0,0,1.45-.4c.76-.2.49-.79.48-1.26a8.33,8.33,0,0,0-1.15-4.77,14.3,14.3,0,0,0-3.2,1.21Z"/><path class="cls-2" d="M89.05,111a5.87,5.87,0,0,0,1.28,4.65,1.37,1.37,0,0,0,.94.58,6.36,6.36,0,0,0,1.45-.4c.76-.2.49-.79.48-1.26a8.33,8.33,0,0,0-1.15-4.77,14.3,14.3,0,0,0-3.2,1.21Z"/><path class="cls-3" d="M185.88,193.83c.06-.94.2-1.87.27-2.81a6.48,6.48,0,0,0,0-2.48,30.41,30.41,0,0,0-2.14-4.47c-.26-.47-.88-.74-1.34-1.09-1.44-1.06-2.88-2.14-4.35-3.16-.67-.47-1.48-.75-2.13-1.24a19.74,19.74,0,0,0-4.59-2.32c-.66-.27-1.32-.53-2-.83-.95-.43-1.85-1-2.83-1.31-1.5-.53-3.11-.6-4.66-1a16.74,16.74,0,0,0-4.43-.93,5,5,0,0,1-1.78-.06,10,10,0,0,0-4.94-.79c-.13,0-.28-.14-.43-.18a16.49,16.49,0,0,0-1.65-.31c-.31,0-.67.17-.93.07-1.21-.45-2.42-.92-3.59-1.49-1.37-.67-8.5-4.56-9.85-5.27-1.55-.16-1.25,1.06-2.81,1.05h0c.86,1.74,6.63,4,8.12,4.72,1,.48,1.8,1.16,2.72,1.72a4.5,4.5,0,0,0,1.36.66c1.43.29,2.92.37,4.32.76,1.81.5,3.68.15,5.47.59,1.2.29,2.36.71,3.54,1.08.13,0,.25.17.38.18a28.76,28.76,0,0,1,4.14.47c2.69.71,5.47,1.2,7.73,3.07a28.89,28.89,0,0,0,2.93,1.52c1.19.76,2.27,1.67,3.4,2.52.15.11.34.32.46.29,1.27-.33,1.39.82,1.91,1.45a.64.64,0,0,0,.29.2c.37.11.92.08,1.1.33.63.85,1.13,1.8,1.67,2.71.2.34.4.68.58,1a5.61,5.61,0,0,1-.22,5.25c-.21.44-.11,1.09-.4,1.42a8.43,8.43,0,0,1-3,2.56,9.27,9.27,0,0,0-1.83,1.16,7.08,7.08,0,0,1-3,1.23,18.48,18.48,0,0,1-4.46.5c-1-.08-2.08.41-3.14-.32-.51-.35-1.54.18-2.27,0a29.15,29.15,0,0,0-3.93-.37,3.43,3.43,0,0,1-1.25-.63c-1.09-.64-2.17-1.29-3.26-1.94-.14-.08-.27-.29-.39-.27-1.27.16-1.71-1.07-2.59-1.56a12.81,12.81,0,0,1-2.49-1.82,13.76,13.76,0,0,1-1.47-1.94c-1.1.15-1.43-1.05-1.9-1.77a31.55,31.55,0,0,0-2.74-3.1,9.53,9.53,0,0,1-.76-1.14c-.31-.49-.6-1-.91-1.49-.51-.81-1-1.62-1.53-2.4-.54-.42-1.06-.76-1.51-1.18-.6-.57-1.14-1.21-1.72-1.79a1.19,1.19,0,0,0-.64-.4c-1.47-.07-2.25-1.13-3.19-2a18.62,18.62,0,0,0-2.24-1.42c-1.41-1-2.75-2.1-4.17-3.1-.81-.57-1.64-1.11-2.48-1.64a22.34,22.34,0,0,0-3.35-.11l.25.15a15,15,0,0,1,1.5.67c.49.31.86.79,1.34,1.12,1.17.81,2.4,1.54,3.55,2.37a11.71,11.71,0,0,1,1.37,1.39,3.51,3.51,0,0,0,.64.6,9.84,9.84,0,0,1,2,1.12,10.91,10.91,0,0,1,2.18,2.81c.45.92.88.76,1.47.42a8.71,8.71,0,0,0,.54.86,14.4,14.4,0,0,1,1.29,1.53c.65,1.09,1.18,2.24,1.78,3.35.1.19.34.3.48.47a43,43,0,0,0,2.85,3.24c1.05,1,.78,2.66,2.21,3.5,1.13.67,1.9,1.92,2.88,2.87,1.16,1.13,2.92,1.68,3.22,3.53a1.84,1.84,0,0,1,2.36,1.27c.12.33.38.78.66.86,1.7.43,3,1.87,5,1.68.42,0,.89.37,1.32.6.18.09.32.3.5.34.91.24,1.83.45,2.75.67a16.11,16.11,0,0,0,2.63.6,10.89,10.89,0,0,0,2.3-.34,7.77,7.77,0,0,1,2.32-.31,8.75,8.75,0,0,0,5-.9,40.53,40.53,0,0,0,4-2.18c.42-.24,1.13-.68,1.08-.9-.2-1,.51-1.23,1.22-1.52l-1,1.35c.35-.13.57-.14.69-.26a16.72,16.72,0,0,0,2.26-2.31A10.1,10.1,0,0,0,185.88,193.83Z"/><path class="cls-3" d="M183.95,131.43a28.76,28.76,0,0,0-1.12-3.63c-.22-.56-.89-.92-1.18-1.47a7.34,7.34,0,0,0-3.26-3.25c-.59-.3-1.22-.53-1.84-.79a20.22,20.22,0,0,0-2-.77,10.3,10.3,0,0,0-1.57-.2,6.13,6.13,0,0,0-2.36-.24c-1.31.42-2.63,0-3.94.41a27.48,27.48,0,0,1-3.83.58c-.34.05-.65.38-1,.38a6.17,6.17,0,0,0-3,.81,9.6,9.6,0,0,1-1.65.73c-1,.31-2,.51-3,.81-.22.07-.39.31-.58.47a6.37,6.37,0,0,1-.8.64c-1.39.8-2.84,1.51-4.18,2.39-1.17.77-2.18,1.78-3.34,2.57a32.77,32.77,0,0,0-3.49,2.53c-1.39,1.24-2.07,2.92-3.19,4.31-1.53,1.92-2.45,4.26-4.35,6-.83.74-1.19,2-1.78,3a30.18,30.18,0,0,1-2.27,3.77,27.28,27.28,0,0,1-3.65,3.74,20,20,0,0,1-3.63,2.38c-1.6.84-3.3,1.49-4.93,2.27-1,.49-2,1.09-3,1.62a.69.69,0,0,1-.53.08c-.52-.31-1-.67-1.56-1-1.27.52-2.24,1.65-3.82,1.82a40.24,40.24,0,0,0-4.74,1.19c-1.16.27-2.38.31-3.51.63-3.91,1.12-7.79,2.32-11.68,3.48-1.77.53-3.54,1-5.3,1.58-.88.27-1.75.6-2.61.92-.39.14-.76.33-1.16.46-1.85.6-3.74,1.11-5.56,1.78-2.15.79-4.26,1.68-6.36,2.61s-4.16,1.93-6.21,3c-1.54.77-2.91,1.71-2.51,3.8a1.19,1.19,0,0,1-.09.57,4,4,0,0,0,2.78,4.81,26.51,26.51,0,0,0,5.5.57,30.26,30.26,0,0,0,8.66-1.29c2-.56,4-1.15,6.08-1.69,1.64-.43,3.31-.75,5-1.18,1.08-.29,2.1-.8,3.18-1,3.27-.69,6.55-1.34,9.84-1.91,2.38-.41,4.79-.68,7.19-1,.6-.09,1.47,0,1.74-.38a1.35,1.35,0,0,1,1.55-.46,3.45,3.45,0,0,0,3.26-.64,1.38,1.38,0,0,1,.83-.44,1.51,1.51,0,0,0,1.55-1.6c0-1.37.89-1.64,1.81-2,.35-.15.68-.36,1-.5A9.23,9.23,0,0,1,123,171.1l-.12-.06c.43-.27.75-.51,1.11-.68,1.75-.86,3.51-1.7,5.26-2.55,1.36-.66,2.69-1.39,4.08-2a1.7,1.7,0,0,1,1-.12h0c1.36-.3,2.71-.63,4.07-.87a2,2,0,0,1,1.08-.42,10.09,10.09,0,0,0,4.29-1.47,4,4,0,0,1,3.94,1,.93.93,0,0,1,1.5-.09c.11.09.33.06.5.07l1.25,0a15.11,15.11,0,0,1,1.92-.61c.45-.12.9-.26,1.36-.36,1.5-.34,3-1.06,4.48-.88,1.23.15,1.54-1.37,2.63-.88.57-1.23,2-1.18,2.92-1.79,1.69-1.06,3.56-1.84,5.34-2.76a9.43,9.43,0,0,0,1.46-.94c.75-.58,1.45-1.21,2.18-1.82.2-.17.42-.33.63-.49.58-.41,1.16-.82,1.74-1.24a1.6,1.6,0,0,0,.46-.44c.27-.47.5-1,.73-1.44a5.24,5.24,0,0,0,.2-.62c.3-.18,1-.35,1.09-.7.34-1.19,1.36-1.86,1.9-2.88s1.29-2.24,1.88-3.38a22.2,22.2,0,0,0,1.11-2.49,16.83,16.83,0,0,0,1.14-3.53A13.89,13.89,0,0,0,183.95,131.43Zm-74.08,42.73c-2.46.84-4.9,1.83-7.58,1.7a3.33,3.33,0,0,0-.75.15c-3.22.63-6.44,1.24-9.66,1.88-3,.6-6,1.19-9,1.88-1.39.32-2.72.93-4.11,1.27-1.93.47-4,.63-5.83,1.25a18.7,18.7,0,0,1-5.77.69,7.08,7.08,0,0,1-4.42-1.06c-.32-.23-.74-.74-.66-1a1.48,1.48,0,0,1,1-.92c3.8-.44,7.28-2,10.92-3a21.13,21.13,0,0,0,3.3-1.56,61.93,61.93,0,0,1,5.67-2.59c2.34-.82,4.77-1.36,7.17-2,1.48-.4,3-.76,4.46-1.15s2.72-.69,4.06-1.11c1.18-.37,2.31-.87,3.49-1.26.93-.31,1.89-.52,3.15-.86-.53,2,.25,3.25,1.32,4.53a6.91,6.91,0,0,0,4,2.52C110.29,173.8,110.11,174.08,109.86,174.16Zm62.56-20.42-.25-.31c.86-.31.79-1.79,2.37-1.48ZM180,138.64a9.67,9.67,0,0,1-2.52,3.68,10.49,10.49,0,0,0-1.15,2.29,4.24,4.24,0,0,1-.82.87c-.08.08-.3.12-.3.18,0,1-1,1.25-1.31,1.92-.61,1.44-1.92,2.11-2.86,3.16a13,13,0,0,1-6.33,4c-.94,1.3-2.63,1.07-3.82,1.88a15,15,0,0,1-2,1l-.69-.29c-.26,1.38-1.59.61-2.33,1.15a5.45,5.45,0,0,1-1.37.49,25.45,25.45,0,0,1-3.76,1.31,18.4,18.4,0,0,1-3.42-.05c-2,0-4,0-6,0-.94,0-1.93-.1-1.92,1.32,0,.11-.36.34-.52.32-1.11-.18-2,.52-2.93.79s-2.2.47-3.25.83a8.33,8.33,0,0,0-2.18,1.14,13.24,13.24,0,0,1-4.45,2,3.92,3.92,0,0,0-.52.21L121,168.7c-1,.43-1.95,1-3,1.31a18.28,18.28,0,0,1-6.22,1.36,5.31,5.31,0,0,1-4.66-2.55l2.23-2.55a3.92,3.92,0,0,1,.44-.52,24.4,24.4,0,0,1,5.78-3.34,22,22,0,0,1,2.66-1.3c2.28-.61,4.37-1.7,6.75-2.12a9.63,9.63,0,0,0,3.92-2.31,20.55,20.55,0,0,0,3.2-3.39A16.7,16.7,0,0,0,134,150c.67-1.46.86-3.07,1.58-4.56A11.63,11.63,0,0,1,138.2,142c.52-.49.77-1.26,1.25-1.81.7-.79,1.5-1.5,2.26-2.23.51-.49,1-1,1.51-1.48a3,3,0,0,1,2.14-1.3c.05,0,.1-.07.15-.12,2.6-2.64,6.13-3.93,9-6.18a8.65,8.65,0,0,1,2.44-1,33.45,33.45,0,0,1,3.43-1.13c2.43-.59,4.94-.94,7.32-1.69,1.57-.49,3.08-.22,4.61-.28a8.71,8.71,0,0,1,2.71.18,5.19,5.19,0,0,1,2,1.28c.93.88,1.67,2,2.64,2.78s.81,1.82,1.06,2.75c.2.74-.11,1.6,0,2.37A9.12,9.12,0,0,1,180,138.64Z"/><path class="cls-3" d="M168.07,147.26c-1,.76-1.68,1.27-2.32,1.87-.27.25-.36.45-.84.51a5.73,5.73,0,0,0-1.91,1c-.8.47-1.6.93-2.36,1.46a18.1,18.1,0,0,1-2,1.57,19.71,19.71,0,0,1-4.07,1.61,11.86,11.86,0,0,1-6.8,0c-2.18-.76-4.15-1.86-4.54-4.36a32.06,32.06,0,0,1-.1-5c0-.49.17-1,.23-1.47a11.3,11.3,0,0,1,2.2-5.59,19.55,19.55,0,0,1,3.23-3.3,28.38,28.38,0,0,1,4-2.79,32.39,32.39,0,0,1,3.1-1.19c1.45-.64,2.85-1.39,4.28-2.06.39-.18.87-.19,1.27-.37a10.62,10.62,0,0,1,4.9-.62,19.89,19.89,0,0,1,3.4.48c1.46.29,2.89.78,4.35,1,1.14.15,1.55.92,2,1.73.09.17-.22.71-.47.85-.72.4-.69.75-.21,1.36,1.37,1.72,1,3.37-.06,5.15a23.7,23.7,0,0,1-2.72,3.65c-.73.82-1.33,1.76-2.08,2.56a16.43,16.43,0,0,1-1.68,1.27A6.74,6.74,0,0,0,168.07,147.26Zm-22.48.52a2,2,0,0,0,0,.62c.51,1.64,2.69,2.52,4.09,2.41a22.87,22.87,0,0,1,3.19-.42c1.56.11,2.79-.8,4.21-1.1a18,18,0,0,0,3.75-1.57c.35-.16.57-.56.91-.77,1.29-.79,2.65-1.48,3.88-2.35a18.46,18.46,0,0,0,2.49-2.31c1.3-1.34,2.82-2.51,3.47-4.38.35-1,.85-1.94,1.21-2.93a1.22,1.22,0,0,0-.1-1,7.84,7.84,0,0,0-2.87-2.25,6,6,0,0,0-2.76-.56,11.91,11.91,0,0,0-2.75.45,26.16,26.16,0,0,0-4.49,1.19,13.11,13.11,0,0,0-2.78,1.38,25.13,25.13,0,0,1-2.31,1.3c-1.41.81-2.3,2.28-3.88,2.83-.17.06-.25.36-.38.54s-.18.44-.31.46c-1.92.34-2.57,2.16-3.68,3.34C145.18,144,145.79,146.05,145.59,147.78Z"/><path class="cls-3" d="M112.48,165.16c1-1.38,2.55-1.31,3.93,0a12.45,12.45,0,0,1,1,1,2.24,2.24,0,0,1,.48,1.93c-.22,1-1.24,1-2,1.17-1.19.25-3-1.39-3.1-2.7A13.68,13.68,0,0,0,112.48,165.16Z"/><path class="cls-3" d="M149.27,176.47l1.44.1c.19,0,.48,0,.56.07,1.14,1.44,2.87,1,4.34,1.43.72.19,1.4.58,2.13.75s1.52.12,2.26.27a15.62,15.62,0,0,1,1.63.6c1.17.38,2.36,1.08,3.51,1,1.67-.09,2.76,1.09,4.2,1.46a4.7,4.7,0,0,1,2.9,1.85c.31.5,1,.75,1.5,1.13a21.84,21.84,0,0,1,3.06,2.46,3.3,3.3,0,0,1,1.07,3,15.18,15.18,0,0,0-.19,1.61c-.6.18-1.45-.25-1.63.74,0,0-.27,0-.41.06a1.87,1.87,0,0,0-.64.16,4.84,4.84,0,0,1-3.4.44c-.56-.06-1.59.06-1.66.89a6.37,6.37,0,0,1-1.88.41,8.23,8.23,0,0,0-1.89.06,14.16,14.16,0,0,1-2.66-.24,15.49,15.49,0,0,0-1.66.07,5.61,5.61,0,0,1-1-.22,12.91,12.91,0,0,1-1.63-.76c-.86-.46-1.71-1-2.57-1.43s-1.81-.92-2.71-1.39c-.19-.1-.3-.32-.48-.46-.63-.48-1.29-.92-1.9-1.42s-1.52-1-1.75-2.2-1.12-2.14-1.59-3.26a6,6,0,0,1,.08-4.33c.2-.6.3-1.23.51-1.83A7.21,7.21,0,0,1,149.27,176.47Zm23,12.44c-.56-.63-1-1.25-1.6-1.78-.9-.84-2.37-1.08-2.7-2.55,0-.07-.14-.15-.23-.17-1.39-.32-2.5-1.23-4-1.44-1.91-.25-3.69-1.43-5.57-2.08-.8-.28-1.62-1.3-2.6-.29-.06.06-.25,0-.38,0-1-.25-1.92-.55-2.89-.76-1.17-.25-2.29.59-2.08,1.54a3.65,3.65,0,0,0,.67,1.48c1,1.27,2.3,2.39,3.23,3.73,1.13,1.63,2.9,2.19,4.45,3.14.35.22.9.22,1.13.5,1.07,1.33,2.71,1,4.07,1.49.58.2,1.29,0,1.88.22a4.79,4.79,0,0,0,3.77-.5c.21-.11.51,0,.7-.16A4.19,4.19,0,0,0,172.28,188.91Z"/><path class="cls-3" d="M114.21,160.76a19.24,19.24,0,0,1-5.19-2.59,3.87,3.87,0,0,0-.62-.31c-5.56-2.81-11.17-5.51-16.79-8.19l-8.44-4c-2.41-1.15-4.78-2.26-6.05-4.78A1,1,0,0,1,77,140c.25-.55,1.07-.32,1.6,0a42.89,42.89,0,0,0,6.89,2.71q6.87,2.29,13.6,5,3.36,1.33,6.69,2.75c2,.85,4.91,2.63,7,3.07.57.13,5.47,2,6,2.28.36.2,4.17,3.43,4.53,3.64.07-.92,4-1.83,4-2.75l-12.91-5.73c-1-.45-1.9-1.08-2.86-1.48-3.3-1.39-6.61-2.72-9.92-4.07-1.5-.61-3-1.25-4.5-1.85-.75-.3-1.51-.56-2.26-.83-.34-.12-.68-.2-1-.33a114.5,114.5,0,0,0-15.18-5,5.56,5.56,0,0,0-2.66-.17c-2.46.64-2.16,4.49-.67,5.93a34.81,34.81,0,0,0,4,3.3,35.7,35.7,0,0,0,7,3.82c1.71.73,3.42,1.44,5.12,2.2,1.38.61,2.74,1.3,4.12,1.91.9.4,1.83.62,2.73,1.06,2.69,1.32,5.38,2.67,8.05,4.07,1.94,1,3.85,2.14,5.78,3.21.49.27,1.12.78,1.44.7a1,1,0,0,1,.28,0C114,162.47,114.11,161.62,114.21,160.76Z"/></svg>