<svg xmlns="http://www.w3.org/2000/svg" xmlns:xlink="http://www.w3.org/1999/xlink" id="Your_Icon" width="66.403" height="46.014" x="0" y="0" enable-background="new 18.095 11.437 66.403 46.014" version="1.1" viewBox="18.095 11.437 66.403 46.014" xml:space="preserve"><g><path d="M76.248,30.351V12.848c0-0.78-0.632-1.411-1.412-1.411H19.505c-0.78,0-1.411,0.631-1.411,1.411v35.571 c0,0.779,0.631,1.411,1.411,1.411h21.969l-0.682,6.124l-2.56,0.539c-0.164,0.047-0.273,0.174-0.253,0.375 c0.018,0.199,0.16,0.293,0.329,0.293h17.725c0.168,0,0.311-0.184,0.33-0.383c0.02-0.2-0.09-0.412-0.254-0.458l-2.56-0.394 l-0.683-6.096h5.66V32.609c0-1.245,1.012-2.258,2.257-2.258H76.248z M47.171,12.228c0.31,0,0.56,0.251,0.56,0.56 c0,0.31-0.251,0.56-0.56,0.56c-0.31,0-0.56-0.251-0.56-0.56C46.61,12.479,46.861,12.228,47.171,12.228z"/><path d="M83.086,41.642h-5.928c-0.779,0-1.41,0.633-1.41,1.412v12.985c0,0.78,0.631,1.412,1.41,1.412h5.928 c0.781,0,1.412-0.633,1.412-1.412V43.054C84.498,42.275,83.867,41.642,83.086,41.642z M80.123,56.218 c-0.31,0-0.561-0.251-0.561-0.56c0-0.311,0.252-0.561,0.561-0.561c0.31,0,0.561,0.251,0.561,0.561 C80.684,55.967,80.432,56.218,80.123,56.218z"/><path d="M77.158,40.443h2.47v-7.834c0-0.583-0.475-1.059-1.058-1.059H60.785c-0.583,0-1.059,0.475-1.059,1.059v23.149 c0,0.584,0.476,1.058,1.059,1.058h13.881c-0.078-0.25-0.117-0.513-0.117-0.775V43.055C74.549,41.614,75.719,40.443,77.158,40.443z M69.678,56.218c-0.31,0-0.561-0.251-0.561-0.56c0-0.311,0.252-0.561,0.561-0.561c0.31,0,0.561,0.251,0.561,0.561 C70.238,55.967,69.986,56.218,69.678,56.218z"/></g><text font-family="'HelveticaNeue-Bold'" font-size="3.704" transform="matrix(1 0 0 1 14.2593 84.4443)">Created by Laurent Canivet</text><text font-family="'HelveticaNeue-Bold'" font-size="3.704" transform="matrix(1 0 0 1 14.2593 88.1484)">from the Noun Project</text></svg>