<svg xmlns="http://www.w3.org/2000/svg" id="Layer_1" data-name="Layer 1" viewBox="0 0 216 216"><defs><style>.cls-1{fill:#fbb040}.cls-2{fill:#8dc63f}</style></defs><title>Largo-site-icons</title><path d="M112.13,174c-1.68-.23-3.37-.13-5-.95-.64-.31-1.59.08-2.38,0-2.39-.19-4.87-.93-7.13-.5-1.52.29-2.62-.72-3.95-.33a.31.31,0,0,1-.24-.08c-1.63-1.45-3.7-1-5.6-1.36a29,29,0,0,1-5.36-1.53,38.9,38.9,0,0,1-6.59-3.13c-2.31-1.47-4.33-3.38-6.51-5.06-1.5-1.16-3-2.26-4.57-3.37s-2.89-1.92-4.2-3A24.77,24.77,0,0,1,58,151.86a38.33,38.33,0,0,1-3.2-3.82c-1.17-1.79-2.1-3.72-3.09-5.62s-2-3.8-2.86-5.79A48.4,48.4,0,0,1,47,130.84c-.52-1.92-.93-3.87-1.29-5.82a34.79,34.79,0,0,1-.49-4.33,47.62,47.62,0,0,1-.1-6c.18-2.48.64-4.95,1-7.42.47-3.28.87-6.57,1.44-9.83.34-1.92,1-3.79,1.43-5.68a11.89,11.89,0,0,1,.32-1.4c.38-1,.84-1.91,1.23-2.88a8.93,8.93,0,0,0,.16-1c.14-.53.31-1.05.5-1.57a9.07,9.07,0,0,0,.89-2.45c.07-1.52,1.1-2.47,1.75-3.65.4-.73.73-1.49,1.14-2.21s1-1.5,1.4-2.28a4.23,4.23,0,0,0,.49-1.23c-1.34-.78,0-.86.26-1.28.51-.88.91-1.84,1.34-2.76a14.2,14.2,0,0,1,.81-1.74A18.48,18.48,0,0,1,61,65a17.45,17.45,0,0,1,1.71-1.48l-.29-.8c1.55-.55,3.07-1,4.54-1.63,1.28-.52,1.34-1.18.21-2.13.57-2,2.67-1.21,3.84-2.21,0,.11,0,0,0,0l-.29-.16,6.49-3.77c1.24.5,1.8.32,2.31-1.21.32-1,1-.87,1.68-.83a5.15,5.15,0,0,0,1.34.11,3.22,3.22,0,0,1-.28-.17c-.09-.07-.17-.15-.63-.58,2.38.5,3.61-.92,5.05-1.86a2.82,2.82,0,0,1,3.29.12l-.62-.89a7.54,7.54,0,0,1,1.4-.56,7.84,7.84,0,0,0,3.71-1.42c.29-.24,1.19.31,1.83.45s1.19.4,1.64.22a11.64,11.64,0,0,1,5.28-.5c2.65.2,5,1.81,7.83,1.32a11.94,11.94,0,0,1,4.58,0c3.65.83,7.28,1.83,10.85,3,4.54,1.42,9,3,13.5,4.59A50.72,50.72,0,0,1,144.78,57c1.84.9,3.7,1.73,5.52,2.66a11.19,11.19,0,0,1,2.06,1.4A23.11,23.11,0,0,1,155,63.51c1.4,1.61,2.69,3.31,4,5,.24.3.54.56.77.88,1.49,2,3.07,4,4.41,6.18a31.38,31.38,0,0,1,1.62,4c.58,1.29,1.67,2.5,1.79,3.82.14,1.51,1.15,2.45,1.53,3.69.58,1.86.38,4,1.08,5.77a11.56,11.56,0,0,1,.66,3.82,2.39,2.39,0,0,1,0,.67c-.32,1.34-.74,2.65-1,4a14.15,14.15,0,0,0,0,2.61c0,.16.06.37,0,.47-1.42,2-.43,4.18-.48,6.28,0,.92-.15,1.85-.24,2.77a16.6,16.6,0,0,0-.31,3.82c.26,1.8-.71,3.17-1.19,4.69a26.37,26.37,0,0,1-1.69,3.6c-.43.86-.9,1.71-1.34,2.57-.72,1.4-1.43,2.8-2.16,4.2s-1.15,3.3-2.7,4.36c-.17.12-.17.47-.27.71-1.26,2.8-2.35,5.7-4.83,7.75a2.8,2.8,0,0,0-.55.84c-.56,1-1.1,2.05-1.65,3.08-.3.56-.57,1.14-.92,1.67s-.81,1.08-1.21,1.62c0,0,0,.1,0,.13-1.42,1.46-2.85,2.91-4.27,4.37-.26.27-.43.63-.71.88-.85.77-1.73,1.5-2.59,2.25-.13.11-.36.21-.39.34-.3,1.77-1.8,2.32-3,3.18-.65.45-1,1.43-1.7,1.67-1.16.41-1.79,1.39-2.73,2-1.34.85-2.82,1.46-4.2,2.25a26.38,26.38,0,0,1-2.3,1.57,36.41,36.41,0,0,1-4.64,1.63c-2.17.61-4.36,1.17-6.58,1.59a29.74,29.74,0,0,1-4.35.32C112.66,174.47,112.39,174.19,112.13,174ZM53.69,91.54l-.29,0A6.38,6.38,0,0,1,53.5,93c-.12.74-.45,1.45-.6,2.19-.36,1.81-.67,3.63-1,5.45-.18,1.08-.34,2.16-.45,3.25-.07.69.23,1.63-.12,2.05-1.27,1.53.05,3.28-.61,4.86a13.41,13.41,0,0,0-.52,3.15,3.89,3.89,0,0,0-.14,1,69.46,69.46,0,0,1,.82,9.15,5.3,5.3,0,0,0,.46,1.59c.23.69.8,1.47.64,2.06-.45,1.71.94,2.76,1.29,4.17.42,1.72,1.53,3.26,2.26,4.91a23.6,23.6,0,0,0,3.58,6.12c1.94,2.24,3.68,4.65,5.45,7,.72,1,1.37,1.86,3,1.29-.43,1.32.23,1.76,1.12,2.32a32.62,32.62,0,0,1,5.71,4.21A26,26,0,0,0,81.77,163a67.66,67.66,0,0,0,8.29,2.88c1.38.44,2.82.71,4.24,1,1.86.44,3.71.93,5.58,1.25a16.58,16.58,0,0,0,3.24.07c1.83-.05,3.67-.17,5.5-.23,1.08,0,2.17.07,3.25,0,1.86-.14,3.72-.37,5.58-.56a1.93,1.93,0,0,0,.75-.15q2.31-1.34,4.6-2.73c1-.59,1.9-1.27,2.91-1.8,2-1,4.26-1.2,5.94-3,.82-.87,2.43-1,2.69-2.58,0-.09.29-.15.45-.19a5.55,5.55,0,0,0,3.3-2.5,17.66,17.66,0,0,1,1.46-1.57c.41-1.19,1.7-1.49,2.61-2.14.38-.28,1.13-.72,1.09-.81-.45-1,.47-.78.82-1.08.93-.81,1.85-1.63,2.73-2.48.08-.08-.12-.46-.19-.7l.32.26c.71-.5,1.81-.87,2-1.53.52-1.53,2.16-2.22,2.49-3.89.16-.79,1-1.42,1.53-2.15.32-.47.58-1,.85-1.45.63-1.18,1.22-2.32,1.84-3.45a3.71,3.71,0,0,1,.85-1.29c.92-.65,1.48-1.36.93-2.65,1,0,1.7-.45,1.18-1.52.42-.06.83,0,1.08-.2s0-.59-.07-.91-.11-.42,0-.55c.59-1.07,1.21-2.12,1.83-3.17a9.44,9.44,0,0,0,.85-1.48,58,58,0,0,0,1.95-5.9,58.1,58.1,0,0,0,1-6.49c.31-2.56.5-5.14.76-7.71a19,19,0,0,0,.44-4.16c-.41-3.26-1.08-6.49-1.73-9.71a14.44,14.44,0,0,0-1-2.63c-.46-1.09-.91-2.17-1.42-3.24-.86-1.82-1.71-3.65-2.65-5.43a23,23,0,0,0-2.06-3.29c-.85-1.1-1.86-2.08-2.81-3.11s-1.88-2.4-2.84-3.47a16.22,16.22,0,0,0-6.54-4.48,20.36,20.36,0,0,1-2.44-1.19c-1.58-.82-3-2-4.91-2.1-.44,0-.85-.41-1.29-.59a38,38,0,0,0-3.85-1.51c-1-.29-2.12-.16-3.13-.44-1.34-.37-2.59-1.25-3.93-1.38-2.56-.25-4.77-1.39-7.1-2.24a8.71,8.71,0,0,1-2-.72,7.05,7.05,0,0,0-4.8-1.43,27.15,27.15,0,0,0-3.17.3,4.88,4.88,0,0,0-2.58,1.06c-1.16,1.35-2.36,1.28-3.85.89a15.43,15.43,0,0,0-9.33.58,45.69,45.69,0,0,1-6.73,2.23,25,25,0,0,0-8.81,3.62c-4,2.55-7.71,5.44-11.46,8.31-1.06.81-2.34,1.46-2.85,2.93A9.91,9.91,0,0,1,61.43,74c-1.77,1.89-2.24,4.3-3.16,6.54a32.62,32.62,0,0,1-2.45,5.35,6.36,6.36,0,0,0-1.37,3.61A6.42,6.42,0,0,1,53.69,91.54Z" class="cls-1"/><path d="M60.3,118.87c-.13-2.23-.3-4.45-.39-6.68a38.46,38.46,0,0,1,1.8-12.05,69.7,69.7,0,0,1,2.06-7.3c1.12-2.77,1.84-6,4.13-8.78A46.47,46.47,0,0,0,71,78.93c2.15-3.48,4.56-6.69,8.23-8.77,2.58-1.46,4.94-3.34,7.6-4.62,2.9-1.4,6-2.31,9-3.46.53-.2,1-.54,1.51-.78a4.38,4.38,0,0,1,3.57-.42c1.88.61,4.07.28,6.12.42a12.45,12.45,0,0,1,2.45.45c1.59.44,3.17.92,4.74,1.45.78.27,1.49.74,2.26,1A56.13,56.13,0,0,0,127,67c1.35.22,2.57,1.21,3.84,1.85a51.24,51.24,0,0,1,5.68,3A13.34,13.34,0,0,1,140,75.33c1.42,2.1,2.43,4.47,3.8,6.6,1.54,2.39,3.4,4.58,4.9,7a25,25,0,0,1,2.65,5.62c.33,1-.23,2.32-.29,3.5,0,.64.33,1.38.13,1.94-.55,1.55.45,2.47,1.06,3.64a9.73,9.73,0,0,1,.57,3,5.19,5.19,0,0,1,.07,1.6c-.38,2.13-.84,4.24-1.23,6.37-.17,1-.2,1.93-.35,2.88a21.94,21.94,0,0,1-.55,2.84c-.41,1.42-1.49,2.65-1.2,4.28,0,.18-.31.41-.45.64a70.22,70.22,0,0,0-4.7,7.87,6.4,6.4,0,0,1-1.91,2.22c-.61.57-.91,1.49-1.54,2-2.17,1.81-3.55,4.31-5.62,6.27-1.85,1.75-3.48,3.58-5.83,4.67-.44.2-.69.79-1.12,1a18.8,18.8,0,0,1-2.77,1.35,55.08,55.08,0,0,1-6,2.06c-2.45.61-4.79,1.7-7.46,1.53a33.53,33.53,0,0,0-5,.52,10.74,10.74,0,0,1-1.55-.21c-1.51-.1-3-.16-4.52-.24-.6,0-1.2-.07-1.79-.12L96.05,154c-.09,0-.18,0-.27,0-1.74-.42-3.48-.83-5.22-1.27s-3.25-1.78-5.2-1.73c-.07,0-.15-.1-.22-.14-1.74-1-3.49-2.07-5.21-3.13-.68-.42-1.32-.92-2-1.39-2-1.43-4-2.74-5.86-4.33a34.13,34.13,0,0,1-4.54-4.83,26.18,26.18,0,0,1-3.3-5.33,69.88,69.88,0,0,1-2.46-7.24c-.54-1.7-1-3.41-1.49-5.13A2.21,2.21,0,0,1,60.3,118.87Zm5.25-2.22-.15.07a13.34,13.34,0,0,1,.67,1.79,34,34,0,0,0,2.18,7.66c.71,1.46,1.05,3.25,2.12,4.33,1.82,1.84,2.69,4.39,5,5.85s4.22,3.41,6.44,5a23.59,23.59,0,0,0,4.5,2.4c2,.83,4,1.44,6,2.15A56.53,56.53,0,0,0,98.51,148c2.52.58,5.14.7,7.69,1.15a23.51,23.51,0,0,0,9.34-.59,27.27,27.27,0,0,0,6.79-2.32c.15-.08.42.07.62.06a5.13,5.13,0,0,0,1.11-.14c2.07-.6,3.42-2.48,5.54-3.08a10.55,10.55,0,0,0,2.55-1.63c.85-.56,1.3-1.65,1.91-2.14,1.7-1.34,2.43-3.14,3.25-4.93a43.41,43.41,0,0,1,3.74-7.06,29.79,29.79,0,0,0,3.69-6.57,78.36,78.36,0,0,0,2.45-9.19,4.17,4.17,0,0,0-.17-1.84c-.24-1-.58-2-.85-2.95,0-.11.05-.25.07-.37a5.4,5.4,0,0,0,.21-1.34c-.15-1.68-.39-3.36-.55-5a20,20,0,0,0-1.45-6.83c-.26-.55-.51-1.1-.75-1.65A32.82,32.82,0,0,0,142,87.47a41.44,41.44,0,0,0-3.48-4.87,29.29,29.29,0,0,0-4.75-5.17c-2.1-1.57-4.66-2.51-7-3.78-1.83-1-4-1.24-5.55-2.85-.39-.41-1.2-.45-1.83-.62-1-.28-2-.52-3-.8-1.6-.44-3.31-1.52-4.76-1.23-3.08.61-5.91,0-8.86-.52a21,21,0,0,0-6-.28c-1.7.22-3.31,1.15-5,1.75s-3,1-4.53,1.59a17.56,17.56,0,0,0-6.57,4.17c-1.06,1.07-2.28,2-3.31,3.09A27.35,27.35,0,0,0,74,82.08c-1.09,1.78-1.81,3.78-2.77,5.64-1.24,2.42-2.55,4.79-3,7.54-.47,3.22-1.65,6.29-2.07,9.51-.27,2.06-.49,4.14-.59,6.21C65.48,112.88,65.55,114.76,65.55,116.65Z" class="cls-1"/><path d="M111.48,109.36a12.55,12.55,0,0,0,2.54-1.06c1.75-1.23,3.38-2.62,5.08-3.92,1.35-1,2.77-2,4.07-3.07a5.28,5.28,0,0,0,1.45-1.91,3.84,3.84,0,0,1,5.05-2.26c2.42.9,3.5.6,1,3.58a52.16,52.16,0,0,1-6.77,6.43c-2.52,2.07-4.89,4.39-7.63,6.1-1.35.84-2.16,2.41-4,2.71-.83.14-1.41,1.56-2.21,2.28a1.34,1.34,0,0,1-1.29,0,6.94,6.94,0,0,1-2.82-6.7,19.4,19.4,0,0,0,.19-5.61c-.28-1.47.18-3.06.06-4.57-.16-2.15-.56-4.28-.85-6.42a21.64,21.64,0,0,1-.37-2.88c0-3.8.23-7.62,0-11.41a5.26,5.26,0,0,0-2.44-4.55,3.48,3.48,0,0,1-.44-.28c-.06,0-.08-.15-.21-.4l1.44-.69,0,.78c1.52.57,3,1.07,4.42,1.67.76.32,1.41.83,1.07,1.85a.42.42,0,0,0,0,.33c1.29,1.64.86,3.71,1.35,5.54a17.94,17.94,0,0,1,.08,3.82c0,.94.18,1.88.3,2.81,0,.21.26.46.2.6-.82,1.9.21,4-.66,5.91-.08.17.38.52.39.8.06.95,0,1.9,0,2.84.18,1.9.44,3.79.67,5.68C111.32,107.94,111.38,108.51,111.48,109.36Z"/><path d="M128,32.56l-1.12.22c1.21.65,1.23,1,.22,2.2l.4.06-.29,2c-.59.22-1.09.6-1.54.55a5.64,5.64,0,0,1-2.34-.75,8.21,8.21,0,0,1-1.64-1.81c-.48-.58-.84-1.06-.09-1.88.41-.45.2-1.48.29-2.36l-1.45.23.64-.49c.39-.3,1.76-.07.67-1.21-.07-.07.11-.39.2-.58l1.86-4c.05-.11.14-.24.12-.35-.52-2.46.45-4.66,1.09-6.93.18-.63,0-1.35.11-2A23.07,23.07,0,0,1,126,13a2.83,2.83,0,0,1,.54.41c.93,1.11,1.89,2.2,2.75,3.36a2.82,2.82,0,0,1,.67,1.65c-.07,1-.71,2.07-.59,3,.18,1.53-1,2.81-.52,4.35.14.5-.21,1.13-.33,1.71a8.67,8.67,0,0,1-.28,1.39c-.09.24-.42.38-.64.57,0,0-.09,0-.11.08s0,.07.06.1l.41.14-1.21.59.09.27.68-.11Z" class="cls-2"/><path d="M131.36,180.53c2.65.6,3.84,2.35,5.39,3.59.13.1.06.46.09.7.19,1.41.48,2.81.54,4.22a23.62,23.62,0,0,1-.09,6.21,13.47,13.47,0,0,0,.12,4.32,10.13,10.13,0,0,1-.86,3.43.74.74,0,0,1-.66.29,3.19,3.19,0,0,1-1.53-.64,22.6,22.6,0,0,1-2.85-3.71,5.26,5.26,0,0,1-.29-2.61c.09-3.19.24-6.39.39-9.58.05-1.06.18-2.12.24-3.19a4.1,4.1,0,0,0-.1-.91C131.64,182,131.52,181.39,131.36,180.53Z" class="cls-2"/><path d="M49.15,190.31c.44-2,1-4,1.29-6a31.68,31.68,0,0,1,2.64-8c.07-.16.33-.31.3-.42-.68-2.5,1.34-4,2.65-5.19s2.45-3.06,4.73-2.47a6,6,0,0,0,.9.1,4,4,0,0,1-.24.94c-.47.89-1,1.75-1.49,2.65-.23.44-.32,1-.59,1.44-.47,1.25-1,2.48-1.42,3.74s-.88,2.59-1.31,3.89-.88,2.57-1.28,3.86a12.08,12.08,0,0,1-.37,1.56,3.82,3.82,0,0,1-1,1.38,38,38,0,0,1-3.63,2.48C50,190.48,49.4,190.31,49.15,190.31Z" class="cls-2"/><path d="M185.72,48.38l-3.26,1.86a14.48,14.48,0,0,0-3,2c-2.27,2.16-4.83,4-7.17,6.1a3.16,3.16,0,0,1-3.72.76,5.75,5.75,0,0,1-1.66-1.3,16.92,16.92,0,0,1-1.48-1.95c-.15-.22-.35-.57-.27-.73a1.1,1.1,0,0,1,.74-.55c2.82-.2,4.93-1.9,7.12-3.37s3.92-3.07,6-4.49a3.1,3.1,0,0,1,2.25-.46,42.4,42.4,0,0,1,4.52,1.66Z" class="cls-2"/><path d="M171.05,71.83c3.15-.06,5-1.95,7-3.56,1.8-1.45,3.53-3,5.3-4.45a18.69,18.69,0,0,1,2.51-1.94,3.75,3.75,0,0,1,2.22-.58,35.81,35.81,0,0,1,4.32,1.21c-3.13,2.86-6,5.53-8.89,8.08-1.31,1.14-3,1.83-4.24,3.05A3.64,3.64,0,0,1,175.84,75a4.9,4.9,0,0,1-1.78-.85C173.12,73.49,172.25,72.75,171.05,71.83Z" class="cls-2"/><path d="M140.91,173.87c1.67.53,3.73-.22,5,1.79a3.4,3.4,0,0,0,1,.8c1.74,1.19,2.31,3.18,3.41,4.8,1.28,1.88,1.49,4,2.28,6q1.62,4.08,3.19,8.18a2.79,2.79,0,0,1,0,.93c-2.33.77-2.31.76-3.77-1.23-.5-.68-1.34-1.15-1.71-1.87-.62-1.23-1-2.59-1.48-3.88-.79-2-1.61-4-2.43-6-.3-.73-1.22-1.23-.83-2.22,0,0,0-.08-.06-.12-1.48-1.74-1.88-4.15-3.57-5.76-.38-.36-.77-.7-1.16-1Z" class="cls-2"/><path d="M118.57,204.95a4.12,4.12,0,0,1-1.06,0,2.29,2.29,0,0,1-1.22-.51c-.4-.45-.52-1.14-.92-1.6-1.6-1.84-1.77-3.81-1.17-6.15a47.81,47.81,0,0,0,.87-6.58c.14-1.25.26-2.5.3-3.75,0-.86-.11-1.72-.19-2.71l-.72-.16-.1-.3c.43-.14.9-.48,1.28-.4a5.93,5.93,0,0,1,4.49,7,36.45,36.45,0,0,0-.28,3.72C119.44,197.42,119,201.24,118.57,204.95Z" class="cls-2"/><path d="M64,198.6c.41-2.61.75-5,1.15-7.3.3-1.77.64-3.53,1-5.28.66-3.17,1.24-6.25,3.67-8.84,1.25-1.33,2.73-1.45,4-2.21.12-.07.35.07.53.11-.08.16-.16.32-.23.49a39.41,39.41,0,0,0-2.17,5.36c-.63,2.52-.87,5.14-1.32,7.72-.19,1.11-.49,2.19-.74,3.29-.18.81.31,1.59-.45,2.51-.56.68-.6,1.57-1.8,1.89-1,.25-1.71,1.25-2.57,1.89A5.4,5.4,0,0,1,64,198.6Z" class="cls-2"/><path d="M34.06,49.36c.85-1.47,2.4-1.58,3.84-1.82,2.84-.47,4.71,1.51,6.83,2.82A23.1,23.1,0,0,1,48,52.67a22.62,22.62,0,0,0,5.89,3.88c.58.26.52.81-.15,1-1.73.61-3.45,1.25-5.22,1.73a2.48,2.48,0,0,1-1.58-.51c-1.8-1.08-3.6-2.17-5.33-3.35-.85-.58-1.53-1.41-2.34-2.06C37.56,52,35.82,50.72,34.06,49.36Z" class="cls-2"/><path d="M142.55,27.22c.15-.29.5-.67.42-.89-.37-1,.24-1.42,1.09-1.81l-.33-.4.8-3.7.19-.88a3.14,3.14,0,0,1,.91.42,7.87,7.87,0,0,1,1.89,8.91,8.21,8.21,0,0,0-.29,1.14c-.33,1.28-.67,2.56-1,3.84a12.33,12.33,0,0,0-.23,1.3c-.18,1.28-1.24,1.57-2.32,1.84l.12.34h1.33c-.1,1-.11,2-1.49,2.11a3.8,3.8,0,0,1-3.24-1.33,2.06,2.06,0,0,1-.4-2.88c.34-.68.8-1.41,0-2.18-.09-.09.23-.92.46-1,1.74-.37,1.22-2,1.83-3a3.28,3.28,0,0,0,.3-1.14A2.88,2.88,0,0,0,142.55,27.22Z" class="cls-2"/><path d="M201.73,85l-3.93,1.59-11.64,4.79c-1,.41-2,.8-3,1.15a4.17,4.17,0,0,1-4.54-1,19.86,19.86,0,0,0-1.82-1.38c1.58-.48,3-.86,4.42-1.36,1.59-.57,3.15-1.24,4.72-1.86.92-.36,1.85-.69,2.76-1.07,2.13-.9,4.19-2,6.38-2.69,1.61-.51,3.42-.94,4.88.71.36.41,1.15.45,1.73.66Z" class="cls-2"/><path d="M160,38.25c1.53.13,1.52-.06,1.4-1.39a4.29,4.29,0,0,1,.72-2.58c1.34-2,2.72-3.94,3.14-6.45a4.15,4.15,0,0,1,2.73,2.5c.44.86,1.68,1.42,1.44,2.47a13.8,13.8,0,0,1-1.5,3.65c-1.08,1.92-2.31,3.76-3.46,5.64-.69,1.13-1.31,2.31-2,3.45a.68.68,0,0,1-.54.29c-2.36-.39-3.7-1.41-3.32-4a3.24,3.24,0,0,1,1.58-2C161.4,39.17,160.73,38.85,160,38.25Z" class="cls-2"/><path d="M51.31,157.36c-1.13,1.41-2.11,2.56-3,3.78a15.48,15.48,0,0,0-1.1,2.16c-.08.15-.11.38-.23.46-2.19,1.41-3.13,3.7-4.41,5.83-1.74,2.89-3.3,6.14-6.76,7.55a6.34,6.34,0,0,1-1.71.2l-.22-.45c1.37-2.44,3.09-4.76,4-7.37s2.94-4,4.11-6.12a12.91,12.91,0,0,1,1.23-2,45.19,45.19,0,0,1,3.23-3.66c.31-.31,1-.3,1.53-.32C49.06,157.32,50.1,157.36,51.31,157.36Z" class="cls-2"/><path d="M89.53,182.56c-.64,1.89-1.44,3.84-1.94,5.86-.66,2.73-1.75,5.32-2.24,8.13-.19,1.12-1.78,2.07-2.86,2.93A10.8,10.8,0,0,1,80,200.56c.35-2.38.64-4.69,1.05-7,.35-1.94.8-3.86,1.26-5.78a18.11,18.11,0,0,1,1.08-3.74c.28-.58,1.21-.86,1.88-1.21s1.33-.6,2-.87c.23-.09.53-.24.73-.17A13,13,0,0,1,89.53,182.56Z" class="cls-2"/><path d="M78.14,36.84c-.44-1.16-1.23-1.26-2.22-.93a1.13,1.13,0,0,1-1-.21c-1-1.06-1.89-2.17-2.77-3.31-.12-.15,0-.58.13-.83a3,3,0,0,0-.48-3.34L73.07,28l0-.33-1.36-.3,1.05-1.58-1-.37.92-.43-.64-.25.5-.6-2.28-8.79a4.34,4.34,0,0,1,5.22,3.71c.1,1.13.4,2.25.48,3.39a11,11,0,0,1-.25,2.05,1.28,1.28,0,0,0,0,.57c.46,1.26,1,2.49,1.39,3.77A10.76,10.76,0,0,1,77.49,31c.13,1.28.21,2.56.33,3.84a2.16,2.16,0,0,0,.24.58l.49,1.15Z" class="cls-2"/><path d="M99,193.27c.45-2.42.93-4.83,1.29-7.25,0-.3-.51-.74-.86-1a4.6,4.6,0,0,0-1.05-.48c.49-1.57,1.87-1.34,2.79-1.34a3.19,3.19,0,0,1,3.43,3.84,19.9,19.9,0,0,1-1.92,7.24,17.06,17.06,0,0,0-1,4c-.41,1.69-.83,3.38-1.31,5.32-2-1.6-3.35-3.24-3.58-5.59l.73-.13-.14-1.91,1.35-.22v-.32l-1-.43c.43-.41.78-.77,1.15-1.11.17-.16.36-.29.54-.43Z" class="cls-2"/><path d="M170.31,183.87c-1.91.18-3.6.55-5-.67a55.17,55.17,0,0,1-4.27-3.9c-.85-.9-1.35-2.12-2.17-3.06s-1.95-1.41-2.57-2.35c-1-1.56-3.22-1.67-4-3.69-.5-1.24-1.87-2.18-2.23-3.89,2.13,1.27,4.66,1.38,6.11,3.62.58.88,1.82,1.31,2.72,2a53,53,0,0,1,4.83,3.92,51.37,51.37,0,0,1,3.35,4.22C168,181.31,169.1,182.48,170.31,183.87Z" class="cls-2"/><path d="M46.35,71.47a26.83,26.83,0,0,1-5.28,2.06c-1.14.2-2.47-.64-3.72-1A6.35,6.35,0,0,1,36.17,72c-1-.53-1.86-1.14-2.82-1.65-1.71-.9-3.46-1.74-5.17-2.63-1-.51-2-1.06-3-1.62.27-1.25,1.69-2,3.24-2.2,2.89-.32,4.91,1.29,7.08,2.72,1.31.86,2.76,1.52,4.12,2.29.57.32,1.09.74,1.65,1.09,1.51,1,3.07,1.74,5,.67Z" class="cls-2"/><path d="M87.92,13.37c1.36-.23,1.62.95,2.18,1.53a12,12,0,0,1,1.75,2.75,6.79,6.79,0,0,1,.95,4A15.08,15.08,0,0,0,93,23.8c0,1.08,0,2.17,0,3.36l-1,.28c0,.15,0,.26.07.31.45.41,1.35.89,1.3,1.2-.4,2.35.83,4.49.7,6.76l-1.48.08A8.69,8.69,0,0,1,91,34.42,26.65,26.65,0,0,1,89,31.24c-.1-.18.19-.55.24-.84s.25-1,.06-1.2c-.65-.77-.26-1,.12-1.27-.2-1.73-.41-3.47-.58-5.2-.16-1.58-.26-3.17-.42-4.75S88.12,15,87.92,13.37Z" class="cls-2"/><path d="M23.44,159.9c1.19-1.38,2.4-2.74,3.56-4.15,1.46-1.77,2.8-3.66,4.35-5.36A48.24,48.24,0,0,1,35.16,147a3.26,3.26,0,0,0,.67-.63A4.75,4.75,0,0,1,40.7,144c.19,0,.42-.24.6-.2a11,11,0,0,1,1.31.42c-.21.46-.41,1.33-.62,1.33-1.51,0-2.07,1.35-3,2.09a36.82,36.82,0,0,0-4.21,4.24,32.51,32.51,0,0,0-2.13,3c-.14.19-.29.37-.44.56a13.46,13.46,0,0,1-6.9,4.5c-.54.17-1.1.29-1.65.44Z" class="cls-2"/><path d="M18.43,84.34c.08-1.57.75-2.28,2.17-2.3s2.89.05,4.33,0c1.1-.06,1.74.62,2.59,1.1,2.12,1.21,4.37,2.17,6.57,3.22.16.07.34.09.5.16,1.85.81,3.59,2.22,6.06.63a4.74,4.74,0,0,1-3,2.68,4.21,4.21,0,0,1-3.79.09,68.21,68.21,0,0,0-6.5-2.7c-2.25-.82-4.56-1.47-6.85-2.2Z" class="cls-2"/><path d="M108.24,11.66c.23.13.52.2.56.34.47,1.74,1.75,3,2.59,4.53a6.55,6.55,0,0,1,.4,2.89c.06,2.39.1,4.78,0,7.17,0,1.24-.42,2.47-.52,3.71a10.45,10.45,0,0,0,.26,2.2c.1.7.1,1.07-.87.83-3.56-.86-4.3-3.56-3.61-6.35a39.35,39.35,0,0,0,.91-5.55c.23-2.29.32-4.6.41-6.91C108.43,13.6,108.3,12.68,108.24,11.66Z" class="cls-2"/><path d="M177.3,105c2.44-.21,4.71-.34,7-.63s4.24-.68,6.35-1.08c1.58-.3,3.15-.69,4.72-1,.65-.13,3.65,1.86,3.87,2.64a3.18,3.18,0,0,1-1.2,0c-1.5-.7-2.37.53-3.52,1a24.61,24.61,0,0,1-3.91,1.05c-2.26.51-4.52,1.05-6.8,1.42a3.53,3.53,0,0,1-2.12-.54C180.15,107,178.74,106,177.3,105Z" class="cls-2"/><path d="M159.16,156.13a14.25,14.25,0,0,1,5.93,3.16c.35.33,1,.37,1.39.64,2,1.25,3.87,2.81,6,3.71s3.24,2.57,5,3.64a9.11,9.11,0,0,1,2,2.26c.12.15.14.61,0,.67-.28.19-.73.43-1,.33a28.12,28.12,0,0,1-3.81-1.83c-2-1.23-3.9-2.67-5.92-3.9-1.29-.79-2.81-1.21-4-2.07a27.89,27.89,0,0,1-4.25-3.73A11.51,11.51,0,0,1,159.16,156.13Z" class="cls-2"/><path d="M35.94,104.14a10.38,10.38,0,0,1-8.79,2.24,7.51,7.51,0,0,0-3.67.23c-1.81.69-3.45-.15-5.17-.12a33.43,33.43,0,0,1-4.73-.51,1.43,1.43,0,0,1-.44-.23c0-1.54,1.27-1.72,2.19-2.1,3-1.24,6.12-.79,9.22-.37,1.08.14,2.18.21,3.27.29Z" class="cls-2"/><path d="M199.11,124.53l-5.54.49c-.31,0-.61.11-.92.13-2.81.12-5.61.28-8.42.33-.83,0-1.66-.36-2.49-.42-2.1-.15-3.43-1.73-5.51-2.85h3.46a21.81,21.81,0,0,0,2.57,0,9.4,9.4,0,0,1,2.44-.12,27.18,27.18,0,0,0,5.68-.38c2.95-.28,5.84-.27,8.22,1.87A3,3,0,0,1,199.11,124.53Z" class="cls-2"/><path d="M36.83,131.62c-.3.39-.52.92-.92,1.15a50.59,50.59,0,0,1-5,2.65,11.16,11.16,0,0,0-5,3.76,2,2,0,0,1-.62.45,26.16,26.16,0,0,1-4.3,2.61,40.59,40.59,0,0,1-5.72,1.33L15,143a12.91,12.91,0,0,1,2.19-2c1.83-1,3.81-1.76,5.62-2.81.8-.47,1.24-1.54,2-2.1a50,50,0,0,1,5-3.16,15.55,15.55,0,0,1,3.48-1.35,26.41,26.41,0,0,1,3.35-.47Z" class="cls-2"/><path d="M193.81,143.79c-1.7.46-2.76-.22-3.91-.84a9.12,9.12,0,0,0-3.08-1,34.94,34.94,0,0,1-9.15-2.25,19,19,0,0,1-6.72-4.3,3.12,3.12,0,0,1-.26-.7c1.37.41,2.54.76,3.71,1.1,2.14.61,4.09,1.79,6.49,1.61,1.08-.08,2.2.74,3.34,1a22.14,22.14,0,0,1,8.65,4.34A6.82,6.82,0,0,1,193.81,143.79Z" class="cls-2"/><path d="M165.48,146.2c2.53,1,5,2,7.58,2.92,1.39.52,2.81,1,4.22,1.43a16.55,16.55,0,0,1,6.25,3.48c1,1,2.13,1.8,3.19,2.71.11.09.09.33.14.51a3.16,3.16,0,0,1-3.42-.29c-3-1.72-5.82-3.77-9.22-4.75a23.05,23.05,0,0,1-3.48-1.78c-1-.48-2-.88-3-1.31-.08,0-.2,0-.25-.09-.73-.81-1.45-1.64-2.17-2.45Z" class="cls-2"/><path d="M36.2,119.75A15.68,15.68,0,0,1,27.68,123c-2.39.26-4.73.89-7.1,1.31-.84.15-1.72.12-2.57.24-1.22.16-2.42.42-3.64.57a5.36,5.36,0,0,1-1.28-.15l-.13-.5a26.35,26.35,0,0,1,4.66-2.6,29.87,29.87,0,0,1,5.54-.78l7-.86c.76-.09,1.52-.15,2.29-.21Z" class="cls-2"/><path d="M46.52,33a15.19,15.19,0,0,1,2.8,0,3.38,3.38,0,0,1,1.53,1c1.05,1.06,2,2.22,3.05,3.27,1.89,1.86,3.77,3.74,5.77,5.47a14.86,14.86,0,0,0,2.92,1.59c-2,.89-4,1.43-5.8.11C56.2,43.66,55.61,42.82,55,42c-.29-.44-.56-.89-.84-1.33a15,15,0,0,0-5.78-5.36,11.62,11.62,0,0,1-2.14-1.87Z" class="cls-2"/></svg>