<svg xmlns="http://www.w3.org/2000/svg" id="Layer_1" data-name="Layer 1" viewBox="0 0 216 216"><defs><style>.cls-1{fill:#00aeef}.cls-2{fill:#7f3f98}.cls-3{fill:#ee2d78}</style></defs><title>support</title><path d="M63.71,54.87A9,9,0,0,1,64,56.6a28.66,28.66,0,0,0,.47,5.94c0,.07.44.08.45.08A8.86,8.86,0,0,0,64.84,65c.85,3.71,1.82,7.4,2.7,11.1.33,1.39.49,2.82.83,4.21.21.88.73,1.7.86,2.58a21.87,21.87,0,0,1,0,3.14c.18.16.6.35.7.66.48,1.36.89,2.75,1.29,4.14A27.71,27.71,0,0,0,72.46,95c1.06,2.25.59,4.81,1.83,7.08.91,1.67,1.09,3.74,1.56,5.64a2.89,2.89,0,0,1-.08.88,2,2,0,0,1,.83,2.63,15.53,15.53,0,0,1,.85,3.59,16.26,16.26,0,0,0,.68,3.07c.17,1,.77,2,1,3a5,5,0,0,1-.11,1.6l-.63.2c.46.32,1.16.54,1.32,1a12.27,12.27,0,0,1,.47,2.7c.05.39-.06,1.1.06,1.14a1.12,1.12,0,0,1,.62,1.68c-.48.86.09,1.35.28,2a19.45,19.45,0,0,1,.41,2.58l.88,1.93-.92.15c0,.1,0,.23.09.28.45.37,1.28.7,1.3,1.07.06,1.18.92,2.09.53,3.55-.31,1.16.22,2.72-.08,4.14-.05.25.32.67.6.89.6.47,1.09.66.57,1.75-.34.72.42,2,.82,3,.31.77.85,1.45,1.18,2.22.05.12-.66.48-.65.71a5,5,0,0,0,.45,2.13c.59,1,1.11,2,.46,3.19,0,.08-.07.25,0,.3,1.07,1.16.58,2.62.8,3.94s.53,2.86.84,4.28c.19.85.45,1.69.58,2.6.07.59.12,1.18.23,1.77,0,.21.24.39.34.59a11.9,11.9,0,0,0,1,2.1c.89,1.17.43,3,2.19,3.83a3.74,3.74,0,0,1,1.64,2.61c.4,3.41,2.24,6.65,1.14,10.27-.56,1.83-.69,3.79-1.16,5.66a2.45,2.45,0,0,1-1.94,2c-.65.16-1.06,1.36-1.58,2.08-.34.48-.6,1.18-1.07,1.37a11.59,11.59,0,0,1-7.85.59c-1-.3-2.61-.55-1.79-2.41.06-.13-.21-.59-.32-.59a10.21,10.21,0,0,0-1.55.26l1-1.67-1-.24c0-.87-.86-1.77,0-2.76.08-.1-.52-.9-.92-1.23-.82-.68-.85-.64,0-1.29A143.1,143.1,0,0,0,73,178l.46-.26-1-.81.19-3.27-.81.2-.26-3.8.53-.62L70,167.81l1.7-.86-.07-.28-1.09.12c-.23-1.06-.48-2.08-.67-3.1-.15-.82-.21-1.65-.32-2.55H69.3l-.84-3.45c-.06,0,.4-.11.39-.19-.28-2-.6-4.07-.92-6.11l-.44.07.75-.45-.93-.29-.09-4-1,.4c0-.13-.11-.27-.07-.32,1-1.31.38-2.74.15-4-.38-2.17-1.1-4.28-1.67-6.41-.26-1-.51-2-.73-3-.27-1.29-.5-2.6-.75-3.9l-.49.2-.57-1.16-2,.43c.6-.7,1.24-1.14,1.44-1.74a12.11,12.11,0,0,0,.44-2.92c.06-.76,0-1.53,0-2.29l-1.52-2.58.39-.27-.9.4c-.06-.13-.13-.22-.12-.28a3.34,3.34,0,0,0-.69-2.59c-.49-.51-1-.89,0-1.6a2.24,2.24,0,0,0-.21-2c-1.58-.71-.59-1.45-.16-2.25-.39-.64-1.29-1.19-.45-2.15.11-.13-.35-.76-.72-1.06,0-2.07.45-4.21-.68-6.37-.56-1.07-.44-2.48-.68-3.73a.93.93,0,0,0-.7-.58,13.07,13.07,0,0,1-.79-2.77c-.06-.82.52-1.71-.5-2.53l-.08-1.52.52-.12L54,89.1l.89-.45a5.78,5.78,0,0,1-.83-1.6c-.38-2.53-.34-2.54-2.1-4.23l1.12.09-.6-.92,1.06-.06a2.27,2.27,0,0,1-1.11-2.51l-1.27-3-.7.07L50,74.67l.83-.76-1.34-1.36c-.69-.7-.66-.68,0-1.46a.84.84,0,0,0,0-.77c-.34-.54-1.14-1.07-1.08-1.51a8,8,0,0,1,1.12-3.24,3.66,3.66,0,0,0-.08-4.44,5.63,5.63,0,0,1-.52-1.63l1.1.92c-.71-1.34-1.25-2.29-1.73-3.28-.4-.83-1.09-1.71-1-2.54.16-2.92-1.72-4.86-3.11-7-.92-1.42-2.23-2.6-3.07-4.06s-2.14-1-3.25-1.13a6.52,6.52,0,0,0-5.46,2.19c-1.41,1.48-2.94,2.84-4.43,4.25-.89.84-1.67,1.65-1.21,3.1a1.84,1.84,0,0,1-.61,1.64c-1.67,1-1.62,2.38-1.2,3.95.06.23.14.63,0,.69-2.39,1.6-.33,3.93-1.17,5.71-.55.32-1.2.7-1.86,1.05a.93.93,0,0,1-.41,0c-.91,0-2.8-1.92-2.87-2.89a.93.93,0,0,0-.34-.59c-.27-.21-.63-.29-.9-.5a11.45,11.45,0,0,1-1-1c1.82-1,1.15-2.49.87-3.91a9.23,9.23,0,0,1,2.19-6.78l.62-1.83a13.31,13.31,0,0,0,.79-2.46c.16-1.23.52-2.18,1.85-2.47,0,0,.08-.07.12-.1a15,15,0,0,1,2.64-2.6,36.94,36.94,0,0,0,3.31-3.19,17.63,17.63,0,0,1,2.34-1.45c.17-.11.41-.27.43-.43.28-1.9,2.11-1.2,3.11-1.87.59-.4,1.61-.48,1.86-1,.69-1.39,1.81-1.52,3.09-1.63.33,0,.68-.44.93-.75.62-.75,1-1.83,1.83-2.24,1-.54,2.11-1.52,3.5-.85.11.05.31-.05.45-.12,2.76-1.25,5.37-.31,8,.43a18.69,18.69,0,0,0,3.36.08,2.25,2.25,0,0,1,1.5.57c1.44,1.93,3.44,2.08,5.53,1.85a14.13,14.13,0,0,0,3.63-.86,2.89,2.89,0,0,0,1.17-1.57c.83-2,2.71-2.14,4.42-2.58a5.3,5.3,0,0,1,.91,0,5.81,5.81,0,0,1,5.81,4.34,41.45,41.45,0,0,1,.92,4.12c.26,2.08.78,4.32-.43,6.18s-2.41,4-5,3.65A13,13,0,0,1,72,40.68c-.55-.3-.85-1-1.31-1.53-.73-.77-1.48-1.23-2.53-.38a13,13,0,0,1-2.06,1.05c-.26.14-.65.36-.67.56-.12,1.55-1.52,2.21-2.21,3.34A17.59,17.59,0,0,0,61.39,48a1.69,1.69,0,0,0,1.16,2C64.07,50.73,64.5,54,63.71,54.87Zm3.34,35-2.09-1,.15-2.08-.35.14-1.32-5.52-.65,1c-.89-1.08,1.29-3.08-1-3.38l-.45-3.55c1.55-.09,1.17-1.57,1.46-2L62,72l-1.32.74-.8-3.39a12.46,12.46,0,0,0-2.1.67c-.56.3-1.47.84-1.44,1.22.15,2-1,4,0,6a3.69,3.69,0,0,1,.2,1.46c.05,1.57.05,3.14.11,4.7,0,.68.15,1.36.26,2.35.47.42,1.32,5.51,1,6.45.47.65,1,1.08,1.13,1.62.4,1.67.58,3.39,1,5.06.34,1.39.9,2.73,1.32,4.1.82,2.69,1.66,5.37,2.36,8.09a12.86,12.86,0,0,1,.18,3.19c0,.91-.49,2-.12,2.7,1.25,2.21.82,4.71,1.52,7,.36,1.17,0,2.55,1.12,3.49a1.1,1.1,0,0,1,.24.63c.28,1.64.54,3.28.81,4.92.1.61.22,1.22.34,1.83.19.85.23,1.68.4,2.47.26,1.18,1.16,2.56.81,3.47-.57,1.46.3,2.33.54,3.45,0,.15.06.31.09.46.33,2.08.69,4.16.95,6.25a7.42,7.42,0,0,1-.24,1.9,9.86,9.86,0,0,1,.33,1.12c.15.82,0,2.21.41,2.38,1.93.83.91,2.88,1.93,4.15.77,1,.51,2.75.71,4.18.12.88.24,1.75.38,2.85l-.91,1a5.22,5.22,0,0,1,2,4c0,1.75,1.37,3.45,1.89,5.25a26.44,26.44,0,0,0,2,5.7c1.14,2.07,1.34,4.66,1.94,7a13.73,13.73,0,0,0,.25,1.49c.82,2.19,1.77,4.34,2.53,6.56.41,1.21.93,2.6-.63,3.53,0,0,0,.18,0,.68a14.43,14.43,0,0,0,3.54-.92c.88-.49,1.41-1.57,2.17-2.31,1.12-1.1,1.11-1.36-.5-1.86l1-.18a7.94,7.94,0,0,0,.86-1.8c.19-1.13.22-2.29.32-3.43l-1.76-.07c-.17-1-.43-2.14-.52-3.29a2.69,2.69,0,0,1,.57-1.33,5.69,5.69,0,0,1,1-.87l-1.75.35,1.25-2.18-2.26-1.68c-.77-3-1-6.53-3.34-9.34,1-2.42,1-2.42-1-3.43.08-1,.11-2,.23-3,.16-1.26,1-2.65-.87-3.4-.12,0-.08-.55-.06-.84a8.71,8.71,0,0,0-1.3-5c-.91-1.72-2.5-4.05-.43-6.29.19-.21,0-.76,0-1.35-1.9.91-2.17-.69-1.75-1.36.89-1.44,0-2.72.13-4l1.14-.15c-.26-.87-.51-1.6-.71-2.34-.31-1.16-1-1.13-1.87-.43l.48-4.64c-.61-.24-1.25-.41-1.24-.51.11-1-.93-2,.23-3,.29-.24.29-.9.3-1.37a9.08,9.08,0,0,0-.29-1.59l-.83-.05c-.3-.61-.51-1.08-.76-1.54-.16-.3-.46-.55-.53-.86-.24-1.09-.45-2.18-.61-3.29s-.77-2.84-.26-3.33c1.49-1.42.2-2.31-.39-3-1.39-1.62-1-3.59-1.45-5.37,0-.17.3-.45.48-.69-1.38-.73-2.43-5.21-1.73-6.07A7.68,7.68,0,0,1,69,105a40,40,0,0,1-1.66-6.84c-.12-1-1.52-2.38.28-3.29-.24-.28-.46-.79-.72-.81a14.18,14.18,0,0,0-2.4.24Z" class="cls-1"/><path d="M101.7,30.07l-.33-1.84L95.2,30.28l.08-.91c-2.09.87-2-1.48-3-2.14-.78-.48-.33-2.27-1.93-2.27.12-1-1.88-1.46-.61-2.79.82-.86,1.38-1.74,2.74-2.11a35.25,35.25,0,0,0,5.25-2.45A31.8,31.8,0,0,1,101.64,16c2-.62,3.87-1.85,5.73-2.32s3-2.16,4.76-2.59c.7-.17,1.26-.32,1.65.54.83,1.82,1.78,3.58,2.59,5.4s.05,3.45-2.21,4.57c-1.17.58-1.41,1.24-.93,2.3,1.09,2.42,2.22,4.83,3.34,7.24a3.61,3.61,0,0,1,.4.85c.31,2,1.49,3.56,2.13,5.33a28,28,0,0,1,1,6.75c.15,1.47,1.17,2.89.31,4.42-.42.76-.87,1.5-1.52,2.63-.27-.18-.78-.34-.92-.67-.74-1.71-2.57-1.8-3.87-2.65-.43-.28-1.34.17-1.74-.12A10.11,10.11,0,0,1,110,45.29a13.66,13.66,0,0,1-1.4-3c-.3-.78-.38-1.65-.68-2.43a57,57,0,0,0-2.89-7C104.37,31.7,103.82,29.92,101.7,30.07Zm7.48-4.48c-.13.71-.51,1.47-.33,2.05,1,3.12,2.11,6.2,3.18,9.3.2.58.34,1.19.57,1.75.84,2.05,1.71,4.09,2.56,6.14l.45.11c.21-.46.61-.92.61-1.37a23.46,23.46,0,0,0-.36-2.89c-.55-4.11-1.31-8.13-3.54-11.78C111.55,27.63,111,26.26,109.18,25.59Zm1-8.49-7.41,1.46c-.15,0-.37,0-.44.08-1.08,1.35-2.8,1.53-4.17,2.35-.41.24-1,.72-1,1A8.88,8.88,0,0,0,98,24.5a1,1,0,0,0,.9.28,59.79,59.79,0,0,0,6.1-2.25c1.46-.68,2.64-2,4.12-2.59S110.59,18.41,110.19,17.1Z" class="cls-2"/><path d="M140.68,27.22a3.77,3.77,0,0,1-4.86-.38,9,9,0,0,1-2.34-5.77c-.12-1.54-1.09-3-1.56-4.21a43.58,43.58,0,0,1,6-1c4.6-.11,9-1.55,13.53-1.89a6.48,6.48,0,0,1,2.8.51,27.82,27.82,0,0,1,3.54,1.88c1.14.67,1.54,3.33.7,4.34a1.21,1.21,0,0,0-.33.66c0,3.07-2.36,3.74-4.6,4.38-1,.29-1.53.78-1.18,1.71.88,2.36.4,4.76.19,7.1A57.89,57.89,0,0,1,151,43.91a26.26,26.26,0,0,1-2.6,5.47c-.46.86-1.18,1.58-1.71,2.41a1.52,1.52,0,0,1-2.6,0c-1.16-2-2.75-3.9-3.23-6-.54-2.37-1.47-4.76-.88-7.42a55.94,55.94,0,0,0,.72-8.18C140.73,29.28,140.68,28.39,140.68,27.22ZM154.3,21.4A11.3,11.3,0,0,1,153,19a1.54,1.54,0,0,0-1.73-1.37,8.61,8.61,0,0,1-3.21-.44c-1.32-.61-2.25-.15-3.43.3s-2.51,1.22-4.18,1c-2.37-.35-3.46.88-3.6,3.15a1.88,1.88,0,0,0,2.36,2c1-.22,2.05-.42,3.09-.56C146.13,22.49,149.95,22,154.3,21.4Zm-8.58,4.81a12.09,12.09,0,0,1,.26,2.68c-.18,1.41-.63,2.79-.9,4.19-.56,2.94-.88,5.94-1.7,8.8a3.88,3.88,0,0,0,.2,2.36,8,8,0,0,0,1,1.77c.08,0,.41-.1.47-.26.89-2.2,2.63-3.88,2.59-6.67,0-3.31,1-6.64,1.54-10,.17-1,.21-2.12.3-3.09Z" class="cls-2"/><path d="M171.59,21.16c.23-1.34.54-2.84.74-4.35.08-.6-.31-1.62-.06-1.77a10.78,10.78,0,0,1,3.43-1.49,7.34,7.34,0,0,1,2.9.33c3.42.76,6.82,1.58,10.23,2.37a24.78,24.78,0,0,1,4.21,1c1.49.64,3.12.7,4.55,1.78,2.88,2.18,2.22,4.38,1,6.74a22.63,22.63,0,0,1-2.17,3l-6.75-.87-.25.3c1.66,1.73.17,3.23-.18,4.78a57.15,57.15,0,0,1-1.86,6.62,68.91,68.91,0,0,1-2.91,6.8c-1.15,2.38-6.4,3.49-8.23,1.72-.49-.48-.47-1.52-.63-2.31a25.35,25.35,0,0,1-.6-3.51,11.8,11.8,0,0,1,2.33-7.46,17.43,17.43,0,0,0,1.91-4.8,3.56,3.56,0,0,0-1.32-3.81C175.89,24.55,173.78,22.93,171.59,21.16Zm4.25-2.69c-.86,2.35-.8,2.87,1,3.71a20.39,20.39,0,0,0,4.65,1.37c2.82.55,5.69.8,8.49,1.43,3.57.81,4.49.42,4.93-2.62a7,7,0,0,0-1.33-.76A54.78,54.78,0,0,0,187.94,20c-1.34-.27-2.77,0-4.14-.2C181.14,19.41,178.51,18.92,175.84,18.47Zm10.94,10c-.92,0-1.47,0-2,0-1.2-.05-2,.12-2.11,1.69a18.7,18.7,0,0,1-1.15,5,12.44,12.44,0,0,1-2.34,4.37,4.76,4.76,0,0,0-1.4,2.55c-.18.94-.22,1.91-.36,3.21a6.94,6.94,0,0,0,1.83-.49c1.69-1.07,3.16-2.11,3.7-4.43C183.86,36.47,185.4,32.66,186.78,28.51Z" class="cls-2"/><path d="M185.92,136.51a3.35,3.35,0,0,1,.53,1.06c.08.86,0,1.74.18,2.62-.15.34-1.23.11-.42,1.34a2.06,2.06,0,0,1-.36,3c-.51.33-.36.86.13,1.43s.2,1.7.6,2.64c.56,1.33.3,3.05.18,4.59,0,.57-.67,1.09-1.12,1.75l1.21.26-.27,2.49-1-.06c-.41,1.18,1.88,1.58,1.08,2.63.12,1.28.25,2.32.32,3.37.12,1.72.2,3.44.29,5.16,0,.2.08.51,0,.59-1.41,1.12,0,1,.69,1.29l-1.22.68.63.38.68,1.6-.16,0c.14.53.53,1.15.37,1.57-.29.77.66,2.28-1.16,2.33l.78-.13c.1,1.19.2,2.34.31,3.5s.69,2.66.29,3.7c-.67,1.73.64,3.81-1,5.29a13.77,13.77,0,0,0,.93,1.38c-.54.86-1.3,2-1.93,3.12a5.48,5.48,0,0,0-.62,2c-.1,1.05-.67,1-1.53,1.12-1.23.11-2.49-.76-3.72.15-.23.17-.9-.24-1.17-.33l-5.16,1.4.27-1.57c-1,.15-2.15-1-2.65,1-.15.58-1.76.9-2.75,1.11a9.74,9.74,0,0,1-2.58,0,8.87,8.87,0,0,1-1.31-.27c-.51-.11-1-.28-1.53-.35-.81-.11-1.63-.13-2.45-.22s-1.77-.9-2.48.27l-.23-.18a6.26,6.26,0,0,1-1.4.73c-1.77.36-3.59,1-5.32.85a6.39,6.39,0,0,0-4,.85l-.52-1c-.21.11-.37.17-.37.2.09.84-.19,1.18-1.06.89-1.65-.54-2.73.41-3.91,1.36a4.31,4.31,0,0,1-2.06.48c-.25,0-.56-.35-.78-.29-1.28.33-2.51.84-3.8,1.07a6.06,6.06,0,0,1-2-.37c0,.93-.47,1.21-1.56,1.43-1.88.37-3.75-.53-5.6.24a5.36,5.36,0,0,1-2.45.31,1.79,1.79,0,0,1-1.27-.91c-.45-1.08-.59-2.28-1-3.37-.36-.92-.48-1.6.87-2l-1.62-.32,3.31-2.9c-2.15-.86-.66-2.49-.65-3.84,1.19-.14,1.26-.45.31-2.11,1.45-.81,1.81-1.92,1.36-3.6-.24-.92.5-2.05.56-3.1a18.53,18.53,0,0,1,.91-3.94c.53-1.93.26-4.07.41-6.11a10.53,10.53,0,0,1,.65-2.08c.12.15,0-.12-.13-.14-1-.13-1.15-1.13-1.13-1.69a24.38,24.38,0,0,1,.69-3.79,7.92,7.92,0,0,0,.18-2.89l-1,.95-.23-.19L127,161.5c-.1-.6-.5-1.38-.27-1.86.74-1.56.18-2.74-.73-3.93-.07-.09.14-.37.18-.57.22-1,.42-2,.66-3.18l1.42-.33,0-.44-1.27-.26c1.71,0,1.75-.82,1.16-2.07A1.29,1.29,0,0,1,128,148c.32-1,.32-1.71-.91-1.53l1.09-1.4-1-.1c.49-2.77,1-5.51,1.42-8.28.12-.81-.69-1.85.76-2.18l-.91-1.65V129l.92-.4c-.58-.69-1.57-1.31,0-2.17.34-.18.24-1.86-.17-2.53-.29-.47-1.31-.46-.4-1.3-1-1.33.76-2.21.33-3.54l-1.44-.21c1.67-1.09,1.56-2.37,1.25-3.92a12.34,12.34,0,0,1,.38-3.62l-1.17.06c2.08-1.19,1.26-3,1.26-4.49a31.1,31.1,0,0,0-.81-5.07h-1c.58-.39.09-1.52,1.23-.91.05,0,.32-.18.33-.28,0-.32,0-.85-.13-.94-1.65-.9-.91-2.43-.64-3.49a3.27,3.27,0,0,0-.74-3.13,6.43,6.43,0,0,1-1.45-4.51c0-.7,1.75-1.48,2.72-2.2a1.82,1.82,0,0,1,.54-.18c-1.34-6.44-6.11-10.77-9.31-16.26l.61-.92.2.13c.43.34.85,1,1.29,1,1.87.07,3.75-.09,5.63-.09,2.94,0,5.88.09,8.82.15,2.24,0,4.55.43,6.71,0,1.7-.31,3.17.36,4.79.25s3.48.54,5.19.39a4.7,4.7,0,0,0,3-1.67c1.91-2.6,5-2.86,7.53-4.16,1.5-.77,3.08-1.36,4.56-2.15s3.12-1.61,4.92-1.3A12.09,12.09,0,0,1,176,62.77c-2.41.89-1.23,2.94-1.9,4.38-.08.17.41.83.73.92,1.14.31,2.32.42,3.47.68,2.47.56,4.93,1.16,7.38,1.77a1,1,0,0,1,.58.42,8.54,8.54,0,0,1,.83,6.65c-.85,2.92-.52,5.86-.92,8.77a36.93,36.93,0,0,1-.64,4.53c-.17.64-1,1.11-1.58,1.69l1.65.21-.5,1.36.83.78-1.41.86c1.7,2.76,1.39,5.65-.85,6.67l1.2.34v15c-.59.47-.4.35.38,1.48s.12,2.21-.64,3.13a15.06,15.06,0,0,1-1.58,1.41,10.19,10.19,0,0,1,1.24.54,3.37,3.37,0,0,1,.58.6c-1.52,1.07.44,2.16,0,3.29-.18.45,0,.93.81.79s1.14.68,1.22,1.32a1.43,1.43,0,0,1-.68,1.09c-2.06,1.15-2.08,1.12-.46,2.91l.49-1.17c.18.08.5.17.5.26a4.49,4.49,0,0,1-.13,1.28c-.17.62-.43,1.22-.65,1.84l-2.4.92.28-4.35h-1.54c.27-.37.7-.42.86-.66a3.59,3.59,0,0,0,.3-1.17l-.38-.13-.62.56L182,123c.42-.14,1.07-.28,1.07-.36-.06-.8-.07-2.2-.4-2.29-1.84-.49-.82-1.67-.81-2.6a6.11,6.11,0,0,0,.08-1.9,8.59,8.59,0,0,1-.09-6c.18-.5.27-1.39,0-1.63-1-.9-.31-1.4.23-2a6,6,0,0,0,.54-1l-1.16.16c0-.54-.06-1.08-.09-1.62a27.22,27.22,0,0,1-.13-3.23c.11-1.59.43-3.16.59-4.74.29-2.81.51-5.62.82-8.43.12-1.12.38-2.22.54-3.15l1.2-1.44c-1.35-.59-.74-1.79-.81-2.74-.1-1.43-.59-1.89-2-1.57s-3,.8-4.5,1.09a17.75,17.75,0,0,1-2.66.11,16.7,16.7,0,0,0-6,1.52c-1.73.75-3.41.58-5.18.67-2.3.11-4.47,1-6.85,1.2-3.42.23-6.91.62-10.07,2.4A18.57,18.57,0,0,1,142,86.64c-1.92.53-3.86,1-5.75,1.59a5.19,5.19,0,0,0-3.64,5.06c0,.49.61,1,.55,1.42a18.17,18.17,0,0,0,.32,5.34c.17,1.2-.35,2.5-.14,3.68a2.43,2.43,0,0,1-.68,2.24c-.05.06,0,.2,0,.37l1,.18c-.62,1.1.18,3-2.08,3.19l2,1.44L132,113.09l.2.14,1.16-.85c-.78,1.15,1,4.06-2.42,3.26l.15.52,1.64.12c.07.57.14,1.13.21,1.68a8.09,8.09,0,0,0,.24,1.93c.5,1.3-1.41,1.7-.93,3.16a15,15,0,0,1,.28,4.62c0,1.69-.12,3.38-.22,5.07,0,.59-.43,1.33-.2,1.73.87,1.5-.39,1.82-1.18,2.39a5,5,0,0,1-1.33.4l2.77,1.54L131,140.5l1.14.92-1.15.3.74,1-1.3.53,1.6.61c-.56.29-1.21.47-1.21.65,0,1.89.15,3.78,0,5.66a14.52,14.52,0,0,1-.82,3.05c.12.35.39.74.34,1.1-.12,1.07-.74,2.22-.49,3.15.45,1.64-.37,3.11-.15,4.69a4.43,4.43,0,0,1-.36,2.85c-.65,1,.17,1.52.1,2.27-.12,1.35-.68,3-.15,4,1.2,2.32.2,4.67.78,6.78l-2.21,1.15,1.6.21a3.42,3.42,0,0,1-2.14,3.48l1.57.14c-.26,1.48-.8,2.82-.65,4.07.2,1.67-.68,2.29-1.84,2.92-.23.13-.45.28-.76.48.26.18.37.3.51.34.55.13,1.1.23,1.66.35-.23.43-.49.85-.68,1.3a6.62,6.62,0,0,0-.49,1.38c-.15.77-.21,1.55-.32,2.33,0,.33-.12.65-.19,1l1.23-.28-.82,1.52,5.66-.79-.77,1.7c1.24-.53,2.06-.45,2.73-1.47s2.14-1.67,3.33-2.53l.2,1.24,7.28-1.15,0-.27-1.84-.62,0-.27,4.36-.47-.25.77,1.79.42c3-2.74,4.36-3.11,6.3-1.44.33-.54.6-1.47,1-1.52,2.33-.31,4.76-.86,7-.48a23.76,23.76,0,0,0,9.47-.61l-.72.88.14.3,2.68-.89.53,1.09c.14-1.9,1.61-2.12,2.05-1.52.67.91,1.25.56,1.84.44a20.14,20.14,0,0,1,2.4-.85c.8-.06.82-.59,1.08-1s.38-.66.7-1.24H181l2.42-5.46-.68,0-.22-3.61-.72.44a1.5,1.5,0,0,1,.31-.87c.16-.32.42-.91.35-1-1.37-.92-.11-1.4.46-2l-.89-.08c0-.2,0-.44.13-.58.43-.55.9-1.08,1.35-1.61l-.38-.31-1,.11c1.22-.54,1.12-1.53,1.12-2.55a25.82,25.82,0,0,1,.24-2.57,5.66,5.66,0,0,1-.85-1.41,10.26,10.26,0,0,1-.33-2.43c-.05-.89,0-1.79,0-2.69,0-.57,0-1.09,0-1.61,0-.8.1-1.59.16-2.39,1.58,0,.81-1.73,1.31-2.63l-1.58,1.29v-6.95l1.79-.25c-1-1.34-.09-3.39-2-4.22-.12-.05-.12-.46-.12-.71,0-1,.07-2.08.12-3.12,0-.14.09-.27,0-.15l.87-.22-.46,2.78h2v-1.34l-1-.12a18.75,18.75,0,0,0,.12-2.18c-.07-1.06,0-1.88,1.38-2C185.26,137.78,186.43,137.61,185.92,136.51Zm-35.72-63c-.3-.18-.44-.34-.56-.33-2.37.18-4.74.5-7.11.53-1.52,0-3-.51-4.57-.55-2.64-.08-5.29,0-7.93.09a11.09,11.09,0,0,0-2.19.49,11.31,11.31,0,0,0,.73,2.43c.79,1.42,1.47,3.27,2.73,4a2.78,2.78,0,0,1,1.64,2.54c.14,1.12,1,1,1.68.74a21.29,21.29,0,0,0,8.32-5.3,8.53,8.53,0,0,1,3.62-2.37A6.24,6.24,0,0,0,150.2,73.51Zm20.09-7.07a21.15,21.15,0,0,1-2.38,2q-4.92,3.05-9.92,6c-.95.55-2.48.66-2.9,1.44-1,1.8-3,2-4.23,3.23a17.76,17.76,0,0,1-3.74,2.24c.48.3.83.36,1.08.23,1.56-.84,3-2.18,5-1.18.12.06.36-.13.55-.22a13.3,13.3,0,0,1,2.23-1c1.29-.31,2.63-.41,3.94-.67s2.91-.59,4.34-1a12.7,12.7,0,0,0,1.82-.78l.26.45c.83-2.84,3.48-1.67,5-2.18-.27-.8-.73-1.45-.56-1.78.75-1.47.13-2.77-.25-4.09C171.76,68.21,171.51,67.37,170.28,66.44Zm5.36,7H179l-1.76-1.74ZM137.31,199.91c-2.15-1.32-2.86-1.08-3,.86Z" class="cls-3"/><path d="M140.58,127.71h1.09c.61-3.8,1.24-7.51,1.79-11.24a10,10,0,0,0,.1-3.12c-.61-3.52.91-7,.31-10.48a5.32,5.32,0,0,1,.32-2.37c1.9,2.88,4.42,1.59,6.82,1.57,2.07,0,3.61-1.17,5.45-1.61,3-.73,6.09-1.32,9.06-2.24a8.48,8.48,0,0,1,4.32-.25A2.38,2.38,0,0,1,172,99.89c0,.09,0,.22.05.26,2.08,1.35,1,3,.45,4.6-.26.75,0,1.94-.44,2.32-.89.72-.58,1.53-.47,2.19a7,7,0,0,1-.86,4.41c-.15,1.14,0,2.53-.55,3.35-.86,1.19-.74,2.58-1.33,3.79a13.25,13.25,0,0,0-.74,3.12l3.86,2.95-.73,1.63-.32-.11.29-.79c-.81.09-1.59.15-2.36.27-2.56.43-5.11.93-7.67,1.29a19.38,19.38,0,0,1-2.76-.12,3.89,3.89,0,0,0-1.67.22c-1.13.55-2.11,1.29-3.55,1.12-.59-.07-1.33.77-1.93,1.29-1.44,1.25-2.93,1.34-4.84,1.1C143.32,132.38,142.61,129.68,140.58,127.71Zm14.82-1.16,11.12-2c0-.31.07-.86.08-1.42,0-1.5,0-3,.15-4.5.3-2.5.79-5,1.15-7.46.13-.92.11-1.86.19-2.79a32.81,32.81,0,0,0,.3-3.75c0-.45-.68-1.27-1-1.25-1.74.09-3.75-.08-5.14.73-2.7,1.57-5.55,1.87-8.5,2.21-1.18.14-2.63-1-3.43.52l-4.69-.52c.14,1,.27,2.22.48,3.42.26,1.44-.29,2.66-1.19,2.81.17.27.55.59.55.91,0,1.6-.15,3.21-.27,4.81s-.25,3.43-.44,5.14a7,7,0,0,1-.55,1.53l.28,3.32a20.62,20.62,0,0,1,3.51-.46,11.86,11.86,0,0,0,5.62-1.11c.83-.4,1.37,0,1.44.71.11,1.15.67.74,1,.63Z" class="cls-3"/><path d="M153.74,153.1c-2.35-.27-2.29-2.32-3.18-3.59-.26-.36-.28-.88-.51-1.27a11.71,11.71,0,0,0-1-1.24c-.37.32-.74.63-1.1,1-1.82,1.64-3.19,3.82-5.65,4.66-.3.1-.89.16-.92.08a16.6,16.6,0,0,1-.49-1.89c.3,0,.69.15.88,0a7.12,7.12,0,0,0,1.91-1.74c.55-.92.72-2.06,1.18-3a6.6,6.6,0,0,1,1.57-2.48,4.18,4.18,0,0,1,5.75,1.18c1.11,1.67,1.11,1.67,2.37.57h1.52l-.09-1.65c.39-.32.51-1.78,2.09-1.36.14,0,.57-1,1-1.71a8.25,8.25,0,0,1,2.66.76,11.87,11.87,0,0,1,2.17,2.47,27.61,27.61,0,0,0,3.55,0c1.79-.22,2.8.94,3.68,2.07.7.89,1.75,2.09.26,3.17l-3.22-2.32-1.94.33-2.34,3.22c-.15-.8-2.55.68-1.8-1.67.05-.16-.2-.45-.36-.64a22.55,22.55,0,0,0-2.25-2.45,1.87,1.87,0,0,0-1.5-.09,1.26,1.26,0,0,0-.7,1C157.32,149.4,155,151.06,153.74,153.1Z" class="cls-3"/><path d="M145.39,170.5a5.83,5.83,0,0,1-4.94.12c-1.45-.66-.85-1.31-.39-2a8.78,8.78,0,0,1,4.06-3.46c.31-.12.75-.6.71-.82-.43-2,1.17-2.1,2.36-2.52s2,.62,2.63,1.38c1.23,1.45,2.25,1.45,3.21-.25a2.51,2.51,0,0,1,3-1.31c1.55.3,3.14.4,4.66.8.74.19,1,0,1.52-.45,1.37-1.24,3-.56,4.52-.13a3.49,3.49,0,0,1,2.89,3c.09.65,1,1.18,1.56,1.79.1.11,0,.38,0,.73a12,12,0,0,1-2.6-1.08,7.44,7.44,0,0,0-4.62-1.6c-1,0-1.25.18-1.5.89-.41,1.16-.79,2.33-1.32,3.91-1.19-1.12-2.24-2-3.15-3a2.67,2.67,0,0,0-4.16-.12c-.87.93-1.56,2.05-2.46,3a2.16,2.16,0,0,1-1.71.62c-.44-.12-.83-.89-1-1.44-.26-.85-.27-1.76-.46-2.63a.72.72,0,0,0-.59-.39c-.31.07-.73.28-.83.53C146.31,167.44,145.91,168.84,145.39,170.5Z" class="cls-3"/><path d="M141.6,180.53c.93.32,1.86.67,2.8.94a.88.88,0,0,0,.69-.25,34.58,34.58,0,0,1,2.71-2.68,5,5,0,0,1,3.61-1.11c1.25.12,2.52,0,3.78,0,1.86.06,3.73.2,5.59.24.61,0,1.44.7,1.79-.44l1.91.87c-.59,1.18,1,1.44.95,2.38-.79,1.2-1.59,1.62-3.21.82s-3.78-1-5.73-1.41l-1.41,4a22.43,22.43,0,0,1-2.46-1.46c-1.07-.82-1.75-.06-2,.65-.74,1.87-1.89,2.23-3.81,2-1.25-.18-2.53.14-3.37-1.1-.69-1-1.33-2.08-2-3.12Z" class="cls-3"/></svg>