<svg xmlns="http://www.w3.org/2000/svg" id="Layer_1" data-name="Layer 1" viewBox="0 0 216 216"><defs><style>.cls-1{fill:#fbb040}</style></defs><title>support</title><path d="M112.13,174c-1.68-.23-3.37-.13-5-.95-.64-.31-1.59.08-2.38,0-2.39-.19-4.87-.93-7.13-.5-1.52.29-2.62-.72-3.95-.33a.31.31,0,0,1-.24-.08c-1.63-1.45-3.7-1-5.6-1.36a29,29,0,0,1-5.36-1.53,38.9,38.9,0,0,1-6.59-3.13c-2.31-1.47-4.33-3.38-6.51-5.06-1.5-1.16-3-2.26-4.57-3.37s-2.89-1.92-4.2-3A24.77,24.77,0,0,1,58,151.86a38.33,38.33,0,0,1-3.2-3.82c-1.17-1.79-2.1-3.72-3.09-5.62s-2-3.8-2.86-5.79A48.4,48.4,0,0,1,47,130.84c-.52-1.92-.93-3.87-1.29-5.82a34.79,34.79,0,0,1-.49-4.33,47.62,47.62,0,0,1-.1-6c.18-2.48.64-4.95,1-7.42.47-3.28.87-6.57,1.44-9.83.34-1.92,1-3.79,1.43-5.68a11.89,11.89,0,0,1,.32-1.4c.38-1,.84-1.91,1.23-2.88a8.93,8.93,0,0,0,.16-1c.14-.53.31-1.05.5-1.57a9.07,9.07,0,0,0,.89-2.45c.07-1.52,1.1-2.47,1.75-3.65.4-.73.73-1.49,1.14-2.21s1-1.5,1.4-2.28a4.23,4.23,0,0,0,.49-1.23c-1.34-.78,0-.86.26-1.28.51-.88.91-1.84,1.34-2.76a14.2,14.2,0,0,1,.81-1.74A18.48,18.48,0,0,1,61,65a17.45,17.45,0,0,1,1.71-1.48l-.29-.8c1.55-.55,3.07-1,4.54-1.63,1.28-.52,1.34-1.18.21-2.13.57-2,2.67-1.21,3.84-2.21,0,.11,0,0,0,0l-.29-.16,6.49-3.77c1.24.5,1.8.32,2.31-1.21.32-1,1-.87,1.68-.83a5.15,5.15,0,0,0,1.34.11,3.22,3.22,0,0,1-.28-.17c-.09-.07-.17-.15-.63-.58,2.38.5,3.61-.92,5.05-1.86a2.82,2.82,0,0,1,3.29.12l-.62-.89a7.54,7.54,0,0,1,1.4-.56,7.84,7.84,0,0,0,3.71-1.42c.29-.24,1.19.31,1.83.45s1.19.4,1.64.22a11.64,11.64,0,0,1,5.28-.5c2.65.2,5,1.81,7.83,1.32a11.94,11.94,0,0,1,4.58,0c3.65.83,7.28,1.83,10.85,3,4.54,1.42,9,3,13.5,4.59A50.72,50.72,0,0,1,144.78,57c1.84.9,3.7,1.73,5.52,2.66a11.19,11.19,0,0,1,2.06,1.4A23.11,23.11,0,0,1,155,63.51c1.4,1.61,2.69,3.31,4,5,.24.3.54.56.77.88,1.49,2,3.07,4,4.41,6.18a31.38,31.38,0,0,1,1.62,4c.58,1.29,1.67,2.5,1.79,3.82.14,1.51,1.15,2.45,1.53,3.69.58,1.86.38,4,1.08,5.77a11.56,11.56,0,0,1,.66,3.82,2.39,2.39,0,0,1,0,.67c-.32,1.34-.74,2.65-1,4a14.15,14.15,0,0,0,0,2.61c0,.16.06.37,0,.47-1.42,2-.43,4.18-.48,6.28,0,.92-.15,1.85-.24,2.77a16.6,16.6,0,0,0-.31,3.82c.26,1.8-.71,3.17-1.19,4.69a26.37,26.37,0,0,1-1.69,3.6c-.43.86-.9,1.71-1.34,2.57-.72,1.4-1.43,2.8-2.16,4.2s-1.15,3.3-2.7,4.36c-.17.12-.17.47-.27.71-1.26,2.8-2.35,5.7-4.83,7.75a2.8,2.8,0,0,0-.55.84c-.56,1-1.1,2.05-1.65,3.08-.3.56-.57,1.14-.92,1.67s-.81,1.08-1.21,1.62c0,0,0,.1,0,.13-1.42,1.46-2.85,2.91-4.27,4.37-.26.27-.43.63-.71.88-.85.77-1.73,1.5-2.59,2.25-.13.11-.36.21-.39.34-.3,1.77-1.8,2.32-3,3.18-.65.45-1,1.43-1.7,1.67-1.16.41-1.79,1.39-2.73,2-1.34.85-2.82,1.46-4.2,2.25a26.38,26.38,0,0,1-2.3,1.57,36.41,36.41,0,0,1-4.64,1.63c-2.17.61-4.36,1.17-6.58,1.59a29.74,29.74,0,0,1-4.35.32C112.66,174.47,112.39,174.19,112.13,174ZM53.69,91.54l-.29,0A6.38,6.38,0,0,1,53.5,93c-.12.74-.45,1.45-.6,2.19-.36,1.81-.67,3.63-1,5.45-.18,1.08-.34,2.16-.45,3.25-.07.69.23,1.63-.12,2.05-1.27,1.53.05,3.28-.61,4.86a13.41,13.41,0,0,0-.52,3.15,3.89,3.89,0,0,0-.14,1,69.46,69.46,0,0,1,.82,9.15,5.3,5.3,0,0,0,.46,1.59c.23.69.8,1.47.64,2.06-.45,1.71.94,2.76,1.29,4.17.42,1.72,1.53,3.26,2.26,4.91a23.6,23.6,0,0,0,3.58,6.12c1.94,2.24,3.68,4.65,5.45,7,.72,1,1.37,1.86,3,1.29-.43,1.32.23,1.76,1.12,2.32a32.62,32.62,0,0,1,5.71,4.21A26,26,0,0,0,81.77,163a67.66,67.66,0,0,0,8.29,2.88c1.38.44,2.82.71,4.24,1,1.86.44,3.71.93,5.58,1.25a16.58,16.58,0,0,0,3.24.07c1.83-.05,3.67-.17,5.5-.23,1.08,0,2.17.07,3.25,0,1.86-.14,3.72-.37,5.58-.56a1.93,1.93,0,0,0,.75-.15q2.31-1.34,4.6-2.73c1-.59,1.9-1.27,2.91-1.8,2-1,4.26-1.2,5.94-3,.82-.87,2.43-1,2.69-2.58,0-.09.29-.15.45-.19a5.55,5.55,0,0,0,3.3-2.5,17.66,17.66,0,0,1,1.46-1.57c.41-1.19,1.7-1.49,2.61-2.14.38-.28,1.13-.72,1.09-.81-.45-1,.47-.78.82-1.08.93-.81,1.85-1.63,2.73-2.48.08-.08-.12-.46-.19-.7l.32.26c.71-.5,1.81-.87,2-1.53.52-1.53,2.16-2.22,2.49-3.89.16-.79,1-1.42,1.53-2.15.32-.47.58-1,.85-1.45.63-1.18,1.22-2.32,1.84-3.45a3.71,3.71,0,0,1,.85-1.29c.92-.65,1.48-1.36.93-2.65,1,0,1.7-.45,1.18-1.52.42-.06.83,0,1.08-.2s0-.59-.07-.91-.11-.42,0-.55c.59-1.07,1.21-2.12,1.83-3.17a9.44,9.44,0,0,0,.85-1.48,58,58,0,0,0,1.95-5.9,58.1,58.1,0,0,0,1-6.49c.31-2.56.5-5.14.76-7.71a19,19,0,0,0,.44-4.16c-.41-3.26-1.08-6.49-1.73-9.71a14.44,14.44,0,0,0-1-2.63c-.46-1.09-.91-2.17-1.42-3.24-.86-1.82-1.71-3.65-2.65-5.43a23,23,0,0,0-2.06-3.29c-.85-1.1-1.86-2.08-2.81-3.11s-1.88-2.4-2.84-3.47a16.22,16.22,0,0,0-6.54-4.48,20.36,20.36,0,0,1-2.44-1.19c-1.58-.82-3-2-4.91-2.1-.44,0-.85-.41-1.29-.59a38,38,0,0,0-3.85-1.51c-1-.29-2.12-.16-3.13-.44-1.34-.37-2.59-1.25-3.93-1.38-2.56-.25-4.77-1.39-7.1-2.24a8.71,8.71,0,0,1-2-.72,7.05,7.05,0,0,0-4.8-1.43,27.15,27.15,0,0,0-3.17.3,4.88,4.88,0,0,0-2.58,1.06c-1.16,1.35-2.36,1.28-3.85.89a15.43,15.43,0,0,0-9.33.58,45.69,45.69,0,0,1-6.73,2.23,25,25,0,0,0-8.81,3.62c-4,2.55-7.71,5.44-11.46,8.31-1.06.81-2.34,1.46-2.85,2.93A9.91,9.91,0,0,1,61.43,74c-1.77,1.89-2.24,4.3-3.16,6.54a32.62,32.62,0,0,1-2.45,5.35,6.36,6.36,0,0,0-1.37,3.61A6.42,6.42,0,0,1,53.69,91.54Z" class="cls-1"/><path d="M60.3,118.87c-.13-2.23-.3-4.45-.39-6.68a38.46,38.46,0,0,1,1.8-12.05,69.7,69.7,0,0,1,2.06-7.3c1.12-2.77,1.84-6,4.13-8.78A46.47,46.47,0,0,0,71,78.93c2.15-3.48,4.56-6.69,8.23-8.77,2.58-1.46,4.94-3.34,7.6-4.62,2.9-1.4,6-2.31,9-3.46.53-.2,1-.54,1.51-.78a4.38,4.38,0,0,1,3.57-.42c1.88.61,4.07.28,6.12.42a12.45,12.45,0,0,1,2.45.45c1.59.44,3.17.92,4.74,1.45.78.27,1.49.74,2.26,1A56.13,56.13,0,0,0,127,67c1.35.22,2.57,1.21,3.84,1.85a51.24,51.24,0,0,1,5.68,3A13.34,13.34,0,0,1,140,75.33c1.42,2.1,2.43,4.47,3.8,6.6,1.54,2.39,3.4,4.58,4.9,7a25,25,0,0,1,2.65,5.62c.33,1-.23,2.32-.29,3.5,0,.64.33,1.38.13,1.94-.55,1.55.45,2.47,1.06,3.64a9.73,9.73,0,0,1,.57,3,5.19,5.19,0,0,1,.07,1.6c-.38,2.13-.84,4.24-1.23,6.37-.17,1-.2,1.93-.35,2.88a21.94,21.94,0,0,1-.55,2.84c-.41,1.42-1.49,2.65-1.2,4.28,0,.18-.31.41-.45.64a70.22,70.22,0,0,0-4.7,7.87,6.4,6.4,0,0,1-1.91,2.22c-.61.57-.91,1.49-1.54,2-2.17,1.81-3.55,4.31-5.62,6.27-1.85,1.75-3.48,3.58-5.83,4.67-.44.2-.69.79-1.12,1a18.8,18.8,0,0,1-2.77,1.35,55.08,55.08,0,0,1-6,2.06c-2.45.61-4.79,1.7-7.46,1.53a33.53,33.53,0,0,0-5,.52,10.74,10.74,0,0,1-1.55-.21c-1.51-.1-3-.16-4.52-.24-.6,0-1.2-.07-1.79-.12L96.05,154c-.09,0-.18,0-.27,0-1.74-.42-3.48-.83-5.22-1.27s-3.25-1.78-5.2-1.73c-.07,0-.15-.1-.22-.14-1.74-1-3.49-2.07-5.21-3.13-.68-.42-1.32-.92-2-1.39-2-1.43-4-2.74-5.86-4.33a34.13,34.13,0,0,1-4.54-4.83,26.18,26.18,0,0,1-3.3-5.33,69.88,69.88,0,0,1-2.46-7.24c-.54-1.7-1-3.41-1.49-5.13A2.21,2.21,0,0,1,60.3,118.87Zm5.25-2.22-.15.07a13.34,13.34,0,0,1,.67,1.79,34,34,0,0,0,2.18,7.66c.71,1.46,1.05,3.25,2.12,4.33,1.82,1.84,2.69,4.39,5,5.85s4.22,3.41,6.44,5a23.59,23.59,0,0,0,4.5,2.4c2,.83,4,1.44,6,2.15A56.53,56.53,0,0,0,98.51,148c2.52.58,5.14.7,7.69,1.15a23.51,23.51,0,0,0,9.34-.59,27.27,27.27,0,0,0,6.79-2.32c.15-.08.42.07.62.06a5.13,5.13,0,0,0,1.11-.14c2.07-.6,3.42-2.48,5.54-3.08a10.55,10.55,0,0,0,2.55-1.63c.85-.56,1.3-1.65,1.91-2.14,1.7-1.34,2.43-3.14,3.25-4.93a43.41,43.41,0,0,1,3.74-7.06,29.79,29.79,0,0,0,3.69-6.57,78.36,78.36,0,0,0,2.45-9.19,4.17,4.17,0,0,0-.17-1.84c-.24-1-.58-2-.85-2.95,0-.11.05-.25.07-.37a5.4,5.4,0,0,0,.21-1.34c-.15-1.68-.39-3.36-.55-5a20,20,0,0,0-1.45-6.83c-.26-.55-.51-1.1-.75-1.65A32.82,32.82,0,0,0,142,87.47a41.44,41.44,0,0,0-3.48-4.87,29.29,29.29,0,0,0-4.75-5.17c-2.1-1.57-4.66-2.51-7-3.78-1.83-1-4-1.24-5.55-2.85-.39-.41-1.2-.45-1.83-.62-1-.28-2-.52-3-.8-1.6-.44-3.31-1.52-4.76-1.23-3.08.61-5.91,0-8.86-.52a21,21,0,0,0-6-.28c-1.7.22-3.31,1.15-5,1.75s-3,1-4.53,1.59a17.56,17.56,0,0,0-6.57,4.17c-1.06,1.07-2.28,2-3.31,3.09A27.35,27.35,0,0,0,74,82.08c-1.09,1.78-1.81,3.78-2.77,5.64-1.24,2.42-2.55,4.79-3,7.54-.47,3.22-1.65,6.29-2.07,9.51-.27,2.06-.49,4.14-.59,6.21C65.48,112.88,65.55,114.76,65.55,116.65Z" class="cls-1"/><path d="M111.48,109.36a12.55,12.55,0,0,0,2.54-1.06c1.75-1.23,3.38-2.62,5.08-3.92,1.35-1,2.77-2,4.07-3.07a5.28,5.28,0,0,0,1.45-1.91,3.84,3.84,0,0,1,5.05-2.26c2.42.9,3.5.6,1,3.58a52.16,52.16,0,0,1-6.77,6.43c-2.52,2.07-4.89,4.39-7.63,6.1-1.35.84-2.16,2.41-4,2.71-.83.14-1.41,1.56-2.21,2.28a1.34,1.34,0,0,1-1.29,0,6.94,6.94,0,0,1-2.82-6.7,19.4,19.4,0,0,0,.19-5.61c-.28-1.47.18-3.06.06-4.57-.16-2.15-.56-4.28-.85-6.42a21.64,21.64,0,0,1-.37-2.88c0-3.8.23-7.62,0-11.41a5.26,5.26,0,0,0-2.44-4.55,3.48,3.48,0,0,1-.44-.28c-.06,0-.08-.15-.21-.4l1.44-.69,0,.78c1.52.57,3,1.07,4.42,1.67.76.32,1.41.83,1.07,1.85a.42.42,0,0,0,0,.33c1.29,1.64.86,3.71,1.35,5.54a17.94,17.94,0,0,1,.08,3.82c0,.94.18,1.88.3,2.81,0,.21.26.46.2.6-.82,1.9.21,4-.66,5.91-.08.17.38.52.39.8.06.95,0,1.9,0,2.84.18,1.9.44,3.79.67,5.68C111.32,107.94,111.38,108.51,111.48,109.36Z"/></svg>