<svg id="Layer_1" data-name="Layer 1" xmlns="http://www.w3.org/2000/svg" viewBox="0 0 216 216"><defs><style>.cls-1{fill:#00aeef;}.cls-2{fill:#fbb040;}</style></defs><title>Largo-site-icons</title><path class="cls-1" d="M71.25,92.11a3,3,0,0,1-.42.67,3.43,3.43,0,0,1-.31.29C70.85,93.11,71.13,92.83,71.25,92.11Z"/><path class="cls-1" d="M62.71,138.94c-2-1.43-4-3-5.81-4.37a7,7,0,0,1-2.23.82c-2.26,0-4.51-.24-6.77-.42-1.6-.13-3.19-.34-4.8-.52a6.67,6.67,0,0,1-1.74.47c-1,0-2.2-.61-3-.24-1.85.87-3.58.09-5.35.17a22.34,22.34,0,0,1-6.85-.57,58.66,58.66,0,0,0-7.27-.95c-.8-.11-1.72-.69-2.35-.45-1.55.59-2.82.76-3.59-.37l-3.51-.39.09.27-2.84-.32A4.59,4.59,0,0,0,4.6,132a1.4,1.4,0,0,0-.95.5c-.71,1.44-1.36,2.9-1.94,4.4-.07.18.43.79.75.87a6.41,6.41,0,0,0,1.67-.05,29.59,29.59,0,0,1,4.64-.12c3.14.38,6.27.94,9.38,1.54,1.16.23,2.26,1.12,3.39,1.12,2.87,0,5.63,1,8.55.65,2-.25,4.08.33,6.06.06a15.39,15.39,0,0,1,6.41.88c3.08.87,6.06,1.79,9.38,1.14a7.71,7.71,0,0,1,4.14.83c1.15.49,2,1.54,3.48,1.36.28,0,.61.36.92.56,1.43.9,2.26,2.62,4.11,3L66.36,141A37.87,37.87,0,0,1,62.71,138.94Z"/><path class="cls-1" d="M138.23,102a41.75,41.75,0,0,0-.79-5.23,5.77,5.77,0,0,0-.47-1.23c-.87-1-1.55-2-2.38-2.83A21.82,21.82,0,0,0,124,87.36c-2.64-.62-5.31-1.07-8-1.53-.93-.16-1.91,0-2.82-.19-2.46-.52-4.87-1.33-7.35-1.7-2.76-.41-5.58-.33-8.36-.68-3.45-.43-6.73.4-10,1.25a25.63,25.63,0,0,0-4.92,2.28c-2.22,1.13-4.41,2.33-6.61,3.49l-.09-.09a23.45,23.45,0,0,1-4.67,1.9h0c-.12.72-.4,1-.74,1a8.08,8.08,0,0,1-2.25,1.26,28.77,28.77,0,0,1-3.82,1.22c-1.2.31-2.66,1-3.63.61a39.73,39.73,0,0,1-7.69-3.74c-2.69-1.85-5.49-3.54-8.31-5.18-.5-.29-1.35.05-2,0s-1.94,0-2-.3c-.33-1.28-1.45-1.48-2.31-1.91-2.45-1.25-5-2.36-7.48-3.48-.8-.36-1.73-.45-2.5-.85-1.59-.84-3.13-1.8-4.67-2.73C20,75.7,15.72,74.33,12.47,71.15A.94.94,0,0,0,12,71l-2.8-.31c-.32.49-.61,1.39-1.22,1.75a1.16,1.16,0,0,0-.29,2c1.3,1.43,2.7,2.75,4.84,3a7,7,0,0,1,3.4,1c1.63,1.21,3,2.72,5.09,3.26.28.07.49.39.74.57,1.27.94,2.51,1.91,3.82,2.79.89.6,1.87,1.05,2.78,1.61a8.45,8.45,0,0,0,1.62,1.06c1.51.46,3.07.72,4.2,2,.17.2.63.12.92.24,1.55.61,3.13,1.17,4.63,1.89,1.89.91,3.7,2,5.58,2.92,1.09.55,2.27.94,3.37,1.48.4.2.66.68,1.06.89.74.38,1.54.65,2.31,1s1.4.65,2.13.92c1.44.54,3.15.73,4.29,1.64,2.4,1.93,4.84,3,8,2.41,1.63-.33,3.35-1.54,3.37-2.59.67-.2,1.32-.37,1.95-.59A10.75,10.75,0,0,1,74.28,99c2.1-.14,3.75-1.29,5.53-2.18.56-.28,1.4-.55,1.56-1,.36-1.06,1.13-1,1.91-1.24,1.62-.57,3.14-1.41,4.7-2.13,0,0,.12-.05.12-.07C88,90.88,89.33,91,90,91c1.93-.15,3.34-1.8,5.33-1.64,1,.08,1.94,0,2.91,0,2.31,0,4.62-.13,6.91.06s4.08,1.58,6.35,1.43a6.94,6.94,0,0,1,1.61.44c1.66.34,3.32.68,5,.94.87.14,1.8,0,2.64.19,2.32.57,4.58,1.45,6.92,1.85,2,.35,3.25,1.67,4.5,2.95,1.73,1.76,1.71,4.91.16,6.16a5.15,5.15,0,0,1-1.72.89c-1.36.41-2.68,1.05-4.17.87-.9-.11-1.79-.33-2.69-.35s-2,.42-2.88.13a24.44,24.44,0,0,1-5.56-2.52c-2-1.29-3.82-2-6.19-1.33-2,.59-4.37.49-5.84,2.17a63.75,63.75,0,0,1-6.07,5.8,28.94,28.94,0,0,1-8.9,5.15,27.47,27.47,0,0,1-3.52.75A24.87,24.87,0,0,1,80.45,116c-1.13.06-2.27-.46-3.42.16-.58.31-1.49.23-1.87.66-1.62,1.88-1.53,2.46.22,4.31l7.54-1a1.3,1.3,0,0,1-.14-.13,1.3,1.3,0,0,0,.14.13h0c1.21,1.13,3.29-1.16,4.07.26l.23-.17c1.59-1.07,3.44-1.74,5.14-2.66,2.45-1.32,4.86-2.72,7.3-4.06a12.63,12.63,0,0,0,5-5.06c.06-.11.24-.17.37-.24,2.08-1.05,4.12-2.33,6.62-1.26a1.89,1.89,0,0,0,1.06-.06,4.28,4.28,0,0,1,4.37,1.68,2,2,0,0,0,1.27.62c1.95.2,3.91.1,5.76,1.05.71.37,1.71.14,2.57.24,1.14.13,2.57,0,3.32.58a1.39,1.39,0,0,0,1.69.32c.59-.23,1.16-.53,1.73-.8,1.83-.86,3.72-1.85,4.41-3.8A12.77,12.77,0,0,0,138.23,102Z"/><path class="cls-1" d="M157.13,136.89a3.49,3.49,0,0,0-.2-1.67,1.48,1.48,0,0,1-.24-1.31c-.75-1-2.2-1.81-2.18-2.86a1.21,1.21,0,0,1-1.37-.17,20.69,20.69,0,0,0-3.79-2.21,39.49,39.49,0,0,0-8.81-2.46c-1.64-.25-3.3-.44-4.93-.76s-3.21-.92-4.84-1.17c-3.58-.54-7.21-.82-10.78-1.41s-6.77.13-10.06,1a1.52,1.52,0,0,0-.63.52c-1.92,2.23-3.67,4.55-4.09,7.6,0,.31-.41.58-.65.86A25.93,25.93,0,0,1,101.8,136c-.93.8-.37,2.92-2.4,2.65-2.13,1.76-4.93,2.83-6,5.75,0,.12-.47.11-.67.16a6.31,6.31,0,0,1,0,2c-.12.35-.81.59-1.29.71s-1-.2-1.32,0a33.13,33.13,0,0,0-3,2.07c-.48.36-1.19.72-1.31,1.2a7,7,0,0,1-.74,1.92,3.78,3.78,0,0,1-.57.72,10.85,10.85,0,0,0,.59,5.64.91.91,0,0,1,.6,0c.35.17.55.61.83,1.1,1.12,2,2.19,4.06,3.47,6a12.29,12.29,0,0,0,2.76,2.8,11.4,11.4,0,0,0,2.78,1.33c1.43.56,2.7,1.71,4.44,1.18a13.48,13.48,0,0,0,2.7-.67c1.69-1,4.21-1,4.44-3.75a.45.45,0,0,1,.27-.32c1.09-.29.92-1.07.59-2,1,.17,1.79.33,2.6.45a3.56,3.56,0,0,0,2.9-.67,6.75,6.75,0,0,1,2.51-1c1-.23,2.13,0,2.89-.48a10.39,10.39,0,0,0,1.86-1.92,3.81,3.81,0,0,1,3.78-1.58c2.6.31,5.65,1.08,7.2-2.3a.32.32,0,0,1,.25-.12,4.9,4.9,0,0,0,3.88-1.7,4.87,4.87,0,0,1,1.65-1.14,4.41,4.41,0,0,0,3-4c0-.65,0-1.31-.06-2l.54-.09c1.22-.22,2.61-.16,3.63-.74a34.42,34.42,0,0,1,3.1-1.65c1-.43,2-.81,2.93-1.32.67-.36,1.2-1,1.86-1.33s1.67-.74,2.47-1.17C157,140.8,157.1,138.84,157.13,136.89ZM92.5,163.45C90,161.79,89.43,159,88,156.78a.37.37,0,0,1,0-.13,2.14,2.14,0,0,1,.4-1.13c.74-1.12.59-1.89-.75-2.32a2.8,2.8,0,0,1-.48-.27l0-.1c.22-.76.46-1.24,1.5-1.09.65.09,1.41-.45,2.08-.77a8.12,8.12,0,0,0,1.14-.81c1.5,2.71,2.55,5.68,4.51,7.81s4.8,3.34,7.34,5C100.62,167.23,95.83,165.71,92.5,163.45Zm24-3.06a7,7,0,0,1-4.43.87c-2-.87-4.09-1.74-6.13-2.62a22.79,22.79,0,0,1-8.45-5.9c-1.06-1.24-2.4-2.55-1.54-4.56a1.84,1.84,0,0,1,2-1.14,12.09,12.09,0,0,0,2.17,0,3.18,3.18,0,0,1,3.79,2,9.6,9.6,0,0,0,6.45,5.48c2.28.56,4.37,1.91,6.52,3C117.68,157.91,117.5,159.84,116.45,160.39Zm17.27-7.87c-2,1.23-4,2.26-6.51,1.92-2.43-.51-4.87-1-7.28-1.56a11.63,11.63,0,0,1-2.35-1c-2-1-3.82-2.39-5.9-2.83-1.61-.34-2.7-1.37-4.11-1.91-2.06-.79-2.88-2.65-3-4.82a1.19,1.19,0,0,0-.23-.71c-1.22-1.34-1.13-2.37.38-3.22A11.93,11.93,0,0,1,107,137.3a2.24,2.24,0,0,1,2.82.77,8.09,8.09,0,0,0,1.74,1.56,20.43,20.43,0,0,0,2.14,1.52c2,1.21,4.1,2.37,6.16,3.54a.79.79,0,0,0,.41,0,21.94,21.94,0,0,1,8,1.19,1.54,1.54,0,0,0,.7-.05,2.44,2.44,0,0,1,2.2.54,10.19,10.19,0,0,0,2.34.89,2.39,2.39,0,0,1,1.12.75C135.38,149.12,134.84,151.83,133.73,152.52Zm17.83-14.23c-1.84,1.57-3.38,3.48-6,4.1-3.69.89-7-.56-10.5-1.18-2.32-.42-4.6-1.09-6.89-1.64-3.49-.84-7.07-1.43-10.45-2.61-2.52-.88-4.77-2.53-7.14-3.84-.54-.3-1.07-.62-1.73-1,.39-1.21-.61-1.54-1.72-1.81,1.62-2.25,3.57-3.71,6.32-3.69.91,0,1.85.5,2.74.4a19.63,19.63,0,0,1,6.49.8,6.07,6.07,0,0,0,1.95-.35c1.41,1.12,6.94,2,8.21,1.26,1.11.4,2.08.81,3.09,1.11,1.52.46,2.92,1.29,4.7.61.68-.26,1.78.49,2.65.85a68.52,68.52,0,0,1,7.76,3.62c.83.48,1.61,1,2.15,1.38A15.35,15.35,0,0,1,151.56,138.29Z"/><path class="cls-2" d="M221,105.14l-1.91-.87c-.22,1.55-1.43,2.16-2.69,2.5-4,1.07-8,2-11.95,3-2.86.73-5.71,1.52-8.58,2.23q-5.06,1.26-10.15,2.41c-1.13.26-2.29.39-3.43.6q-2.33.44-4.64.93c-.91.19-1.81.39-2.7.66s-1.88.66-2.8,1a19.61,19.61,0,0,0-4.24,1.84,15,15,0,0,1-4.22,2.48,4.89,4.89,0,0,0-1.87,1.11c-1.46,1.41-2.86,2.88-4.23,4.39-.9,1-1.68,2.1-2.55,3.12a1.93,1.93,0,0,1-.51.43c0,1.06,1.43,1.91,2.18,2.86a1.56,1.56,0,0,1,.52-.62,7.43,7.43,0,0,0,.86-1.1c1.16-1.35,2.28-2.7,4.21-3.12a6.38,6.38,0,0,0,2.59-1.4c2.48-2.07,4.77-4.38,8.11-5.1,3.6-.78,7.17-1.68,10.77-2.41a44.49,44.49,0,0,0,7.86-1.8,36.41,36.41,0,0,1,4.7-1.12c3.09-.77,6.17-1.56,9.25-2.34,1.42-.36,2.88-.58,4.25-1.07a56.58,56.58,0,0,0,6.42-2.67,29,29,0,0,0,3.57-2.61c.59-.42,1.08-2.59.69-3.12Z"/><path class="cls-2" d="M99.93,117.86a1.25,1.25,0,0,0-1.06.06,38.09,38.09,0,0,0-3.11,3.34c-.31.39-.07,1.32-.41,1.58a7.23,7.23,0,0,0-2.68,3.45,21.59,21.59,0,0,1-1.34,2.77c-.42-.19-2.18.75-2.61,1.69a10.34,10.34,0,0,1-2.46,3.49c-1.1,1-2.9,1-3.51,2.61a8.19,8.19,0,0,1-1.3,2.34,14,14,0,0,1-3,3c-1.33.84-2.19,2.84-4.36,2,.17.42.45.78.37,1-.47,1.08-3.45,2.51-4.71,2.33a11.26,11.26,0,0,1,0-2.19,4.9,4.9,0,0,1,.86-2.58c1.52-1.42,1.75-3.92,4-4.7,0,0,.07-.06.1-.1,1.86-2.43,3.77-4.82,5.55-7.3,1.3-1.81,2.85-3.59,3.52-5.64.59-1.8,1.63-4.2,2.85-4.48,0,0,0,0,0-.07s0,0,0,.07a1,1,0,0,1,.35,0l.08-.06c-.78-1.41-4-.48-4.07-.26a4.23,4.23,0,0,1-.4,1c-1.06,1.41-2.17,2.79-3.23,4.2-1.92,2.55-3.69,5.22-5.76,7.64-1.35,1.58-2.18,3.88-4.71,4.06l.16,1.51c-1.4.26-2.59.66-2.63,2.39l-1.74,7.74a3.6,3.6,0,0,1,.59.75c.79,1.2,1.53,2.44,2.37,3.6a4,4,0,0,0,4.1.89c.85-.48,1.24-.21,1.59.64a7.81,7.81,0,0,0,1.51,2.81,12.64,12.64,0,0,0,4.08,2.81c1.86.67,3.87-.13,5.5-1a2.71,2.71,0,0,1,.76-.3,10.85,10.85,0,0,1-.59-5.64,3.6,3.6,0,0,1-1.06.73c-1.58.73-3.11,1.57-4.73,2.19-.93.36-2.48-.63-2.95-1.62-.71-1.5-.5-2.49.66-3.44a18.83,18.83,0,0,0,2.46-2.2c2.22-2.6,4.67-5,6.38-8,.33-.58,1.19-.87,1.83-1.26.36-.22.86-.29,1.11-.59,1.2-1.39,2.34-2.84,3.49-4.28.4-.51.77-1,1.15-1.57.66-.95,1.37-1.87,2-2.85a11.73,11.73,0,0,1,4.45-4.79,13.42,13.42,0,0,0,5.3-5.77C102.91,119.07,101.43,118.43,99.93,117.86Z"/><path class="cls-2" d="M75.65,89.94a8.17,8.17,0,0,1,.81-1.17c1.08-1.11,2.29-2.11,3.29-3.29a12.26,12.26,0,0,1,5.73-3.38c1.85-.64,3.76-1.18,5.54-2,1.57-.71,3-1.73,4.49-2.6A21.73,21.73,0,0,1,98,76.21c1.1-.45,2.27-.74,3.37-1.17,1.68-.65,3.33-1.38,5-2.06a1.43,1.43,0,0,1,.67-.16,3.83,3.83,0,0,1,1.49.33,17.38,17.38,0,0,0,6.13,2.09c2.55.47,5,1.44,7.53,2.12,2.23.6,4.42,1.5,6.82,1a.69.69,0,0,1,.32,0c1.47.45,2.94.91,4.42,1.35.2.06.49-.14.65-.05,1.33.71,2.64.85,3.54.19.85.31,1.36.52,1.88.67,1,.31,2.12.51,3.12.9,2.08.8,4,2.24,6.43,1.5.11,0,.26.08.39.12a10.37,10.37,0,0,0,2.15.56c1,.05,2.11-.43,3-.13a8.87,8.87,0,0,0,6.65-.46c.2-.08.55-.17.64-.08.92,1,2,.2,3,.3.31,0,.67-.42,1-.4,2.56.13,5.06.08,7.08-1.81a2.54,2.54,0,0,0,3.53-.16,9,9,0,0,0,2.68.43c2.67-.47,5.3-1.13,7.95-1.69a2.57,2.57,0,0,1,.66.09,4.07,4.07,0,0,0,1.08,0,13.67,13.67,0,0,1,1.35-.44,15.46,15.46,0,0,0,2.47,0c1.81-.47,3.56-1.2,5.36-1.68a6.09,6.09,0,0,1,3.07-.3,3.25,3.25,0,0,0,2.73-.58c.72-.42,2-.79,1.58-2.18a.38.38,0,0,1,.14-.32c.9-.62,1.81-1.23,2.87-1.94a6.25,6.25,0,0,1-.7-1.18A3.52,3.52,0,0,1,208,70l.43-.32c-1.57-.78-3.21-1.45-4.69-2.38-1.87-1.17-3.72.15-5.63-.28a2.58,2.58,0,0,1-2.06,2.82,35,35,0,0,1-5.72,1.48c-.64.09-1.3-.63-1.31.64a2.47,2.47,0,0,1-.66.08c-.37,0-.8-.15-1.11,0a17.46,17.46,0,0,1-9.2,1.75c-.3,0-.64.26-1,.41l-2.17,1.12c-.33-.52-.57-1.06-.67-1-2.4.63-5.19.1-6.87,2.17-.41-.18-.83-.54-1-.44-2.83,1.28-5.91.85-8.85,1.35a8.68,8.68,0,0,1-3.06-.26c-1.33-.27-2.64-1-3.94-1-3.38.12-6.54-1-9.83-1.38-.1,0-.2,0-.55-.13l1.05.9c-1.35.59-1.8,0-1.86-.83a16.48,16.48,0,0,0-2.73-.51c-2.66,0-5.17-1.4-7.89-.78-.15,0-.34-.1-.51-.15-1.39-.46-2.75-1-4.16-1.35-4.71-1.09-9.43-2.1-14.15-3.12-1.05-.23-2.4-.83-3.12-.41-1.11.64-2.22.38-3.25.73-1.49.51-3.17.64-4.33,2-.62.73-1.58.59-2.57.59-1.25,0-2.52.83-3.75,1.37A37.54,37.54,0,0,0,88.7,75c-2.66,1.56-5.85,1.71-8.47,3.47-1.95,1.31-3.92,2.46-5.28,4.47a4.23,4.23,0,0,1-2,1.55c-1.1.39-1.05,1.33-1.16,2-.19,1.21.08,2.49-.07,3.71a6.15,6.15,0,0,1-.51,1.88,23.45,23.45,0,0,0,4.67-1.9Z"/></svg>