<svg xmlns="http://www.w3.org/2000/svg" id="Layer_1" data-name="Layer 1" viewBox="0 0 216 216"><defs><style>.cls-1{fill:#ee2d78}.cls-2{fill:#00aeef}.cls-3{fill:#7f3f98}</style></defs><title>Largo-site-icons</title><path d="M157.22,78.59l.39,1.81c1.64.37,1.64.37,3-2.31a6.12,6.12,0,0,0,1.16.55.89.89,0,0,0,.77-.23c.65-.87.62-.88,1.75.46a51,51,0,0,0,6-4.15c1.71-1.55,3.61-3,4.82-5,.91-.92,1.82-1.77,2.64-2.7,2.69-3,5.11-6.33,8.07-9.06a61.61,61.61,0,0,0,7.2-8.61,11.89,11.89,0,0,1,5.64-4.1,14.7,14.7,0,0,1,4.62-.88c1.8,0,2.31.88,2,2.63-.4,2,.21,4,.14,6.05a23.8,23.8,0,0,1-.36,4.09,30.4,30.4,0,0,0-1.13,8.24c.19,3.2.36,6.42.26,9.62-.06,2,.51,4.07-.5,6-.11.21.05.56.1.84a7.53,7.53,0,0,1,.15,1.16,11,11,0,0,1,.84,2.62,27.12,27.12,0,0,1-.24,3.91,43.11,43.11,0,0,1-.67,6.89c-.49,1.95-.16,3.79-.25,5.68a9.47,9.47,0,0,1-.78,2.36l.78.05L203,107.3c.12.3.53.89.4,1.07-1.24,1.61.67,4-1.34,5.63l.9,1,.19,3-1.25,1c1.85,1,1.81,2.6-.14,4.61,1.52.5.87,1.73.86,2.71,0,.15-.73.29-1.13.44a4.74,4.74,0,0,1-.28,4.84c.22.17.68.36.68.54,0,1.46-.1,2.92-.14,4.38a11.58,11.58,0,0,0,.08,1.24c0,.24.16.62,0,.71-1.18,1,.18,1.79.07,2.53l-.76.82c.33.48.69.76.7,1,.11,4.76.89,9.51,0,14.28-.24,1.24.12,2.59,0,3.87-.18,2.28.16,4.6-.56,6.83a4.68,4.68,0,0,0,0,1.09c-.15,2.42-.32,4.84-.44,7.26,0,.76.21,1.55.11,2.3-.18,1.35-.54,2.67-.79,4-.16.83-.25,1.67-.4,2.68a1.23,1.23,0,0,0-.42.22c-1.64,1.46-1.75,1.59-3.32.2-1.3-1.15-2.19-.36-3.27.14-1.8.83-3.57,2-5.46,2.27-.94.13-1.61-.3-1.7.58l-1.3,1c-.67.52-1.35,1-2,1.57a28.54,28.54,0,0,1-3.07,2.62,31.86,31.86,0,0,1-4.51,2.2,34.31,34.31,0,0,1-4.27,1.49,4.36,4.36,0,0,1-2.13,0c-1.87-.48-3.71-.1-5.57,0-1.58.09-3.17.08-4.75.14a2.57,2.57,0,0,0-.64.15l-2.82.87.06-1.36-1.67-.19v1.48c-1.88.13-4,.79-5.64.25-1.84-.59-3.69-.12-5.49-.75-.8-.28-1.93.5-2.93.7-1.89.39-3.78.75-5.69,1a1.77,1.77,0,0,1-1-.27c-1.18.31-2,.53-2.88.76s-1.45.91-2.06-.28l-.72,1-.26-.59a6.85,6.85,0,0,1-4.25,2c-1,.15-2-.18-3,0a32.58,32.58,0,0,0-3.38,1.21,17,17,0,0,1-2.81.7c-1.5.22-3.12-.86-4.51.45-.72-.74-2.09.74-2.63-.76,0-.11-.62-.19-.82-.07-1,.56-2,.13-2.9,0a20.62,20.62,0,0,1-5.36-1.44c-2.53-1.14-5.35-1.23-7.83-2.45-.21-.1-.31-.43-.51-.54a5.09,5.09,0,0,0-1.31-.5c-.39-.08-.85.09-1.23,0-2.44-.73-4.92-1.38-7.29-2.31-1.94-.77-3.69-2-5.63-2.82-2.34-.94-4.79-1.61-7.19-2.38a14.49,14.49,0,0,0-1.82-.46c-1.07-.19-2.15-.37-2.43,1.18,0,.2-.51.38-.81.45a11.11,11.11,0,0,1-1.28.19c-.85-.76-1.45-1.4-2.15-1.9-.93-.67-2.73-.44-2.38-2.41,0-.09-.47-.2-.56-.38-.32-.66-1.61-1.13-.5-2.15.06-.05-.2-.44-.34-.73,2.57-.86-.2-2.47.73-3.89l-1.62,1.17-.18-.17a3.32,3.32,0,0,0,.25-.45c.33-.89,2.5-.9,1.05-2.77-.54-.7.19-2.34.25-3.56a20.38,20.38,0,0,0-.1-3.3c0-.47,1.87-.21.45-1.49a1.89,1.89,0,0,1,.7-2.53,1.82,1.82,0,0,0,0-2.93l1.12-.68L54.73,164l1-1.16-1.19-.32c.93-2.12,2.06-4.33.11-6.65l.42-.06.84.45L57,155c0-.07-.08-.19-.13-.31-.27-.79.1-1.31.7-2a31.48,31.48,0,0,0,2.15-3.4l-.38-.32-1.81.3c-.34-1.3-.6-2.26.74-3.29.83-.64,1.05-2.11,1.46-3.24.49-1.36.91-2.74,1.32-4.12a11.45,11.45,0,0,0,.44-2.13,1.22,1.22,0,0,0-.44-.82c-.49-.44-1.05-.81-1.58-1.21l.32-.34.91,1,.25,0a12.41,12.41,0,0,0-.29-1.28,5.8,5.8,0,0,0-.46-.88c.41-.09.82-.21,1.24-.27.13,0,.28.08.63.19-.09-.37-.08-.62-.18-.67-1.55-.84-1.43-2.44-1.55-3.79a4.51,4.51,0,0,1,.78-2.74,4.37,4.37,0,0,0,.63-4.54c-.63-1.23.48-1.53,1.07-2.1.24-.23.58-.36.77-.83-.36,0-.72,0-1.08,0s-.59,0-.55,0l.75-5.39.9,1.25c1.35-1.19,1.51-1.85.71-3.68l-1.36,2.19a4.49,4.49,0,0,1,0-4.29c.1-.19.26-.46.2-.6-.88-2.1.18-4.19,0-6.3a10.82,10.82,0,0,1,.46-2.86c-.19-.4-.51-.77-.49-1.11q.38-6.72.86-13.44c.14-1.87.63-3.72-.21-5.59-.12-.27.59-1.19,1.09-1.42,2.45-1.11,4.83-.29,7.15.56s4.41,1.64,6.55,2.6c1.69.76,3.25,1.83,4.93,2.62,2.33,1.09,4.71,2.07,7.08,3.05,1.12.46,2.28.81,3.4,1.26,1.74.69,3.45,1.43,5.18,2.13a31.87,31.87,0,0,1,4.23,1.68c2.64,1.54,5.28,1.24,8,.55,1.05-.26,2.21-.08,3.29-.25,1.71-.26,3.41-1,5.09-.89s3.19-1,4.8-1c3.5,0,6.44-1.65,9.58-2.73.2-.07.48.07.72.14s.51.3.64.23c3.16-1.67,6.8-1.23,10.07-2.38,1.14-.4,2.11-1.27,3.25-1.7a13.59,13.59,0,0,1,3.12-.61c1.09-.14,2.45.25,2.4-1.6,0-.16.31-.47.45-.46A2.23,2.23,0,0,0,157.22,78.59Zm-44.16,51.84c-.25-1,.43-2.22-1-2.71-.23-.08-.24-1.21-.14-1.82a12.86,12.86,0,0,1,.61-2l-1.17-.7,1.09-1c0-1.79-.46-3.8,0-5.83l-.72.77c.14-.63.1-1.18.31-1.3,1.31-.79.72-2,.71-3a26.59,26.59,0,0,0-.53-3.66,4.2,4.2,0,0,0,0-.59c-.16-.49-.35-1-.53-1.46l-.3.09.36-1.34,1.11.32c-.06-.33,0-.61-.15-.68-1.75-1.1-1.19-2.54-.61-4,.26-.66-.64-2.13-1.41-2.33-1.12-.29-2.26-.51-3.34-.9-1.82-.66-3.61-1.43-5.4-2.16-.27-.11-.63-.23-.73-.44-.55-1.18-1.34-.75-1.9-.42-1.15-.58-2.1-1.15-3.12-1.56-2.38-1-4.8-1.82-7.19-2.76-1.85-.73-3.73-1.41-5.5-2.31s-3.27-2.28-5.08-3c-2.63-1-5.42-1.65-7.8-3.27a5.67,5.67,0,0,0-1.33-.44,81.92,81.92,0,0,1-.43,9.89c-.36,2.29,0,4.5-.16,6.74-.17,1.81.24,3.68-.49,5.45a1,1,0,0,0,0,.7c.51,1.16-.41,1.71-1,2.42l1.22.17-.63.17a19.15,19.15,0,0,1-1.76,6.7l.81.21c1,.28,1.4.57.44,1.55-.43.44-.34,1.38-.49,2.1l1.37.44-2.35.71L65.44,121c1.29.32,1.53,1,.83,2.2a2.58,2.58,0,0,0-.16,1.65c.12.67.71,1.31.66,1.94a47.49,47.49,0,0,1-.77,4.74,3.67,3.67,0,0,1-.36.77l.42-.15a36.21,36.21,0,0,1-.07,5.83,44.39,44.39,0,0,1-1.82,5.9c-.12.39-.91.69,0,1.28.28.19.08,1.35-.16,2a13.37,13.37,0,0,1-1.32,2.16l.35.32,1.29-.91.13.15-1.14,1.39,1.11.94a13.87,13.87,0,0,0-1.55.85.92.92,0,0,0-.21.72A10.45,10.45,0,0,1,62.9,155c-.21,1.46-.65,2.88-1,4.33s-.55,2.9-.81,4.24L59,164l.05.43,1.49.1c.13.64-.52,1.82.89,1.6-.54,1.92-1.11,3.75-1.54,5.61-.13.57.31,1.3.14,1.84-.42,1.36,0,2.67,0,4a19.29,19.29,0,0,1-.82,3.67c1,.33.5,1.18.42,2.06s-.76,2,.74,2.27c1.72.29,3.46.43,5.05.62.18.55.27,1.32.46,1.35a4.61,4.61,0,0,0,1.61-.31c.33-.08.7-.33,1-.25,2,.55,4,1.16,5.94,1.72l-.47,1.78c.62-.56.92-1,1.12-1,1.06.2,2.09.52,3.13.8l.21.56-1.11.51.45.47,1.19-1.17c.48.14,1.18.31,1.86.54a6.2,6.2,0,0,1,.89.46l-1,.45,1,1,.72-1.17,1.82.57-1.51.84,7.51,2.82L90,194.8a8.5,8.5,0,0,1,1.43.14c.73.2,1.42.53,2.15.72a15.47,15.47,0,0,0,1.78.27l-1.06,1.42,1.79.24-.3-1.18,6.28,1,.14,1.08c2.42.29,3.23-2,4.82-3L105.76,194l.85-2.32,1-.06c-.76-1.07-1.15-2,.34-2.61.07,0,.08-.27.09-.41.06-.71.05-1.43.17-2.12.17-1,.52-2,.6-3.07.06-.69-.24-1.34.07-2.12a24.08,24.08,0,0,0,1.13-4.12c.17-.83.53-2,.14-2.48-1.05-1.19-.36-1.85.55-2.73l-1.8-.32.8-.58c-.15-.37-.44-.74-.38-1,.29-1.38.7-2.73,1-4.11.05-.25-.2-.56-.43-1.17l-.18,1.72-.45-.07c.16-.95.37-1.89.47-2.84a13.66,13.66,0,0,0,.26-4.25c-.27-1.22-.84-2.23,0-3.46.23-.35,0-1,0-1.54l1.36-.32,0-.26L110,153.5l1.67-.71c-.2-1-.1-2.1-.59-2.67-.86-1-.91-1.51.16-1.78-.16-.25-.52-.55-.49-.81.14-1.71.34-3.41.57-5.1.13-.93.69-1.94.47-2.75a1.71,1.71,0,0,1,.64-2s0-.18-.07-.35l-.77.2c-.65-1.58,1.28-3.18-.3-4.74l.67-.43-.09-1.77Zm-1.77,60.84c-1.54,2.18-1.35,4.42-.77,6.69l5-.76-.73,1.2.29.37a11.93,11.93,0,0,0,1.86-1.25,9.65,9.65,0,0,1,4.24-2.71l.81,1.41,3.8-1.31-1-.6c2.11-.25,3.79-1.06,5.58.06.34.21,1.19-.3,1.76-.57.4-.19.7-.74,1.08-.79,1.28-.16,2.58-.18,3.4-.22a6.29,6.29,0,0,1,1.47-.65c1.61-.15,3.22-.25,4.84-.31a15.9,15.9,0,0,1,3.41,0,7.87,7.87,0,0,0,4.13-.22,14.07,14.07,0,0,1,3.31-.33l.05.29L153,192a11.22,11.22,0,0,0,3.08-.63c.87-.31,1.68-1.08,2.47.12.06.08.52,0,.53,0,.22-1.48,1.37-.56,2.06-.81.38-.13.88-.13,1.12-.39,1.12-1.19-.28-1.49-.74-2,.24-1.59.52-3.11,1.87-4.12.06,0-.06-.5-.12-.51-1-.05-.62-.66-.6-1.22a1.51,1.51,0,0,0-.41-1.09,1.06,1.06,0,0,1-.17-1.69,1.92,1.92,0,0,0,.11-1.14c-.06-.84-.53-1.71.43-2.42.32-.24.4-.79.62-1.26l-1.16.12c1.39-.79,1-2.06,1.08-3.24a8.85,8.85,0,0,1,.47-1.82l-.66-.07c-.15-1.15,0-2.4-.5-3.33-.69-1.29.25-2.61-.41-3.8,1.36-1,.37-2-.08-2.95,0-.1.07-.27.14-.52l.82.74.59-1.37-1.49-.46c.2-.44.49-.79.47-1.11a15.53,15.53,0,0,0-.43-2.24,2.66,2.66,0,0,1,1.77-3.16c-1.19-.6-.63-1.23.09-2l-2-1.37c.07-.93.13-2.34.32-3.73a2.19,2.19,0,0,1,.73-1.23,3.13,3.13,0,0,0,.35-3.79c1.2-.37.67-1.33.55-2,0-.18-1-.2-1.65-.32l1.45-1.7-.11-.23-1.09.49c.39-4.19-.21-11-1-12.29.28-.54.73-1,.75-1.54a12.46,12.46,0,0,0-.28-2.78c-.26-1.42-.58-2.8.25-4.19.25-.41,0-1.1,0-1.8l-.41.52-.26-.09.81-2.37a6,6,0,0,1-.38-1.3,36.58,36.58,0,0,1-.11-4.26c.17-2.79.43-5.58.71-8.36.09-.88.45-1.74.55-2.62.18-1.57.25-3.16.37-4.74l1,.33a37.36,37.36,0,0,0-.73-3.72c-.14-.47-.72-1.13-1.11-1.14-.94,0-2.2,0-2.78.53-1.62,1.55-3.58,0-5.26.89-.85.47-2.07.21-3.08.46-1.63.4-3.21,1.05-4.85,1.41s-3.08.38-4.62.58c-.86.11-1.72.29-2.58.39a72.06,72.06,0,0,0-7.44.94c-3.1.72-6.12,1.76-9.14,2.78-2.47.83-4.89,1.81-7.07,2.63l1,8,.39-.18a27.46,27.46,0,0,0-.32,2.87,32.6,32.6,0,0,0,.18,4.46c.13,1-.6,3-1.64,3.38l1.45,1.13-.43,3.56.35.82c-1.35.29-.69,1.47-.6,2,.26,1.51.74,2.93-.65,4.17l.68.24h-.44c0,1.78-.11,3.56,0,5.33.12,1.47.47,2.9-.32,4.29a1,1,0,0,0-.15.8,2.18,2.18,0,0,1-.17,2.82c-.1.11,0,.39,0,.57.26,1.2.56,2.41-.68,3.31,0,0,0,.14-.07.28l.63.28-.08,1.67-.88.37,1.08.56c-.23.29-.5.47-.52.67a35.54,35.54,0,0,0-.37,4.56c0,1.71-1,3.35-.32,5.09,0,.07,0,.19-.06.28-.19,1.95-.37,3.9-.57,5.85q-.21,2-.5,4c0,.07-.35.09-.43.11.14.41.26.8.4,1.18.63,1.78-.49,3.58.44,5.53.69,1.45.14,3.49.14,5.14l-1.48.31,0,.38,1.14.3c1,1.33-2.27,2.19-.42,3.42a10.54,10.54,0,0,0-.73,1.56c-.5,1.78.32,4-1.9,5.2,0,0,0,.15,0,.21Zm85.49-135.6c-.65.29-1.37.39-1.75.81-.83.92-1.42,2.08-2.25,3s-1.67,1.3-2.42,2C188.64,63.2,187,65,185.3,66.65c-1,.91-2.22,1.49-3.16,2.42-1.29,1.27-2.39,2.73-3.6,4.09-.35.39-.94.6-1.18,1-1,1.86-1.9,3.79-3.86,5A7,7,0,0,0,172,81c-.93,1.21-1.25,3-3.32,3.09-.48,0-1.2.85-1.34,1.42a43.71,43.71,0,0,0-.65,4.72q-.38,3.25-.73,6.5c0,.24.13.69.08.71-2.21.83-.4,1.13,0,1.44v2.34l-.9.48c1.72,1.95.48,4,.46,6l-.57-.17a19.05,19.05,0,0,1,.4,3.1c0,1.08.7,2.42-.72,3.07.21,1.42.46,2.72.59,4s.19,2.95.28,4.42H166l-.82.69a9.08,9.08,0,0,1,.71,2.28,9.46,9.46,0,0,1-.54,2.33l-1-.19v1l1-.51-.09.83,1.55-.1-2.52,1.8a7.23,7.23,0,0,1,1.14.79c-.45,1,.62,1,.92,1.5a4.65,4.65,0,0,1,.59,2.12c0,.28-.48.66-.82.89a17,17,0,0,1-1.6.87l.18.59,2.27-.24c-.52,2.3-.86,4.65.09,6.88l-1.14.35.88.56v2.71l-1.39,1.07,1,.21-.1,2.35.64.3v4.4c-.58.47-.37,2.35.64,3l-.71.55v3.65l.51.35-.44.09c.06.41.27.88.14,1.23-.48,1.37.64,2.78-.17,4.16a1.53,1.53,0,0,0,.07,1.43c1,.78.1,1.13-.43,1.65l1.63.46-1.33.49,1.3,1.92c-1.28.86,1.44,2.79-1.12,3.42l1,.19a17.39,17.39,0,0,0-.25,2.88c.1,1.33.61,2.64.59,3.95a53.61,53.61,0,0,1-.6,5.47c1.57-.46,3.29-.85,4.92-1.48,1-.37,1.69-1.46,2.63-1.63,2.15-.39,3.73-1.69,5.5-2.75.95-.57,1.72-1.66,3.18-1.29.49.13,1.29-.41,1.75-.84s.59-.71,1-.72a3,3,0,0,0,1.05-.14c1.94-.85,3.86-1.74,5.78-2.62a1.6,1.6,0,0,0,.62-.4,23.47,23.47,0,0,0,1.4-2.06,1.86,1.86,0,0,0,.33-1.16c0-.19-.65-.27-1.19-.48l1.89-2.87-.84-1.91c1.91-.42-.54-2.34.72-3.47v1.33a.88.88,0,0,0,.39-.77c0-.29,0-.58,0-.85-1.24-.41-1.5-1.28-.93-2.46a1.34,1.34,0,0,0-.16-1.19c-.62-.72-.66-2.16.22-2.39,1.33-.35,1.29-1.38,1.78-2.42l-1.16.52-.35-.25,2-5.43-1.91-.39c.74-.66,1.42-3.57.76-4.19-1.28-1.19-.59-2,.26-2.78l-.39-1.22,1.33-1.65-.27-.22-2.17,1.24,1.28-4.27c1.82.11.89-1.66,1.41-2.37l-2.3-.71,0-.32,2-.55-1-1,.57-1.13a13,13,0,0,0,1.6-.84,1.49,1.49,0,0,0-.27-.74,9.33,9.33,0,0,0-1.32.33c-.23.06-.47.09-.79.16a8.32,8.32,0,0,0-.17-6l1.17-.89-1.07.06,1.79-2.87v-2.82l-1,.6,1.7-2.82-1.83-2.66,3-.48c.07-.67.28-1.41-1.13-1.08-.45.11-1.09-.61-1.64-.94,1.84-1.08.33-3.11,1.27-4.55.45-.7.13-1.95,0-2.94-.12-1.47-.35-2.94-.53-4.44l1.31-.12.3-3.43-2,1.81c-.26-1.69.32-3.18,1.54-2.91-1.47-1,.79-2.64-1.12-3.47A32.16,32.16,0,0,1,200,88.86a3.45,3.45,0,0,0,0-3.45l.1,1.18c-.3-.11-.63-.19-.63-.24.08-1.35-.3-3.14.42-3.94s.44-.88-.11-1.4a3.65,3.65,0,0,1-.65-1.19l2.25-.93c-2-.65-2-.65-2.4-1.85l.95-.19c.07-.87.1-1.64.21-2.41a3.22,3.22,0,0,0-1.63-3.54c-.07,0-.06-.23-.11-.44l1.19.2c-1.73-2.46-1.67-3.2.43-3.81l-1.62-1.35c.32-.48.85-.92.93-1.43a48.46,48.46,0,0,0,.47-5.21,6.93,6.93,0,0,0-.7-2V52.66C198.15,53.65,196.49,53.88,196.77,55.67Z" class="cls-1"/><path d="M45.83,56a8.43,8.43,0,0,1-.18,1.64,26.9,26.9,0,0,0-1.2,5.46c0,.07.38.19.38.19a8.31,8.31,0,0,0-.74,2.07c-.26,3.57-.39,7.14-.62,10.71-.08,1.34-.33,2.67-.41,4-.05.85.19,1.73.06,2.56a20.53,20.53,0,0,1-.82,2.84c.11.19.44.48.45.79.06,1.36,0,2.72,0,4.07a26,26,0,0,0-.08,4.09c.34,2.31-.79,4.49-.29,6.86.36,1.75,0,3.66-.14,5.49a2.71,2.71,0,0,1-.31.77,1.88,1.88,0,0,1,0,2.59,14.58,14.58,0,0,1-.22,3.45,15.27,15.27,0,0,0-.23,2.95c-.13,1,.15,2,.11,3A4.68,4.68,0,0,1,41.1,121h-.62c.32.41.89.8.92,1.23a11.52,11.52,0,0,1-.32,2.55c-.06.37-.36,1-.26,1a1,1,0,0,1,.09,1.68c-.66.64-.29,1.23-.3,1.89a18.26,18.26,0,0,1-.34,2.43l.26,2-.87-.12c0,.1,0,.21,0,.28.3.45,1,1,.87,1.32-.27,1.07.25,2.13-.5,3.33-.59,1-.55,2.51-1.2,3.69-.12.21.11.69.3,1,.41.59.79.89,0,1.73-.5.56-.18,1.93-.09,2.93.06.78.36,1.54.46,2.32,0,.12-.73.25-.78.46a4.71,4.71,0,0,0-.18,2c.24,1.1.44,2.1-.46,3-.06.06-.13.21-.1.27.64,1.33-.19,2.51-.36,3.76s-.31,2.71-.42,4.07c-.07.82-.06,1.64-.19,2.49-.1.55-.22,1.1-.28,1.65a2.71,2.71,0,0,0,.14.62,11.17,11.17,0,0,0,.33,2.16c.47,1.29-.43,2.81.91,4a3.51,3.51,0,0,1,.76,2.79c-.58,3.17.19,6.59-1.79,9.53-1,1.49-1.66,3.22-2.6,4.76a2.3,2.3,0,0,1-2.3,1.29c-.63,0-1.32.93-2,1.43-.44.33-.87.89-1.34.94a10.88,10.88,0,0,1-7.21-1.62c-.81-.54-2.19-1.21-.94-2.65a.7.7,0,0,0-.12-.62,9.58,9.58,0,0,0-1.46-.19l1.36-1.22-.83-.49c.22-.79-.29-1.82.72-2.49.1-.07-.22-.95-.49-1.36-.54-.84-.58-.81.31-1.17a134.34,134.34,0,0,0,.22-14.58l.49-.1-.68-1,1.07-2.88-.78,0,.8-3.48.64-.41-1.47-2,1.76-.31,0-.27-1-.19c.08-1,.14-2,.25-3,.09-.78.26-1.54.41-2.38l-.2-.06.19-3.33c-.07,0,.39,0,.4-.06.31-1.91.58-3.82.85-5.73l-.41-.06.8-.2-.76-.51,1-3.66-1,.08c0-.13,0-.28,0-.31,1.25-.9,1.09-2.36,1.24-3.58.25-2.05.18-4.14.26-6.22,0-1,.08-1.92.16-2.87.11-1.24.26-2.47.39-3.71l-.49.05-.19-1.2-1.88-.16c.73-.46,1.43-.69,1.77-1.17a11.37,11.37,0,0,0,1.19-2.5c.26-.67.4-1.38.6-2.07l-.66-2.73.43-.13-.92.11c0-.14-.06-.23,0-.28a3.13,3.13,0,0,0,.09-2.51c-.3-.59-.66-1.07.39-1.45a2.1,2.1,0,0,0,.35-1.85c-1.22-1.07-.13-1.46.47-2.06-.17-.69-.83-1.43.19-2.05.13-.08-.11-.77-.36-1.15.53-1.87,1.55-3.65,1.14-5.91-.21-1.11.29-2.35.41-3.53a.88.88,0,0,0-.47-.72,12.27,12.27,0,0,1,0-2.71c.17-.75.93-1.39.25-2.41L27.53,85l.5,0-.25-.93L28.7,84a5.43,5.43,0,0,1-.3-1.67c.35-2.37.39-2.37-.72-4.37l1,.39-.29-1,1,.24A2.13,2.13,0,0,1,29,75L28.7,72l-.65-.13V70l1-.46L28.18,68c-.43-.82-.41-.79.41-1.31a.79.79,0,0,0,.19-.7c-.16-.57-.73-1.28-.56-1.65a7.49,7.49,0,0,1,1.9-2.6,3.43,3.43,0,0,0,1.14-4,5.28,5.28,0,0,1,0-1.61L32,57.25c-.27-1.4-.5-2.4-.66-3.42a5.74,5.74,0,0,1-.24-2.57c.95-2.58-.21-4.83-.87-7.15-.43-1.53-1.29-2.95-1.64-4.49s-1.64-1.51-2.61-1.9a6.12,6.12,0,0,0-5.5.47c-1.67.95-3.42,1.75-5.14,2.6-1,.51-2,1-1.93,2.45a1.73,1.73,0,0,1-1,1.31c-1.78.44-2.11,1.7-2.16,3.22,0,.22,0,.6-.15.64-2.58.78-1.37,3.44-2.61,4.81-.58.13-1.27.3-2,.44a.87.87,0,0,1-.38-.08c-.82-.24-2-2.49-1.79-3.38a.87.87,0,0,0-.14-.62c-.18-.26-.49-.43-.67-.69a10.75,10.75,0,0,1-.61-1.16c1.91-.39,1.72-1.92,1.85-3.27A8.66,8.66,0,0,1,7.6,39L8.66,37.5a12.5,12.5,0,0,0,1.39-2c.48-1.06,1.07-1.81,2.34-1.71,0,0,.09,0,.13-.06a14.09,14.09,0,0,1,3.09-1.61,34.68,34.68,0,0,0,3.84-2,16.55,16.55,0,0,1,2.49-.66c.18,0,.44-.13.51-.27.77-1.63,2.22-.5,3.31-.83.64-.2,1.58,0,1.94-.38,1-1.06,2-.87,3.22-.62.31.07.73-.21,1-.42.76-.5,1.44-1.35,2.25-1.51,1.07-.2,2.31-.79,3.38.2.08.08.29,0,.43,0,2.82-.37,4.91,1.2,7.11,2.59a17.55,17.55,0,0,0,3,1,2.11,2.11,0,0,1,1.19.93c.76,2.13,2.51,2.81,4.45,3.17a13.27,13.27,0,0,0,3.49.22,2.72,2.72,0,0,0,1.48-1.09c1.3-1.58,3-1.18,4.68-1.1a5,5,0,0,1,.83.22,5.45,5.45,0,0,1,4,5.49,38.91,38.91,0,0,1-.3,4c-.34,1.94-.48,4.1-2.08,5.43s-3.25,2.92-5.48,1.92a12.24,12.24,0,0,1-3.33-2.85c-.41-.42-.48-1.17-.76-1.74-.44-.89-1-1.51-2.17-1a12.2,12.2,0,0,1-2.14.38c-.27.05-.68.14-.75.32-.53,1.36-2,1.57-2.9,2.39a16.52,16.52,0,0,0-2.79,3.34,1.59,1.59,0,0,0,.48,2.15C47.29,52.42,46.77,55.51,45.83,56ZM39.26,88.35l-1.61-1.43.7-1.83-.36,0,.32-5.32-.84.69c-.5-1.21,2-2.41,0-3.32L38,73.86c1.41.35,1.48-1.09,1.86-1.43L39.59,71l-1.39.3L38.42,68a11.7,11.7,0,0,0-2.07,0c-.59.11-1.55.35-1.63.7-.42,1.84-2,3.31-1.66,5.38a3.47,3.47,0,0,1-.22,1.36c-.38,1.42-.81,2.83-1.19,4.25-.16.62-.24,1.26-.41,2.18.31.5-.32,5.31-.89,6.06a5.68,5.68,0,0,1,.57,1.76c-.09,1.61-.41,3.2-.5,4.81-.08,1.34.06,2.69.06,4,0,2.64,0,5.28-.09,7.91a12.08,12.08,0,0,1-.71,2.91c-.25.82-1,1.69-.84,2.39.52,2.33-.56,4.46-.55,6.7,0,1.14-.72,2.29,0,3.44a1,1,0,0,1,0,.63c-.2,1.55-.42,3.09-.62,4.64-.08.58-.13,1.16-.2,1.73-.06.82-.26,1.57-.32,2.33-.09,1.13.35,2.62-.22,3.34-.91,1.15-.37,2.17-.46,3.25,0,.15,0,.29,0,.44-.28,2-.52,3.92-.86,5.87a7,7,0,0,1-.74,1.64,9.26,9.26,0,0,1,0,1.1c-.09.78-.6,2-.28,2.25,1.51,1.28,0,2.83.6,4.26.43,1.07-.29,2.61-.51,3.94-.13.82-.27,1.64-.44,2.66l-1.1.68a4.9,4.9,0,0,1,.69,4.13c-.46,1.58.28,3.47.26,5.23a24.82,24.82,0,0,0,.24,5.67c.45,2.17-.07,4.55-.19,6.84A12.89,12.89,0,0,0,24,184c.14,2.2.4,4.39.47,6.58,0,1.2.12,2.59-1.54,3,0,0-.06.16-.21.6a13.54,13.54,0,0,0,3.43.14,11.88,11.88,0,0,0,2.58-1.48c1.3-.68,1.36-.91.06-1.81l.91.1A7.45,7.45,0,0,0,31,189.75c.48-1,.83-2,1.23-3l-1.56-.55c.12-.95.2-2,.44-3.1.09-.4.54-.74.88-1a5.34,5.34,0,0,1,1.11-.51l-1.67-.17,1.72-1.62-1.57-2.13c.13-2.89.92-6.13-.44-9.3,1.55-1.9,1.55-1.9.07-3.35.35-.9.65-1.78,1-2.62.49-1.08,1.64-2.1.15-3.29-.09-.07.08-.52.17-.77a8.18,8.18,0,0,0,.19-4.81c-.35-1.8-1.14-4.32,1.34-5.77.23-.13.21-.68.37-1.22-2,.3-1.76-1.22-1.2-1.7,1.2-1,.79-2.43,1.21-3.57l1.06.17c0-.85,0-1.58,0-2.3,0-1.13-.55-1.27-1.56-.9l1.7-4c-.48-.39-1-.71-1-.8.36-.86-.28-2.09,1-2.63.32-.13.51-.73.64-1.15a8.52,8.52,0,0,0,.18-1.51l-.73-.27c-.1-.63-.17-1.11-.26-1.59a3.84,3.84,0,0,1-.24-.92c.08-1,.19-2.08.36-3.12s.08-2.76.68-3.06c1.72-.87.81-2,.47-2.79-.8-1.83.12-3.49.17-5.22,0-.17.4-.32.62-.49-1-1-.75-5.34.11-5.92a7.21,7.21,0,0,1-.81-2.22,37.59,37.59,0,0,1,.38-6.6c.16-.93-.71-2.55,1.15-2.88-.14-.32-.2-.83-.42-.92a13.31,13.31,0,0,0-2.22-.44Z" class="cls-2"/><path d="M90,37.48l.47-1.69L84.37,35l.44-.74c-2.12-.12-1-2-1.68-3.05-.46-.73.65-2.05-.69-2.71.51-.79-1-2,.63-2.61a5.35,5.35,0,0,1,3.18-.66,33.09,33.09,0,0,0,5.44.08,29.85,29.85,0,0,1,4,.24c1.95.3,4,0,5.79.39s3.39-.61,5.08-.23c.66.15,1.2.24,1.18,1.13,0,1.87,0,3.75,0,5.63s-1.37,2.93-3.74,3c-1.23,0-1.7.47-1.73,1.56-.07,2.49-.1,5-.15,7.48a3.39,3.39,0,0,1,0,.88c-.54,1.78-.2,3.61-.38,5.38a26.24,26.24,0,0,1-1.89,6.13c-.48,1.3-.2,2.92-1.55,3.86-.67.46-1.35.91-2.36,1.59-.15-.27-.52-.61-.5-.94.08-1.75-1.43-2.58-2.18-3.83-.25-.41-1.2-.41-1.42-.81a9.49,9.49,0,0,1-1.05-3,12.82,12.82,0,0,1,0-3.11c.07-.78.36-1.55.42-2.33a53.49,53.49,0,0,0,.41-7.06C91.54,40,91.8,38.23,90,37.48Zm8.16-.72c-.4.55-1,1-1.12,1.6-.45,3-.76,6.1-1.12,9.16-.07.57-.2,1.14-.24,1.71-.13,2.08-.24,4.15-.35,6.23l.34.28c.37-.3.89-.52,1.07-.91a22,22,0,0,0,.89-2.59c1.22-3.7,2.23-7.41,1.84-11.4C99.27,39.46,99.4,38.1,98.11,36.77ZM102.44,30l-6.86-1.81c-.14,0-.31-.15-.4-.11-1.46.7-3,.15-4.48.27-.44,0-1.15.19-1.24.46a8.34,8.34,0,0,0-.33,2.44c0,.21.4.58.64.61a56.13,56.13,0,0,0,6.07.6c1.51,0,3-.61,4.54-.49S102.24,31.29,102.44,30Z" class="cls-3"/><path d="M124.32,37.65a3.54,3.54,0,0,1-4.56-.35,8.46,8.46,0,0,1-2.19-5.41c-.11-1.44-1-2.83-1.47-4a40.92,40.92,0,0,1,5.62-.9c4.32-.11,8.44-1.46,12.71-1.77a6.09,6.09,0,0,1,2.63.48,26.12,26.12,0,0,1,3.33,1.77c1.07.63,1.44,3.13.66,4.07a1.14,1.14,0,0,0-.31.62c0,2.88-2.21,3.51-4.31,4.11-1,.28-1.44.73-1.11,1.6.83,2.22.38,4.47.18,6.67A54.35,54.35,0,0,1,134,53.32a24.65,24.65,0,0,1-2.44,5.14c-.43.81-1.11,1.48-1.61,2.26a1.42,1.42,0,0,1-2.44,0c-1.09-1.86-2.58-3.66-3-5.68-.5-2.22-1.38-4.47-.82-7a52.52,52.52,0,0,0,.67-7.68C124.37,39.58,124.32,38.75,124.32,37.65Zm12.79-5.47a10.61,10.61,0,0,1-1.21-2.27,1.45,1.45,0,0,0-1.63-1.29,8.09,8.09,0,0,1-3-.41c-1.24-.58-2.11-.14-3.22.28s-2.35,1.15-3.92.92c-2.23-.33-3.25.83-3.38,3A1.76,1.76,0,0,0,123,34.23c1-.2,1.93-.39,2.9-.53C129.44,33.21,133,32.73,137.11,32.18ZM129,36.69a11.35,11.35,0,0,1,.25,2.52c-.17,1.33-.6,2.62-.85,3.93-.52,2.76-.83,5.58-1.6,8.26a3.64,3.64,0,0,0,.19,2.22,7.51,7.51,0,0,0,.93,1.66c.08,0,.38-.09.44-.25.84-2.06,2.47-3.64,2.43-6.26,0-3.11.94-6.23,1.44-9.35.16-1,.2-2,.28-2.9Z" class="cls-3"/><path d="M150.66,35.45c-.19-1.26-.36-2.69-.62-4.09-.1-.56-.75-1.35-.58-1.56a10.12,10.12,0,0,1,2.61-2.34,6.89,6.89,0,0,1,2.68-.56c3.27-.33,6.55-.61,9.82-.91a23.26,23.26,0,0,1,4-.33c1.52.13,3-.29,4.58.25,3.21,1.1,3.27,3.25,2.87,5.71A21.24,21.24,0,0,1,175,35l-6.27,1.22-.13.35c2,1.05,1.11,2.83,1.25,4.32a53.65,53.65,0,0,1,.29,6.45,64.69,64.69,0,0,1-.59,6.92c-.33,2.46-4.68,5-6.83,4-.58-.28-.86-1.22-1.24-1.87a23.79,23.79,0,0,1-1.57-2.95,11.08,11.08,0,0,1-.12-7.34,16.37,16.37,0,0,0,.29-4.84,3.34,3.34,0,0,0-2.3-3C155.49,37.2,153.13,36.38,150.66,35.45Zm3-3.65c-.08,2.34.14,2.79,2,3a19.14,19.14,0,0,0,4.55-.15c2.67-.34,5.31-1,8-1.23,3.42-.33,4.13-1,3.62-3.79a6.54,6.54,0,0,0-1.41-.29,51.42,51.42,0,0,0-5.54.22c-1.27.16-2.48.8-3.75,1C158.66,31.08,156.17,31.41,153.66,31.8Zm12.71,5.72c-.82.28-1.3.47-1.79.61-1.09.31-1.74.69-1.38,2.13a17.56,17.56,0,0,1,.44,4.79,11.68,11.68,0,0,1-.79,4.58,4.47,4.47,0,0,0-.49,2.68c.12.89.37,1.77.63,3a6.51,6.51,0,0,0,1.49-1c1.19-1.45,2.19-2.81,2-5C166.11,45.48,166.36,41.63,166.36,37.52Z" class="cls-3"/><path d="M81.41,133.7c1.32-.07,2.55-.09,3.76-.22a3.46,3.46,0,0,1,3.54,2,1.65,1.65,0,0,0,1.93.93,5.7,5.7,0,0,1,5.78,1.86,1.89,1.89,0,0,0,1.13.51,6.1,6.1,0,0,1,5.39,3.7c.42.95.92,1.86,1.38,2.79l-.5.45-4.41-3.36-1.1,2.78.91.38c-.21.24-.46.58-.5.56a6.33,6.33,0,0,1-2.18-1.38,22.48,22.48,0,0,1-2.07-4c-.54-1.24-1.16-1.08-1.91-.27s-1.25,1.42-2.1,2.38c-1.26,0-2.44-.9-3.14-2.81-.25-.68-.42-1.39-.72-2-.17-.37-.69-1-.78-.94-.51.25-1.37.77-1.31,1,.25,1.1-.41,2.16-1,2a4.49,4.49,0,0,1-2.72-1.87,44.93,44.93,0,0,1-2.42-5.64c-.81-.19-1.63-.48-1.56,1.28,0,1-.83,2.13-1.38,3.39-1.1.38-1.7-.68-2.15-1.5s-.7-1.77-1.85-2l4.16-1.15a2.55,2.55,0,0,1,2.4-2.37C80.28,130.2,81.56,131.46,81.41,133.7Z" class="cls-1"/><path d="M93.4,104.75a12.76,12.76,0,0,1,3-.52,7.7,7.7,0,0,1,3.14.84,21.34,21.34,0,0,1,3.26,2.4c.26.21.33.64.51,1l1.57,3c-.25,0-.74.27-1,.12A33.73,33.73,0,0,1,100,109c-.83-.65-1.61-1.4-2.69-1.09A2.52,2.52,0,0,0,96,109.19c-.33.7-.53,1-1.42.7C92,109,91,106.92,90,104.73c-.61-1.34-1.05-1.47-2.16-.44a8.63,8.63,0,0,1-1.13,1c-1.27.81-2.59.4-3.7-1.23a38.62,38.62,0,0,1-2.1-3.57c-.49-.91-1.34-1.14-2.05-.45-.24.23-.36.59-.62.78-1.36,1.06-2.17,1-3.21-.35a7.54,7.54,0,0,1-.71-1.23c-.22-.42-.4-.86-.59-1.27l.13-.29c1-2.53,3.32-1.5,5.09-1.81a4,4,0,0,1,4.5,2.42,3.17,3.17,0,0,0,4.11,1.93c2.61-.75,3.85.76,5,2.57A14.49,14.49,0,0,1,93.4,104.75Z" class="cls-1"/><path d="M94.37,162.6a22.67,22.67,0,0,1-2.08-1.76,2.12,2.12,0,0,1-.37-1.22c-.06-.77-1.48-2.66-2-2.44a3.7,3.7,0,0,0-1.7,1.4c-.59,1-1.68,1.45-2.36.48a19.19,19.19,0,0,1-1.51-3.38A28.27,28.27,0,0,0,83,152.86c-.35-.6-1.88-.15-2.26.62l-2.14,4.39c-.85-.37-.88-.36-1.61-2.85-.33-1.11-.53-2.26-.84-3.6a4.78,4.78,0,0,0-1,.56c-1,1-1.85,1.08-2.85.08a21.39,21.39,0,0,1-2.23-2.76c1.53.78,2.71-.27,3.86-.76,1.69-.73,3,.31,4.42.53a.44.44,0,0,1,.26.33c.15,2,1.63,1.63,2.88,1.55,1.85-.12,3.4.21,4.3,2.09a1.71,1.71,0,0,0,2.26,1c1.54-.44,2.94.23,4.28,1a16.68,16.68,0,0,0,3.51,1.85,6.56,6.56,0,0,1,4.81,4.88c.14.48.69.84.86,1.33a3.74,3.74,0,0,1,0,1.32c-.43-.1-1-.07-1.27-.34-.78-.74-1.4-1.65-2.17-2.42a7.18,7.18,0,0,0-1.64-1.19c-.77-.42-1.39-.4-1.5.73A6.19,6.19,0,0,1,94.37,162.6Z" class="cls-1"/><path d="M68.22,169.83c1.72-1.06,3.27-2.18,5-3,.94-.46,2.31-.55,2.86.65.77,1.68,2.31,1.84,3.71,2.4a16.15,16.15,0,0,0,6.43,1.33,5.32,5.32,0,0,1,3.69,1.9,11.46,11.46,0,0,0,4.1,2.34c2,.76,3.09,2.37,4.3,3.9.18.22-.06.86-.26,1.22-.06.11-.67,0-1-.12a19.49,19.49,0,0,0-2.69-1.19c-.55-.14-1.23.24-2,.41a3.6,3.6,0,0,1-1.26-.52c-.93-.83-1.73-1.81-2.64-2.67-.61-.58-1.22-1.44-2.26-.46l1,.24c-1.78,1.3-3.07,1-4.15-.77a10.06,10.06,0,0,0-1.53-1.68,1.56,1.56,0,0,0-2.57.69,5.69,5.69,0,0,1-.59,1.28,1,1,0,0,1-1.9-.21c-.25-1-1.16-1.77-.7-3.21.31-1-.85-2.42-1.46-3.6A1.74,1.74,0,0,0,73,169c-.66,1.15-1.13,2.4-1.71,3.69C70.05,172.66,69.31,172,68.22,169.83Z" class="cls-1"/><path d="M92.88,125.1a7.49,7.49,0,0,1-3.65-4.88,8.62,8.62,0,0,0-1.16-2.55,1.2,1.2,0,0,0-1.11,0c-1.81,2.47-4.32,2.23-5.83-.61a9.59,9.59,0,0,0-1-1.5,9.76,9.76,0,0,0-1.1-1,23.3,23.3,0,0,0-1.53,1.83c-.16.24-.06.66-.1,1.39-3-1.37-3.17-4.19-4-6.34,1.35,0,2.66.1,3.95,0,1.81-.18,4.16.83,4.84,2.5.56,1.37,1.39,1.22,2.55,1.07A13,13,0,0,1,89,115c.7.14,1.38,1,1.78,1.77a2.23,2.23,0,0,0,2.65,1.29A4.9,4.9,0,0,1,99,120.29a43,43,0,0,1,2.76,6.54c.11.28-.19.72-.3,1.08a4.62,4.62,0,0,1-1-.33,5.49,5.49,0,0,1-2.61-3.49,5.34,5.34,0,0,0-1.5-2.43c-.27-.25-1.37,0-1.8.39a12.89,12.89,0,0,0-1.86,2.41C92.65,124.57,92.82,124.85,92.88,125.1Z" class="cls-1"/><path d="M153.4,131.65c-1,.86-1.72,1.3-2.82.55-.46-.32-1.39.09-2.11.1a9.47,9.47,0,0,0-3.58.44c-1,.39-2.26.08-3.39.19a30.31,30.31,0,0,0-3.55.58c-1,.22-2,.58-3,.89.2,1.4-1.46,1.43-2.18,1.65-4.46,1.39-6.52.24-9.31-4.52l.86-.17c.56-3.52,1.12-6.9,1.62-10.29A9.58,9.58,0,0,0,126,118c-.46-2.46.52-4.77.57-7.14a31.57,31.57,0,0,0-.78-5.34c1-.18,1.53.77,2.24,1.37.42.36,1,.84,1.47.8,2.84-.27,5.73-.15,8.41-1.65,1.24-.7,2.9-.62,4.35-1a54.78,54.78,0,0,0,5.41-1.5c2.07-.74,4.42.37,5.73,2.11s.7,2.76.27,4.32a30.4,30.4,0,0,0-.93,5.24,17.82,17.82,0,0,1-1.74,7.07c-.89,1.64-1.07,3.67-1.51,5.54-.05.23.26.55.4.83,1.57-.82,1.27,1,2,1.43A9.32,9.32,0,0,1,153.4,131.65Zm-25-20c.08,1.5.49,3,.14,4.22a39.74,39.74,0,0,0-.72,6.26c-.27,2.34-.43,4.7-.85,7s.3,3.2,2.62,2.56a5.53,5.53,0,0,1,.7-.19c2.5-.35,5-.62,7.51-1,2.15-.37,4.27-1,6.42-1.37.89-.17,1.85,0,2.74-.16.35-.07.89-.77.82-1.06-.67-2.72.28-5.31.58-7.94.35-3.09.93-6.16,1.29-9.25.05-.46-.5-1.37-.88-1.44a7.94,7.94,0,0,0-3.84-.08c-2.35.88-4.53,2-7.15,2.18C134.62,111.57,131.47,112.38,128.42,111.68Z" class="cls-1"/><path d="M154.08,153c-1.76-1.08-3.18-1.89-4.53-2.8a1.58,1.58,0,0,0-2.49.58c-.11.22-.17.51-.34.63-.71.48-1.45.88-.87,1.95,0,.09-.4.44-.69.76l-1.92-1.51a.88.88,0,0,0-.21-.09c.82-2.23-1.49-2.34-2.32-3.45a2.12,2.12,0,0,1-.22-.63l-1.2.26c-.06,2.94-1.94,4.89-3.7,6.94a2.89,2.89,0,0,1-2.45-2.37,12.31,12.31,0,0,0-1.35-2.7c-.43-.75-.79-.67-1.38,0a35.58,35.58,0,0,1-4,4A3.7,3.7,0,0,1,124,155c-.75,0-.69-1.43.07-2.34l-1.49-1.51.16-.25a6.61,6.61,0,0,1,1.57,1c.7.76,1.33.14,1.6-.2a4.55,4.55,0,0,0,1-2.26,3.31,3.31,0,0,1,1.69-2.59c2.39-1.36,4.68-1.36,6.05,1.58l.26.58c1.05.36,1.36-2.19,2.81-.1-.25-2.33.41-3.65,2.47-4.18-.07-.46-.5-.94.93-.91,2.23,0,3.13,1.18,4,2.82a1,1,0,0,0,.8.32c1.14,0,2.29-.15,3.42-.11a2.64,2.64,0,0,1,1.44.56C152.43,148.73,153.25,150.58,154.08,153Z" class="cls-1"/><path d="M132.39,166a2.1,2.1,0,0,0,2.39-1.31,3.44,3.44,0,0,1,2.66-1.2,39.55,39.55,0,0,1,4.83.81c.35.05.75-.32,1.15-.4a8.64,8.64,0,0,1,3-.45c1.91.35,3.79.88,4.46,3.2a8.17,8.17,0,0,0,1.58,2.2l-.35.47a40.26,40.26,0,0,0-3.72-1.85,38,38,0,0,0-3.89-1.07l-1.87,4.63a25.58,25.58,0,0,1-3.11-2.47c-1.56-1.68-2.34-1.65-3.92-.16a13,13,0,0,0-2.43,2.73,1.72,1.72,0,0,1-1.56.4c-.38-.11-.68-.78-.85-1.26-.32-.93-.52-1.9-.78-2.91-.91,0-1.95,2.24-1.89,4.45-1.62.55-3.24,1.13-5,.29-1.2-.58-1.37-1.23-.45-2.2s1.9-1.47,2.36-2.44c.38-.8,1-.42,1.39-.83.16-.18.49-.32.51-.5s-.2-.49-.38-.87a3.85,3.85,0,0,1,3.46-1.56A2.49,2.49,0,0,1,132.39,166Z" class="cls-1"/><path d="M146.66,181.4c-.16.17-.5.39-.61.68-.4,1.13-1,.84-1.84.46-1.7-.8-3.42-1.6-5.38-1.38-.33,0-.83.19-.93.42-.42,1-.72,2-1.05,3l-3-1.75c-1.13,1-2,2.4-3.3,2.89a5.15,5.15,0,0,1-3.81-.37,5.66,5.66,0,0,1-2.8-4.22l3,.68c.75-.56,1.61-1.15,2.4-1.81.42-.35.65-1,1.1-1.2a9.81,9.81,0,0,1,2.75-.61c1.57-.14,3.15-.17,4.73-.19.86,0,1.72.2,2.57.14,1.11-.07,2.25.89,3.38-.16.15-.14,1.32.53,1.72,1.05A10,10,0,0,1,146.66,181.4Z" class="cls-1"/><path d="M186.53,94.29l-3.78-2.17a2,2,0,0,0-1.92,2.56c0,.28-.32.58-.39.89s-.24,1.16-.1,1.23c1.85,1,.22,1.91.15,3.08l-3-1.68a15,15,0,0,0-1.58,2.64,7.52,7.52,0,0,0,0,2.29c0,.91-.85,1.83.16,2.74.15.13-.16.78-.36,1.61-.85-1.33-2.7-.88-3-2.61-.92.27-1.21-.55-1.76-1-1.2-.93-1.37-2.6-.06-3.09,1.75-.65,1.16-2.13,1.65-3.22.06-.14-.17-.48-.11-.53.76-.62,1.56-1.2,1.58-2.32,2.06.07,2.61-2,4.07-2.9.91-.54,1.34-1.9,2-2.89.1-.15.24-.37.38-.38,1.32-.12,2.07-1.06,2.94-1.88.36-.34,1.18-.28,1.4-.64.82-1.31,2.09-2.25,2.84-3.65.26-.48,1.69-.73,2.34-.48a3.54,3.54,0,0,1,1.49,2,7.71,7.71,0,0,1,.3,2.45,1.79,1.79,0,0,1-.28,1.06c-.08.12-.58,0-.88-.11s-.64-.21-1-.31a3,3,0,0,0-3.78,1.47A4.58,4.58,0,0,0,186,91c.14.57.84,1,1,1.57S186.74,93.59,186.53,94.29Z" class="cls-1"/><path d="M174.34,150l-.77-.94a12.25,12.25,0,0,1,1.14-.71,14.13,14.13,0,0,1,2.48-1.08c.51-.13,1.11.17,1.68.18a6.76,6.76,0,0,0,1.89-.13c1.07-.28,2.1-.74,3.16-1a9.41,9.41,0,0,1,2.26-.41c.79,0,2-.12,2.27.29.46.8,1.35,1.45,1.09,2.76-.35,1.73-1.16,1.86-2.57,1.52a28.71,28.71,0,0,0-3-.42c-.28.94-.55,1.79-.78,2.65a2.1,2.1,0,0,0,0,.7c0,.22.15.58.07.64s-.6.35-.81.26c-.79-.33-1.52-.79-2.31-1.15s-1.88-1-2.09-.76a4.12,4.12,0,0,0-1,2.39c-.15,1.67,0,3.36,0,5.25l-5.59-2.46c.08-1,.67-1.74-.22-2.74-.7-.79.77-1.16,1.32-1.68.23-.22.61-.34.73-.59C173.68,151.62,174,150.72,174.34,150Z" class="cls-1"/><path d="M183.52,116.37c-.44-.4-.88-.8-1.33-1.19-1.54-1.31-2.12-1-3.44.49a4.82,4.82,0,0,0-1,4.27,4.84,4.84,0,0,1-.19,1.8c-.29,1.15-1,1.27-2.08.62a3.49,3.49,0,0,1-1.77-3c0-.26-.42-.48-.56-.64.58-.89,1.18-1.88,1.86-2.81.19-.25.63-.32,1.07-.52-.25-.76-.09-1.42,1.12-1.21L177,112.6c.87.37,1.52.38,1.65-.72,0-.16.07-.41.18-.46,1.11-.56,2.26-1,3.33-1.64a3.07,3.07,0,0,0,1.17-1.25c.35-.72.69-1.15,1.6-1.05.31,0,.68-.49,1-.76l3.9,1.32c1.63.56,2.39,2.75,1.67,5.13-1.48-.77-3-1.48-4.38-2.31-.77-.45-1.53-1.06-2.32-.38a3.73,3.73,0,0,0-1.25,3.37c.09.79.17,1.58.25,2.37Z" class="cls-1"/><path d="M190.13,167l-4.82-2.46a12,12,0,0,0-2.18,2.53c-.43.89-.28,2.06-.42,3.46l-2.81-1.41-1,1.13-1.06-.64c1.78,1.83-.88,2.89-.66,4.36-2.23.65-2.58-1.85-4.15-2.33,0-1.48,1.22-2,2.19-2.58s2.26-1,2.47-2.65c.13-1,1.46-1.08,2.38-1.19a3.77,3.77,0,0,0,2.68-1.83,5,5,0,0,1,3.31-1.65,2.51,2.51,0,0,1,2.87,2.06,12.33,12.33,0,0,0,1.49,3Z" class="cls-1"/><path d="M182.28,128.32l.93-.56L182,127l.18-.39a10.34,10.34,0,0,1,2.53,1,1.7,1.7,0,0,0,2.69-.18c1.2-1.24,3.26-1.48,4.21-.46a9,9,0,0,1,1.34,2.69c.05.12-.24.5-.44.59s-.44-.11-.66-.2a3.55,3.55,0,0,0-1-.4c-1.92-.13-2.86.78-3.25,3.06-.08.46-.24.9-.49,1.78-1-1.3-1.69-2.32-2.47-3.3S183.08,129.27,182.28,128.32Z" class="cls-1"/><path d="M178.53,136.61c-1.09-.47-1.93-2.12-4-1.55l1-1.2-2-.56,5-2.17Z" class="cls-1"/><path d="M172.92,134.12l1.87,1.52c-.41.19-1,.27-1.16.58s.21.82.12,1.19a8.55,8.55,0,0,1-1,2.84c-.3.44-1.29.41-2,.59l-.14-.42,1-.62L170,138.49c.63-.37,1.12-.68,1.63-1,.29-.16.6-.3.9-.45l-.35-.68Z" class="cls-1"/></svg>