<svg xmlns="http://www.w3.org/2000/svg" xmlns:xlink="http://www.w3.org/1999/xlink" id="Your_Icon" width="70.371" height="51.407" x="0" y="0" enable-background="new 16.714 10.445 70.371 51.407" version="1.1" viewBox="16.714 10.445 70.371 51.407" xml:space="preserve"><g><path d="M33.634,10.45c7.848-0.011,15.696-0.001,23.545-0.005c3.741,0.003,7.482-0.006,11.223,0.005 c0.008,4.975,0.008,9.951,0,14.925c-0.727,0.04-1.448,0.141-2.166,0.26c-0.006-4.339,0-8.679-0.002-13.017 c-10.145-0.001-20.289-0.001-30.432,0c-0.001,5.236,0,10.473-0.001,15.709c0.006,1.287-0.012,2.575,0.009,3.863 c3.303-0.013,6.606-0.003,9.909-0.006c3.105,0.006,6.212-0.012,9.315,0.007c-0.535,0.695-1.07,1.391-1.521,2.145 c-6.62,0.014-13.242-0.006-19.862,0.011c-0.032-0.199-0.016-0.399-0.019-0.598c0-4.601,0-9.201,0-13.8 C33.637,16.782,33.621,13.616,33.634,10.45z"/><path d="M43.209,15.03c0.854-0.06,1.728,0.239,2.367,0.81c0.692,0.607,1.113,1.523,1.093,2.446 c0.023,0.982-0.458,1.952-1.229,2.557c-0.69,0.551-1.616,0.806-2.489,0.667c-0.715-0.096-1.396-0.443-1.89-0.97 c-0.782-0.793-1.093-2.01-0.801-3.083C40.586,16.125,41.838,15.093,43.209,15.03z"/><path d="M55.078,19.331c0.098-0.14,0.178-0.293,0.294-0.419c1.247,2.1,2.513,4.189,3.766,6.286 c0.479,0.816,0.993,1.614,1.448,2.443c-1.073,0.582-2.088,1.273-3.028,2.052c-0.083,0.088-0.208,0.076-0.317,0.078 c-5.68-0.007-11.36,0.007-17.041-0.008c0.047-0.124,0.165-0.2,0.252-0.294c2.033-2.033,4.067-4.063,6.098-6.098 c0.053-0.046,0.116-0.144,0.196-0.081c1.422,0.709,2.844,1.422,4.267,2.132C52.377,23.396,53.722,21.359,55.078,19.331z"/><g><path d="M16.714,21.726c0.139-0.031,0.28-0.021,0.42-0.021c4.969,0.004,9.939-0.003,14.909,0.004l0.035,0.042 c0.009,0.71-0.006,1.422,0.008,2.133c-2.934,0.021-5.869,0-8.804,0.01c-0.006,4.336-0.007,8.672,0.001,13.009 c6.455,0.007,12.911,0.007,19.366,0c0.012-0.366,0-0.733,0.007-1.1c2.185,0.006,4.371,0.006,6.557,0 c0.001,6.166,0.005,12.332-0.001,18.498c-6.544-0.013-13.089-0.001-19.633-0.006c-4.285,0.005-8.571-0.007-12.856,0.006 C16.712,43.442,16.728,32.583,16.714,21.726z M18.575,23.923c-0.49,0.128-0.854,0.626-0.803,1.133 c0.043,0.542,0.539,0.998,1.083,0.989c0.741,0,1.482,0.008,2.224-0.004c0.563-0.02,1.044-0.541,1.017-1.103 c-0.001-0.542-0.47-1.03-1.012-1.046c-0.701-0.005-1.4,0.001-2.101-0.003C18.847,23.892,18.707,23.883,18.575,23.923z M18.456,28.306c-0.441,0.171-0.744,0.653-0.681,1.127c0.054,0.509,0.51,0.937,1.024,0.954c0.677,0.009,1.355,0,2.033,0.004 c0.238,0.005,0.487-0.013,0.698-0.133c0.396-0.211,0.635-0.683,0.552-1.127c-0.073-0.483-0.514-0.88-1.003-0.894 c-0.719-0.003-1.437,0.001-2.156-0.002C18.765,28.232,18.604,28.244,18.456,28.306z M18.575,32.61 c-0.413,0.108-0.743,0.48-0.797,0.904c-0.069,0.458,0.208,0.934,0.627,1.122c0.218,0.104,0.465,0.103,0.701,0.099 c0.66-0.004,1.319,0.006,1.978-0.004c0.559-0.026,1.04-0.542,1.012-1.105c-0.003-0.54-0.471-1.027-1.013-1.044 c-0.7-0.006-1.399,0.001-2.1-0.003C18.847,32.577,18.708,32.573,18.575,32.61z M18.569,36.958 c-0.551,0.135-0.924,0.756-0.765,1.305c0.114,0.472,0.573,0.821,1.057,0.813c0.738-0.001,1.477,0.006,2.215-0.003 c0.552-0.019,1.032-0.521,1.02-1.073c0.014-0.553-0.465-1.064-1.019-1.077c-0.678-0.006-1.355,0.001-2.033-0.001 C18.886,36.921,18.724,36.913,18.569,36.958z M44.629,36.958c-0.605,0.147-0.97,0.873-0.717,1.445 c0.16,0.399,0.577,0.677,1.008,0.672c0.718,0.001,1.437,0.001,2.154,0c0.572,0.014,1.101-0.498,1.081-1.075 c0.024-0.556-0.465-1.065-1.019-1.078c-0.678-0.004-1.355,0.001-2.033-0.001C44.944,36.922,44.783,36.913,44.629,36.958z M23.284,39.098c-0.008,4.336-0.006,8.672,0,13.008c6.456,0.002,12.912,0.002,19.367,0c0.006-4.336,0.008-8.671,0-13.008 C36.195,39.09,29.739,39.09,23.284,39.098z M18.575,41.298c-0.432,0.113-0.77,0.512-0.803,0.958 c-0.061,0.582,0.436,1.143,1.02,1.162c0.743,0.007,1.486,0.001,2.228,0.003c0.561,0.006,1.071-0.483,1.076-1.047 c0.029-0.562-0.45-1.088-1.013-1.107c-0.679-0.006-1.358,0.001-2.039-0.003C18.888,41.264,18.728,41.256,18.575,41.298z M44.635,41.3c-0.516,0.127-0.879,0.676-0.789,1.199c0.067,0.515,0.551,0.929,1.068,0.922c0.722,0,1.444,0,2.165,0 c0.559,0.007,1.08-0.481,1.075-1.047c0.038-0.563-0.449-1.093-1.011-1.107c-0.679-0.006-1.359,0.001-2.039-0.003 C44.947,41.264,44.787,41.256,44.635,41.3z M18.57,45.645c-0.518,0.132-0.885,0.686-0.786,1.214 c0.076,0.489,0.519,0.89,1.016,0.903c0.738,0.006,1.477,0,2.215,0.003c0.574,0.012,1.096-0.502,1.082-1.078 c0.015-0.554-0.466-1.061-1.019-1.076c-0.656-0.006-1.314,0.001-1.971-0.001C18.927,45.608,18.745,45.597,18.57,45.645z M44.629,45.646c-0.502,0.126-0.858,0.649-0.789,1.163c0.05,0.508,0.507,0.936,1.018,0.952c0.739,0.006,1.479,0,2.217,0.003 c0.572,0.009,1.107-0.498,1.08-1.078c0.024-0.556-0.465-1.064-1.019-1.077c-0.678-0.006-1.355,0.002-2.033-0.001 C44.944,45.606,44.783,45.602,44.629,45.646z M18.575,49.986c-0.432,0.111-0.77,0.51-0.803,0.957 c-0.06,0.581,0.435,1.147,1.02,1.161c0.743,0.008,1.486,0.002,2.228,0.003c0.561,0.009,1.071-0.484,1.076-1.048 c0.029-0.561-0.452-1.084-1.013-1.106c-0.679-0.006-1.358,0.001-2.039-0.003C18.888,49.95,18.728,49.944,18.575,49.986z M44.635,49.986c-0.48,0.12-0.836,0.608-0.8,1.102c0.019,0.529,0.483,0.999,1.016,1.016c0.742,0.008,1.485,0.002,2.228,0.003 c0.56,0.009,1.08-0.479,1.076-1.046c0.038-0.564-0.451-1.089-1.012-1.108c-0.679-0.006-1.359,0.001-2.039-0.003 C44.947,49.95,44.787,49.944,44.635,49.986z"/></g><g><path d="M68.775,27.044c3.65-0.196,7.357,0.792,10.412,2.805c2.021,1.317,3.762,3.063,5.08,5.084 c1.467,2.244,2.401,4.832,2.703,7.496c0.334,2.917-0.066,5.921-1.193,8.636c-0.945,2.314-2.41,4.412-4.238,6.118 c-1.779,1.654-3.906,2.939-6.207,3.725c-2.68,0.924-5.588,1.174-8.389,0.729c-2.555-0.396-5.015-1.382-7.143-2.85 c-2.786-1.912-4.995-4.654-6.265-7.786c-0.985-2.409-1.409-5.045-1.247-7.64c0.149-2.515,0.855-4.994,2.058-7.208 c1.11-2.053,2.639-3.878,4.463-5.333C61.627,28.559,65.168,27.218,68.775,27.044z M77.135,33.582 c-4.578,0.533-9.155,1.052-13.732,1.589c-0.007,4.437,0.004,8.875-0.004,13.313c-1.246-0.461-2.688-0.431-3.879,0.173 c-0.713,0.361-1.336,0.959-1.606,1.724c-0.27,0.738-0.155,1.597,0.283,2.247c0.403,0.628,1.043,1.077,1.733,1.342 c0.793,0.31,1.669,0.367,2.508,0.245c1.012-0.16,2.005-0.664,2.604-1.514c0.359-0.51,0.517-1.145,0.479-1.763 c-0.008-3.838,0.004-7.676-0.006-11.515c1.059-0.153,2.125-0.249,3.187-0.381c2.649-0.305,5.296-0.612,7.944-0.916 c0,2.905,0,5.809,0,8.714c-0.898-0.307-1.879-0.411-2.811-0.197c-0.945,0.207-1.867,0.718-2.4,1.545 c-0.392,0.589-0.521,1.344-0.342,2.03c0.172,0.651,0.6,1.22,1.146,1.611c0.821,0.599,1.861,0.857,2.869,0.811 c1.092-0.046,2.203-0.459,2.946-1.281c0.513-0.559,0.771-1.331,0.712-2.084c-0.004-3.676-0.001-7.353-0.002-11.029 c0.031-1.612-0.002-3.224-0.002-4.835C78.219,33.44,77.676,33.527,77.135,33.582z"/></g></g><text font-family="'HelveticaNeue-Bold'" font-size="3.704" transform="matrix(1 0 0 1 14.2593 84.4443)">Created by misirlou</text><text font-family="'HelveticaNeue-Bold'" font-size="3.704" transform="matrix(1 0 0 1 14.2593 88.1484)">from the Noun Project</text></svg>