<?xml version="1.0" encoding="UTF-8" standalone="no"?>
<svg width="49px" height="44px" viewBox="0 0 49 44" version="1.1" xmlns="http://www.w3.org/2000/svg" xmlns:xlink="http://www.w3.org/1999/xlink" xmlns:sketch="http://www.bohemiancoding.com/sketch/ns">
    <!-- Generator: Sketch 3.2.2 (9983) - http://www.bohemiancoding.com/sketch -->
    <title>Imported Layers 4</title>
    <desc>Created with Sketch.</desc>
    <defs></defs>
    <g id="Page-1" stroke="none" stroke-width="1" fill="none" fill-rule="evenodd" sketch:type="MSPage">
        <g id="Menu-options" sketch:type="MSArtboardGroup" transform="translate(-1099.000000, -1239.000000)" fill="#A3A3A3">
            <g id="Imported-Layers-4" sketch:type="MSLayerGroup" transform="translate(1123.045763, 1262.896964) rotate(-15.000000) translate(-1123.045763, -1262.896964) translate(1099.504710, 1243.715365)">
                <path d="M45.8353029,0.678331095 C45.4525428,0.453383251 44.9773623,0.447280015 44.5893709,0.66350895 C36.3552335,5.23832033 26.2430432,7.62381375 12.7609947,8.17048932 C12.087895,8.19751794 11.5577853,8.75116864 11.5577853,9.4233965 L11.5577853,22.4171861 C11.5577853,23.0902858 12.087895,23.6421928 12.7609947,23.6700933 C26.2430432,24.2167688 36.3552335,26.6022623 44.5893709,31.1779455 C44.7785712,31.2825724 44.9895688,31.3348859 45.1988226,31.3348859 C45.4185391,31.3348859 45.6382556,31.2773411 45.8335591,31.1613796 C46.2171911,30.9355599 46.4517297,30.5248993 46.4517297,30.0811068 L46.4517297,1.75947577 C46.4526016,1.31481143 46.218063,0.903278939 45.8353029,0.678331095" id="Fill-1" sketch:type="MSShapeGroup"></path>
                <path d="M7.92897555,8.23152168 C3.68984215,8.23152168 0.239769989,11.680722 0.239769989,15.9207272 C0.239769989,20.1598606 3.68897026,23.6090609 7.92897555,23.6090609 C8.62212879,23.6090609 9.18362651,23.0475632 9.18362651,22.3552818 L9.18362651,9.48617264 C9.18362651,8.7930194 8.62212879,8.23152168 7.92897555,8.23152168" id="Fill-2" sketch:type="MSShapeGroup"></path>
                <path d="M17.5790637,27.0364639 C17.368938,26.4200371 16.8056965,25.9945543 16.154394,25.9614225 L13.222225,25.8175605 C12.7034499,25.7948913 12.2003689,26.0241986 11.8830006,26.4392187 C11.5665042,26.8524949 11.4732119,27.3965548 11.6345117,27.8917889 L14.2676222,36.4990955 C14.4803635,37.1538855 15.0898152,37.5968061 15.7777371,37.5968061 L18.8206363,37.5968061 C18.8215082,37.5959342 18.8232519,37.5959342 18.8241238,37.5968061 C19.701246,37.5968061 20.4118371,36.8853431 20.4118371,36.0099647 C20.4118371,35.7885044 20.3664988,35.5792506 20.2862848,35.3883065 L17.5790637,27.0364639" id="Fill-3" sketch:type="MSShapeGroup"></path>
            </g>
        </g>
    </g>
</svg>