<?xml version="1.0" encoding="UTF-8" standalone="no"?>
<svg width="56px" height="48px" viewBox="0 0 56 48" version="1.1" xmlns="http://www.w3.org/2000/svg" xmlns:xlink="http://www.w3.org/1999/xlink" xmlns:sketch="http://www.bohemiancoding.com/sketch/ns">
    <!-- Generator: Sketch 3.2.2 (9983) - http://www.bohemiancoding.com/sketch -->
    <title>Imported Layers</title>
    <desc>Created with Sketch.</desc>
    <defs></defs>
    <g id="Page-1" stroke="none" stroke-width="1" fill="none" fill-rule="evenodd" sketch:type="MSPage">
        <g id="Menu-options" sketch:type="MSArtboardGroup" transform="translate(-262.000000, -1237.000000)" fill="#A2A2A2">
            <g id="Imported-Layers" sketch:type="MSLayerGroup" transform="translate(262.000000, 1237.000000)">
                <path d="M31.2868267,19.7403636 L31.2868267,19.6923636 C29.71584,19.6523636 28.1575467,19.2189091 27.25184,18.6203636 L27.9216,16.3469091 C28.89376,16.9003636 30.2997333,17.4167273 31.8154667,17.4167273 C33.3872,17.4167273 34.45792,16.6574545 34.45792,15.4930909 C34.45792,14.4087273 33.5828267,13.7047273 31.7445333,13.04 C29.11552,12.1185455 27.4213333,10.9527273 27.4213333,8.69090909 C27.4213333,6.60363636 28.92288,5.00509091 31.4391467,4.57163636 L31.4391467,2.18618182 L33.48352,2.18618182 L33.48352,4.448 C35.05824,4.48945455 36.12896,4.85527273 36.92192,5.248 L36.2544,7.48290909 C35.6548267,7.21309091 34.5549867,6.65745455 32.8608,6.65745455 C31.1210667,6.65745455 30.4938667,7.52363636 30.4938667,8.352 C30.4938667,9.35345455 31.3831467,9.90909091 33.5111467,10.736 C36.3096533,11.752 37.5461333,13.0669091 37.5461333,15.2341818 C37.5461333,17.2938182 36.0871467,19.1098182 33.33344,19.5585455 L33.33344,19.7403636 L35.8631467,19.7403636 C37.4677333,19.7403636 38.9117867,20.4029091 39.9332267,21.4574545 C42.7735467,19.28 44.5998933,15.9054545 44.5998933,12.1178182 C44.5998933,5.56 39.1335467,0.235636364 32.4008533,0.235636364 C25.6689067,0.235636364 20.2010667,5.56 20.2010667,12.1178182 C20.2010667,15.0181818 21.2725333,17.6763636 23.04736,19.7403636 L31.2868267,19.7403636" id="Fill-1" sketch:type="MSShapeGroup"></path>
                <path d="M51.3198933,20.1789091 L41.89472,29.3585455 L27.2436267,29.3585455 C26.9486933,29.3585455 26.70976,29.1265455 26.70976,28.8385455 L26.70976,28.32 C26.70976,28.032 26.9486933,27.8 27.2436267,27.8 L35.8624,27.8 C37.3378133,27.8 38.5317333,26.6349091 38.5317333,25.1992727 C38.5317333,23.7643636 37.3378133,22.6007273 35.8624,22.6007273 L14.8452267,22.6007273 C14.1373867,22.6007273 13.4586667,22.8749091 12.9584,23.3621818 L1.34997333,34.6690909 C0.81536,35.1905455 0.55552,35.8763636 0.569706667,36.5585455 C0.579413333,37.0334545 0.556266667,44.8661818 0.57344,45.2189091 C0.605546667,45.8392727 0.863146667,46.4494545 1.34997333,46.9229091 C1.8704,47.4305455 2.55285333,47.6836364 3.2368,47.6836364 C3.91925333,47.6836364 4.6032,47.4305455 5.12362667,46.9229091 L15.95104,36.3774545 L41.13088,36.3774545 C41.83872,36.3774545 42.51744,36.1047273 43.0184533,35.6167273 L55.0942933,23.8552727 C56.1358933,22.8392727 56.1358933,21.1941818 55.0935467,20.1789091 C54.0519467,19.1643636 52.3614933,19.1643636 51.3198933,20.1789091" id="Fill-2" sketch:type="MSShapeGroup"></path>
            </g>
        </g>
    </g>
</svg>