<?xml version="1.0" encoding="UTF-8" standalone="no"?>
<svg width="40px" height="48px" viewBox="0 0 40 48" version="1.1" xmlns="http://www.w3.org/2000/svg" xmlns:xlink="http://www.w3.org/1999/xlink" xmlns:sketch="http://www.bohemiancoding.com/sketch/ns">
    <!-- Generator: Sketch 3.2.2 (9983) - http://www.bohemiancoding.com/sketch -->
    <title>Imported Layers</title>
    <desc>Created with Sketch.</desc>
    <defs></defs>
    <g id="Page-1" stroke="none" stroke-width="1" fill="none" fill-rule="evenodd" sketch:type="MSPage">
        <g id="Menu-options" sketch:type="MSArtboardGroup" transform="translate(-702.000000, -1238.000000)" fill="#A3A3A3">
            <path d="M741.550175,1252.55634 C741.544561,1252.52549 741.532632,1252.49806 741.524211,1252.46926 C741.512982,1252.43497 741.504561,1252.4 741.491228,1252.36709 C741.477193,1252.3328 741.457544,1252.30194 741.439298,1252.26903 C741.424561,1252.24297 741.413333,1252.21623 741.395088,1252.19223 C741.357193,1252.136 741.314386,1252.08389 741.265965,1252.03589 L727.207719,1238.29897 C727.159298,1238.25166 727.105965,1238.20914 727.047719,1238.17143 C727.02386,1238.15497 726.997193,1238.14469 726.970526,1238.13029 C726.938246,1238.11177 726.905263,1238.09257 726.869474,1238.07817 C726.835789,1238.06446 726.800702,1238.05623 726.766316,1238.04663 C726.73614,1238.03771 726.707368,1238.02606 726.676491,1238.02057 C726.609123,1238.00754 726.540351,1238 726.472281,1238 L707.726316,1238 C707.152281,1238 706.686316,1238.45531 706.686316,1239.01623 L706.686316,1242.58057 L703.039298,1242.58057 C702.465965,1242.58057 702,1243.0352 702,1243.59611 L702,1284.81097 C702,1285.37189 702.465965,1285.8272 703.039298,1285.8272 L735.844912,1285.8272 C736.418246,1285.8272 736.884211,1285.37189 736.884211,1284.81097 L736.884211,1281.24663 L740.53193,1281.24663 C741.105965,1281.24663 741.571228,1280.792 741.571228,1280.2304 L741.571228,1252.7552 C741.570526,1252.688 741.563509,1252.62217 741.550175,1252.55634 L741.550175,1252.55634 Z M727.511579,1241.46903 L738.022456,1251.73897 L727.511579,1251.73897 L727.511579,1241.46903 L727.511579,1241.46903 Z M734.805614,1283.79611 L704.079298,1283.79611 L704.079298,1244.61234 L706.686316,1244.61234 L706.686316,1280.23109 C706.686316,1280.792 707.152281,1281.24731 707.726316,1281.24731 L734.805614,1281.24731 L734.805614,1283.79611 L734.805614,1283.79611 Z M739.491228,1279.21554 L708.764912,1279.21554 L708.764912,1240.03246 L725.431579,1240.03246 L725.431579,1242.58126 L712.412632,1242.58126 C711.838596,1242.58126 711.372632,1243.03589 711.372632,1243.5968 C711.372632,1244.15771 711.838596,1244.61234 712.412632,1244.61234 L725.432281,1244.61234 L725.432281,1247.15977 L712.412632,1247.15977 C711.838596,1247.15977 711.372632,1247.61509 711.372632,1248.176 C711.372632,1248.73691 711.838596,1249.19154 712.412632,1249.19154 L725.432281,1249.19154 L725.432281,1251.73966 L712.412632,1251.73966 C711.838596,1251.73966 711.372632,1252.19497 711.372632,1252.75589 C711.372632,1253.3168 711.838596,1253.77143 712.412632,1253.77143 L739.49193,1253.77143 L739.49193,1279.21554 L739.491228,1279.21554 L739.491228,1279.21554 Z M712.412632,1256.31817 L735.844912,1256.31817 C736.418246,1256.31817 736.884211,1256.7728 736.884211,1257.33371 C736.884211,1257.89463 736.418246,1258.34994 735.844912,1258.34994 L712.412632,1258.34994 C711.838596,1258.34994 711.372632,1257.89463 711.372632,1257.33371 C711.372632,1256.7728 711.838596,1256.31817 712.412632,1256.31817 L712.412632,1256.31817 Z M736.884211,1261.9136 C736.884211,1262.47451 736.418246,1262.92983 735.844912,1262.92983 L712.412632,1262.92983 C711.838596,1262.92983 711.372632,1262.47451 711.372632,1261.9136 C711.372632,1261.35337 711.838596,1260.89806 712.412632,1260.89806 L735.844912,1260.89806 C736.418246,1260.89806 736.884211,1261.35337 736.884211,1261.9136 L736.884211,1261.9136 Z M736.884211,1266.49349 C736.884211,1267.0544 736.418246,1267.50971 735.844912,1267.50971 L712.412632,1267.50971 C711.838596,1267.50971 711.372632,1267.0544 711.372632,1266.49349 C711.372632,1265.93257 711.838596,1265.47794 712.412632,1265.47794 L735.844912,1265.47794 C736.418246,1265.47794 736.884211,1265.93257 736.884211,1266.49349 L736.884211,1266.49349 Z M736.884211,1271.07269 C736.884211,1271.6336 736.418246,1272.08823 735.844912,1272.08823 L712.412632,1272.08823 C711.838596,1272.08823 711.372632,1271.6336 711.372632,1271.07269 C711.372632,1270.51177 711.838596,1270.05646 712.412632,1270.05646 L735.844912,1270.05646 C736.418246,1270.05646 736.884211,1270.51177 736.884211,1271.07269 L736.884211,1271.07269 Z M727.511579,1275.65257 C727.511579,1276.2128 727.046316,1276.66811 726.472281,1276.66811 L712.412632,1276.66811 C711.838596,1276.66811 711.372632,1276.2128 711.372632,1275.65257 C711.372632,1275.09166 711.838596,1274.63634 712.412632,1274.63634 L726.472281,1274.63634 C727.046316,1274.63634 727.511579,1275.09029 727.511579,1275.65257 L727.511579,1275.65257 Z" id="Imported-Layers" sketch:type="MSShapeGroup"></path>
        </g>
    </g>
</svg>