<?xml version="1.0" encoding="utf-8"?>
<!-- Generator: Adobe Illustrator 16.0.4, SVG Export Plug-In . SVG Version: 6.00 Build 0)  -->
<!DOCTYPE svg PUBLIC "-//W3C//DTD SVG 1.1//EN" "http://www.w3.org/Graphics/SVG/1.1/DTD/svg11.dtd">
<svg version="1.1" id="Layer_1" xmlns="http://www.w3.org/2000/svg" xmlns:xlink="http://www.w3.org/1999/xlink" x="0px" y="0px"
	 width="100px" height="100px" viewBox="0 0 100 100" enable-background="new 0 0 100 100" xml:space="preserve">
<path d="M75.434,15.575H61.487L49.141,6l-12.332,9.575h-0.097H22.241v11.138L11.87,34.821v45.013h74.259V34.789l-10.732-8.375
	L75.434,15.575z M16.821,35.552l5.42-4.208v7.163L16.821,35.552z M25.944,28.504v-0.896v-8.33h10.768h1.351h22.172h0.627h10.934
	l0.041,8.519h-0.15v12.949l-22.658,12.33L25.944,40.5V28.504z M75.389,30.989l5.883,4.562l-5.883,3.204V30.989z M49.143,10.63
	l6.376,4.945H42.773L49.143,10.63z M15.574,76.131V38.973L49,57.242l33.426-18.25v37.138H15.574z"/>
</svg>
