<?xml version="1.0" encoding="UTF-8" standalone="no"?>
<svg width="48px" height="48px" viewBox="0 0 48 48" version="1.1" xmlns="http://www.w3.org/2000/svg" xmlns:xlink="http://www.w3.org/1999/xlink" xmlns:sketch="http://www.bohemiancoding.com/sketch/ns">
    <!-- Generator: Sketch 3.2.2 (9983) - http://www.bohemiancoding.com/sketch -->
    <title>Imported Layers 5</title>
    <desc>Created with Sketch.</desc>
    <defs></defs>
    <g id="Page-1" stroke="none" stroke-width="1" fill="none" fill-rule="evenodd" sketch:type="MSPage">
        <g id="Menu-options" sketch:type="MSArtboardGroup" transform="translate(-262.000000, -985.000000)" fill="#A3A3A3">
            <path d="M306.633766,1020.47013 C308.628571,1016.97922 309.750649,1012.98961 309.750649,1008.75065 C309.750649,1004.51169 308.628571,1000.45974 306.633766,997.031169 C306.571429,996.906494 306.509091,996.844156 306.446753,996.781818 C302.332468,989.737662 294.664935,985 285.875325,985 C277.148052,985 269.480519,989.737662 265.303896,996.781818 C265.241558,996.844156 265.179221,996.968831 265.116883,997.031169 C263.122078,1000.45974 262,1004.44935 262,1008.75065 C262,1021.9039 272.65974,1032.56364 285.812987,1032.56364 C294.54026,1032.56364 302.207792,1027.82597 306.384416,1020.78182 C306.509091,1020.65714 306.571429,1020.59481 306.633766,1020.47013 L306.633766,1020.47013 Z M264.431169,1009.87273 L272.472727,1009.87273 C272.597403,1012.98961 273.220779,1016.04416 274.218182,1018.91169 L266.924675,1018.91169 C265.490909,1016.16883 264.618182,1013.11429 264.431169,1009.87273 L264.431169,1009.87273 Z M266.924675,998.58961 L274.218182,998.58961 C273.158442,1001.45714 272.597403,1004.44935 272.472727,1007.56623 L264.431169,1007.56623 C264.618182,1004.32468 265.490909,1001.27013 266.924675,998.58961 L266.924675,998.58961 Z M307.381818,1007.56623 L299.464935,1007.56623 C299.34026,1004.44935 298.716883,1001.45714 297.719481,998.58961 L304.888312,998.58961 C306.322078,1001.27013 307.194805,1004.32468 307.381818,1007.56623 L307.381818,1007.56623 Z M297.158442,1007.56623 L287.05974,1007.56623 L287.05974,998.58961 L295.225974,998.58961 C296.348052,1001.39481 297.033766,1004.38701 297.158442,1007.56623 L297.158442,1007.56623 Z M287.05974,996.283117 L287.05974,987.555844 C290.051948,989.987013 292.483117,992.916883 294.166234,996.220779 L287.05974,996.220779 L287.05974,996.283117 L287.05974,996.283117 Z M284.753247,987.680519 L284.753247,996.220779 L277.771429,996.220779 C279.454545,992.979221 281.823377,990.111688 284.753247,987.680519 L284.753247,987.680519 Z M284.753247,998.58961 L284.753247,1007.56623 L274.779221,1007.56623 C274.903896,1004.44935 275.58961,1001.39481 276.711688,998.58961 L284.753247,998.58961 L284.753247,998.58961 Z M274.779221,1009.87273 L284.753247,1009.87273 L284.753247,1018.91169 L276.711688,1018.91169 C275.58961,1016.04416 274.903896,1012.98961 274.779221,1009.87273 L274.779221,1009.87273 Z M284.753247,1021.21818 L284.753247,1029.75844 C281.823377,1027.38961 279.454545,1024.45974 277.771429,1021.21818 L284.753247,1021.21818 L284.753247,1021.21818 Z M287.05974,1029.88312 L287.05974,1021.21818 L294.166234,1021.21818 C292.420779,1024.52208 290.051948,1027.45195 287.05974,1029.88312 L287.05974,1029.88312 Z M287.05974,1018.91169 L287.05974,1009.87273 L297.158442,1009.87273 C297.033766,1013.05195 296.348052,1016.10649 295.225974,1018.91169 L287.05974,1018.91169 L287.05974,1018.91169 Z M299.464935,1009.87273 L307.381818,1009.87273 C307.194805,1013.11429 306.322078,1016.23117 304.825974,1018.91169 L297.719481,1018.91169 C298.716883,1016.04416 299.34026,1012.98961 299.464935,1009.87273 L299.464935,1009.87273 Z M303.454545,996.283117 L296.722078,996.283117 C295.288312,993.166234 293.231169,990.236364 290.737662,987.805195 C295.911688,988.98961 300.4,992.044156 303.454545,996.283117 L303.454545,996.283117 Z M281.262338,987.742857 C278.706494,990.236364 276.711688,993.103896 275.215584,996.283117 L268.358442,996.283117 C271.412987,991.981818 275.963636,988.864935 281.262338,987.742857 L281.262338,987.742857 Z M268.358442,1021.21818 L275.153247,1021.21818 C276.649351,1024.3974 278.644156,1027.26494 281.2,1029.75844 C275.963636,1028.57403 271.412987,1025.45714 268.358442,1021.21818 L268.358442,1021.21818 Z M290.737662,1029.6961 C293.231169,1027.2026 295.288312,1024.33506 296.722078,1021.21818 L303.392208,1021.21818 C300.4,1025.39481 295.911688,1028.51169 290.737662,1029.6961 L290.737662,1029.6961 Z" id="Imported-Layers-5" sketch:type="MSShapeGroup"></path>
        </g>
    </g>
</svg>