<?xml version="1.0" encoding="UTF-8" standalone="no"?>
<svg width="50px" height="48px" viewBox="0 0 50 48" version="1.1" xmlns="http://www.w3.org/2000/svg" xmlns:xlink="http://www.w3.org/1999/xlink" xmlns:sketch="http://www.bohemiancoding.com/sketch/ns">
    <!-- Generator: Sketch 3.2.2 (9983) - http://www.bohemiancoding.com/sketch -->
    <title>Imported Layers</title>
    <desc>Created with Sketch.</desc>
    <defs></defs>
    <g id="Page-1" stroke="none" stroke-width="1" fill="none" fill-rule="evenodd" sketch:type="MSPage">
        <g id="Menu-options" sketch:type="MSArtboardGroup" transform="translate(-1085.000000, -992.000000)" fill="#B0B0B0">
            <g id="Imported-Layers" sketch:type="MSLayerGroup" transform="translate(1085.000000, 992.000000)">
                <path d="M25.2516949,0.0620689655 C11.7389831,0.0620689655 0.78559322,10.7586207 0.78559322,23.9536552 C0.78559322,31.4838621 4.3559322,38.1955862 9.92966102,42.5751724 L0.78559322,47.8468966 L25.2516949,47.8468966 C38.7627119,47.8468966 49.7169492,37.1495172 49.7169492,23.9536552 C49.7169492,10.7586207 38.7627119,0.0620689655 25.2516949,0.0620689655 L25.2516949,0.0620689655 Z M25.25,45.7208276 L8.90508475,45.7208276 L14.0788136,42.7870345 C7.43389831,39.0190345 2.96186441,31.9986207 2.96186441,23.9536552 C2.96186441,11.9321379 12.940678,2.18813793 25.25,2.18813793 C37.5601695,2.18813793 47.540678,11.9321379 47.540678,23.9536552 C47.540678,35.9751724 37.5601695,45.7208276 25.25,45.7208276 L25.25,45.7208276 Z" id="Fill-1" sketch:type="MSShapeGroup"></path>
                <path d="M28.1169492,13.4507586 C28.1169492,11.9056552 26.8338983,10.6518621 25.25,10.6518621 C23.6669492,10.6518621 22.3838983,11.9048276 22.3838983,13.4507586 C22.3838983,13.5542069 22.390678,13.6551724 22.4008475,13.7553103 L23.2644068,28.7089655 C23.2644068,29.7798621 24.1533898,30.6496552 25.2516949,30.6496552 C26.3491525,30.6496552 27.2381356,29.7798621 27.2381356,28.7089655 L28.1,13.7544828 C28.1110169,13.6551724 28.1169492,13.5542069 28.1169492,13.4507586" id="Fill-2" sketch:type="MSShapeGroup"></path>
                <path d="M25.2516949,32.577931 C26.5737288,32.577931 27.6466102,33.6256552 27.6466102,34.9175172 C27.6466102,36.2093793 26.5737288,37.2571034 25.2516949,37.2571034 C23.9279661,37.2571034 22.8559322,36.2093793 22.8559322,34.9175172 C22.8559322,33.6256552 23.9279661,32.577931 25.2516949,32.577931" id="Fill-3" sketch:type="MSShapeGroup"></path>
            </g>
        </g>
    </g>
</svg>