<?xml version="1.0" encoding="UTF-8" standalone="no"?>
<svg width="60px" height="49px" viewBox="0 0 60 49" version="1.1" xmlns="http://www.w3.org/2000/svg" xmlns:xlink="http://www.w3.org/1999/xlink" xmlns:sketch="http://www.bohemiancoding.com/sketch/ns">
    <!-- Generator: Sketch 3.2.2 (9983) - http://www.bohemiancoding.com/sketch -->
    <title>Imported Layers</title>
    <desc>Created with Sketch.</desc>
    <defs></defs>
    <g id="Page-1" stroke="none" stroke-width="1" fill="none" fill-rule="evenodd" sketch:type="MSPage">
        <g id="Menu-options" sketch:type="MSArtboardGroup" transform="translate(-689.000000, -984.000000)" stroke="#A1A1A1" fill="#000000">
            <path d="M719,985 C703.009422,985 690,997.890348 690,1013.73357 C690,1020.67695 692.539896,1027.38275 697.150696,1032.61695 L697.48837,1033 L697.662101,1032.52159 C698.650654,1029.80873 701.958065,1027.81509 704.980003,1026.16006 L705.236113,1026.02106 C706.187962,1025.49821 707.959527,1024.52604 709.61201,1023.86984 C709.789003,1023.79873 709.9766,1023.72761 710.16909,1023.65488 C711.806891,1023.03748 713.071129,1022.4524 713.209788,1021.03657 C713.327239,1019.83247 712.722036,1019.07364 711.956152,1018.11117 C711.766109,1017.87277 711.567909,1017.62468 711.37134,1017.358 C708.28252,1013.15011 706.938349,1008.79191 707.25971,1004.03288 C707.673239,997.917016 711.558121,993.704278 717.397272,993.038386 C718.01471,992.968079 718.628885,992.931714 719.221853,992.931714 C722.711152,992.931714 725.664576,994.122077 727.760765,996.37512 C730.13998,998.932017 731.206834,1002.61382 730.847138,1007.02374 C730.64486,1009.4974 729.645704,1012.57311 728.239544,1015.04919 C727.885558,1015.67468 727.399437,1016.30017 726.918211,1016.9208 C725.697202,1018.49341 724.541443,1019.97793 725.021853,1021.79297 C725.326086,1022.93161 727.37089,1023.76721 729.443426,1024.52684 L729.501336,1024.54705 C729.907524,1024.69736 730.263957,1024.82827 730.531486,1024.94464 C733.471045,1026.22309 738.943158,1028.60059 740.373787,1032.4828 L740.549149,1032.95959 L740.885192,1032.57654 C745.473154,1027.34961 748,1020.65837 748,1013.73438 C748.000816,997.890348 734.990578,985 719,985 L719,985 Z M740.749796,1031.81287 C738.995359,1027.97106 733.681479,1025.65902 730.775362,1024.39674 C730.499677,1024.27633 730.131824,1024.14056 729.710955,1023.98621 L729.648966,1023.96358 C728.323555,1023.47709 725.855435,1022.57361 725.60585,1021.64023 C725.201294,1020.10965 726.268148,1018.73827 727.409225,1017.26991 C727.892083,1016.64766 728.390437,1016.0052 728.766446,1015.34173 C730.213388,1012.79534 731.240276,1009.62589 731.447448,1007.07142 C731.821825,1002.49098 730.701139,998.651599 728.203656,995.969443 C725.990015,993.590333 722.883251,992.333704 719.221038,992.333704 C718.604416,992.333704 717.967403,992.370877 717.327127,992.443608 C711.179665,993.14425 707.090873,997.570332 706.656138,1003.99328 C706.324989,1008.89777 707.70668,1013.38446 710.881958,1017.70953 C711.084236,1017.98268 711.286514,1018.23804 711.481451,1018.4829 C712.216341,1019.40416 712.701645,1020.01349 712.607031,1020.97838 C712.500998,1022.05561 711.487161,1022.51543 709.952946,1023.09485 C709.757193,1023.16839 709.565518,1023.24112 709.385262,1023.31385 C707.698523,1023.98379 705.905752,1024.96727 704.942483,1025.49659 L704.686373,1025.6364 C701.737027,1027.25102 698.521783,1029.18728 697.285276,1031.85408 C692.973,1026.78474 690.604388,1020.36906 690.604388,1013.73276 C690.604388,998.219253 703.342202,985.59801 719,985.59801 C734.657798,985.59801 747.396428,998.220062 747.396428,1013.73357 C747.396428,1020.35128 745.039235,1026.7508 740.749796,1031.81287 L740.749796,1031.81287 Z" id="Imported-Layers" sketch:type="MSShapeGroup"></path>
        </g>
    </g>
</svg>